<svg id="svg" version="1.1" width="500" height="500" xmlns="http://www.w3.org/2000/svg" xmlns:xlink="http://www.w3.org/1999/xlink" style="display: block;"><g id="svgg"><path id="path0" d="" stroke="none" fill="#ffffff" fill-rule="evenodd"></path><path id="path1" d="" stroke="none" fill="#00ffff" fill-rule="evenodd"></path><path id="path2" d="" stroke="none" fill="#0080ff" fill-rule="evenodd"></path><path id="path3" d="M164.801 0.902 C 161.501 1.284,158.681 1.957,158.534 2.398 C 158.387 2.839,156.342 3.200,153.990 3.200 C 151.256 3.200,149.282 3.633,148.514 4.400 C 147.841 5.074,145.886 5.600,144.057 5.600 C 141.695 5.600,140.800 5.930,140.800 6.800 C 140.800 7.668,139.908 8.000,137.575 8.000 C 135.446 8.000,134.193 8.408,133.889 9.200 C 133.603 9.947,132.383 10.400,130.657 10.400 C 129.133 10.400,127.346 10.940,126.686 11.600 C 126.026 12.260,124.833 12.800,124.034 12.800 C 123.236 12.800,121.578 13.322,120.349 13.959 C 119.120 14.597,117.816 14.934,117.452 14.708 C 117.087 14.483,116.573 14.861,116.309 15.549 C 116.045 16.237,114.956 16.800,113.889 16.800 C 112.823 16.800,111.743 17.340,111.489 18.000 C 111.236 18.660,110.167 19.200,109.114 19.200 C 107.946 19.200,107.200 19.668,107.200 20.400 C 107.200 21.200,106.400 21.600,104.800 21.600 C 103.200 21.600,102.400 22.000,102.400 22.800 C 102.400 23.547,101.644 24.000,100.400 24.000 C 99.300 24.000,98.400 24.360,98.400 24.800 C 98.400 25.240,97.849 25.600,97.175 25.600 C 96.501 25.600,95.743 26.140,95.489 26.800 C 95.236 27.460,94.336 28.000,93.489 28.000 C 92.643 28.000,91.755 28.508,91.517 29.128 C 91.279 29.748,90.210 30.475,89.142 30.743 C 88.074 31.011,87.200 31.584,87.200 32.015 C 87.200 32.447,86.823 32.800,86.362 32.800 C 85.901 32.800,84.731 33.650,83.762 34.689 C 82.793 35.728,81.100 36.859,80.000 37.204 C 78.900 37.548,76.650 39.218,75.001 40.915 C 73.351 42.612,71.629 44.000,71.174 44.000 C 70.719 44.000,69.290 45.080,68.000 46.400 C 66.710 47.720,65.430 48.800,65.156 48.800 C 64.358 48.800,57.600 55.983,57.600 56.831 C 57.600 57.254,57.254 57.600,56.831 57.600 C 55.983 57.600,48.800 64.358,48.800 65.156 C 48.800 65.430,47.720 66.710,46.400 68.000 C 45.080 69.290,44.000 70.719,44.000 71.174 C 44.000 71.629,42.644 73.351,40.986 75.001 C 39.328 76.650,37.258 79.390,36.386 81.088 C 35.514 82.786,34.350 84.355,33.800 84.573 C 33.250 84.792,32.800 85.434,32.800 86.000 C 32.800 86.566,32.260 87.236,31.600 87.489 C 30.940 87.743,30.400 88.681,30.400 89.575 C 30.400 90.469,30.060 91.200,29.644 91.200 C 28.897 91.200,26.924 94.278,25.927 97.000 C 25.644 97.770,25.095 98.400,24.707 98.400 C 24.318 98.400,24.000 99.300,24.000 100.400 C 24.000 101.644,23.547 102.400,22.800 102.400 C 22.000 102.400,21.600 103.200,21.600 104.800 C 21.600 106.400,21.200 107.200,20.400 107.200 C 19.668 107.200,19.200 107.946,19.200 109.114 C 19.200 110.167,18.660 111.236,18.000 111.489 C 17.340 111.743,16.800 112.823,16.800 113.889 C 16.800 114.956,16.260 116.036,15.600 116.289 C 14.940 116.543,14.400 117.661,14.400 118.775 C 14.400 119.889,14.086 120.800,13.702 120.800 C 13.318 120.800,12.774 122.240,12.493 124.000 C 12.211 125.760,11.625 127.200,11.191 127.200 C 10.756 127.200,10.400 128.471,10.400 130.025 C 10.400 131.798,9.953 133.022,9.200 133.311 C 8.385 133.623,8.000 134.900,8.000 137.286 C 8.000 139.876,7.685 140.800,6.800 140.800 C 5.951 140.800,5.593 141.678,5.575 143.800 C 5.561 145.450,5.021 147.499,4.375 148.353 C 3.729 149.207,3.200 151.385,3.200 153.193 C 3.200 155.001,2.824 156.856,2.364 157.316 C -0.884 160.564,-0.878 240.374,2.370 241.457 C 2.827 241.609,3.200 243.658,3.200 246.010 C 3.200 248.744,3.633 250.718,4.400 251.486 C 5.074 252.159,5.600 254.114,5.600 255.943 C 5.600 258.305,5.930 259.200,6.800 259.200 C 7.668 259.200,8.000 260.092,8.000 262.425 C 8.000 264.554,8.408 265.807,9.200 266.111 C 9.976 266.409,10.400 267.648,10.400 269.619 C 10.400 271.295,10.764 272.788,11.208 272.936 C 11.652 273.084,12.164 273.973,12.345 274.912 C 12.671 276.607,12.900 277.147,15.465 282.265 C 16.199 283.730,16.800 285.632,16.800 286.490 C 16.800 287.348,17.340 288.257,18.000 288.511 C 18.660 288.764,19.200 289.833,19.200 290.886 C 19.200 292.054,19.668 292.800,20.400 292.800 C 21.151 292.800,21.600 293.558,21.600 294.825 C 21.600 295.939,22.140 297.057,22.800 297.311 C 23.460 297.564,24.000 298.468,24.000 299.321 C 24.000 300.173,24.900 301.840,26.000 303.027 C 27.100 304.213,28.000 305.829,28.000 306.617 C 28.000 307.405,28.540 308.257,29.200 308.511 C 29.860 308.764,30.400 309.434,30.400 310.000 C 30.400 310.566,30.940 311.236,31.600 311.489 C 32.260 311.743,32.800 312.681,32.800 313.575 C 32.800 314.486,33.327 315.200,34.000 315.200 C 34.660 315.200,35.200 315.740,35.200 316.400 C 35.200 317.060,35.521 317.600,35.913 317.600 C 36.306 317.600,36.855 318.509,37.134 319.620 C 37.413 320.732,39.612 323.596,42.020 325.986 C 44.429 328.375,46.400 330.720,46.400 331.196 C 46.400 331.673,47.840 333.517,49.600 335.295 C 51.360 337.072,52.800 338.858,52.800 339.263 C 52.800 339.669,53.340 340.000,54.000 340.000 C 54.660 340.000,55.200 340.540,55.200 341.200 C 55.200 341.860,55.740 342.400,56.400 342.400 C 57.060 342.400,57.600 342.940,57.600 343.600 C 57.600 344.260,57.960 344.800,58.400 344.800 C 59.438 344.800,62.400 347.762,62.400 348.800 C 62.400 349.240,62.776 349.600,63.235 349.600 C 63.694 349.600,65.040 350.500,66.227 351.600 C 67.413 352.700,69.017 353.600,69.792 353.600 C 70.566 353.600,71.200 353.975,71.200 354.433 C 71.200 355.959,79.720 363.200,81.515 363.200 C 82.002 363.200,82.400 363.560,82.400 364.000 C 82.400 364.440,82.940 364.800,83.600 364.800 C 84.260 364.800,84.800 365.340,84.800 366.000 C 84.800 366.747,85.556 367.200,86.800 367.200 C 87.900 367.200,88.804 367.650,88.809 368.200 C 88.814 368.750,90.344 369.914,92.209 370.787 C 94.074 371.661,95.888 372.831,96.240 373.387 C 96.592 373.944,97.552 374.400,98.373 374.400 C 99.195 374.400,99.987 374.670,100.133 375.000 C 100.280 375.330,102.102 376.431,104.182 377.447 C 106.262 378.463,108.173 379.633,108.429 380.047 C 108.685 380.461,109.439 380.800,110.104 380.800 C 110.770 380.800,111.854 381.340,112.514 382.000 C 113.174 382.660,114.769 383.200,116.057 383.200 C 117.606 383.200,118.400 383.607,118.400 384.400 C 118.400 385.139,119.150 385.600,120.353 385.600 C 121.427 385.600,122.509 385.929,122.757 386.330 C 123.005 386.732,124.648 387.304,126.408 387.601 C 128.167 387.899,129.404 388.470,129.156 388.871 C 128.908 389.272,129.833 389.600,131.210 389.600 C 132.587 389.600,134.254 390.140,134.914 390.800 C 135.574 391.460,137.304 392.000,138.759 392.000 C 140.214 392.000,141.852 392.540,142.400 393.200 C 142.948 393.860,144.702 394.411,146.298 394.425 C 147.894 394.439,149.899 394.979,150.753 395.625 C 151.658 396.310,154.049 396.800,156.486 396.800 C 158.785 396.800,160.787 397.161,160.934 397.602 C 161.984 400.753,235.548 400.772,238.698 397.622 C 239.150 397.170,241.204 396.800,243.262 396.800 C 245.612 396.800,247.374 396.354,248.000 395.600 C 248.636 394.833,250.405 394.400,252.898 394.400 C 255.833 394.400,256.800 394.103,256.800 393.200 C 256.800 392.311,257.733 392.000,260.400 392.000 C 263.067 392.000,264.000 391.689,264.000 390.800 C 264.000 389.933,264.889 389.600,267.200 389.600 C 268.960 389.600,270.400 389.244,270.400 388.809 C 270.400 388.375,271.840 387.789,273.600 387.507 C 275.360 387.226,276.800 386.682,276.800 386.298 C 276.800 385.914,277.711 385.600,278.825 385.600 C 279.939 385.600,281.057 385.060,281.311 384.400 C 281.573 383.716,282.766 383.200,284.086 383.200 C 285.610 383.200,286.400 382.790,286.400 382.000 C 286.400 381.249,287.158 380.800,288.425 380.800 C 289.539 380.800,290.657 380.260,290.911 379.600 C 291.164 378.940,292.233 378.400,293.286 378.400 C 294.454 378.400,295.200 377.932,295.200 377.200 C 295.200 376.400,296.000 376.000,297.600 376.000 C 298.920 376.000,300.000 375.679,300.000 375.287 C 300.000 374.894,300.900 374.348,302.000 374.071 C 303.100 373.795,304.000 373.216,304.000 372.785 C 304.000 372.353,304.540 372.000,305.200 372.000 C 305.860 372.000,306.400 371.460,306.400 370.800 C 306.400 370.049,307.158 369.600,308.425 369.600 C 309.539 369.600,310.657 369.060,310.911 368.400 C 311.164 367.740,311.834 367.200,312.400 367.200 C 312.966 367.200,313.636 366.660,313.889 366.000 C 314.143 365.340,314.950 364.800,315.683 364.800 C 316.417 364.800,317.801 363.990,318.760 363.000 C 320.804 360.889,323.043 359.341,325.000 358.683 C 325.770 358.425,326.400 357.715,326.400 357.107 C 326.400 356.498,326.940 356.000,327.600 356.000 C 328.260 356.000,328.800 355.460,328.800 354.800 C 328.800 354.140,329.209 353.600,329.708 353.600 C 330.208 353.600,331.451 352.700,332.470 351.600 C 333.490 350.500,334.701 349.600,335.162 349.600 C 335.623 349.600,336.000 349.060,336.000 348.400 C 336.000 347.740,336.471 347.200,337.046 347.200 C 338.300 347.200,347.200 338.165,347.200 336.892 C 347.200 336.401,347.740 336.000,348.400 336.000 C 349.060 336.000,349.600 335.623,349.600 335.162 C 349.600 334.701,350.500 333.490,351.600 332.470 C 352.700 331.451,353.600 330.208,353.600 329.708 C 353.600 329.209,354.140 328.800,354.800 328.800 C 355.460 328.800,356.000 328.260,356.000 327.600 C 356.000 326.940,356.498 326.400,357.107 326.400 C 357.715 326.400,358.425 325.770,358.683 325.000 C 359.341 323.043,360.889 320.804,363.000 318.760 C 363.990 317.801,364.800 316.417,364.800 315.683 C 364.800 314.950,365.340 314.143,366.000 313.889 C 366.660 313.636,367.200 312.966,367.200 312.400 C 367.200 311.834,367.740 311.164,368.400 310.911 C 369.060 310.657,369.600 309.539,369.600 308.425 C 369.600 307.158,370.049 306.400,370.800 306.400 C 371.460 306.400,372.000 305.860,372.000 305.200 C 372.000 304.540,372.353 304.000,372.785 304.000 C 373.216 304.000,373.795 303.100,374.071 302.000 C 374.348 300.900,374.894 300.000,375.287 300.000 C 375.679 300.000,376.000 298.920,376.000 297.600 C 376.000 296.000,376.400 295.200,377.200 295.200 C 377.932 295.200,378.400 294.454,378.400 293.286 C 378.400 292.233,378.940 291.164,379.600 290.911 C 380.260 290.657,380.800 289.577,380.800 288.511 C 380.800 287.444,381.340 286.364,382.000 286.111 C 382.660 285.857,383.200 284.777,383.200 283.711 C 383.200 282.644,383.740 281.564,384.400 281.311 C 385.060 281.057,385.600 279.939,385.600 278.825 C 385.600 277.711,385.914 276.800,386.298 276.800 C 386.682 276.800,387.226 275.360,387.507 273.600 C 387.789 271.840,388.375 270.400,388.809 270.400 C 389.244 270.400,389.600 268.960,389.600 267.200 C 389.600 264.889,389.933 264.000,390.800 264.000 C 391.685 264.000,392.000 263.076,392.000 260.486 C 392.000 258.100,392.385 256.823,393.200 256.511 C 394.016 256.198,394.400 254.920,394.400 252.523 C 394.400 250.364,394.865 248.610,395.600 248.000 C 396.354 247.374,396.800 245.612,396.800 243.262 C 396.800 241.204,397.174 239.146,397.632 238.688 C 400.744 235.576,400.735 164.415,397.622 161.302 C 397.170 160.850,396.800 158.598,396.800 156.297 C 396.800 153.646,396.361 151.675,395.600 150.914 C 394.926 150.241,394.400 148.286,394.400 146.457 C 394.400 144.095,394.070 143.200,393.200 143.200 C 392.316 143.200,392.000 142.278,392.000 139.698 C 392.000 137.561,391.532 135.808,390.800 135.200 C 390.140 134.652,389.600 133.322,389.600 132.245 C 389.600 131.167,389.060 129.746,388.400 129.086 C 387.740 128.426,387.200 126.853,387.200 125.590 C 387.200 124.327,386.840 123.072,386.400 122.800 C 385.960 122.528,385.600 121.596,385.600 120.728 C 385.600 119.860,385.060 118.943,384.400 118.689 C 383.733 118.433,383.200 117.245,383.200 116.012 C 383.200 114.793,382.660 113.348,382.000 112.800 C 381.340 112.252,380.800 111.117,380.800 110.277 C 380.800 109.437,380.260 108.543,379.600 108.289 C 378.940 108.036,378.400 107.302,378.400 106.657 C 378.400 106.013,377.860 104.946,377.200 104.286 C 376.540 103.626,376.000 102.391,376.000 101.543 C 376.000 100.694,375.640 100.000,375.200 100.000 C 374.760 100.000,374.400 99.486,374.400 98.857 C 374.400 98.229,373.907 97.222,373.306 96.620 C 372.704 96.018,371.959 94.732,371.652 93.763 C 371.344 92.793,370.756 92.000,370.346 92.000 C 369.936 92.000,369.600 91.280,369.600 90.400 C 369.600 89.511,369.067 88.800,368.400 88.800 C 367.727 88.800,367.200 88.086,367.200 87.175 C 367.200 86.281,366.660 85.343,366.000 85.089 C 365.340 84.836,364.800 84.282,364.800 83.857 C 364.800 83.433,364.350 82.584,363.800 81.971 C 361.527 79.436,360.800 78.435,360.796 77.834 C 360.790 76.845,355.382 71.200,354.441 71.200 C 353.978 71.200,353.600 70.660,353.600 70.000 C 353.600 69.340,353.264 68.800,352.854 68.800 C 352.444 68.800,351.872 68.056,351.583 67.147 C 350.872 64.905,333.877 48.000,332.335 48.000 C 331.659 48.000,331.328 47.640,331.600 47.200 C 331.872 46.760,331.353 46.400,330.447 46.400 C 329.541 46.400,328.800 46.025,328.800 45.567 C 328.800 44.041,320.280 36.800,318.485 36.800 C 317.998 36.800,317.600 36.440,317.600 36.000 C 317.600 35.560,317.099 35.200,316.486 35.200 C 315.873 35.200,315.164 34.660,314.911 34.000 C 314.657 33.340,313.719 32.800,312.825 32.800 C 311.914 32.800,311.200 32.273,311.200 31.600 C 311.200 30.940,310.814 30.400,310.343 30.400 C 309.871 30.400,308.946 29.860,308.286 29.200 C 307.626 28.540,306.430 28.000,305.628 28.000 C 304.827 28.000,303.964 27.460,303.711 26.800 C 303.457 26.140,302.519 25.600,301.625 25.600 C 300.731 25.600,300.000 25.240,300.000 24.800 C 300.000 24.360,299.319 24.000,298.486 24.000 C 297.653 24.000,296.764 23.460,296.511 22.800 C 296.257 22.140,295.357 21.600,294.511 21.600 C 293.664 21.600,292.764 21.060,292.511 20.400 C 292.257 19.740,291.293 19.200,290.368 19.200 C 289.443 19.200,288.146 18.660,287.486 18.000 C 286.826 17.340,285.636 16.800,284.841 16.800 C 284.046 16.800,282.948 16.260,282.400 15.600 C 281.852 14.940,280.548 14.400,279.502 14.400 C 278.456 14.400,277.600 14.040,277.600 13.600 C 277.600 13.160,276.744 12.800,275.698 12.800 C 274.652 12.800,273.348 12.260,272.800 11.600 C 272.252 10.940,270.627 10.400,269.188 10.400 C 267.600 10.400,266.390 9.928,266.111 9.200 C 265.810 8.415,264.563 8.000,262.511 8.000 C 260.458 8.000,259.212 7.585,258.911 6.800 C 258.588 5.958,257.274 5.600,254.511 5.600 C 251.747 5.600,250.434 5.242,250.111 4.400 C 249.789 3.562,248.483 3.200,245.785 3.200 C 243.659 3.200,241.537 2.817,241.068 2.348 C 238.915 0.195,180.479 -0.913,164.801 0.902 M222.114 18.000 C 222.963 18.849,225.034 19.200,229.190 19.200 C 232.911 19.200,235.179 19.538,235.374 20.121 C 235.542 20.627,237.739 21.213,240.255 21.421 C 242.771 21.630,245.024 22.115,245.262 22.500 C 245.500 22.885,247.255 23.200,249.162 23.200 C 251.506 23.200,252.778 23.589,253.089 24.400 C 253.393 25.192,254.646 25.600,256.775 25.600 C 259.108 25.600,260.000 25.932,260.000 26.800 C 260.000 27.640,260.847 28.000,262.825 28.000 C 264.598 28.000,265.822 28.447,266.111 29.200 C 266.364 29.860,267.458 30.400,268.543 30.400 C 269.627 30.400,271.054 30.940,271.714 31.600 C 272.374 32.260,273.609 32.800,274.457 32.800 C 275.306 32.800,276.000 33.160,276.000 33.600 C 276.000 34.040,276.856 34.400,277.902 34.400 C 278.948 34.400,280.252 34.940,280.800 35.600 C 281.348 36.260,282.433 36.800,283.212 36.800 C 283.991 36.800,284.836 37.340,285.089 38.000 C 285.343 38.660,286.243 39.200,287.089 39.200 C 287.936 39.200,288.836 39.740,289.089 40.400 C 289.343 41.060,290.461 41.600,291.575 41.600 C 292.689 41.600,293.600 41.943,293.600 42.362 C 293.600 42.782,294.843 43.715,296.363 44.436 C 297.883 45.157,299.547 46.254,300.061 46.874 C 300.575 47.493,301.683 48.000,302.523 48.000 C 303.363 48.000,304.257 48.540,304.511 49.200 C 304.764 49.860,305.473 50.400,306.086 50.400 C 306.699 50.400,307.200 50.940,307.200 51.600 C 307.200 52.260,307.740 52.800,308.400 52.800 C 309.060 52.800,309.600 53.136,309.600 53.546 C 309.600 53.956,310.376 54.539,311.325 54.840 C 312.274 55.141,313.845 56.245,314.817 57.294 C 315.788 58.342,316.992 59.200,317.492 59.200 C 317.991 59.200,318.400 59.581,318.400 60.047 C 318.400 60.512,320.070 62.402,322.112 64.247 C 326.831 68.510,331.490 73.169,335.753 77.888 C 337.598 79.930,339.488 81.600,339.953 81.600 C 340.419 81.600,340.800 82.009,340.800 82.508 C 340.800 83.008,341.700 84.251,342.800 85.270 C 343.900 86.290,344.800 87.692,344.800 88.387 C 344.800 89.082,345.340 89.857,346.000 90.111 C 346.660 90.364,347.200 91.073,347.200 91.686 C 347.200 92.299,347.740 92.800,348.400 92.800 C 349.060 92.800,349.600 93.476,349.600 94.302 C 349.600 95.128,350.140 96.252,350.800 96.800 C 351.460 97.348,352.000 98.292,352.000 98.898 C 352.000 99.504,352.361 100.000,352.802 100.000 C 353.244 100.000,354.229 101.440,354.991 103.200 C 355.754 104.960,356.833 106.400,357.389 106.400 C 357.945 106.400,358.400 107.311,358.400 108.425 C 358.400 109.539,358.940 110.657,359.600 110.911 C 360.260 111.164,360.800 112.233,360.800 113.286 C 360.800 114.454,361.268 115.200,362.000 115.200 C 362.751 115.200,363.200 115.958,363.200 117.225 C 363.200 118.339,363.740 119.457,364.400 119.711 C 365.060 119.964,365.600 121.011,365.600 122.038 C 365.600 123.065,365.960 124.128,366.400 124.400 C 366.840 124.672,367.200 125.604,367.200 126.472 C 367.200 127.340,367.740 128.257,368.400 128.511 C 369.074 128.769,369.600 129.960,369.600 131.228 C 369.600 132.470,370.140 134.026,370.800 134.686 C 371.460 135.346,372.000 136.767,372.000 137.845 C 372.000 138.922,372.540 140.252,373.200 140.800 C 373.860 141.348,374.400 142.986,374.400 144.441 C 374.400 145.896,374.940 147.626,375.600 148.286 C 376.274 148.959,376.800 150.914,376.800 152.743 C 376.800 154.534,377.160 156.000,377.600 156.000 C 378.040 156.000,378.402 157.710,378.405 159.800 C 378.408 161.890,378.948 164.631,379.605 165.891 C 380.342 167.305,380.800 170.389,380.800 173.939 C 380.800 177.761,381.195 180.216,381.975 181.247 C 383.727 183.565,383.750 216.364,382.000 218.114 C 381.125 218.989,380.800 221.123,380.800 225.990 C 380.800 230.443,380.483 232.772,379.847 232.984 C 379.286 233.171,378.755 235.500,378.554 238.651 C 378.367 241.593,377.896 244.000,377.507 244.000 C 377.118 244.000,376.800 245.581,376.800 247.514 C 376.800 249.900,376.415 251.177,375.600 251.489 C 374.890 251.762,374.400 252.964,374.400 254.432 C 374.400 255.797,373.860 257.454,373.200 258.114 C 372.540 258.774,372.000 260.330,372.000 261.572 C 372.000 262.840,371.474 264.031,370.800 264.289 C 370.057 264.575,369.600 265.792,369.600 267.489 C 369.600 269.186,369.143 270.404,368.400 270.689 C 367.740 270.943,367.200 272.061,367.200 273.175 C 367.200 274.289,366.840 275.200,366.400 275.200 C 365.960 275.200,365.600 276.111,365.600 277.225 C 365.600 278.339,365.060 279.457,364.400 279.711 C 363.740 279.964,363.200 281.044,363.200 282.111 C 363.200 283.177,362.660 284.257,362.000 284.511 C 361.340 284.764,360.800 285.833,360.800 286.886 C 360.800 288.054,360.332 288.800,359.600 288.800 C 358.940 288.800,358.400 289.476,358.400 290.302 C 358.400 291.128,357.860 292.252,357.200 292.800 C 356.540 293.348,356.000 294.292,356.000 294.898 C 356.000 295.504,355.679 296.000,355.287 296.000 C 354.894 296.000,354.348 296.900,354.071 298.000 C 353.795 299.100,353.216 300.000,352.785 300.000 C 352.353 300.000,352.000 300.501,352.000 301.114 C 352.000 301.727,351.460 302.436,350.800 302.689 C 350.140 302.943,349.600 303.686,349.600 304.341 C 349.600 304.996,348.149 307.058,346.376 308.921 C 344.603 310.785,342.944 313.140,342.690 314.155 C 342.435 315.170,341.906 316.000,341.513 316.000 C 341.121 316.000,340.800 316.540,340.800 317.200 C 340.800 317.860,340.403 318.400,339.917 318.400 C 338.838 318.400,329.600 327.730,329.600 328.820 C 329.600 329.249,329.249 329.600,328.820 329.600 C 327.730 329.600,318.400 338.838,318.400 339.917 C 318.400 340.403,317.860 340.800,317.200 340.800 C 316.540 340.800,316.000 341.121,316.000 341.513 C 316.000 341.906,315.100 342.452,314.000 342.729 C 312.900 343.005,312.000 343.584,312.000 344.015 C 312.000 344.447,311.628 344.800,311.173 344.800 C 310.718 344.800,309.290 345.880,308.000 347.200 C 306.710 348.520,305.090 349.600,304.402 349.600 C 303.713 349.600,302.943 350.140,302.689 350.800 C 302.436 351.460,301.727 352.000,301.114 352.000 C 300.501 352.000,300.000 352.353,300.000 352.785 C 300.000 353.216,299.100 353.795,298.000 354.071 C 296.900 354.348,296.000 354.894,296.000 355.287 C 296.000 355.679,295.499 356.000,294.886 356.000 C 294.273 356.000,293.564 356.540,293.311 357.200 C 293.057 357.860,291.939 358.400,290.825 358.400 C 289.558 358.400,288.800 358.849,288.800 359.600 C 288.800 360.332,288.054 360.800,286.886 360.800 C 285.833 360.800,284.764 361.340,284.511 362.000 C 284.257 362.660,283.177 363.200,282.111 363.200 C 281.044 363.200,279.964 363.740,279.711 364.400 C 279.457 365.060,278.339 365.600,277.225 365.600 C 276.111 365.600,275.200 365.960,275.200 366.400 C 275.200 366.840,274.469 367.200,273.575 367.200 C 272.681 367.200,271.743 367.740,271.489 368.400 C 271.210 369.128,270.000 369.600,268.412 369.600 C 266.973 369.600,265.348 370.140,264.800 370.800 C 264.252 371.460,262.812 372.000,261.600 372.000 C 260.388 372.000,258.948 372.540,258.400 373.200 C 257.852 373.860,256.177 374.400,254.677 374.400 C 252.991 374.400,251.774 374.858,251.489 375.600 C 251.177 376.415,249.900 376.800,247.514 376.800 C 245.581 376.800,244.000 377.160,244.000 377.600 C 244.000 378.040,242.089 378.400,239.753 378.400 C 237.257 378.400,234.865 378.884,233.953 379.575 C 232.914 380.360,230.398 380.758,226.353 380.775 C 222.308 380.792,219.792 381.189,218.753 381.975 C 216.430 383.732,182.256 383.755,180.800 382.000 C 180.068 381.118,178.082 380.793,173.302 380.775 C 168.857 380.757,166.309 380.378,165.247 379.575 C 164.382 378.920,161.991 378.400,159.847 378.400 C 157.731 378.400,156.000 378.040,156.000 377.600 C 156.000 377.160,154.189 376.800,151.975 376.800 C 149.135 376.800,147.814 376.447,147.489 375.600 C 147.188 374.815,145.942 374.400,143.889 374.400 C 141.837 374.400,140.590 373.985,140.289 373.200 C 140.036 372.540,138.942 372.000,137.857 372.000 C 136.773 372.000,135.346 371.460,134.686 370.800 C 134.026 370.140,132.470 369.600,131.228 369.600 C 129.960 369.600,128.769 369.074,128.511 368.400 C 128.257 367.740,127.340 367.200,126.472 367.200 C 125.604 367.200,124.672 366.840,124.400 366.400 C 124.128 365.960,123.065 365.600,122.038 365.600 C 121.011 365.600,119.964 365.060,119.711 364.400 C 119.457 363.740,118.377 363.200,117.311 363.200 C 116.244 363.200,115.164 362.660,114.911 362.000 C 114.657 361.340,113.757 360.800,112.911 360.800 C 112.064 360.800,111.164 360.260,110.911 359.600 C 110.657 358.940,109.577 358.400,108.511 358.400 C 107.444 358.400,106.386 357.917,106.159 357.326 C 105.932 356.735,104.544 355.639,103.073 354.890 C 101.603 354.141,99.320 352.821,98.000 351.955 C 96.680 351.090,94.970 350.164,94.200 349.897 C 93.430 349.631,92.800 348.915,92.800 348.307 C 92.800 347.698,92.260 347.200,91.600 347.200 C 90.940 347.200,90.400 346.864,90.400 346.454 C 90.400 346.044,89.624 345.461,88.675 345.160 C 87.726 344.859,86.155 343.755,85.183 342.706 C 84.212 341.658,83.008 340.800,82.508 340.800 C 82.009 340.800,81.600 340.260,81.600 339.600 C 81.600 338.940,81.254 338.400,80.831 338.400 C 80.408 338.400,78.465 336.870,76.514 335.000 C 74.562 333.130,72.298 331.028,71.483 330.329 C 68.812 328.040,61.600 319.862,61.600 319.123 C 61.600 318.725,61.060 318.400,60.400 318.400 C 59.740 318.400,59.200 317.991,59.200 317.492 C 59.200 316.992,58.390 315.799,57.400 314.840 C 55.289 312.796,53.741 310.557,53.083 308.600 C 52.825 307.830,52.115 307.200,51.507 307.200 C 50.898 307.200,50.400 306.660,50.400 306.000 C 50.400 305.340,49.860 304.800,49.200 304.800 C 48.487 304.800,48.000 304.066,48.000 302.992 C 48.000 301.997,47.100 300.213,46.000 299.027 C 44.900 297.840,44.000 296.303,44.000 295.610 C 44.000 294.917,43.460 294.143,42.800 293.889 C 42.140 293.636,41.600 292.791,41.600 292.012 C 41.600 291.233,41.060 290.148,40.400 289.600 C 39.740 289.052,39.200 288.147,39.200 287.588 C 39.200 287.029,38.660 286.364,38.000 286.111 C 37.340 285.857,36.800 285.153,36.800 284.544 C 36.800 283.936,35.942 281.824,34.892 279.851 C 33.843 277.878,32.735 275.124,32.429 273.732 C 32.123 272.339,31.541 271.200,31.136 271.200 C 30.731 271.200,30.400 270.289,30.400 269.175 C 30.400 268.061,29.860 266.943,29.200 266.689 C 28.457 266.404,28.000 265.186,28.000 263.489 C 28.000 261.792,27.543 260.575,26.800 260.289 C 26.026 259.992,25.600 258.754,25.600 256.800 C 25.600 254.846,25.174 253.608,24.400 253.311 C 23.608 253.007,23.200 251.754,23.200 249.625 C 23.200 247.851,22.840 246.400,22.400 246.400 C 21.960 246.400,21.600 244.669,21.600 242.553 C 21.600 240.409,21.080 238.018,20.425 237.153 C 19.673 236.158,19.242 233.682,19.225 230.257 C 19.208 226.602,18.821 224.535,18.000 223.714 C 16.208 221.923,16.208 177.277,18.000 175.486 C 18.838 174.648,19.200 172.597,19.200 168.686 C 19.200 164.775,19.562 162.724,20.400 161.886 C 21.105 161.180,21.600 159.225,21.600 157.143 C 21.600 155.194,21.960 153.600,22.400 153.600 C 22.840 153.600,23.200 152.134,23.200 150.343 C 23.200 148.514,23.726 146.559,24.400 145.886 C 25.060 145.226,25.600 143.676,25.600 142.441 C 25.600 141.206,26.140 139.748,26.800 139.200 C 27.460 138.652,28.000 137.207,28.000 135.988 C 28.000 134.755,28.533 133.567,29.200 133.311 C 29.860 133.057,30.400 131.913,30.400 130.768 C 30.400 129.623,30.940 128.146,31.600 127.486 C 32.260 126.826,32.800 125.411,32.800 124.343 C 32.800 123.274,33.160 122.400,33.600 122.400 C 34.040 122.400,34.400 121.489,34.400 120.375 C 34.400 119.261,34.940 118.143,35.600 117.889 C 36.260 117.636,36.800 116.567,36.800 115.514 C 36.800 114.461,37.169 113.600,37.620 113.600 C 38.071 113.600,38.790 112.790,39.218 111.800 C 40.159 109.623,41.649 107.251,43.000 105.777 C 43.550 105.177,44.000 104.171,44.000 103.543 C 44.000 102.914,44.360 102.400,44.800 102.400 C 45.240 102.400,45.600 101.904,45.600 101.298 C 45.600 100.692,46.140 99.748,46.800 99.200 C 47.460 98.652,48.000 97.528,48.000 96.702 C 48.000 95.876,48.540 95.200,49.200 95.200 C 49.860 95.200,50.400 94.699,50.400 94.086 C 50.400 93.473,50.940 92.764,51.600 92.511 C 52.260 92.257,52.800 91.499,52.800 90.825 C 52.800 90.151,54.240 88.160,56.000 86.400 C 57.760 84.640,59.200 83.042,59.200 82.849 C 59.200 82.657,60.280 81.316,61.600 79.871 C 62.920 78.426,64.000 76.784,64.000 76.222 C 64.000 75.660,64.540 75.200,65.200 75.200 C 65.860 75.200,66.400 74.660,66.400 74.000 C 66.400 73.340,66.940 72.800,67.600 72.800 C 68.260 72.800,68.800 72.414,68.800 71.943 C 68.800 70.835,70.835 68.800,71.943 68.800 C 72.414 68.800,72.800 68.260,72.800 67.600 C 72.800 66.940,73.340 66.400,74.000 66.400 C 74.660 66.400,75.200 65.860,75.200 65.200 C 75.200 64.540,75.660 64.000,76.222 64.000 C 76.784 64.000,78.426 62.920,79.871 61.600 C 81.316 60.280,82.674 59.200,82.888 59.200 C 83.101 59.200,84.110 58.300,85.130 57.200 C 86.149 56.100,87.392 55.200,87.892 55.200 C 88.391 55.200,88.800 54.660,88.800 54.000 C 88.800 53.327,89.514 52.800,90.425 52.800 C 91.319 52.800,92.257 52.260,92.511 51.600 C 92.764 50.940,93.473 50.400,94.086 50.400 C 94.699 50.400,95.200 49.860,95.200 49.200 C 95.200 48.468,95.946 48.000,97.114 48.000 C 98.167 48.000,99.236 47.460,99.489 46.800 C 99.743 46.140,100.501 45.600,101.175 45.600 C 101.849 45.600,102.400 45.240,102.400 44.800 C 102.400 44.360,102.914 44.000,103.543 44.000 C 104.171 44.000,105.178 43.507,105.780 42.906 C 106.382 42.304,107.668 41.559,108.637 41.252 C 109.607 40.944,110.400 40.356,110.400 39.946 C 110.400 39.536,111.120 39.200,112.000 39.200 C 112.889 39.200,113.600 38.667,113.600 38.000 C 113.600 37.320,114.317 36.800,115.257 36.800 C 116.169 36.800,117.454 36.260,118.114 35.600 C 118.774 34.940,120.009 34.400,120.857 34.400 C 121.706 34.400,122.400 34.040,122.400 33.600 C 122.400 33.160,123.231 32.800,124.247 32.800 C 125.263 32.800,126.793 32.271,127.647 31.625 C 128.501 30.979,130.021 30.439,131.025 30.425 C 132.029 30.411,133.057 29.860,133.311 29.200 C 133.569 28.526,134.760 28.000,136.028 28.000 C 137.270 28.000,138.826 27.460,139.486 26.800 C 140.146 26.140,141.747 25.600,143.045 25.600 C 144.342 25.600,145.852 25.060,146.400 24.400 C 146.972 23.711,148.717 23.200,150.498 23.200 C 152.204 23.200,153.600 22.840,153.600 22.400 C 153.600 21.960,155.331 21.600,157.447 21.600 C 159.591 21.600,161.982 21.080,162.847 20.425 C 163.870 19.652,166.369 19.242,170.168 19.225 C 174.200 19.208,176.248 18.848,176.968 18.030 C 178.525 16.265,220.352 16.237,222.114 18.000 M183.733 86.933 C 183.440 87.227,183.200 117.460,183.200 154.118 L 183.200 220.770 185.000 221.205 C 185.990 221.444,216.140 221.541,252.000 221.420 L 317.200 221.200 317.426 212.200 L 317.652 203.200 259.226 203.200 L 200.800 203.200 200.800 144.800 L 200.800 86.400 192.533 86.400 C 187.987 86.400,184.027 86.640,183.733 86.933 " stroke="none" fill="#64bae9" fill-rule="evenodd"></path><path id="path4" d="" stroke="none" fill="#0000ff" fill-rule="evenodd"></path></g></svg>