<svg id="svg" version="1.1" width="729" height="500" xmlns="http://www.w3.org/2000/svg" xmlns:xlink="http://www.w3.org/1999/xlink" style="display: block;"><g id="svgg"><path id="path0" d="M368.999 176.680 C 369.545 177.284,370.086 177.778,370.200 177.778 C 370.315 177.778,370.145 177.284,369.822 176.680 C 369.499 176.077,368.958 175.583,368.620 175.583 C 368.282 175.583,368.452 176.077,368.999 176.680 M348.131 205.240 C 347.610 206.084,348.324 206.628,349.028 205.924 C 349.422 205.530,349.432 205.223,349.057 204.991 C 348.750 204.801,348.333 204.913,348.131 205.240 " stroke="none" fill="#ffffff" fill-rule="evenodd"></path><path id="path1" d="M186.283 44.444 C 185.447 45.367,185.424 45.542,186.134 45.542 C 186.598 45.542,187.107 45.048,187.265 44.444 C 187.422 43.841,187.490 43.347,187.414 43.347 C 187.338 43.347,186.829 43.841,186.283 44.444 M335.476 123.377 C 336.637 124.685,336.900 124.804,336.900 124.025 C 336.900 123.734,336.344 123.204,335.665 122.848 C 334.437 122.203,334.436 122.206,335.476 123.377 M0.000 224.143 C 0.000 224.595,0.247 224.966,0.549 224.966 C 0.850 224.966,1.097 224.595,1.097 224.143 C 1.097 223.690,0.850 223.320,0.549 223.320 C 0.247 223.320,0.000 223.690,0.000 224.143 M2.469 257.339 C 2.243 257.704,68.226 257.888,200.000 257.888 C 331.774 257.888,397.757 257.704,397.531 257.339 C 397.306 256.975,330.869 256.790,200.000 256.790 C 69.131 256.790,2.694 256.975,2.469 257.339 " stroke="none" fill="#00ffff" fill-rule="evenodd"></path><path id="path2" d="M164.609 8.230 L 164.609 16.461 177.778 16.461 L 190.947 16.461 190.947 29.843 L 190.947 43.225 189.026 43.585 C 187.877 43.801,187.106 44.266,187.106 44.744 C 187.106 45.412,185.542 45.542,177.523 45.542 C 168.501 45.542,167.905 45.606,167.353 46.639 C 166.828 47.619,166.204 47.737,161.521 47.737 C 156.737 47.737,156.251 47.833,155.989 48.834 C 155.734 49.808,155.240 49.931,151.599 49.931 C 147.958 49.931,147.464 50.055,147.210 51.029 C 146.964 51.969,146.461 52.126,143.695 52.126 C 141.198 52.126,140.218 52.375,139.369 53.224 C 138.637 53.955,137.540 54.321,136.077 54.321 C 134.614 54.321,133.516 54.687,132.785 55.418 C 132.094 56.109,130.956 56.516,129.715 56.516 C 128.205 56.516,127.676 56.773,127.457 57.613 C 127.234 58.464,126.708 58.711,125.113 58.711 C 123.887 58.711,122.493 59.154,121.661 59.808 C 120.894 60.412,119.479 60.905,118.518 60.905 C 117.231 60.905,116.694 61.195,116.483 62.003 C 116.265 62.835,115.734 63.100,114.288 63.100 C 112.842 63.100,112.311 63.366,112.093 64.198 C 111.876 65.029,111.345 65.295,109.898 65.295 C 108.490 65.295,107.920 65.566,107.720 66.330 C 107.536 67.035,106.765 67.474,105.302 67.708 C 103.921 67.929,103.155 68.343,103.155 68.868 C 103.155 69.319,102.663 69.684,102.058 69.684 C 101.454 69.684,100.466 70.178,99.863 70.782 C 99.259 71.385,98.288 71.879,97.705 71.879 C 97.122 71.879,96.488 72.373,96.296 72.977 C 96.105 73.580,95.491 74.074,94.932 74.074 C 93.332 74.074,92.181 74.672,92.181 75.505 C 92.181 75.925,91.664 76.269,91.032 76.269 C 90.364 76.269,89.769 76.706,89.610 77.315 C 89.436 77.981,88.658 78.488,87.467 78.711 C 86.438 78.904,85.597 79.394,85.597 79.801 C 85.597 80.207,84.979 80.694,84.225 80.884 C 83.471 81.073,82.853 81.594,82.853 82.041 C 82.853 82.488,82.580 82.853,82.247 82.853 C 81.913 82.853,80.906 83.471,80.010 84.225 C 79.113 84.979,78.037 85.597,77.618 85.597 C 77.199 85.597,76.592 86.091,76.269 86.694 C 75.946 87.298,75.320 87.791,74.878 87.791 C 74.436 87.791,74.074 88.145,74.074 88.578 C 74.074 89.010,73.580 89.520,72.977 89.712 C 72.373 89.903,71.879 90.397,71.879 90.809 C 71.879 91.221,71.385 91.715,70.782 91.907 C 70.178 92.098,69.684 92.609,69.684 93.041 C 69.684 93.473,69.357 93.827,68.957 93.827 C 68.557 93.827,67.650 94.444,66.941 95.199 C 66.232 95.953,65.202 96.571,64.651 96.571 C 64.100 96.571,63.649 96.947,63.649 97.407 C 63.649 97.867,63.032 98.479,62.277 98.765 C 61.523 99.052,60.905 99.663,60.905 100.124 C 60.905 100.584,60.552 100.960,60.119 100.960 C 59.687 100.960,59.176 101.454,58.985 102.058 C 58.793 102.661,58.275 103.155,57.833 103.155 C 57.392 103.155,56.895 103.507,56.730 103.936 C 56.565 104.366,55.076 106.156,53.420 107.914 C 51.765 109.673,50.272 111.790,50.102 112.620 C 49.898 113.620,49.447 114.129,48.765 114.129 C 48.102 114.129,47.737 114.519,47.737 115.226 C 47.737 115.958,47.371 116.324,46.639 116.324 C 45.908 116.324,45.542 116.690,45.542 117.421 C 45.542 118.153,45.176 118.519,44.444 118.519 C 43.726 118.519,43.347 118.884,43.347 119.579 C 43.347 120.162,42.853 120.796,42.250 120.988 C 41.646 121.179,41.152 121.775,41.152 122.311 C 41.152 122.848,40.658 123.734,40.055 124.280 C 39.451 124.826,38.957 125.729,38.957 126.285 C 38.957 126.932,38.561 127.298,37.860 127.298 C 37.174 127.298,36.763 127.663,36.763 128.273 C 36.763 128.810,36.269 129.671,35.665 130.188 C 35.062 130.705,34.568 131.647,34.568 132.282 C 34.568 132.975,34.129 133.551,33.471 133.723 C 32.867 133.881,32.373 134.466,32.373 135.024 C 32.373 135.582,31.879 136.302,31.276 136.626 C 30.672 136.949,30.178 137.688,30.178 138.270 C 30.178 138.851,29.715 139.768,29.149 140.308 C 28.583 140.848,27.935 141.907,27.709 142.661 C 27.483 143.416,26.835 144.475,26.269 145.015 C 25.703 145.554,25.240 146.357,25.240 146.798 C 25.240 147.239,24.891 147.599,24.465 147.599 C 23.989 147.599,23.548 148.445,23.320 149.794 C 23.093 151.133,22.649 151.989,22.180 151.989 C 21.708 151.989,21.277 152.835,21.061 154.184 C 20.856 155.465,20.407 156.379,19.982 156.379 C 19.575 156.379,19.086 157.285,18.871 158.436 C 18.661 159.568,18.087 160.778,17.596 161.126 C 17.104 161.474,16.644 162.528,16.572 163.468 C 16.501 164.408,15.952 165.666,15.354 166.265 C 14.643 166.976,14.266 168.090,14.266 169.483 C 14.266 171.153,14.028 171.676,13.169 171.901 C 12.325 172.122,12.071 172.650,12.071 174.183 C 12.071 175.419,11.654 176.625,10.974 177.355 C 10.322 178.055,9.877 179.292,9.877 180.401 C 9.877 181.438,9.388 182.889,8.779 183.664 C 8.093 184.536,7.677 185.905,7.670 187.317 C 7.662 188.709,7.246 190.101,6.584 190.947 C 5.835 191.904,5.508 193.188,5.499 195.199 C 5.490 197.337,5.204 198.363,4.390 199.177 C 3.480 200.086,3.292 201.006,3.292 204.542 C 3.292 208.131,3.118 208.959,2.195 209.749 C 1.202 210.599,1.097 211.368,1.097 217.827 C 1.097 222.220,0.886 224.966,0.549 224.966 C 0.215 224.966,0.000 227.435,0.000 231.276 L 0.000 237.586 200.000 237.586 L 400.000 237.586 400.000 232.099 C 400.000 228.807,399.781 226.612,399.451 226.612 C 399.112 226.612,398.903 223.700,398.903 218.975 C 398.903 210.906,398.704 209.602,397.472 209.602 C 396.876 209.602,396.708 208.522,396.708 204.685 C 396.708 200.526,396.544 199.616,395.644 198.777 C 394.822 198.012,394.552 196.936,394.459 194.064 C 394.362 191.090,394.136 190.234,393.328 189.802 C 392.583 189.404,392.318 188.631,392.318 186.857 C 392.318 183.930,391.899 182.716,390.888 182.716 C 390.350 182.716,390.123 181.998,390.123 180.292 C 390.123 177.346,389.706 176.132,388.693 176.132 C 388.198 176.132,387.926 175.503,387.921 174.348 C 387.910 171.742,387.357 170.096,386.493 170.096 C 385.970 170.096,385.734 169.396,385.734 167.850 C 385.734 166.065,385.508 165.545,384.636 165.317 C 383.813 165.101,383.539 164.568,383.539 163.178 C 383.539 161.920,383.187 161.106,382.442 160.641 C 381.838 160.264,381.344 159.418,381.344 158.761 C 381.344 156.991,380.777 155.830,379.914 155.830 C 379.448 155.830,379.146 155.241,379.141 154.321 C 379.131 152.447,378.373 151.177,377.565 151.677 C 377.185 151.911,376.952 151.575,376.947 150.787 C 376.935 148.716,376.326 147.051,375.580 147.051 C 375.196 147.051,374.730 146.241,374.544 145.250 C 374.359 144.260,373.714 143.028,373.111 142.512 C 372.509 141.996,372.016 141.087,372.016 140.491 C 372.016 139.895,371.523 139.143,370.919 138.820 C 370.316 138.497,369.822 137.748,369.822 137.155 C 369.822 136.555,369.451 136.077,368.985 136.077 C 368.489 136.077,368.010 135.388,367.810 134.387 C 367.624 133.458,367.013 132.411,366.452 132.060 C 365.891 131.710,365.432 130.989,365.432 130.458 C 365.432 129.858,365.016 129.492,364.335 129.492 C 363.591 129.492,363.237 129.127,363.237 128.359 C 363.237 126.824,362.206 124.997,361.564 125.394 C 361.277 125.571,361.043 125.185,361.043 124.535 C 361.043 123.816,360.614 123.242,359.945 123.067 C 359.338 122.908,358.848 122.319,358.848 121.747 C 358.848 121.079,358.459 120.713,357.750 120.713 C 357.049 120.713,356.653 120.348,356.653 119.701 C 356.653 119.144,356.159 118.242,355.556 117.695 C 354.952 117.149,354.458 116.384,354.458 115.995 C 354.458 115.607,354.010 114.966,353.462 114.572 C 352.914 114.177,352.304 113.422,352.107 112.894 C 351.910 112.366,351.371 111.934,350.909 111.934 C 350.434 111.934,350.069 111.456,350.069 110.837 C 350.069 110.128,349.703 109.739,349.035 109.739 C 348.463 109.739,347.874 109.249,347.715 108.642 C 347.557 108.038,347.034 107.545,346.553 107.545 C 346.045 107.545,345.679 107.086,345.679 106.447 C 345.679 105.716,345.313 105.350,344.582 105.350 C 343.850 105.350,343.484 104.984,343.484 104.252 C 343.484 103.521,343.118 103.155,342.387 103.155 C 341.655 103.155,341.289 102.789,341.289 102.058 C 341.289 101.326,340.924 100.960,340.192 100.960 C 339.460 100.960,339.095 100.594,339.095 99.863 C 339.095 99.131,338.729 98.765,337.997 98.765 C 337.266 98.765,336.900 98.400,336.900 97.668 C 336.900 96.936,336.534 96.571,335.802 96.571 C 335.071 96.571,334.705 96.205,334.705 95.473 C 334.705 94.742,334.339 94.376,333.608 94.376 C 332.990 94.376,332.510 94.010,332.510 93.539 C 332.510 93.079,331.927 92.481,331.213 92.210 C 330.500 91.938,329.776 91.350,329.604 90.903 C 329.433 90.456,328.535 89.923,327.609 89.720 C 326.635 89.506,325.926 89.001,325.926 88.520 C 325.926 88.063,325.432 87.560,324.829 87.402 C 324.225 87.244,323.731 86.790,323.731 86.393 C 323.731 85.996,323.237 85.514,322.634 85.322 C 322.030 85.131,321.536 84.747,321.536 84.470 C 321.536 84.192,320.734 83.630,319.753 83.220 C 318.772 82.810,317.631 82.066,317.217 81.566 C 316.803 81.067,316.124 80.658,315.708 80.658 C 315.292 80.658,314.952 80.305,314.952 79.872 C 314.952 79.440,314.434 78.922,313.800 78.721 C 313.167 78.520,312.179 77.886,311.606 77.312 C 311.032 76.738,310.069 76.269,309.465 76.269 C 308.847 76.269,308.368 75.903,308.368 75.432 C 308.368 74.945,307.692 74.460,306.750 74.272 C 305.860 74.094,304.710 73.483,304.195 72.914 C 303.681 72.345,302.863 71.879,302.379 71.879 C 301.895 71.879,301.190 71.385,300.813 70.782 C 300.386 70.098,299.534 69.684,298.550 69.684 C 297.434 69.684,296.889 69.363,296.686 68.587 C 296.466 67.747,295.938 67.490,294.427 67.490 C 292.821 67.490,292.455 67.286,292.455 66.392 C 292.455 65.478,292.090 65.295,290.261 65.295 C 288.432 65.295,288.066 65.112,288.066 64.198 C 288.066 63.289,287.700 63.100,285.935 63.100 C 284.266 63.100,283.742 62.862,283.517 62.003 C 283.302 61.181,282.769 60.905,281.390 60.905 C 280.145 60.905,279.329 60.551,278.865 59.808 C 278.366 59.009,277.586 58.711,275.995 58.711 C 274.403 58.711,273.623 58.412,273.124 57.613 C 272.648 56.852,271.844 56.516,270.498 56.516 C 269.236 56.516,268.228 56.132,267.617 55.418 C 266.910 54.592,265.998 54.321,263.929 54.321 C 261.954 54.321,261.180 54.107,261.180 53.562 C 261.180 52.602,259.483 52.143,255.894 52.134 C 253.542 52.127,253.030 51.945,252.790 51.029 C 252.536 50.055,252.042 49.931,248.401 49.931 C 244.760 49.931,244.266 49.808,244.011 48.834 C 243.748 47.829,243.263 47.737,238.250 47.737 C 233.237 47.737,232.751 47.644,232.488 46.639 C 232.216 45.596,231.740 45.542,222.822 45.542 C 214.175 45.542,213.357 45.456,212.346 44.444 C 211.742 43.841,210.754 43.347,210.151 43.347 C 209.083 43.347,209.053 42.981,209.053 29.914 L 209.053 16.481 222.085 16.334 L 235.117 16.187 235.268 8.093 L 235.420 0.000 200.015 0.000 L 164.609 0.000 164.609 8.230 M227.046 64.123 C 227.587 64.807,228.953 65.067,232.797 65.217 C 236.702 65.369,238.135 65.647,239.157 66.452 C 240.086 67.182,241.365 67.490,243.472 67.490 C 245.635 67.490,246.853 67.794,247.861 68.587 C 248.869 69.380,250.087 69.684,252.252 69.684 C 254.785 69.684,255.291 69.854,255.534 70.782 C 255.780 71.722,256.282 71.879,259.049 71.879 C 261.911 71.879,262.277 72.004,262.277 72.977 C 262.277 73.864,262.643 74.074,264.191 74.074 C 265.244 74.074,266.606 74.506,267.218 75.034 C 267.830 75.562,269.376 76.118,270.654 76.269 C 271.931 76.420,272.894 76.763,272.793 77.031 C 272.504 77.795,273.905 78.446,275.857 78.455 C 277.272 78.462,277.641 78.690,277.641 79.561 C 277.641 80.470,278.006 80.658,279.771 80.658 C 281.441 80.658,281.964 80.896,282.189 81.756 C 282.409 82.596,282.938 82.853,284.448 82.853 C 286.054 82.853,286.420 83.057,286.420 83.951 C 286.420 84.865,286.786 85.048,288.615 85.048 C 290.444 85.048,290.809 85.231,290.809 86.145 C 290.809 86.827,291.175 87.243,291.775 87.243 C 292.306 87.243,293.049 87.737,293.425 88.340 C 293.863 89.040,294.705 89.438,295.752 89.438 C 297.028 89.438,297.394 89.682,297.394 90.535 C 297.394 91.267,297.759 91.632,298.491 91.632 C 299.095 91.632,300.082 92.126,300.686 92.730 C 301.289 93.333,302.277 93.827,302.881 93.827 C 303.612 93.827,303.978 94.193,303.978 94.925 C 303.978 95.650,304.344 96.022,305.056 96.022 C 305.649 96.022,306.399 96.516,306.722 97.119 C 307.106 97.838,307.870 98.217,308.936 98.217 C 310.197 98.217,310.562 98.463,310.562 99.314 C 310.562 100.023,310.928 100.412,311.596 100.412 C 312.168 100.412,312.757 100.902,312.916 101.509 C 313.074 102.112,313.580 102.606,314.041 102.606 C 314.501 102.606,315.035 103.100,315.226 103.704 C 315.418 104.307,316.052 104.801,316.635 104.801 C 317.218 104.801,317.634 105.078,317.558 105.416 C 317.427 106.002,317.933 106.404,321.964 108.916 C 322.932 109.520,323.726 110.306,323.728 110.663 C 323.730 111.020,324.225 111.468,324.829 111.660 C 325.432 111.851,325.926 112.345,325.926 112.757 C 325.926 113.169,326.420 113.663,327.023 113.855 C 327.627 114.046,328.121 114.540,328.121 114.952 C 328.121 115.364,328.615 115.858,329.218 116.049 C 329.822 116.241,330.316 116.735,330.316 117.147 C 330.316 117.559,330.783 118.044,331.354 118.225 C 331.925 118.407,332.519 119.041,332.674 119.634 C 332.829 120.228,333.350 120.713,333.831 120.713 C 334.312 120.713,334.705 121.107,334.705 121.588 C 334.705 122.069,335.176 122.585,335.751 122.736 C 336.408 122.907,336.923 123.682,337.136 124.819 C 337.355 125.983,337.862 126.729,338.559 126.911 C 339.156 127.067,339.643 127.588,339.643 128.069 C 339.643 128.550,340.014 128.944,340.466 128.944 C 340.919 128.944,341.289 129.178,341.289 129.464 C 341.289 129.750,341.907 130.651,342.661 131.465 C 343.416 132.279,344.033 133.156,344.033 133.413 C 344.033 133.671,344.403 133.882,344.856 133.882 C 345.309 133.882,345.679 134.233,345.679 134.663 C 345.679 135.092,346.296 136.178,347.051 137.074 C 347.805 137.971,348.422 139.101,348.422 139.585 C 348.422 140.070,348.793 140.466,349.246 140.466 C 349.698 140.466,350.069 140.675,350.069 140.930 C 350.069 141.185,350.686 142.111,351.440 142.987 C 352.194 143.864,352.811 145.037,352.811 145.593 C 352.812 146.150,353.283 146.728,353.858 146.878 C 354.516 147.050,355.030 147.825,355.245 148.969 C 355.432 149.968,355.949 150.925,356.394 151.096 C 356.838 151.266,357.202 151.907,357.202 152.521 C 357.202 153.269,357.562 153.635,358.299 153.635 C 359.193 153.635,359.396 154.001,359.396 155.607 C 359.396 157.117,359.653 157.646,360.494 157.866 C 361.326 158.083,361.591 158.614,361.591 160.060 C 361.591 161.507,361.857 162.038,362.689 162.255 C 363.521 162.473,363.786 163.004,363.786 164.450 C 363.786 165.896,364.051 166.427,364.883 166.645 C 365.743 166.870,365.981 167.393,365.981 169.063 C 365.981 170.828,366.169 171.193,367.078 171.193 C 367.967 171.193,368.176 171.559,368.176 173.114 C 368.176 174.303,368.594 175.452,369.273 176.132 C 370.013 176.872,370.370 177.961,370.370 179.475 C 370.370 181.260,370.596 181.780,371.468 182.008 C 372.351 182.239,372.565 182.757,372.565 184.656 C 372.565 187.539,372.989 188.752,373.996 188.752 C 374.556 188.752,374.760 189.553,374.760 191.750 C 374.760 194.187,374.965 194.859,375.857 195.336 C 376.793 195.837,376.955 196.485,376.955 199.726 C 376.955 202.966,377.117 203.615,378.052 204.115 C 379.017 204.632,379.150 205.264,379.150 209.353 C 379.150 213.324,379.310 214.140,380.247 214.942 C 380.985 215.574,381.344 216.561,381.344 217.955 L 381.344 220.027 200.000 220.027 L 18.656 220.027 18.656 217.955 C 18.656 216.561,19.015 215.574,19.753 214.942 C 20.690 214.140,20.850 213.324,20.850 209.370 C 20.850 205.220,20.965 204.702,21.948 204.390 C 22.906 204.086,23.045 203.559,23.045 200.257 C 23.045 197.034,23.208 196.385,24.143 195.885 C 25.030 195.410,25.240 194.736,25.240 192.363 C 25.240 189.890,25.413 189.383,26.337 189.141 C 27.227 188.909,27.435 188.393,27.435 186.419 C 27.435 184.680,27.749 183.699,28.532 182.990 C 29.256 182.336,29.630 181.300,29.630 179.952 C 29.630 178.367,29.877 177.841,30.727 177.619 C 31.586 177.394,31.824 176.870,31.824 175.208 C 31.824 173.762,32.175 172.783,32.922 172.144 C 33.525 171.627,34.019 170.623,34.019 169.912 C 34.019 169.201,34.513 168.173,35.117 167.627 C 35.723 167.078,36.214 165.937,36.214 165.077 C 36.214 164.115,36.633 163.259,37.311 162.836 C 37.915 162.459,38.409 161.706,38.409 161.162 C 38.409 160.618,38.903 159.644,39.506 158.996 C 40.110 158.348,40.604 157.399,40.604 156.888 C 40.604 156.376,41.097 155.829,41.701 155.671 C 42.542 155.451,42.798 154.922,42.798 153.412 C 42.798 151.829,43.007 151.440,43.859 151.440 C 44.609 151.440,44.971 150.997,45.094 149.931 C 45.192 149.083,45.568 148.483,45.953 148.560 C 46.331 148.635,46.599 148.512,46.551 148.285 C 46.343 147.322,47.778 144.856,48.546 144.856 C 49.006 144.856,49.383 144.456,49.383 143.967 C 49.383 142.720,52.257 138.316,53.086 138.292 C 53.464 138.281,53.772 137.903,53.772 137.453 C 53.772 137.003,54.266 136.326,54.870 135.949 C 55.473 135.573,55.967 134.972,55.967 134.615 C 55.967 134.258,56.584 133.233,57.339 132.336 C 58.093 131.439,58.711 130.433,58.711 130.099 C 58.711 129.765,59.081 129.492,59.534 129.492 C 59.986 129.492,60.357 129.285,60.357 129.031 C 60.357 128.777,61.468 127.393,62.826 125.956 C 64.184 124.518,65.295 123.121,65.295 122.851 C 65.295 122.580,65.665 122.359,66.118 122.359 C 66.571 122.359,66.941 122.106,66.941 121.796 C 66.941 121.083,76.604 111.385,77.314 111.385 C 77.604 111.385,77.998 110.892,78.189 110.288 C 78.381 109.684,78.914 109.191,79.375 109.191 C 79.836 109.191,80.336 108.720,80.486 108.144 C 80.637 107.568,81.231 106.974,81.807 106.824 C 82.382 106.673,82.853 106.156,82.853 105.676 C 82.853 105.167,83.312 104.801,83.951 104.801 C 84.682 104.801,85.048 104.435,85.048 103.704 C 85.048 102.995,85.414 102.606,86.081 102.606 C 86.653 102.606,87.243 102.116,87.402 101.509 C 87.594 100.772,88.150 100.412,89.093 100.412 C 89.935 100.412,90.731 99.973,91.084 99.314 C 91.407 98.711,92.156 98.217,92.749 98.217 C 93.461 98.217,93.827 97.844,93.827 97.119 C 93.827 96.410,94.193 96.022,94.861 96.022 C 95.433 96.022,96.022 95.532,96.181 94.925 C 96.392 94.117,96.929 93.827,98.217 93.827 C 99.504 93.827,100.041 93.538,100.253 92.730 C 100.410 92.126,100.976 91.632,101.509 91.632 C 102.042 91.632,102.607 91.139,102.765 90.535 C 102.977 89.727,103.514 89.438,104.801 89.438 C 106.088 89.438,106.626 89.148,106.837 88.340 C 107.014 87.663,107.585 87.243,108.328 87.243 C 108.991 87.243,110.063 86.749,110.710 86.145 C 111.358 85.542,112.231 85.048,112.649 85.048 C 113.068 85.048,113.857 84.554,114.403 83.951 C 114.950 83.347,115.975 82.853,116.683 82.853 C 117.604 82.853,117.970 82.541,117.970 81.756 C 117.970 80.847,118.336 80.658,120.101 80.658 C 121.770 80.658,122.294 80.421,122.518 79.561 C 122.738 78.720,123.267 78.464,124.777 78.464 C 126.017 78.464,127.156 78.056,127.846 77.366 C 128.450 76.763,129.541 76.269,130.271 76.269 C 132.165 76.269,133.333 75.723,133.333 74.838 C 133.333 74.318,134.006 74.074,135.443 74.074 C 136.838 74.074,137.881 73.712,138.521 73.004 C 139.156 72.303,140.365 71.878,142.035 71.770 C 143.860 71.652,144.582 71.372,144.582 70.782 C 144.582 70.161,145.512 69.879,148.366 69.634 C 150.974 69.410,152.358 69.026,152.817 68.399 C 153.297 67.743,154.323 67.490,156.502 67.490 C 158.632 67.490,159.911 67.184,160.840 66.454 C 161.846 65.662,163.297 65.371,166.993 65.219 C 170.786 65.063,171.980 64.816,172.524 64.073 C 173.800 62.328,225.666 62.376,227.046 64.123 M275.472 90.741 C 275.171 91.533,274.548 92.181,274.088 92.181 C 273.628 92.181,273.251 92.584,273.251 93.077 C 273.251 93.570,272.797 94.372,272.241 94.860 C 271.686 95.348,271.064 96.427,270.859 97.257 C 270.654 98.086,270.149 98.765,269.736 98.765 C 266.706 98.765,268.879 105.904,272.291 107.157 C 272.819 107.351,273.251 107.857,273.251 108.282 C 273.251 108.709,274.025 109.208,274.985 109.400 C 275.939 109.591,277.064 110.239,277.486 110.841 C 277.907 111.442,278.608 111.934,279.043 111.934 C 279.479 111.934,279.835 112.276,279.835 112.693 C 279.835 113.111,280.329 113.581,280.933 113.739 C 281.536 113.897,282.030 114.420,282.030 114.901 C 282.030 115.399,282.486 115.775,283.091 115.775 C 283.674 115.775,284.302 116.252,284.487 116.834 C 284.674 117.423,285.532 118.049,286.420 118.244 C 287.307 118.439,288.165 119.065,288.352 119.654 C 288.537 120.237,289.166 120.713,289.749 120.713 C 290.444 120.713,290.809 121.092,290.809 121.811 C 290.809 122.542,291.175 122.908,291.907 122.908 C 292.638 122.908,293.004 123.274,293.004 124.005 C 293.004 124.737,293.370 125.103,294.102 125.103 C 294.833 125.103,295.199 125.469,295.199 126.200 C 295.199 126.932,295.565 127.298,296.296 127.298 C 297.028 127.298,297.394 127.663,297.394 128.395 C 297.394 128.999,297.745 129.492,298.174 129.492 C 298.603 129.492,299.240 130.357,299.588 131.413 C 299.937 132.469,300.574 133.333,301.003 133.333 C 301.432 133.333,301.783 133.811,301.783 134.394 C 301.783 134.977,302.250 135.602,302.821 135.784 C 303.392 135.965,303.987 136.599,304.142 137.192 C 304.297 137.786,304.817 138.272,305.298 138.272 C 305.779 138.272,306.173 138.652,306.173 139.118 C 306.173 139.583,306.667 140.494,307.270 141.141 C 307.874 141.789,308.368 142.790,308.368 143.365 C 308.368 143.949,308.852 144.537,309.465 144.697 C 310.069 144.855,310.562 145.394,310.562 145.896 C 310.562 146.398,311.056 147.164,311.660 147.599 C 312.263 148.034,312.757 148.976,312.757 149.692 C 312.757 150.533,313.146 151.096,313.855 151.281 C 314.687 151.499,314.952 152.030,314.952 153.476 C 314.952 154.922,315.217 155.453,316.049 155.671 C 316.881 155.888,317.147 156.419,317.147 157.866 C 317.147 159.312,317.412 159.843,318.244 160.060 C 319.076 160.278,319.342 160.809,319.342 162.255 C 319.342 163.702,319.607 164.233,320.439 164.450 C 321.211 164.652,321.536 165.199,321.536 166.293 C 321.536 168.047,322.572 170.645,323.271 170.645 C 323.524 170.645,323.731 171.655,323.731 172.891 C 323.731 174.676,323.957 175.196,324.829 175.424 C 325.765 175.669,325.926 176.172,325.926 178.865 C 325.926 181.189,326.215 182.387,327.023 183.414 C 327.807 184.410,328.123 185.649,328.128 187.741 C 328.138 191.439,328.588 193.141,329.556 193.141 C 330.158 193.141,330.316 194.428,330.316 199.342 C 330.316 207.265,329.813 206.860,339.616 206.854 C 347.588 206.850,347.600 206.848,348.234 205.483 C 348.583 204.731,348.644 204.115,348.371 204.115 C 348.097 204.115,347.874 200.656,347.874 196.428 C 347.874 189.420,347.777 188.658,346.776 187.801 C 345.863 187.019,345.679 186.183,345.679 182.817 C 345.679 179.234,345.554 178.740,344.582 178.485 C 343.629 178.236,343.484 177.737,343.484 174.691 C 343.484 171.862,343.272 171.001,342.387 170.243 C 341.668 169.627,341.289 168.624,341.289 167.334 C 341.289 166.123,340.867 164.911,340.192 164.187 C 339.512 163.457,339.095 162.250,339.095 161.014 C 339.095 159.481,338.841 158.953,337.997 158.732 C 337.142 158.509,336.900 157.984,336.900 156.352 C 336.900 154.740,336.647 154.178,335.802 153.909 C 334.978 153.648,334.705 153.079,334.705 151.626 C 334.705 150.153,334.443 149.623,333.608 149.405 C 332.776 149.187,332.510 148.656,332.510 147.210 C 332.510 145.763,332.245 145.233,331.413 145.015 C 330.594 144.801,330.316 144.267,330.316 142.909 C 330.316 141.605,330.021 140.996,329.276 140.759 C 328.631 140.554,328.100 139.706,327.879 138.527 C 327.666 137.392,327.200 136.626,326.724 136.626 C 326.280 136.626,325.926 136.116,325.926 135.477 C 325.926 134.789,325.485 134.213,324.829 134.041 C 323.867 133.790,323.403 132.540,323.682 130.954 C 323.726 130.702,323.262 130.364,322.649 130.204 C 322.005 130.036,321.536 129.457,321.536 128.828 C 321.536 128.223,321.074 127.623,320.490 127.470 C 319.914 127.319,319.320 126.725,319.169 126.150 C 319.019 125.574,318.502 125.103,318.021 125.103 C 317.526 125.103,317.147 124.648,317.147 124.052 C 317.147 123.071,316.563 122.222,313.443 118.667 C 312.764 117.894,312.209 117.050,312.209 116.792 C 312.209 116.535,311.867 116.324,311.449 116.324 C 311.032 116.324,310.561 115.830,310.403 115.226 C 310.246 114.623,309.752 114.129,309.306 114.129 C 308.860 114.129,308.366 113.635,308.209 113.032 C 308.051 112.428,307.528 111.934,307.047 111.934 C 306.566 111.934,306.173 111.541,306.173 111.060 C 306.173 110.579,305.687 110.058,305.094 109.903 C 304.500 109.748,303.866 109.154,303.685 108.583 C 303.504 108.012,302.979 107.545,302.518 107.545 C 302.057 107.545,301.551 107.051,301.394 106.447 C 301.235 105.840,300.645 105.350,300.073 105.350 C 299.406 105.350,299.040 104.961,299.040 104.252 C 299.040 103.521,298.674 103.155,297.942 103.155 C 297.325 103.155,296.845 102.789,296.845 102.318 C 296.845 101.820,296.150 101.343,295.126 101.138 C 294.106 100.934,293.299 100.381,293.141 99.780 C 292.995 99.222,292.388 98.765,291.791 98.765 C 291.168 98.765,290.585 98.299,290.420 97.668 C 290.262 97.064,289.684 96.571,289.136 96.571 C 288.588 96.571,287.991 96.103,287.810 95.531 C 287.605 94.886,286.756 94.355,285.578 94.134 C 284.443 93.921,283.676 93.456,283.676 92.979 C 283.676 92.540,283.439 92.181,283.149 92.181 C 282.859 92.181,282.172 91.699,281.623 91.109 C 279.868 89.226,276.133 89.002,275.472 90.741 M0.000 266.118 L 0.000 274.348 200.000 274.348 L 400.000 274.348 400.000 266.118 L 400.000 257.888 200.000 257.888 L 0.000 257.888 0.000 266.118 " stroke="none" fill="#64bae9" fill-rule="evenodd"></path><path id="path3" d="" stroke="none" fill="#0000ff" fill-rule="evenodd"></path><path id="path4" d="M197.119 62.955 C 198.553 63.068,200.898 63.068,202.332 62.955 C 203.765 62.842,202.593 62.749,199.726 62.749 C 196.859 62.749,195.686 62.842,197.119 62.955 " stroke="none" fill="#8080ff" fill-rule="evenodd"></path></g></svg>