<svg id="svg" version="1.1" width="500" height="620" xmlns="http://www.w3.org/2000/svg" xmlns:xlink="http://www.w3.org/1999/xlink" style="display: block;"><g id="svgg"><path id="path0" d="M317.405 26.931 C 317.958 27.154,318.172 27.722,317.881 28.192 C 317.588 28.667,317.726 28.816,318.193 28.528 C 318.654 28.243,319.239 28.547,319.491 29.205 C 319.743 29.862,320.319 30.400,320.770 30.400 C 321.221 30.400,320.807 29.500,319.850 28.400 C 318.894 27.300,317.726 26.428,317.256 26.463 C 316.785 26.498,316.852 26.709,317.405 26.931 M6.600 34.191 C 9.130 34.350,13.270 34.350,15.800 34.191 C 18.330 34.032,16.260 33.903,11.200 33.903 C 6.140 33.903,4.070 34.032,6.600 34.191 M158.600 34.191 C 161.130 34.350,165.270 34.350,167.800 34.191 C 170.330 34.032,168.260 33.903,163.200 33.903 C 158.140 33.903,156.070 34.032,158.600 34.191 M51.906 202.955 C 52.402 203.921,53.167 204.932,53.604 205.203 C 54.975 206.050,54.474 204.810,52.701 202.967 L 51.003 201.200 51.906 202.955 M121.200 204.000 C 120.404 204.880,120.155 205.600,120.648 205.600 C 121.141 205.600,121.929 204.880,122.400 204.000 C 122.871 203.120,123.119 202.400,122.952 202.400 C 122.785 202.400,121.996 203.120,121.200 204.000 M105.760 241.760 C 104.250 243.270,104.638 244.143,106.400 243.200 C 107.280 242.729,108.000 241.996,108.000 241.572 C 108.000 240.512,106.917 240.603,105.760 241.760 " stroke="none" fill="#ffffff" fill-rule="evenodd"></path><path id="path1" d="M226.708 116.000 C 226.708 121.500,226.836 123.750,226.992 121.000 C 227.149 118.250,227.149 113.750,226.992 111.000 C 226.836 108.250,226.708 110.500,226.708 116.000 M387.200 174.098 C 387.200 175.161,387.417 175.216,388.400 174.400 C 389.060 173.852,389.600 173.268,389.600 173.102 C 389.600 172.936,389.060 172.800,388.400 172.800 C 387.740 172.800,387.200 173.384,387.200 174.098 M347.124 183.943 C 344.747 186.568,344.527 187.481,346.643 185.937 C 347.802 185.092,348.761 183.950,348.775 183.400 C 348.806 182.162,348.706 182.195,347.124 183.943 M312.400 204.800 L 308.400 205.349 312.153 205.474 C 314.217 205.543,316.128 205.240,316.400 204.800 C 316.672 204.360,316.783 204.057,316.647 204.126 C 316.511 204.195,314.600 204.498,312.400 204.800 " stroke="none" fill="#00ffff" fill-rule="evenodd"></path><path id="path2" d="" stroke="none" fill="#0080ff" fill-rule="evenodd"></path><path id="path3" d="M298.267 0.755 C 298.120 1.171,295.729 1.591,292.953 1.688 C 288.843 1.833,287.652 2.190,286.531 3.616 C 285.638 4.751,283.833 5.563,281.393 5.929 C 279.321 6.240,277.714 6.890,277.816 7.376 C 277.917 7.861,277.100 8.485,276.000 8.762 C 274.796 9.065,273.903 9.931,273.757 10.937 C 273.574 12.192,272.749 12.732,270.452 13.099 C 268.302 13.443,267.264 14.067,266.970 15.194 C 266.718 16.157,265.879 16.800,264.875 16.800 C 263.733 16.800,263.200 17.309,263.200 18.400 C 263.200 19.573,262.667 20.000,261.200 20.000 C 259.704 20.000,259.200 20.422,259.200 21.675 C 259.200 22.677,258.557 23.518,257.600 23.768 C 256.720 23.998,255.955 24.505,255.900 24.893 C 255.845 25.282,255.755 25.939,255.700 26.354 C 255.645 26.769,254.790 27.863,253.800 28.785 C 252.810 29.708,252.000 31.202,252.000 32.106 C 252.000 33.077,251.345 33.921,250.400 34.168 C 249.520 34.398,248.800 34.886,248.800 35.252 C 248.800 35.618,247.900 36.889,246.800 38.076 C 245.638 39.329,244.800 41.190,244.800 42.517 C 244.800 44.221,244.417 44.800,243.291 44.800 C 242.121 44.800,241.663 45.590,241.254 48.316 C 240.872 50.869,240.299 51.945,239.164 52.241 C 237.939 52.562,237.600 53.348,237.600 55.871 C 237.600 58.310,237.238 59.207,236.110 59.565 C 234.973 59.926,234.510 61.100,234.158 64.515 C 233.842 67.576,233.175 69.477,232.048 70.527 C 230.668 71.812,230.400 73.035,230.400 78.031 C 230.400 82.933,230.114 84.286,228.800 85.600 C 227.259 87.141,227.200 88.267,227.200 116.008 C 227.200 143.826,227.255 144.863,228.800 146.186 C 230.094 147.294,230.402 148.554,230.411 152.778 C 230.424 158.964,231.016 161.600,232.393 161.600 C 233.454 161.600,234.400 165.038,234.400 168.893 C 234.400 170.320,235.004 171.564,236.000 172.186 C 237.150 172.904,237.600 174.051,237.600 176.267 C 237.600 178.639,237.956 179.443,239.143 179.753 C 240.211 180.032,240.853 181.148,241.230 183.376 C 241.602 185.577,242.252 186.720,243.287 186.991 C 244.218 187.234,244.800 188.095,244.800 189.228 C 244.800 191.844,245.603 193.600,246.799 193.600 C 247.364 193.600,248.052 194.500,248.329 195.600 C 248.653 196.891,249.392 197.600,250.415 197.600 C 251.512 197.600,252.000 198.139,252.000 199.348 C 252.000 200.310,252.770 201.917,253.711 202.918 C 254.652 203.920,255.822 205.523,256.311 206.480 C 256.800 207.437,257.519 208.081,257.908 207.910 C 258.298 207.740,258.929 208.444,259.310 209.475 C 259.692 210.507,260.723 211.539,261.602 211.769 C 262.481 211.999,263.200 212.694,263.200 213.313 C 263.200 213.933,264.010 214.749,265.000 215.128 C 265.990 215.507,267.486 216.578,268.324 217.508 C 269.162 218.439,270.692 219.200,271.724 219.200 C 273.031 219.200,273.600 219.659,273.600 220.714 C 273.600 222.365,275.081 223.200,278.012 223.200 C 279.190 223.200,280.082 223.798,280.400 224.800 C 280.776 225.984,281.610 226.400,283.609 226.400 C 285.478 226.400,286.686 226.938,287.533 228.147 C 288.501 229.529,289.768 229.968,293.579 230.244 L 298.400 230.592 298.400 363.296 L 298.400 496.000 312.400 496.000 L 326.400 496.000 326.400 363.200 L 326.400 230.400 330.853 230.400 C 335.399 230.400,338.299 229.415,339.440 227.483 C 339.792 226.887,341.142 226.400,342.440 226.400 C 343.738 226.400,345.487 225.713,346.327 224.873 C 347.167 224.033,348.517 223.221,349.327 223.068 C 350.137 222.915,351.155 221.983,351.590 220.995 C 352.060 219.925,353.084 219.200,354.124 219.200 C 356.621 219.200,358.400 218.386,358.400 217.243 C 358.400 216.701,359.300 215.847,360.400 215.346 C 361.500 214.844,362.400 213.887,362.400 213.217 C 362.400 212.533,363.101 212.000,364.000 212.000 C 365.034 212.000,365.600 211.467,365.600 210.493 C 365.600 209.641,366.321 208.798,367.259 208.553 C 368.172 208.314,369.105 207.405,369.333 206.533 C 369.561 205.661,370.435 204.768,371.274 204.549 C 372.113 204.329,372.800 203.459,372.800 202.614 C 372.800 201.770,373.700 200.233,374.800 199.200 C 375.900 198.167,376.800 196.688,376.800 195.914 C 376.800 195.141,377.520 194.279,378.400 194.000 C 379.587 193.623,380.000 192.790,380.000 190.771 C 380.000 188.562,380.250 188.146,381.331 188.561 C 382.166 188.881,382.466 188.754,382.136 188.220 C 381.846 187.751,382.147 187.161,382.805 186.909 C 383.462 186.657,384.000 185.719,384.000 184.825 C 384.000 183.931,384.720 182.480,385.600 181.600 C 386.726 180.474,387.200 178.933,387.200 176.400 C 387.200 173.401,387.453 172.800,388.714 172.800 C 390.478 172.800,391.200 171.306,391.200 167.659 C 391.200 166.064,391.823 164.484,392.800 163.600 C 394.084 162.438,394.400 161.136,394.400 157.004 C 394.400 152.631,394.671 151.637,396.200 150.400 C 397.939 148.993,398.009 148.410,398.264 133.080 C 398.445 122.149,398.818 117.008,399.464 116.547 C 400.170 116.042,400.155 115.779,399.400 115.472 C 398.655 115.170,398.398 111.563,398.391 101.333 C 398.381 85.131,397.972 81.826,395.899 81.168 C 394.624 80.763,394.400 79.865,394.400 75.146 C 394.400 70.667,394.092 69.292,392.800 68.000 C 391.730 66.930,391.200 65.333,391.200 63.180 C 391.200 60.482,390.876 59.837,389.200 59.200 C 387.473 58.544,387.200 57.945,387.200 54.820 C 387.200 52.267,386.729 50.729,385.600 49.600 C 384.720 48.720,384.000 47.513,384.000 46.917 C 384.000 46.321,383.100 44.863,382.000 43.676 C 380.900 42.489,380.000 40.782,380.000 39.884 C 380.000 38.923,379.341 38.078,378.400 37.832 C 377.498 37.596,376.800 36.741,376.800 35.870 C 376.800 35.022,375.900 33.427,374.800 32.327 C 373.700 31.227,372.800 29.770,372.800 29.089 C 372.800 28.408,372.080 27.662,371.200 27.432 C 370.320 27.202,369.600 26.342,369.600 25.522 C 369.600 24.598,368.839 23.839,367.600 23.529 C 366.348 23.214,365.600 22.460,365.600 21.513 C 365.600 20.533,365.036 20.000,364.000 20.000 C 362.938 20.000,362.400 19.467,362.400 18.415 C 362.400 17.409,361.698 16.654,360.476 16.347 C 359.417 16.082,358.371 15.175,358.150 14.332 C 357.851 13.188,357.035 12.800,354.931 12.800 C 352.620 12.800,352.065 12.477,351.856 11.008 C 351.709 9.977,350.924 9.087,350.008 8.913 C 349.133 8.746,347.943 7.932,347.363 7.104 C 346.691 6.145,345.346 5.600,343.652 5.600 C 341.842 5.600,340.640 5.066,339.881 3.923 C 338.994 2.587,337.672 2.157,333.384 1.813 C 330.423 1.575,328.000 1.070,328.000 0.690 C 328.000 -0.262,298.603 -0.198,298.267 0.755 M319.850 28.400 C 321.197 29.949,322.359 30.400,325.002 30.400 C 327.549 30.400,328.669 30.806,329.414 32.000 C 329.979 32.905,331.280 33.600,332.407 33.600 C 333.637 33.600,334.400 34.055,334.400 34.789 C 334.400 35.443,335.570 36.468,337.000 37.065 C 338.430 37.663,340.094 38.748,340.698 39.476 C 341.302 40.204,342.472 40.800,343.298 40.800 C 344.289 40.800,344.800 41.370,344.800 42.475 C 344.800 43.461,345.440 44.317,346.354 44.556 C 347.266 44.795,348.123 45.937,348.426 47.320 C 348.711 48.616,349.632 50.106,350.472 50.631 C 351.312 51.155,352.000 52.252,352.000 53.067 C 352.000 53.883,352.686 54.729,353.525 54.949 C 354.509 55.206,355.237 56.346,355.578 58.162 C 355.922 59.996,356.645 61.118,357.653 61.382 C 358.718 61.661,359.200 62.485,359.200 64.028 C 359.200 67.049,359.948 68.800,361.240 68.800 C 361.925 68.800,362.396 70.020,362.554 72.200 C 362.744 74.825,363.210 75.780,364.600 76.390 C 366.247 77.112,366.400 77.714,366.400 83.465 C 366.400 89.077,366.571 89.795,368.000 90.168 C 370.509 90.824,370.509 141.176,368.000 141.832 C 366.576 142.204,366.400 142.923,366.400 148.350 C 366.400 153.430,366.166 154.537,365.000 154.967 C 363.054 155.685,362.426 156.810,362.412 159.608 C 362.404 161.139,361.818 162.379,360.800 163.014 C 359.706 163.698,359.200 164.880,359.200 166.753 C 359.200 168.789,358.790 169.622,357.601 170.000 C 356.505 170.348,355.847 171.476,355.510 173.584 C 355.177 175.668,354.531 176.788,353.509 177.056 C 352.672 177.274,352.000 178.155,352.000 179.032 C 352.000 179.941,351.319 180.791,350.400 181.032 C 349.489 181.270,348.800 182.123,348.800 183.013 C 348.800 183.873,347.900 185.252,346.800 186.078 C 345.698 186.905,344.800 188.393,344.800 189.390 C 344.800 190.793,344.345 191.200,342.775 191.200 C 341.661 191.200,340.548 191.726,340.301 192.370 C 339.886 193.450,337.493 194.668,335.600 194.761 C 335.160 194.782,334.685 195.610,334.544 196.600 C 334.359 197.903,333.752 198.400,332.344 198.400 C 331.275 198.400,329.680 199.120,328.800 200.000 C 327.682 201.118,326.133 201.600,323.661 201.600 C 321.054 201.600,319.497 202.126,317.746 203.600 C 314.400 206.415,309.427 206.413,308.143 203.595 C 307.641 202.492,306.953 201.635,306.615 201.690 C 302.639 202.334,297.745 201.440,297.368 200.000 C 297.051 198.787,296.277 198.400,294.168 198.400 C 292.062 198.400,291.285 198.013,290.969 196.804 C 290.740 195.926,289.888 194.960,289.076 194.657 C 288.264 194.353,287.130 193.452,286.555 192.653 C 285.980 191.854,284.990 191.200,284.355 191.200 C 283.720 191.200,283.200 190.626,283.200 189.925 C 283.200 189.224,282.480 188.462,281.600 188.232 C 280.720 188.002,280.000 187.318,280.000 186.713 C 280.000 186.109,279.280 185.164,278.400 184.614 C 277.520 184.065,276.800 183.154,276.800 182.590 C 276.800 182.027,275.900 181.156,274.800 180.654 C 273.700 180.153,272.800 179.105,272.800 178.325 C 272.800 177.546,272.080 176.679,271.200 176.400 C 269.999 176.019,269.600 175.190,269.600 173.071 C 269.600 170.945,269.215 170.150,268.036 169.841 C 266.901 169.545,266.328 168.469,265.946 165.916 C 265.537 163.190,265.079 162.400,263.909 162.400 C 262.595 162.400,262.400 161.769,262.400 157.525 C 262.400 153.323,262.179 152.592,260.800 152.232 C 259.559 151.907,259.200 151.141,259.200 148.818 C 259.200 142.512,258.213 138.201,256.677 137.800 C 254.387 137.201,254.387 94.799,256.676 94.201 C 258.159 93.813,259.176 89.130,259.193 82.600 C 259.198 80.914,259.592 80.000,260.314 80.000 C 261.817 80.000,262.400 78.219,262.400 73.628 C 262.400 70.459,262.680 69.713,264.000 69.368 C 265.123 69.075,265.604 68.271,265.612 66.675 C 265.627 64.007,266.275 62.877,268.200 62.167 C 269.216 61.792,269.600 60.767,269.600 58.425 C 269.600 55.733,269.865 55.200,271.200 55.200 C 272.373 55.200,272.800 54.667,272.800 53.200 C 272.800 51.772,273.232 51.200,274.313 51.200 C 275.260 51.200,276.014 50.452,276.329 49.200 C 276.605 48.100,277.364 47.200,278.015 47.200 C 278.667 47.200,279.200 46.893,279.200 46.519 C 279.200 45.565,283.849 40.800,284.779 40.800 C 285.200 40.800,285.916 40.104,286.371 39.254 C 286.826 38.404,287.900 37.486,288.758 37.213 C 289.616 36.941,290.541 36.017,290.813 35.159 C 291.125 34.177,292.027 33.600,293.254 33.600 C 294.324 33.600,295.867 32.933,296.683 32.117 C 297.534 31.266,299.827 30.447,302.070 30.194 C 304.733 29.894,306.361 29.230,307.188 28.107 C 309.122 25.479,317.479 25.673,319.850 28.400 M74.600 34.130 C 73.808 34.449,73.600 53.129,73.600 123.767 L 73.600 213.000 71.100 212.500 C 69.725 212.225,67.967 212.000,67.193 212.000 C 66.420 212.000,65.598 211.280,65.368 210.400 C 65.036 209.129,64.277 208.800,61.675 208.800 C 58.933 208.800,58.400 208.539,58.400 207.200 C 58.400 205.991,57.863 205.597,56.200 205.588 C 53.605 205.573,52.472 204.912,51.767 203.000 C 51.483 202.230,50.519 201.600,49.625 201.600 C 48.533 201.600,48.000 201.075,48.000 200.000 C 48.000 198.966,47.467 198.400,46.493 198.400 C 45.641 198.400,44.798 197.679,44.553 196.741 C 44.314 195.828,43.372 194.886,42.459 194.647 C 41.521 194.402,40.800 193.559,40.800 192.707 C 40.800 191.768,40.236 191.200,39.302 191.200 C 38.178 191.200,37.679 190.416,37.301 188.054 C 36.954 185.881,36.303 184.750,35.199 184.400 C 34.081 184.045,33.600 183.189,33.600 181.553 C 33.600 180.080,33.007 178.843,32.000 178.214 C 30.945 177.556,30.400 176.349,30.400 174.673 C 30.400 171.095,29.669 169.600,27.919 169.600 C 26.453 169.600,26.403 167.653,26.205 102.200 L 26.000 34.800 13.000 34.580 L 0.000 34.360 0.000 106.780 C 0.000 147.489,0.306 179.200,0.698 179.200 C 1.082 179.200,1.570 181.002,1.781 183.205 C 2.047 185.970,2.697 187.670,3.883 188.699 C 4.957 189.630,5.600 191.127,5.600 192.694 C 5.600 194.133,6.281 195.881,7.200 196.800 C 8.080 197.680,8.800 198.927,8.800 199.572 C 8.800 200.934,11.519 202.614,12.361 201.772 C 12.676 201.457,12.861 201.560,12.772 202.000 C 12.195 204.862,12.938 207.936,14.314 208.373 C 15.146 208.637,16.012 209.561,16.239 210.426 C 16.483 211.359,17.332 212.000,18.325 212.000 C 19.492 212.000,20.000 212.508,20.000 213.675 C 20.000 214.677,20.643 215.518,21.600 215.768 C 22.486 216.000,23.200 216.859,23.200 217.693 C 23.200 218.767,23.775 219.200,25.200 219.200 C 26.696 219.200,27.200 219.622,27.200 220.875 C 27.200 221.850,27.838 222.717,28.726 222.949 C 29.565 223.168,30.432 224.035,30.651 224.874 C 30.874 225.726,31.749 226.400,32.632 226.400 C 33.510 226.400,34.389 227.073,34.609 227.913 C 34.882 228.956,36.031 229.600,38.302 229.984 C 40.822 230.409,41.600 230.902,41.600 232.070 C 41.600 233.350,42.188 233.600,45.200 233.600 C 48.192 233.600,48.800 233.854,48.800 235.107 C 48.800 236.642,50.816 237.569,54.200 237.589 C 55.200 237.595,56.000 238.095,56.000 238.714 C 56.000 240.304,57.815 240.800,63.637 240.800 C 67.925 240.800,68.881 241.057,69.600 242.400 C 70.071 243.280,71.164 244.000,72.028 244.000 C 73.584 244.000,73.600 245.285,73.600 370.000 L 73.600 496.000 87.600 496.000 L 101.600 496.000 101.600 370.000 C 101.600 250.275,101.670 244.000,103.008 244.000 C 103.782 244.000,104.865 243.280,105.414 242.400 C 106.245 241.070,107.280 240.800,111.541 240.800 C 117.385 240.800,119.200 240.306,119.200 238.714 C 119.200 238.086,120.072 237.556,121.200 237.500 C 122.300 237.445,123.560 237.310,124.000 237.200 C 124.440 237.090,125.160 236.955,125.600 236.900 C 126.040 236.845,126.400 236.080,126.400 235.200 C 126.400 233.861,126.933 233.600,129.675 233.600 C 132.237 233.600,133.038 233.264,133.353 232.057 C 133.629 231.004,134.737 230.349,136.845 229.992 C 138.895 229.646,140.097 228.955,140.421 227.935 C 140.689 227.091,141.579 226.400,142.400 226.400 C 143.221 226.400,144.108 225.719,144.373 224.886 C 144.637 224.054,145.561 223.188,146.426 222.961 C 147.359 222.717,148.000 221.868,148.000 220.875 C 148.000 219.708,148.508 219.200,149.675 219.200 C 150.677 219.200,151.518 218.557,151.768 217.600 C 152.000 216.714,152.859 216.000,153.693 216.000 C 154.767 216.000,155.200 215.425,155.200 214.000 C 155.200 212.557,155.630 212.000,156.746 212.000 C 157.596 212.000,158.521 211.280,158.800 210.399 C 159.080 209.519,160.004 208.426,160.854 207.971 C 161.865 207.430,162.400 206.296,162.400 204.697 C 162.400 202.923,162.840 202.135,164.000 201.832 C 165.019 201.565,165.600 200.741,165.600 199.561 C 165.600 198.446,166.203 197.517,167.114 197.227 C 168.732 196.714,169.571 194.585,169.589 190.953 C 169.595 189.717,169.942 188.917,170.360 189.175 C 171.550 189.911,172.800 186.834,172.800 183.168 C 172.800 180.776,173.366 179.158,174.800 177.454 L 176.800 175.077 176.800 105.186 C 176.800 57.586,176.534 35.130,175.967 34.779 C 174.589 33.928,150.106 34.374,149.213 35.266 C 148.679 35.801,148.325 58.828,148.182 102.421 C 147.968 167.580,147.936 168.778,146.382 169.610 C 145.189 170.248,144.800 171.288,144.800 173.836 C 144.800 176.349,144.390 177.471,143.200 178.214 C 142.320 178.764,141.600 179.878,141.600 180.690 C 141.600 181.502,140.700 183.137,139.600 184.324 C 138.407 185.612,137.600 187.434,137.600 188.841 C 137.600 190.667,137.238 191.200,136.000 191.200 C 134.953 191.200,134.400 191.733,134.400 192.744 C 134.400 193.737,133.757 194.380,132.600 194.544 C 131.443 194.709,130.709 195.443,130.544 196.600 C 130.380 197.757,129.737 198.400,128.744 198.400 C 127.733 198.400,127.200 198.953,127.200 200.000 C 127.200 201.034,126.667 201.600,125.692 201.600 C 124.863 201.600,123.594 202.500,122.874 203.600 C 121.973 204.975,120.836 205.600,119.235 205.600 C 117.610 205.600,116.755 206.083,116.400 207.200 C 116.027 208.376,115.190 208.800,113.244 208.800 C 111.548 208.800,110.200 209.352,109.498 210.334 C 108.865 211.217,106.958 212.095,105.000 212.404 L 101.600 212.941 101.600 123.756 C 101.600 43.169,101.478 34.524,100.335 34.086 C 98.830 33.508,76.043 33.547,74.600 34.130 " stroke="none" fill="#64bae9" fill-rule="evenodd"></path><path id="path4" d="M363.524 77.484 C 364.362 78.428,365.373 79.200,365.771 79.200 C 366.897 79.200,365.700 77.708,363.755 76.688 C 362.012 75.774,362.011 75.779,363.524 77.484 M226.629 102.000 C 226.635 104.200,226.790 105.005,226.974 103.789 C 227.158 102.573,227.153 100.773,226.963 99.789 C 226.773 98.805,226.623 99.800,226.629 102.000 M226.618 129.600 C 226.618 131.580,226.774 132.390,226.965 131.400 C 227.155 130.410,227.155 128.790,226.965 127.800 C 226.774 126.810,226.618 127.620,226.618 129.600 M342.857 189.257 C 342.124 189.990,341.704 190.770,341.924 190.990 C 342.144 191.210,342.924 190.790,343.657 190.057 C 344.390 189.324,344.810 188.544,344.590 188.324 C 344.370 188.104,343.590 188.524,342.857 189.257 " stroke="none" fill="#0000ff" fill-rule="evenodd"></path></g></svg>