<?xml version="1.0" encoding="UTF-8"?>
<!DOCTYPE svg PUBLIC "-//W3C//DTD SVG 1.1//EN" "http://www.w3.org/Graphics/SVG/1.1/DTD/svg11.dtd">
<!-- Creator: CorelDRAW X7 -->
<svg xmlns="http://www.w3.org/2000/svg" xml:space="preserve" width="195.324mm" height="171.802mm" version="1.1" style="shape-rendering:geometricPrecision; text-rendering:geometricPrecision; image-rendering:optimizeQuality; fill-rule:evenodd; clip-rule:evenodd"
viewBox="0 0 19289 16966"
 xmlns:xlink="http://www.w3.org/1999/xlink">
 <defs>
  <style type="text/css">
   <![CDATA[
    .str14 {stroke:#D6D5D5;stroke-width:104.512}
    .str0 {stroke:#64BAE9;stroke-width:69.6714}
    .str18 {stroke:#64BAE9;stroke-width:69.6714}
    .str9 {stroke:#D6D5D5;stroke-width:69.6714}
    .str7 {stroke:#FEFEFE;stroke-width:52.2511}
    .str3 {stroke:#64BAE9;stroke-width:52.2511}
    .str15 {stroke:#64BAE9;stroke-width:52.261}
    .str10 {stroke:#FEFEFE;stroke-width:34.8308}
    .str2 {stroke:#64BAE9;stroke-width:34.8308}
    .str21 {stroke:#BDC0C4;stroke-width:34.8308}
    .str1 {stroke:#D6D5D5;stroke-width:34.8308}
    .str11 {stroke:#D6D5D5;stroke-width:34.8308}
    .str16 {stroke:#A1C141;stroke-width:17.4104}
    .str12 {stroke:#64BAE9;stroke-width:17.4104}
    .str17 {stroke:#A1C141;stroke-width:17.4203}
    .str13 {stroke:#64BAE9;stroke-width:17.4203}
    .str8 {stroke:#FEFEFE;stroke-width:104.512;stroke-linecap:round}
    .str22 {stroke:#64BAE9;stroke-width:104.512;stroke-linecap:round}
    .str5 {stroke:#FEFEFE;stroke-width:69.6714;stroke-linecap:round}
    .str4 {stroke:#64BAE9;stroke-width:69.6714;stroke-linecap:round}
    .str20 {stroke:#64BAE9;stroke-width:69.6714;stroke-linecap:round}
    .str6 {stroke:#979797;stroke-width:69.6714;stroke-linecap:round}
    .str19 {stroke:#A1C141;stroke-width:17.4104}
    .fil0 {fill:none}
    .fil13 {fill:#FEFEFE}
    .fil14 {fill:#64BAE9}
    .fil2 {fill:#64BAE9}
    .fil1 {fill:#C72127}
    .fil3 {fill:#D6D5D5}
    .fil6 {fill:#3A5795;fill-rule:nonzero}
    .fil8 {fill:#4D6D91;fill-rule:nonzero}
    .fil7 {fill:#55ACEE;fill-rule:nonzero}
    .fil15 {fill:#64BAE9;fill-rule:nonzero}
    .fil10 {fill:#BDC0C4;fill-rule:nonzero}
    .fil9 {fill:#BDC0C4;fill-rule:nonzero}
    .fil5 {fill:#EC641B;fill-rule:nonzero}
    .fil11 {fill:#2B2A29;fill-opacity:0.101961}
    .fil12 {fill:#2B2A29;fill-opacity:0.200000}
    .fil4 {fill:url(#id0)}
   ]]>
  </style>
  <linearGradient id="id0" gradientUnits="userSpaceOnUse" x1="16901.9" y1="9506.02" x2="16901.9" y2="6997.65">
   <stop offset="0" style="stop-opacity:1; stop-color:#64BAE9"/>
   <stop offset="1" style="stop-opacity:1; stop-color:#FEFEFE"/>
  </linearGradient>
 </defs>
 <g id="Слой_x0020_1">
  <metadata id="CorelCorpID_0Corel-Layer"/>
  <line class="fil0 str0" x1="15953" y1="2524" x2="15953" y2= "3360" />
  <line class="fil0 str0" x1="16371" y1="2942" x2="15535" y2= "2942" />
  <line class="fil0 str0" x1="17615" y1="2942" x2="16779" y2= "2942" />
  <line class="fil0 str1" x1="16176" y1="3922" x2="15739" y2= "4358" />
  <line class="fil0 str1" x1="16176" y1="4358" x2="15739" y2= "3922" />
  <line class="fil0 str2" x1="17038" y1="3922" x2="16601" y2= "4358" />
  <line class="fil0 str2" x1="17038" y1="4358" x2="16601" y2= "3922" />
  <g id="_388966912">
   <circle class="fil0 str3" cx="18352" cy="2942" r="324"/>
   <g>
    <line class="fil0 str0" x1="18796" y1="2942" x2="18535" y2= "2942" />
    <line class="fil0 str0" x1="18169" y1="2942" x2="17908" y2= "2942" />
   </g>
   <g>
    <line class="fil0 str0" x1="18352" y1="3386" x2="18352" y2= "3125" />
    <line class="fil0 str0" x1="18352" y1="2759" x2="18352" y2= "2498" />
   </g>
  </g>
  <g id="_388967752">
   <line class="fil0 str4" x1="17552" y1="4131" x2="17637" y2= "4216" />
   <line class="fil0 str4" x1="17802" y1="4054" x2="17638" y2= "4217" />
  </g>
  <g id="_388967944">
   <line class="fil0 str1" x1="16256" y1="5008" x2="15638" y2= "5008" />
   <line class="fil0 str1" x1="15947" y1="5316" x2="15947" y2= "4699" />
  </g>
  <g id="_388964392">
   <line class="fil0 str2" x1="17133" y1="5008" x2="16516" y2= "5008" />
   <line class="fil0 str2" x1="16825" y1="5316" x2="16825" y2= "4699" />
  </g>
  <g id="_388968496">
   <line class="fil0 str5" x1="15826" y1="6062" x2="16193" y2= "6429" />
   <line class="fil0 str5" x1="16193" y1="6062" x2="15826" y2= "6429" />
  </g>
  <g id="_388968184">
   <line class="fil0 str6" x1="16401" y1="6062" x2="16768" y2= "6429" />
   <line class="fil0 str6" x1="16768" y1="6062" x2="16401" y2= "6429" />
  </g>
  <g id="_388966120">
   <circle class="fil0 str7" transform="matrix(0.737104 -0.737104 0.737104 0.737104 17281.2 6174.36)" r="216"/>
   <line class="fil0 str5" x1="17450" y1="6344" x2="17562" y2= "6455" />
  </g>
  <g id="_388968328">
   <line class="fil0 str5" x1="18345" y1="5008" x2="18182" y2= "5171" />
   <line class="fil0 str5" x1="18182" y1="4844" x2="18345" y2= "5007" />
  </g>
  <g id="_388970200">
   <line class="fil0 str8" x1="17840" y1="5008" x2="17521" y2= "5327" />
   <line class="fil0 str8" x1="17521" y1="4688" x2="17840" y2= "5007" />
  </g>
  <polygon class="fil0 str9" points="18721,5369 18721,4646 19172,5008 "/>
  <path class="fil1" d="M13604 7944c318,0 576,257 576,576 0,318 -366,613 -576,806 -211,-195 -576,-488 -576,-806 0,-319 258,-576 576,-576z"/>
  <circle class="fil0 str10" cx="13604" cy="8514" r="513"/>
  <g id="_387718624">
   <rect class="fil0 str10" x="18200" y="3933" width="465" height="324"/>
   <polyline class="fil0 str10" points="18657,3934 18432,4132 18207,3934 "/>
   <path class="fil0 str10" d="M18657 4250l-163 -175m-128 4l-159 171"/>
  </g>
  <g id="_387718240">
   <ellipse class="fil0 str9" cx="1473" cy="1003" rx="478" ry="597"/>
   <path class="fil0 str9" d="M1232 487l638 -368c272,-157 622,-63 779,209l0 0c221,221 64,623 -209,778l-823 468"/>
   <polygon class="fil0 str9" points="2672,306 2726,103 2766,163 2857,199 2864,289 2895,351 "/>
   <ellipse class="fil0 str11" cx="1405" cy="935" rx="52" ry="61"/>
   <ellipse class="fil0 str11" cx="1638" cy="864" rx="52" ry="61"/>
   <ellipse class="fil0 str11" cx="1764" cy="1102" rx="70" ry="82"/>
   <ellipse class="fil0 str11" cx="1309" cy="1264" rx="70" ry="82"/>
   <ellipse class="fil0 str11" cx="1154" cy="1019" rx="52" ry="61"/>
   <ellipse class="fil0 str11" cx="1299" cy="663" rx="52" ry="61"/>
   <ellipse class="fil0 str11" cx="1583" cy="608" rx="32" ry="38"/>
   <ellipse class="fil0 str11" cx="1589" cy="1403" rx="52" ry="61"/>
  </g>
  <g id="_387720640">
   <ellipse class="fil0 str12" cx="7220" cy="2804" rx="207" ry="259"/>
   <path class="fil0 str12" d="M7115 2580l277 -159c118,-69 270,-28 338,90l0 0c96,96 28,271 -91,338l-357 203"/>
   <polygon class="fil0 str12" points="7740,2502 7763,2414 7781,2439 7820,2455 7823,2494 7837,2521 "/>
   <ellipse class="fil0 str12" cx="7190" cy="2775" rx="23" ry="27"/>
   <ellipse class="fil0 str12" cx="7291" cy="2744" rx="23" ry="27"/>
   <ellipse class="fil0 str12" cx="7346" cy="2847" rx="30" ry="36"/>
   <ellipse class="fil0 str12" cx="7148" cy="2918" rx="30" ry="36"/>
   <ellipse class="fil0 str12" cx="7081" cy="2811" rx="23" ry="27"/>
   <ellipse class="fil0 str12" cx="7144" cy="2657" rx="23" ry="27"/>
   <ellipse class="fil0 str12" cx="7267" cy="2633" rx="14" ry="16"/>
   <ellipse class="fil0 str12" cx="7270" cy="2978" rx="23" ry="27"/>
  </g>
  <g id="_387725752">
   <path class="fil0 str13" d="M4047 2937c75,23 124,63 124,108 0,72 -122,130 -272,130 -150,0 -272,-58 -272,-130 0,-44 47,-83 118,-107"/>
   <path class="fil0 str12" d="M3899 2276c162,0 294,131 294,294 0,162 -195,369 -294,476 -99,-106 -294,-314 -294,-476 0,-163 132,-294 294,-294zm0 174c64,0 117,52 117,117 0,64 -53,117 -117,117 -65,0 -117,-53 -117,-117 0,-65 52,-117 117,-117z"/>
  </g>
  <g id="_387721000">
   <path class="fil0 str13" d="M4720 2384l565 0c55,0 99,45 99,99l0 370c0,54 -44,98 -99,98l-41 0 0 115 -117 -115 -407 0c-55,0 -99,-44 -99,-98l0 -370c0,-54 44,-99 99,-99z"/>
   <circle class="fil2" cx="5038" cy="2524" r="38"/>
   <path class="fil2" d="M4932 2644c17,-30 57,-43 92,-29 15,7 23,21 18,38 -11,40 -23,81 -33,122 -3,14 -10,42 49,29 -17,30 -58,44 -92,29 -15,-7 -24,-21 -18,-37 11,-41 22,-82 33,-122 3,-15 10,-43 -49,-30z"/>
  </g>
  <g id="_387722344">
   <path class="fil0 str9" d="M10374 41l1295 0c124,0 226,101 226,226l0 846c0,124 -102,226 -226,226l-94 0 0 264 -270 -264 -931 0c-125,0 -226,-102 -226,-226l0 -846c0,-125 101,-226 226,-226z"/>
   <g>
    <circle class="fil3" cx="11122" cy="309" r="87"/>
    <path class="fil3" d="M10879 584c39,-68 132,-100 212,-66 33,15 53,48 40,86 -25,93 -51,187 -76,280 -6,33 -22,98 113,68 -39,69 -132,100 -211,66 -34,-15 -54,-48 -41,-86 25,-93 51,-187 76,-280 6,-33 22,-98 -113,-68z"/>
   </g>
  </g>
  <g id="_387721552">
   <path class="fil0 str14" d="M12146 4966l2078 0c199,0 363,163 363,363l0 1357c0,200 -164,363 -363,363l-151 0 0 423 -432 -423 -1495 0c-199,0 -362,-163 -362,-363l0 -1357c0,-200 163,-363 362,-363z"/>
   <g>
    <circle class="fil2" cx="13317" cy="5552" r="113"/>
    <path class="fil2" d="M13000 5910c51,-89 171,-130 275,-86 44,19 70,62 53,112 -32,121 -66,243 -99,364 -8,44 -29,128 147,89 -51,89 -171,130 -275,85 -44,-19 -70,-62 -53,-111 33,-122 66,-243 99,-365 9,-43 29,-127 -147,-88z"/>
   </g>
  </g>
  <g id="_387720616">
   <path class="fil0 str9" d="M4477 1184c127,39 211,108 211,186 0,123 -208,222 -466,222 -257,0 -466,-99 -466,-222 0,-76 80,-143 202,-183"/>
   <path class="fil0 str9" d="M4222 51c278,0 504,225 504,503 0,279 -334,634 -504,818 -169,-182 -503,-539 -503,-818 0,-278 225,-503 503,-503zm0 298c111,0 201,90 201,201 0,110 -90,200 -201,200 -110,0 -200,-90 -200,-200 0,-111 90,-201 200,-201z"/>
  </g>
  <g id="_387720376">
   <rect class="fil0 str13" x="1040" y="2606" width="162" height="491"/>
   <path class="fil0 str13" d="M1202 3052c36,16 112,37 170,37l209 0c41,0 70,-25 84,-47l104 -238c31,-58 38,-169 -52,-167l-191 0 0 -136c0,-82 -19,-147 -146,-147l0 100c0,97 -67,179 -136,179l-42 0 0 419z"/>
   <rect class="fil0 str13" x="1098" y="2979" width="52.261" height="52.261"/>
  </g>
  <g id="_387725536">
   <rect class="fil0 str9" x="5553" y="580" width="327" height="992"/>
   <path class="fil0 str9" d="M5880 1482c73,32 225,73 343,73l422 0c82,0 141,-50 169,-95l211 -480c61,-117 75,-341 -106,-337l-385 0 0 -274c0,-166 -38,-297 -295,-297l0 202c0,196 -136,361 -274,361l-85 0 0 847z"/>
   <rect class="fil0 str9" x="5670" y="1333" width="105" height="105"/>
  </g>
  <g id="_387718336">
   <rect class="fil0 str13" x="2473" y="2968" width="481" height="136"/>
   <path class="fil0 str13" d="M2473 2968l481 0 0 -48c110,-13 195,-107 195,-220 0,-123 -100,-222 -222,-222l-1 0c-39,-78 -120,-131 -212,-131 -93,0 -173,53 -213,131l0 0c-123,0 -222,99 -222,222 0,113 85,207 194,220l0 48z"/>
   <path class="fil0 str13" d="M2506 2701c-18,-34 -29,-72 -29,-113 0,-132 107,-238 238,-238 93,0 173,52 212,129"/>
  </g>
  <g id="_389477752">
   <rect class="fil0 str9" x="8139" y="1310" width="969" height="274"/>
   <path class="fil0 str9" d="M8139 1310l969 0 0 -95c221,-28 393,-216 393,-445 0,-247 -201,-447 -448,-447l-1 0c-79,-157 -241,-264 -428,-264 -187,0 -349,107 -428,264l-2 0c-247,0 -447,200 -447,447 0,229 171,417 392,445l0 95z"/>
   <path class="fil0 str9" d="M8205 772c-36,-68 -57,-146 -57,-228 0,-265 214,-479 479,-479 186,0 347,105 427,260"/>
  </g>
  <g id="_389477176">
   <polygon class="fil0 str13" points="6217,2357 6285,2409 6369,2389 6410,2464 6494,2480 6501,2566 6571,2614 6543,2695 6588,2768 6529,2831 6540,2916 6461,2949 6436,3031 6351,3029 6295,3094 6217,3057 6140,3094 6084,3029 5998,3031 5974,2949 5895,2916 5906,2831 5847,2768 5891,2695 5863,2614 5933,2566 5941,2480 6025,2464 6066,2389 6149,2409 "/>
   <circle class="fil0 str13" transform="matrix(0.707107 -0.707107 0.707107 0.707107 6102.74 2613.63)" r="73"/>
   <circle class="fil0 str13" transform="matrix(0.707107 -0.707107 0.707107 0.707107 6331.85 2842.74)" r="73"/>
   <line class="fil0 str13" x1="6108" y1="2833" x2="6322" y2= "2619" />
  </g>
  <g id="_389476504">
   <polygon class="fil0 str9" points="13294,44 13438,153 13614,112 13701,270 13879,304 13894,484 14042,587 13983,758 14076,912 13953,1044 13975,1223 13809,1293 13756,1466 13576,1463 13458,1599 13294,1523 13131,1599 13012,1463 12832,1466 12780,1293 12613,1223 12636,1044 12512,912 12606,758 12546,587 12694,484 12710,304 12887,270 12974,112 13150,153 "/>
   <path class="fil0 str9" d="M12943 476c60,-60 158,-60 218,0 61,61 61,158 0,219 -60,60 -158,60 -218,0 -61,-61 -61,-158 0,-219z"/>
   <path class="fil0 str9" d="M13427 960c60,-60 158,-60 218,0 61,61 61,158 0,219 -60,60 -158,60 -218,0 -61,-61 -61,-158 0,-219z"/>
   <line class="fil0 str9" x1="13064" y1="1050" x2="13516" y2= "597" />
  </g>
  <g id="_389476864">
   <path class="fil0 str9" d="M15048 38c166,0 314,78 410,199 96,-121 244,-199 410,-199 289,0 523,234 523,522 0,109 -41,209 -105,292 -114,149 -714,663 -828,753 -116,-85 -729,-614 -839,-768 -57,-80 -94,-175 -94,-277 0,-288 234,-522 523,-522z"/>
   <path class="fil0 str9" d="M15458 534c75,0 136,61 136,136 0,54 -31,100 -76,122l64 317 -248 0 61 -319c-43,-22 -73,-68 -73,-120 0,-75 61,-136 136,-136z"/>
  </g>
  <g id="_389477536">
   <line class="fil0 str9" x1="17919" y1="628" x2="17919" y2= "1618" />
   <path class="fil0 str9" d="M18170 604l0 361c0,138 -113,251 -251,251l0 0c-138,0 -250,-113 -250,-251l0 -361"/>
   <path class="fil0 str9" d="M18575 99c-199,129 -416,189 -638,189 -238,0 -452,-68 -639,-189l0 1c-29,-22 -65,-35 -104,-35 -94,0 -171,77 -171,171 0,66 38,124 94,152 240,155 515,242 820,242 266,0 526,-67 767,-209 65,-24 112,-87 112,-161 0,-94 -77,-171 -171,-171 -24,0 -47,5 -67,14l-3 -4z"/>
   <line class="fil0 str9" x1="17919" y1="296" x2="17919" y2= "382" />
   <line class="fil0 str9" x1="17418" y1="171" x2="17375" y2= "246" />
   <line class="fil0 str9" x1="18445" y1="171" x2="18488" y2= "246" />
   <line class="fil0 str9" x1="17661" y1="256" x2="17639" y2= "339" />
   <line class="fil0 str9" x1="18210" y1="256" x2="18232" y2= "339" />
   <line class="fil0 str9" x1="17058" y1="132" x2="17058" y2= "25" />
   <line class="fil0 str9" x1="17064" y1="120" x2="16958" y2= "120" />
   <line class="fil0 str9" x1="18764" y1="132" x2="18764" y2= "25" />
   <line class="fil0 str9" x1="18757" y1="120" x2="18864" y2= "120" />
  </g>
  <g id="_389482936">
   <ellipse class="fil0 str3" cx="12654" cy="2572" rx="170" ry="240"/>
   <line class="fil0 str3" x1="12654" y1="2817" x2="12654" y2= "3455" />
   <line class="fil0 str3" x1="12126" y1="2383" x2="12126" y2= "3455" />
   <path class="fil0 str15" d="M12304 2389l0 271c0,98 -80,178 -178,178l0 0c-98,0 -178,-80 -178,-178l0 -271"/>
  </g>
  <g id="_389483440">
   <path class="fil0 str15" d="M13864 2608c380,0 692,292 723,664l-1446 0c36,-367 346,-664 723,-664z"/>
   <line class="fil0 str3" x1="13112" y1="3413" x2="14617" y2= "3413" />
   <path class="fil0 str15" d="M14144 2776c139,86 236,235 251,408"/>
   <line class="fil0 str3" x1="13864" y1="2603" x2="13864" y2= "2414" />
   <line class="fil0 str3" x1="13738" y1="2438" x2="13991" y2= "2438" />
  </g>
  <g id="_389484400">
   <circle class="fil0 str15" cx="10849" cy="2859" r="717"/>
   <line class="fil0 str3" x1="10823" y1="2443" x2="10823" y2= "2929" />
   <line class="fil0 str3" x1="11285" y1="2904" x2="10799" y2= "2904" />
  </g>
  <g id="_389483152">
   <path class="fil0 str13" d="M8574 2350l734 196c31,9 50,42 42,73l-105 390c-8,32 -41,51 -72,42l-28 -7 0 0 0 -404c0,-33 -26,-60 -59,-60l-635 0 51 -188c8,-32 41,-51 72,-42z"/>
   <rect class="fil0 str13" x="8267" y="2580" width="878" height="523" rx="59" ry="59"/>
   <line class="fil0 str13" x1="8270" y1="2680" x2="9148" y2= "2680" />
   <line class="fil0 str13" x1="8270" y1="2787" x2="9148" y2= "2787" />
   <line class="fil0 str13" x1="8714" y1="2957" x2="9054" y2= "2957" />
  </g>
  <path class="fil0 str16" d="M1944 3711c110,0 199,89 199,199 0,110 -132,250 -199,322 -66,-71 -198,-212 -198,-322 0,-110 89,-199 198,-199zm0 118c44,0 79,35 79,79 0,44 -35,79 -79,79 -43,0 -79,-35 -79,-79 0,-44 36,-79 79,-79z"/>
  <g id="_389483848">
   <path class="fil0 str16" d="M1160 4084c-41,-60 -73,-124 -73,-181 0,-121 99,-219 220,-219 121,0 219,98 219,219 0,122 -145,276 -219,356"/>
   <polyline class="fil0 str17" points="1205,3988 1250,3818 1303,3943 1363,3820 1405,3988 "/>
  </g>
  <g id="_389483968">
   <circle class="fil0 str17" cx="2671" cy="3972" r="233"/>
   <polyline class="fil0 str17" points="2586,3919 2669,4002 2781,3871 "/>
  </g>
  <g id="_389486608">
   <circle class="fil0 str17" cx="3351" cy="3972" r="233"/>
   <g>
    <line class="fil0 str17" x1="3351" y1="4098" x2="3351" y2= "3934" />
    <line class="fil0 str17" x1="3351" y1="3845" x2="3351" y2= "3879" />
   </g>
  </g>
  <g id="_389483368">
   <path class="fil0 str18" d="M10280 5959c110,-204 -25,-341 -113,-392 -141,-82 -323,-33 -404,108l-123 212c-12,22 -22,45 -28,68"/>
   <path class="fil0 str18" d="M9612 5954c7,-23 16,-45 28,-67l65 -111c-22,-68 -68,-129 -134,-168l0 0c-141,-81 -322,-32 -403,109l-123 212c-6,9 -10,19 -15,28"/>
   <rect class="fil0 str9" x="8530" y="5955" width="2519" height="240"/>
   <polygon class="fil0 str9" points="8661,6201 10918,6201 10620,7439 8938,7439 "/>
   <g>
    <line class="fil0 str18" x1="9581" y1="6415" x2="9581" y2= "7136" />
    <line class="fil0 str18" x1="9999" y1="6415" x2="9999" y2= "7136" />
   </g>
   <line class="fil0 str18" x1="10466" y1="6427" x2="10313" y2= "7124" />
   <line class="fil0 str9" x1="9607" y1="4999" x2="8823" y2= "5793" />
   <line class="fil0 str9" x1="9957" y1="4999" x2="10741" y2= "5793" />
   <polygon class="fil0 str18" points="10178,5545 10173,5426 10296,5497 "/>
   <polygon class="fil0 str18" points="9585,5584 9578,5468 9701,5539 "/>
   <line class="fil0 str18" x1="9107" y1="6427" x2="9260" y2= "7124" />
  </g>
  <g id="_389479720">
   <polyline class="fil0 str9" points="6627,6203 7322,5894 7322,6302 7996,5905 7996,7441 "/>
   <line class="fil0 str9" x1="5629" y1="7441" x2="8174" y2= "7441" />
   <path class="fil0 str9" d="M5796 7426c97,-661 149,-1307 162,-1939l460 0c11,646 64,1292 173,1939"/>
   <polyline class="fil0 str9" points="6105,5696 6418,5696 6418,5712 "/>
   <path class="fil0 str9" d="M6193 5252c0,-202 140,-255 238,-255 287,0 288,330 619,255"/>
   <rect class="fil0 str18" x="6818" y="6448" width="272" height="272"/>
   <rect class="fil0 str18" x="7492" y="6448" width="272" height="272"/>
   <rect class="fil0 str18" x="6818" y="6940" width="272" height="272"/>
   <rect class="fil0 str18" x="7492" y="6940" width="272" height="272"/>
  </g>
  <g id="_389480704">
   <path class="fil0 str9" d="M463 5573l2237 0c236,0 428,193 428,429l0 0c0,236 -192,428 -428,428l-2237 0c-235,0 -428,-192 -428,-428l0 0c0,-236 193,-429 428,-429z"/>
   <circle class="fil0 str9" cx="474" cy="6002" r="204"/>
   <circle class="fil0 str9" cx="1226" cy="6002" r="204"/>
   <circle class="fil0 str9" cx="1932" cy="6002" r="204"/>
   <circle class="fil0 str9" cx="2684" cy="6002" r="204"/>
   <path class="fil0 str9" d="M678 5124c0,170 -138,308 -309,308 -170,0 -308,-138 -308,-308l617 0z"/>
   <path class="fil0 str9" d="M1840 5124c0,170 -138,308 -308,308 -170,0 -308,-138 -308,-308l616 0z"/>
   <path class="fil0 str9" d="M2917 5124c0,170 -138,308 -308,308 -171,0 -309,-138 -309,-308l617 0z"/>
   <path class="fil0 str9" d="M3664 5792c-147,85 -336,35 -421,-113 -85,-147 -34,-336 113,-421l308 534z"/>
   <path class="fil0 str18" d="M3264 6044l1746 0c0,489 -695,461 -695,1468l-366 0c0,-1001 -685,-958 -685,-1468z"/>
  </g>
  <path class="fil0 str19" d="M4185 4013c0,0 15,-9 33,2 19,11 81,59 66,86 -16,27 -61,54 -133,22 -73,-32 -111,-87 -140,-125 -29,-38 -95,-139 -49,-239 0,0 24,-40 50,-43 0,0 12,-2 29,18 17,20 43,67 37,86 0,0 -14,18 -21,30 -7,11 -27,26 -17,60 11,33 59,118 108,117 0,0 21,-1 37,-14z"/>
  <g id="_389488696">
   <path class="fil0 str9" d="M2503 9118c-175,-219 -435,149 -330,457 113,-54 252,-116 387,-204 -15,-111 -33,-223 -57,-253zm-172 881l3 6c154,283 407,348 655,313 195,-28 333,-275 99,-392 -179,-89 -278,-19 -367,-89 -106,61 -255,128 -390,162z"/>
   <path class="fil0 str9" d="M2372 9008c-137,-234 59,-422 100,-477 39,-41 317,-321 684,-143 256,125 361,380 251,592 -18,34 -68,65 -127,82 -15,-30 -41,-59 -81,-95 -50,-45 -125,-23 -196,21 -10,-20 -17,-44 -19,-71 -16,-204 -194,-199 -294,-15 -94,171 -269,190 -318,106z"/>
   <path class="fil0 str9" d="M1859 9754c-125,-155 -591,106 -532,-321 26,-186 -5,-323 -165,-327 -184,-5 -266,210 -252,356 79,808 863,625 945,532 86,-60 55,-177 4,-240z"/>
   <path class="fil0 str9" d="M2077 10006c-130,-53 -244,-164 -122,-300 119,-132 594,-229 889,-579 76,-91 260,-246 355,-160 121,109 116,162 71,335 -54,207 -297,351 -455,473 -144,112 -563,303 -738,231z"/>
   <path class="fil0 str9" d="M783 7887c254,0 443,149 597,284 163,142 253,439 231,669 -33,342 -357,277 -395,254 -38,-22 -131,-115 -70,-251 56,-126 63,-314 -85,-382 -93,-42 -378,-223 -421,-329 -41,-100 -13,-229 143,-245z"/>
   <polyline class="fil0 str9" points="666,7936 577,7834 498,8049 648,8049 "/>
   <polyline class="fil0 str9" points="3227,10141 3351,10197 3332,9969 3196,10032 "/>
  </g>
  <g id="_389489752">
   <line class="fil0 str20" x1="18544" y1="5008" x2="18380" y2= "5171" />
   <line class="fil0 str20" x1="18380" y1="4844" x2="18544" y2= "5007" />
  </g>
  <path class="fil4" d="M15648 8252c0,-693 561,-1254 1254,-1254 693,0 1254,561 1254,1254 0,692 -561,1254 -1254,1254 -693,0 -1254,-562 -1254,-1254zm1254 -1163c642,0 1163,521 1163,1163 0,642 -521,1163 -1163,1163 -642,0 -1163,-521 -1163,-1163 0,-642 521,-1163 1163,-1163z"/>
  <g id="_389490256">
   <path class="fil5" d="M8342 9300c-2,-1 -4,-1 -7,-2 -14,-4 -33,-23 -31,-43 0,-10 4,-18 11,-25 40,-41 81,-81 122,-122 0,-1 1,-2 2,-3 -3,-1 -5,-1 -8,-1 -27,-4 -54,-9 -80,-19 -16,-7 -31,-16 -45,-26 -8,-6 -16,-13 -23,-20 -7,-6 -11,-14 -10,-23 1,-19 12,-38 32,-43 11,-2 22,1 31,6 8,5 15,10 23,15 15,10 31,16 49,21 20,6 41,9 62,9 10,0 20,-1 30,-2 21,-3 41,-8 61,-16 13,-6 26,-14 38,-22 8,-7 17,-11 28,-11 15,-1 27,6 34,18 5,7 7,14 8,22 1,11 -3,19 -10,27 -9,10 -20,17 -31,24 -27,20 -59,30 -92,36 -10,2 -21,3 -32,5 1,1 1,2 2,3 39,39 79,78 118,118 6,5 11,11 14,19 4,15 1,29 -10,40 -7,7 -15,13 -25,14 -1,0 -1,1 -2,1l-8 0c-1,0 -2,-1 -3,-1 -7,-1 -13,-4 -19,-9 -2,-3 -5,-6 -8,-8 -30,-30 -59,-60 -89,-90 -2,-2 -3,-2 -5,0 -30,30 -60,60 -90,91 -8,8 -16,15 -28,16 0,0 -1,1 -1,1l-8 0z"/>
   <path class="fil5" d="M8553 8807c0,-46 -36,-82 -82,-83 -45,0 -82,37 -82,82 -1,46 36,82 80,83 47,1 85,-37 84,-82zm-82 -167c94,0 168,76 167,169 -2,90 -74,164 -167,165 -92,0 -168,-75 -167,-170 2,-90 75,-164 167,-164z"/>
  </g>
  <path class="fil6" d="M5666 9305l0 -314 -82 0 0 -114 82 0c0,0 0,-68 0,-98 1,-23 5,-45 15,-65 20,-40 53,-62 95,-73 29,-7 59,-6 88,-5 13,1 45,4 45,4l-2 107c0,0 -86,0 -88,0 -21,4 -30,15 -31,37 -1,22 -1,93 -1,93l123 0 -5 114 -117 0 0 314 -122 0z"/>
  <path class="fil7" d="M7218 9078c36,30 82,49 130,47 46,-3 93,-24 125,-57 -16,0 -37,-3 -46,-19 -10,-18 8,-33 21,-40 -25,-2 -49,-6 -67,-25 -5,-5 -10,-11 -13,-16 -3,-6 0,-8 6,-12 10,-8 23,-10 36,-12 -27,-8 -53,-20 -67,-46 -2,-4 -10,-21 -6,-26 1,-1 10,-2 12,-2 8,-1 17,-2 26,-3 -31,-20 -59,-48 -56,-88 22,6 43,17 64,26 21,9 42,18 63,27 20,9 39,19 58,30 18,11 33,26 49,40 12,-33 26,-66 44,-96 17,-29 37,-58 66,-75 0,6 -4,11 -6,16 15,-10 32,-19 51,-22 1,9 -9,15 -15,20 7,-2 52,-18 47,1 -2,8 -16,12 -23,14 -10,4 -21,7 -32,11 25,3 49,8 71,21 21,13 39,31 52,53 7,11 12,23 17,35 2,6 4,12 6,19 1,7 1,8 8,10 14,2 27,4 41,3 6,0 13,-1 20,-3 3,-1 12,-5 15,-4 -7,13 -16,22 -29,28 -7,3 -14,5 -21,7 -8,2 -16,1 -23,4 24,9 50,11 76,8 -18,20 -43,30 -70,31 -3,0 -7,-1 -10,0 -2,-1 -3,-1 -4,-1 -1,3 -1,5 -2,7 -2,7 -4,14 -7,21 -4,13 -10,26 -17,38 -26,49 -66,87 -114,114 -51,30 -108,44 -166,50 -56,7 -114,0 -167,-22 -29,-12 -57,-28 -82,-48 -7,-5 -67,-59 -61,-64 1,1 -1,0 0,0z"/>
  <path class="fil8" d="M6570 8912c0,0 44,0 63,-1 8,0 17,-2 25,-4 14,-5 26,-13 32,-28 4,-12 6,-25 4,-38 -3,-15 -9,-29 -24,-36 -8,-4 -17,-7 -25,-7 -25,-2 -75,-2 -75,-2l0 1 0 115zm0 231c0,0 43,0 65,0 15,0 31,-1 46,-6 19,-6 35,-15 43,-35 6,-14 6,-29 4,-44 -3,-22 -16,-36 -36,-44 -13,-6 -27,-7 -41,-7 -25,-1 -81,0 -81,0l0 136zm-138 101l0 -548c0,0 161,-1 238,0 29,0 58,3 85,14 25,9 46,22 61,45 12,19 18,39 19,62 1,37 -10,70 -36,98 -10,10 -22,17 -34,23 -2,1 -10,4 -10,4 0,0 8,2 10,3 27,6 52,18 72,38 19,19 29,42 33,68 4,29 1,58 -9,85 -14,37 -40,63 -74,81 -27,15 -56,23 -87,25 -21,1 -43,2 -65,2 -65,0 -203,0 -203,0z"/>
  <g id="_389490928">
   <g>
    <path class="fil9" d="M7022 10658c-11,-7 -31,-10 -60,-10 -22,0 -42,1 -60,3l0 30c23,-3 42,-4 55,-4 15,0 24,1 28,5 5,3 7,9 7,19l0 10 -53 0c-19,0 -31,4 -39,11 -7,7 -10,20 -10,39 0,21 3,34 10,41 7,6 21,9 42,9 18,0 30,-1 36,-4 7,-2 11,-7 15,-13l0 14 46 0 0 -108c0,-21 -5,-35 -17,-42zm-30 110l0 0c0,3 0,5 -1,7 -1,1 -2,3 -3,4 -2,1 -4,1 -7,2 -3,0 -6,0 -8,1 -3,0 -7,0 -12,0 -11,0 -18,-1 -21,-4 -3,-2 -4,-8 -4,-18 0,-10 1,-17 4,-19 3,-3 9,-4 19,-4l33 0 0 31z"/>
    <path class="fil9" d="M7224 10661c-4,-4 -11,-8 -19,-10 -9,-2 -20,-3 -33,-3 -16,0 -28,1 -37,4 -8,3 -13,8 -16,14l0 -15 -45 0 0 220 47 0 0 -79c3,8 7,13 14,16 8,2 19,3 33,3 24,0 41,-4 51,-12 10,-8 16,-23 16,-47l0 -51c0,-10 -1,-18 -2,-23 -2,-6 -5,-12 -9,-17zm-37 97l0 0c0,10 -2,16 -6,19 -4,3 -13,5 -27,5 -14,0 -23,-2 -27,-5 -4,-3 -6,-9 -6,-19l0 -58c0,-8 2,-14 6,-18 4,-3 13,-5 27,-5 14,0 24,1 28,4 3,3 5,9 5,19l0 58z"/>
    <polygon class="fil9" points="7259,10680 7308,10680 7308,10808 7355,10808 7355,10680 7404,10680 7404,10651 7259,10651 "/>
    <polygon class="fil9" points="7510,10762 7474,10651 7423,10651 7485,10807 7459,10871 7507,10871 7591,10651 7542,10651 "/>
    <path class="fil9" d="M7690 10782c-24,0 -36,-9 -36,-25l0 -58c0,-15 10,-22 32,-22 12,0 29,2 52,8l0 -31c-20,-4 -36,-6 -48,-6 -7,0 -13,0 -17,0 -5,0 -10,0 -17,1 -7,1 -12,2 -16,4 -4,1 -9,3 -14,6 -4,3 -8,6 -11,10 -3,4 -5,9 -7,15 -2,6 -3,13 -3,21l0 52c0,9 2,16 4,23 2,6 5,11 10,15 4,4 9,7 13,9 4,3 10,4 17,5 8,1 14,2 19,2 4,0 11,0 19,0 16,0 34,-2 53,-5l0 -31c-22,4 -39,7 -50,7z"/>
   </g>
   <g>
    <g>
     <path class="fil10" d="M5512 10197l0 1124 1124 0 0 -1124 -1124 0zm205 717l0 0 -104 0 0 -104 104 0 0 104zm407 306l0 0 -100 0 -2 0 -103 0 0 -104 103 0 0 -306 102 0 0 410zm-308 -203l0 0 0 -207 103 0 0 207 -103 0zm717 203l0 0 -205 0 0 -102 -103 0 0 -103 105 0 0 101 203 0 0 104zm0 -306l0 0 -308 0 0 -104 308 0 0 104zm0 -510l0 0 -102 0 0 305 -103 0 0 -305 -101 0 0 101 0 105 -103 0 0 100 -203 0 -79 0 -26 0 0 -100 -99 0 0 100 -104 0 0 -306 0 -29 0 -75 920 0 0 104z"/>
     <polygon class="fil10" points="6022,10503 6124,10503 6124,10404 5921,10404 5921,10606 6022,10606 "/>
     <polygon class="fil10" points="5816,10404 5717,10404 5717,10505 5816,10505 "/>
    </g>
   </g>
   <rect class="fil0 str21" x="6771" y="10215" width="1088" height="1088"/>
  </g>
  <path class="fil11" d="M17554 10011c958,0 1735,777 1735,1735 0,958 -777,1735 -1735,1735 -958,0 -1735,-777 -1735,-1735 0,-958 777,-1735 1735,-1735z"/>
  <path class="fil12" d="M14084 13496c959,0 1735,777 1735,1735 0,958 -776,1735 -1735,1735 -958,0 -1735,-777 -1735,-1735 0,-958 777,-1735 1735,-1735z"/>
  <path class="fil12" d="M17554 13496c958,0 1735,777 1735,1735 0,958 -777,1735 -1735,1735 -958,0 -1735,-777 -1735,-1735 0,-958 777,-1735 1735,-1735z"/>
  <g id="_389244960">
   <line class="fil0 str8" x1="17058" y1="11746" x2="16739" y2= "12065" />
   <line class="fil0 str8" x1="16739" y1="11426" x2="17058" y2= "11745" />
  </g>
  <path class="fil11" d="M14084 10011c-958,0 -1735,777 -1735,1735 0,958 777,1735 1735,1735 959,0 1735,-777 1735,-1735 0,-958 -776,-1735 -1735,-1735z"/>
  <g id="_389245080">
   <line class="fil0 str8" x1="14581" y1="11746" x2="14900" y2= "12065" />
   <line class="fil0 str8" x1="14900" y1="11426" x2="14581" y2= "11745" />
  </g>
  <g id="_389246304">
   <line class="fil0 str22" x1="17058" y1="15232" x2="16739" y2= "15551" />
   <line class="fil0 str22" x1="16739" y1="14912" x2="17058" y2= "15231" />
  </g>
  <g id="_389248632">
   <line class="fil0 str22" x1="14581" y1="15232" x2="14900" y2= "15551" />
   <line class="fil0 str22" x1="14900" y1="14912" x2="14581" y2= "15231" />
  </g>
  <path class="fil1" d="M12292 8255c246,0 446,200 446,446 0,247 -284,475 -446,625 -164,-151 -446,-378 -446,-625 0,-246 199,-446 446,-446z"/>
  <g id="_389245632">
   <path class="fil1" d="M11080 8255c246,0 446,200 446,446 0,247 -284,475 -446,625 -164,-151 -447,-378 -447,-625 0,-246 200,-446 447,-446z"/>
   <circle class="fil13" cx="11080" cy="8697" r="178"/>
  </g>
  <g id="_389244312">
   <path class="fil1" d="M10022 8674c150,0 271,122 271,272 0,150 -172,289 -271,380 -100,-92 -272,-230 -272,-380 0,-150 122,-272 272,-272z"/>
   <circle class="fil13" cx="10022" cy="8943" r="108"/>
  </g>
  <g id="_389241504">
   <path class="fil14" d="M9354 15084c-6,-103 54,-184 140,-225 92,-44 208,-38 302,-2 43,16 82,39 125,57 152,63 290,89 462,86 170,-3 296,-37 443,-102 44,-20 77,-41 130,-54 109,-27 214,-22 296,35 181,125 106,355 -54,470 -62,44 -167,90 -247,119 -403,146 -833,144 -1232,-15 -89,-36 -173,-75 -237,-129 -52,-43 -120,-132 -128,-240zm-136 -362l17 66c5,19 17,50 17,69 -25,6 -118,33 -132,34 0,22 15,52 15,70l103 -26c20,-5 90,-26 103,-26 -16,24 -26,37 -33,69 -20,85 -23,94 -1,181 31,125 114,210 223,274 115,69 311,130 440,159 322,73 582,56 898,-32 47,-13 120,-39 164,-57 79,-31 148,-65 217,-115 53,-38 122,-122 144,-187 9,-27 16,-59 22,-89 8,-37 6,-61 -3,-96 -7,-32 -12,-62 -28,-85 17,4 33,8 51,13l161 42c5,-9 19,-61 19,-74 -14,0 -23,-4 -35,-8l-107 -29c5,-8 37,-130 37,-141 -8,-4 -59,-17 -71,-18l-55 205c-11,-3 -16,-16 -26,-29 -5,-7 -8,-8 -13,-15 -41,-48 -104,-82 -165,-95 -93,-20 -114,-25 -209,-4 -128,29 -116,43 -227,87 -161,65 -252,72 -426,72 -67,0 -130,-10 -189,-20 -96,-18 -155,-51 -231,-82 -89,-36 -30,-25 -153,-56 -82,-21 -127,-18 -207,1 -67,16 -93,32 -145,71 -28,22 -42,48 -52,55 -2,-22 -52,-180 -52,-203 -10,1 -64,15 -71,19z"/>
   <path class="fil14" d="M10337 15124c219,0 413,-47 605,-144 15,-8 31,-14 51,-20 26,-8 35,-6 65,-8 51,-4 74,3 113,23 41,20 63,50 63,97 0,42 -22,90 -49,121 -52,58 -93,84 -172,116 -68,27 -82,38 -165,65 -89,30 -184,53 -281,64 -46,5 -110,12 -157,12 -52,0 -22,5 -80,0 -9,-1 -21,0 -30,0 -115,0 -242,-23 -352,-50 -32,-8 -60,-18 -90,-28 -26,-8 -57,-20 -83,-30 -37,-15 -120,-51 -156,-72 -68,-41 -147,-115 -141,-203 6,-104 128,-127 220,-112 59,10 152,68 247,100 108,35 251,69 392,69zm-725 -234c-96,10 -175,61 -193,143 -21,99 48,196 92,235 30,27 55,45 98,67 474,245 1036,231 1490,2 67,-34 77,-46 119,-87 16,-15 42,-55 53,-76 98,-209 -107,-334 -316,-267 -63,21 -123,62 -236,98 -283,90 -572,73 -845,-45 -84,-36 -147,-82 -262,-70z"/>
  </g>
  <path class="fil15" d="M2032 14955c1,1 -26,9 -142,47 -115,39 -108,109 -107,118l1 684c-3,28 -3,97 26,130 8,8 21,19 51,19l783 0c30,0 43,-11 51,-19 30,-33 29,-102 26,-125l0 -681c2,-17 9,-87 -107,-126 -109,-36 -139,-45 -147,-47 -46,-4 -131,-43 -131,-163 0,-98 98,-136 149,-142 42,-1 97,-14 97,-33 0,-25 -10,-29 -10,-29l-647 0c6,0 -2,6 -2,29 0,20 59,32 91,32 57,7 155,45 155,143 0,121 -87,160 -133,163 -2,0 -3,0 -4,0zm612 1093l-783 0c-50,0 -92,-18 -122,-52 -62,-70 -51,-185 -49,-198l-1 -670c-9,-46 13,-163 171,-215 146,-49 161,-52 170,-52 14,-2 44,-14 44,-69 0,-39 -66,-48 -66,-48 -63,1 -180,-27 -180,-127 0,-84 58,-117 88,-123l664 0c39,6 97,39 97,123 0,100 -117,127 -186,127 2,0 -60,10 -60,48 0,55 29,67 44,69 9,0 26,4 169,51 159,53 181,170 171,224l1 668c1,7 12,122 -50,192 -30,34 -72,52 -122,52z"/>
  <path class="fil15" d="M1999 12301c0,-10 9,-19 20,-19 10,0 19,9 19,19 0,11 -9,20 -19,20 -11,0 -20,-9 -20,-20zm-1255 439c3,75 104,238 116,272 12,34 36,80 81,118 44,38 85,143 112,193 70,130 188,103 188,103 0,0 2,15 28,34 25,19 61,33 61,33 0,0 4,68 0,97 -3,29 -18,60 -18,60 0,0 -43,-3 -69,5 -25,8 -12,20 -12,20 0,0 52,-1 98,14 46,15 73,70 73,70 0,0 16,-12 17,-20 2,-9 4,-21 4,-21l51 9 65 5c0,0 9,-33 -63,-34 -72,-2 -91,-18 -115,-41 -14,-14 10,-170 10,-170l26 -20c0,0 26,17 46,22 21,5 50,4 50,4 0,0 34,116 31,134 -4,20 -12,30 -28,30 -42,-2 -46,15 -46,15l50 8 58 -13 29 31 63 20 0 -24 130 0c0,0 11,-25 -53,-27 -63,-2 -123,2 -150,-26 -28,-27 -48,-148 -48,-148 0,0 92,-110 143,-146 52,-36 250,-179 320,-282 71,-103 43,-257 4,-359 -40,-103 -41,-250 -41,-250 0,0 45,39 85,7 26,-20 14,-91 14,-91 0,0 12,-10 32,2 21,12 43,14 43,14 0,0 7,-12 -10,-34 -17,-23 -24,-14 -23,-64 2,-49 -39,-63 -39,-63 0,0 0,-55 -24,-51 -23,3 -32,-24 -56,-17 -24,6 -38,27 -38,27 0,0 -56,-10 -67,22 -9,33 33,50 33,50 0,0 -169,12 -260,227 -85,203 -147,264 -383,241 -105,-9 -126,-94 -152,-147 -50,-102 -74,-207 -74,-207 0,0 -1,-12 -37,2 -36,14 -50,12 -58,12 -9,0 -57,70 -57,70l-58 2c0,0 2,29 4,51 1,23 16,68 16,68l-66 -47c0,0 -39,135 -36,210z"/>
  <g id="_389244528">
   <path class="fil15" d="M6302 14583c-382,0 -693,311 -693,694 0,382 311,694 693,694 383,0 694,-312 694,-694 0,-383 -311,-694 -694,-694zm0 1469c-427,0 -775,-348 -775,-775 0,-428 348,-776 775,-776 428,0 776,348 776,776 0,427 -348,775 -776,775z"/>
   <polygon class="fil15" points="6804,15388 6223,15388 6223,14767 6304,14767 6304,15307 6804,15307 "/>
  </g>
  <g id="_389241816">
   <path class="fil15" d="M3917 15995l-61 -109c3,-1 339,-190 802,-432 101,-53 195,-200 223,-351 15,-73 24,-211 -67,-317 -241,-280 -571,-87 -585,-78l-689 332 -54 -112 684 -330c144,-86 491,-180 739,107 92,107 126,257 95,422 -36,190 -152,366 -288,437 -462,242 -796,429 -799,431z"/>
   <path class="fil15" d="M3665 15017c-207,0 -375,208 -375,464 0,256 168,464 375,464 206,0 374,-208 374,-464 0,-256 -168,-464 -374,-464zm0 1052c-276,0 -500,-264 -500,-588 0,-325 224,-589 500,-589 274,0 498,264 498,589 0,324 -224,588 -498,588z"/>
   <path class="fil15" d="M3531 15648c-15,0 -31,21 -31,51 0,29 16,50 31,50 14,0 30,-21 30,-50 0,-30 -16,-51 -30,-51zm0 160c-50,0 -89,-48 -89,-109 0,-62 39,-109 89,-109 49,0 88,47 88,109 0,61 -39,109 -88,109z"/>
   <path class="fil15" d="M3749 15742c-11,1 -21,20 -18,41 3,21 15,36 25,36l0 29 1 -29c11,-1 20,-19 17,-41 -2,-21 -15,-36 -25,-36zm7 135c-41,0 -77,-37 -83,-87 -6,-53 24,-100 68,-105l8 -1c41,0 77,37 83,87 7,53 -23,100 -68,105l-8 1z"/>
   <path class="fil15" d="M3933 15502c-20,0 -37,19 -37,44 0,24 17,44 37,44 21,0 37,-20 37,-44 0,-25 -16,-44 -37,-44zm0 146c-53,0 -95,-46 -95,-102 0,-57 42,-102 95,-102 53,0 95,45 95,102 0,56 -42,102 -95,102z"/>
   <path class="fil15" d="M3782 15295c-16,0 -30,11 -30,26 0,14 14,26 30,26 16,0 28,-12 28,-26 0,-14 -13,-26 -28,-26zm0 110c-48,0 -88,-38 -88,-84 0,-46 40,-84 88,-84 47,0 86,38 86,84 0,46 -39,84 -86,84z"/>
   <path class="fil15" d="M3775 15204c-39,0 -69,-33 -69,-73 0,-40 30,-73 69,-73 38,0 69,33 69,73 0,40 -31,73 -69,73z"/>
   <path class="fil15" d="M3520 15131c-16,0 -29,12 -29,26 0,15 13,27 29,27 16,0 29,-13 29,-27 0,-14 -13,-26 -29,-26zm0 111c-48,0 -87,-38 -87,-85 0,-46 39,-84 87,-84 48,0 87,38 87,84 0,47 -39,85 -87,85z"/>
   <path class="fil15" d="M3595 15364c-14,0 -24,6 -31,19 -5,10 -6,21 -3,29 1,4 3,8 8,10l7 2c8,0 20,-6 27,-21 5,-10 6,-20 4,-29 -1,-3 -4,-8 -8,-10 -2,0 -3,0 -4,0zm-19 118c-12,0 -23,-3 -34,-8 -17,-9 -30,-24 -37,-44 -7,-23 -5,-50 8,-74 22,-42 73,-63 112,-44 17,9 31,25 37,44 8,23 5,50 -7,74 -16,32 -48,52 -79,52z"/>
   <path class="fil15" d="M3374 15458c-9,0 -18,12 -18,28 0,17 10,29 18,29 8,0 18,-12 18,-29 0,-16 -10,-28 -18,-28zm0 116c-42,0 -76,-40 -76,-88 0,-48 34,-87 76,-87 42,0 76,39 76,87 0,48 -34,88 -76,88z"/>
   <path class="fil15" d="M4958 14850l6 8 123 -22 -34 -36 23 -24 -57 -22 2 -7 -63 103zm-36 100l-61 -100 135 -222 139 6 -18 68 104 39 -55 59 83 90 -327 60z"/>
  </g>
  <path class="fil15" d="M5512 12924c0,0 -200,16 -260,-52 -60,-69 -21,-88 -160,-250 -139,-162 -335,-266 -590,-299 -103,-13 -229,-22 -354,-31 -186,-15 -380,-37 -471,-46 0,0 -163,-25 -267,8 -104,33 -151,81 -212,92 -60,10 -87,-71 -75,-115 5,-17 40,-29 52,-12 18,24 13,87 13,87 0,0 50,-6 40,-58 -11,-52 -51,-100 -113,-79 -62,21 -65,134 13,212 23,23 4,98 -9,156 -5,25 -14,137 19,226 44,122 135,227 146,258 18,54 27,94 16,146 -11,52 -37,52 -15,122 23,71 50,167 48,194 -2,27 2,141 2,141l25 -31c0,0 17,27 23,43 6,17 33,51 33,51l77 1c0,0 -52,-101 -56,-303 -4,-202 156,-268 156,-268 51,4 105,24 141,27 208,19 207,5 341,14 181,13 366,-1 366,-1 0,0 15,93 52,195 37,102 36,95 46,145 10,50 25,139 25,139l18 -14c0,0 7,58 48,69 42,10 61,-7 61,-7 0,0 -61,-186 -2,-395 14,-51 43,-99 43,-99l106 4c0,0 48,118 223,212 57,31 135,45 135,45 0,0 -25,-30 -44,-56 -18,-24 -18,-45 -18,-45 0,0 85,108 139,116 54,8 83,-68 83,-68 0,0 -52,14 -75,-198 -11,-102 9,-91 9,-91 0,0 41,-15 85,-17 43,-2 79,-15 79,-15 0,0 -5,-12 -29,-23 -25,-10 -46,-37 -46,-37 0,0 29,-15 77,-45 48,-32 56,-48 56,-48z"/>
  <g id="_389248800">
   <path class="fil15" d="M831 15275l35 0 0 -687c0,-33 23,-61 51,-61 28,0 51,28 51,61l0 579 35 0 0 -207 90 0 0 -36 -90 0 0 -182 90 0 0 -35 -90 0 0 -119c0,-53 -38,-96 -86,-96 -48,0 -86,43 -86,96l0 119 -91 0 0 35 91 0 0 182 -91 0 0 36 91 0 0 192 -91 0 0 36 91 0 0 87z"/>
   <path class="fil15" d="M1126 15125l-427 407 -189 0 0 36 203 0 123 -117 0 343c-31,24 -51,62 -51,104 0,73 59,133 132,133 74,0 133,-60 133,-133 0,-42 -20,-80 -51,-104l0 -499 141 -135 180 0 0 -35 -194 0z"/>
  </g>
  <path class="fil2" d="M6513 13673c0,-15 9,-1 3,0 0,0 -3,16 -3,0zm-6 -51l6 0 0 34 -6 0 0 -34zm0 -46l6 0 0 34 -6 0 0 -34zm1225 23l0 0zm0 0l-6 -6 6 6zm-6 -6l0 0zm-17 -22l2 1c0,0 -2,-1 -2,-1zm-6 -12l2 2c0,0 -2,-1 -2,-2zm-1202 -6l2 2c0,0 -2,-1 -2,-2zm1197 -5l1 1c0,0 -2,-1 -1,-1zm-6 -12l2 2c0,0 -2,-1 -2,-2zm-1196 0c0,-14 9,-1 3,0 0,0 -3,16 -3,0zm1190 -17c-2,-11 8,-20 4,-3 0,0 0,23 -4,3zm-1196 -5c0,-15 9,-1 3,0 0,0 -3,15 -3,0zm-6 -23l2 1c0,0 -2,-1 -2,-1zm-5 -17c0,-15 9,-1 3,0 0,0 -3,16 -3,0zm-6 -23l2 2c0,-1 -3,-2 -2,-2zm1213 -46l6 0 0 40 -6 0 0 -40zm-1219 29c0,-15 9,-1 4,0 0,0 -4,16 -4,0zm-5 -17c0,-15 9,-1 3,0 0,0 -3,16 -3,0zm-6 -23c0,-15 9,-1 3,0 0,0 -3,16 -3,0zm-6 -23c0,-14 9,-1 4,0 0,0 -4,16 -4,0zm1242 -6c-2,-10 7,-20 4,-3 0,0 0,23 -4,3zm-1248 -17c0,-14 10,-1 4,0 0,0 -4,16 -4,0zm1254 -22l1 1c0,0 -2,-1 -1,-1zm5 -18l2 2c0,0 -2,-1 -2,-2zm-1259 0c0,-14 10,0 4,0 0,0 -4,16 -4,0zm1265 -17c0,-14 9,-1 4,0 0,0 -4,16 -4,0zm-1259 0c0,-14 9,-1 4,0 0,0 -4,16 -4,0zm6 -17l2 2c-1,0 -3,-1 -2,-2zm1259 -5c0,-15 9,-1 3,0 0,0 -3,15 -3,0zm-1322 0c-2,-11 7,-21 4,-4 0,0 0,23 -4,4zm69 -12l1 2c0,0 -2,-1 -1,-2zm1259 -11c0,-15 9,-1 3,0 0,0 -3,16 -3,0zm-1254 -6l2 2c0,0 -2,-1 -2,-2zm-68 0c0,-14 9,-1 3,0 0,0 -3,16 -3,0zm1327 -17c0,-15 9,-1 4,0 0,0 -4,16 -4,0zm-1253 0l2 2c0,0 -3,-1 -2,-2zm-68 -6c0,-14 9,-1 3,0 0,0 -3,16 -3,0zm74 -5c0,-15 9,-1 3,0 0,0 -3,16 -3,0zm1253 -12c0,-14 9,-1 3,0 0,0 -3,16 -3,0zm-1248 -5c0,-15 9,-1 4,0 0,0 -4,15 -4,0zm-74 0l2 1c0,0 -2,-1 -2,-1zm1328 -18c0,-14 9,0 3,0 0,0 -3,16 -3,0zm-1248 0c0,-14 9,0 3,0 0,0 -3,16 -3,0zm-74 0l2 2c0,0 -3,-1 -2,-2zm1327 -17c0,-14 9,-1 4,0 0,0 -4,16 -4,0zm-1321 0c0,-14 9,-1 3,0 0,0 -3,16 -3,0zm74 -125l5 0 0 125 -5 0 0 -125zm-69 108c0,-14 9,-1 4,0 0,0 -4,16 -4,0zm1322 -5l2 1c0,0 -3,-1 -2,-1zm-1316 -12c0,-14 9,-1 3,0 0,0 -3,16 -3,0zm6 -17c0,-15 9,-1 3,0 0,0 -3,16 -3,0zm5 -17c0,-15 10,-1 4,0 0,0 -4,16 -4,0zm46 -125c7,10 6,-13 5,11 -1,12 -1,5 -5,11l0 -22zm-85 -302c1,54 68,202 85,273l-11 0c0,43 -7,101 -27,139 0,1 -1,2 -2,4 -8,-37 -19,-63 -29,-97 -13,-40 -12,-57 -17,-108 -5,-49 -44,-178 1,-211zm1914 -445c-24,-12 -108,-79 -108,17 0,29 5,26 5,52l-364 85c-19,0 -44,-11 -126,-11 -230,0 -422,85 -678,85 -46,0 -138,-33 -194,-39 -101,-10 -116,-7 -225,7 -106,15 -293,1 -293,215 0,83 9,170 20,248 6,43 10,76 17,119 20,132 19,136 2,269 -16,120 -33,111 -51,162 -14,40 33,16 51,-36 8,-21 8,-39 24,-50 0,102 20,248 28,347 85,7 62,-6 86,-4 24,2 24,27 80,27 38,0 88,-5 114,-17 -5,-20 -98,-175 -116,-204 -41,-68 -37,-80 1,-173 8,-21 19,-36 23,-56 27,0 64,16 92,23 -10,39 -9,28 0,45 23,-6 15,-10 34,-45 45,0 71,-11 108,-12 11,22 9,33 34,40l7 -62c37,-9 32,-29 55,-41 17,-9 59,-10 84,-13l179 -15c122,-5 257,-32 353,-40 7,15 40,185 40,211 0,40 4,97 -7,130 -3,11 -16,31 -16,41 0,13 26,51 30,78 5,27 -27,58 3,77 17,11 135,8 160,12 3,0 62,16 37,-25 -38,-60 -48,-18 -64,-80 -6,-22 -29,-52 -29,-91 0,-71 34,-131 39,-194 8,-81 42,-160 42,-162 0,-9 8,1 -13,-14 61,-1 135,-96 166,-136 65,-81 19,-25 75,-79 136,-131 9,-111 193,-262 9,-7 34,-29 43,-32 21,-8 39,4 70,2 44,-2 95,-11 143,-11 66,0 145,21 212,-15 94,-50 -8,-127 -57,-163 -24,-18 -34,-31 -55,-48 -22,-17 -42,-29 -49,-59 5,-7 76,-85 11,-103 15,-21 29,-37 29,-74 -17,5 -24,11 -36,22 -27,23 -75,55 -112,58 -11,-47 23,-108 -22,-68l-66 55c-10,8 -4,3 -9,7z"/>
  <path class="fil14" d="M8073 15942l0 -671c7,-2 24,-12 33,-17 13,-6 21,-11 34,-18 53,-26 115,-62 168,-89l67 -35c13,-6 21,-12 34,-18l69 -37c25,-15 114,-58 135,-72l0 674 -540 283zm-637 -957l471 250c13,7 21,12 34,19 9,4 28,15 35,17l0 671 -540 -283 0 -674zm10 -86c15,-3 57,-27 73,-35l361 -182c24,-12 47,-23 71,-36 11,-5 64,-36 73,-36 7,-1 60,29 70,35 38,21 172,86 218,109 50,25 95,48 144,73 25,13 47,24 72,36 17,8 60,32 74,36 -5,7 -91,51 -106,58 -68,34 -150,82 -216,115l-255 133c-7,0 -62,-31 -73,-36 -55,-28 -123,-67 -180,-95 -14,-7 -24,-14 -37,-20l-36 -20c-14,-7 -23,-11 -36,-19l-108 -57c-14,-7 -23,-12 -36,-19 -13,-6 -68,-33 -73,-40zm-89 -42l0 849 666 355 668 -355 0 -849c-2,-1 -4,1 -19,-7 -8,-4 -13,-7 -21,-11l-606 -305c-4,-2 -6,-3 -10,-6 -4,-3 -4,-9 -14,-5l-664 334z"/>
 </g>
</svg>
