<?xml version="1.0" encoding="UTF-8"?>
<!DOCTYPE svg PUBLIC "-//W3C//DTD SVG 1.1//EN" "http://www.w3.org/Graphics/SVG/1.1/DTD/svg11.dtd">
<!-- Creator: CorelDRAW 2017 -->
<svg xmlns="http://www.w3.org/2000/svg" xml:space="preserve" width="2480px" height="3508px" version="1.1" shape-rendering="geometricPrecision" text-rendering="geometricPrecision" image-rendering="optimizeQuality" fill-rule="evenodd" clip-rule="evenodd"
viewBox="0 0 2480 3507.43"
 xmlns:xlink="http://www.w3.org/1999/xlink">
 <defs>
  <linearGradient id="id0" gradientUnits="userSpaceOnUse" x1="1239.88" y1="1903.67" x2="1239.88" y2="1603.63">
   <stop offset="0" stop-opacity="1" stop-color="#64BAE9"/>
   <stop offset="1" stop-opacity="1" stop-color="#FEFEFE"/>
  </linearGradient>
 </defs>
<symbol id="icon-11" viewBox="84375.27 83179.2 5277.67 7984.87">
 <path fill="none" stroke-width="290.89" d="M88296.44 88952.64c641.17,213.72 997.38,569.93 997.38,926.13 0,641.17 -997.38,1139.86 -2279.71,1139.86 -1282.34,0 -2279.71,-498.69 -2279.71,-1139.86 0,-356.2 356.2,-712.41 997.37,-926.13"/>
 <path fill="none" stroke-width="290.81" d="M87014.11 83324.6c1353.57,0 2493.43,1139.86 2493.43,2493.44 0,1424.82 -1638.54,3134.6 -2493.43,4060.73 -854.89,-854.89 -2493.44,-2635.91 -2493.44,-4060.73 0,-1353.58 1139.86,-2493.44 2493.44,-2493.44zm0 1496.06c569.92,0 997.37,427.45 997.37,997.38 0,569.93 -427.45,997.37 -997.37,997.37 -569.93,0 -997.38,-427.44 -997.38,-997.37 0,-569.93 427.45,-997.38 997.38,-997.38z"/>
</symbol>
<symbol id="icon-06" viewBox="42235.04 43360.65 7811.98 7723.49">
 <polygon fill="none" stroke="#D6D5D5" stroke-width="327.72" points="46141.03,43566.93 46809.72,44078.29 47635.76,43881.61 48068.45,44628.98 48894.48,44786.32 48973.15,45612.36 49641.85,46123.72 49366.5,46910.42 49838.53,47657.79 49248.5,48247.81 49327.17,49113.18 48540.47,49427.87 48304.46,50253.9 47478.42,50214.57 46927.73,50883.26 46141.03,50529.25 45393.66,50883.26 44803.63,50214.57 43977.59,50253.9 43741.58,49427.87 42954.88,49113.18 43033.55,48247.81 42443.53,47657.79 42915.55,46910.42 42640.2,46123.72 43308.9,45612.36 43387.57,44786.32 44213.61,44628.98 44646.29,43881.61 45472.33,44078.29 "/>
 <path fill="none" stroke="#D6D5D5" stroke-width="327.72" d="M44488.95 45612.36c275.35,-314.68 747.37,-314.68 1022.71,0 275.35,275.35 275.35,708.03 0,1022.71 -275.34,275.35 -747.36,275.35 -1022.71,0 -275.34,-314.68 -275.34,-747.36 0,-1022.71z"/>
 <path fill="none" stroke="#D6D5D5" stroke-width="327.72" d="M46770.39 47854.46c275.34,-275.35 747.36,-275.35 1022.71,0 275.35,314.68 275.35,747.37 0,1062.05 -275.35,275.34 -747.37,275.34 -1022.71,0 -275.35,-314.68 -275.35,-747.37 0,-1062.05z"/>
 <line fill="none" stroke="#D6D5D5" stroke-width="327.72" x1="45039.64" y1="48287.15" x2="47203.07" y2= "46163.05" />
</symbol>
<symbol id="icon-27" viewBox="9430.24 14088.33 7740.43 3782.39">
 <path fill="none" stroke="#D6D5D5" stroke-width="107.07" d="M10139.16 14835.8l3431.16 0c359.82,0 655.39,295.57 655.39,655.39l0 0c0,359.82 -295.57,655.39 -655.39,655.39l-3431.16 0c-359.82,0 -655.39,-295.57 -655.39,-655.39l0 0c0,-359.82 295.57,-655.39 655.39,-655.39z"/>
 <circle fill="none" stroke="#D6D5D5" stroke-width="107.07" cx="10152.01" cy="15491.19" r="308.42"/>
 <circle fill="none" stroke="#D6D5D5" stroke-width="107.07" cx="11308.58" cy="15491.19" r="308.42"/>
 <circle fill="none" stroke="#D6D5D5" stroke-width="107.07" cx="12388.05" cy="15491.19" r="308.42"/>
 <circle fill="none" stroke="#D6D5D5" stroke-width="107.07" cx="13544.62" cy="15491.19" r="308.42"/>
 <path fill="none" stroke="#D6D5D5" stroke-width="107.07" d="M10460.43 14141.86c0,257.02 -205.61,475.48 -475.48,475.48 -257.01,0 -462.63,-218.46 -462.63,-475.48l938.11 0z"/>
 <path fill="none" stroke="#D6D5D5" stroke-width="107.07" d="M12246.69 14141.86c0,257.02 -205.61,475.48 -462.63,475.48 -269.87,0 -475.48,-218.46 -475.48,-475.48l938.11 0z"/>
 <path fill="none" stroke="#D6D5D5" stroke-width="107.07" d="M13904.44 14141.86c0,257.02 -205.62,475.48 -475.48,475.48 -257.02,0 -475.48,-218.46 -475.48,-475.48l950.96 0z"/>
 <path fill="none" stroke="#D6D5D5" stroke-width="107.07" d="M15061.01 15169.92c-231.32,128.51 -526.88,51.4 -655.39,-179.91 -128.51,-218.46 -51.41,-514.03 179.91,-642.54l475.48 822.45z"/>
 <path fill="none" stroke="#64BAE9" stroke-width="107.07" d="M14444.17 15555.44l2672.96 0c0,758.2 -1066.61,706.8 -1066.61,2261.74l-552.59 0c0,-1542.09 -1053.76,-1477.84 -1053.76,-2261.74z"/>
</symbol>
<symbol id="icon-51" viewBox="1220.51 1713.67 38.98 80.09">
 <path fill="#3A5795" fill-rule="nonzero" d="M1230.31 1793.76l0 -37.55 -9.8 0 0 -13.63 9.8 0c0,0 0,-8.14 0,-11.72 0.12,-2.75 0.6,-5.39 1.8,-7.78 2.39,-4.78 6.33,-7.41 11.36,-8.73 3.47,-0.83 7.05,-0.71 10.52,-0.59 1.55,0.11 5.38,0.47 5.38,0.47l-0.24 12.8c0,0 -10.28,0 -10.52,0 -2.51,0.48 -3.59,1.79 -3.71,4.42 -0.12,2.64 -0.12,11.13 -0.12,11.13l14.71 0 -0.6 13.63 -13.99 0 0 37.55 -14.59 0z"/>
</symbol>
<symbol id="icon-50" viewBox="1090.04 1603.75 299.92 299.92">
 <path fill="url(#id0)" d="M1090.04 1753.71c0,-82.87 67.09,-149.96 149.96,-149.96 82.87,0 149.96,67.09 149.96,149.96 0,82.76 -67.09,149.96 -149.96,149.96 -82.87,0 -149.96,-67.2 -149.96,-149.96zm149.96 -139.07c76.77,0 139.08,62.3 139.08,139.07 0,76.78 -62.31,139.08 -139.08,139.08 -76.77,0 -139.08,-62.3 -139.08,-139.08 0,-76.77 62.31,-139.07 139.08,-139.07z"/>
</symbol>
<symbol id="icon-02" viewBox="46364.23 44847.76 5210.73 7809.37">
 <path fill="none" stroke="#D6D5D5" stroke-width="338.29" d="M50187.7 50498.4c649.66,203.02 1055.7,527.85 1055.7,893.28 0,609.05 -1015.09,1096.3 -2273.81,1096.3 -1258.71,0 -2273.8,-487.25 -2273.8,-1096.3 0,-365.43 406.03,-690.26 974.49,-852.68"/>
 <path fill="none" stroke="#D6D5D5" stroke-width="338.29" d="M48969.59 45016.9c1339.92,0 2436.22,1096.3 2436.22,2436.22 0,1339.92 -1624.15,3085.88 -2436.22,3979.16 -812.07,-893.28 -2436.22,-2639.24 -2436.22,-3979.16 0,-1339.92 1096.3,-2436.22 2436.22,-2436.22zm0 1421.13c527.85,0 974.49,446.64 974.49,974.49 0,568.45 -446.64,974.49 -974.49,974.49 -527.85,0 -974.49,-406.04 -974.49,-974.49 0,-527.85 446.64,-974.49 974.49,-974.49z"/>
</symbol>
<symbol id="icon-08" viewBox="35634.76 37621.27 7749.02 6463.15">
 <line fill="none" stroke="#D6D5D5" stroke-width="283.17" x1="39543.25" y1="40073.96" x2="39543.25" y2= "44084.42" />
 <path fill="none" stroke="#D6D5D5" stroke-width="283.17" d="M40562.86 39972l0 1461.44c0,543.79 -441.83,1019.6 -1019.61,1019.6l0 0c-543.79,0 -1019.61,-475.81 -1019.61,-1019.6l0 -1461.44"/>
 <path fill="none" stroke="#D6D5D5" stroke-width="283.17" d="M42194.23 37898.8c-781.7,543.79 -1665.36,781.7 -2583,781.7 -951.64,0 -1835.3,-271.9 -2583.01,-781.7l0 33.98c-135.95,-101.96 -271.89,-169.93 -441.83,-169.93 -373.86,0 -679.74,339.87 -679.74,713.72 0,271.9 135.95,509.81 373.86,611.77 985.62,611.76 2107.19,985.62 3330.72,985.62 1087.58,0 2141.17,-271.9 3126.79,-849.67 271.9,-101.97 441.83,-339.87 441.83,-645.76 0,-407.84 -305.88,-713.72 -679.74,-713.72 -101.96,0 -203.92,33.99 -271.89,67.97l-33.99 -33.98 0 0 0 0z"/>
 <line fill="none" stroke="#D6D5D5" stroke-width="283.17" x1="39543.25" y1="38714.48" x2="39543.25" y2= "39054.35" />
 <line fill="none" stroke="#D6D5D5" stroke-width="283.17" x1="37504.04" y1="38204.68" x2="37334.1" y2= "38510.56" />
 <line fill="none" stroke="#D6D5D5" stroke-width="283.17" x1="41684.43" y1="38204.68" x2="41854.36" y2= "38510.56" />
 <line fill="none" stroke="#D6D5D5" stroke-width="283.17" x1="38489.66" y1="38544.55" x2="38421.68" y2= "38884.42" />
 <line fill="none" stroke="#D6D5D5" stroke-width="283.17" x1="40732.79" y1="38544.55" x2="40800.77" y2= "38884.42" />
 <line fill="none" stroke="#D6D5D5" stroke-width="283.17" x1="36042.6" y1="38034.74" x2="36042.6" y2= "37626.9" />
 <line fill="none" stroke="#D6D5D5" stroke-width="283.17" x1="36076.59" y1="38000.76" x2="35634.76" y2= "38000.76" />
 <line fill="none" stroke="#D6D5D5" stroke-width="283.17" x1="42975.93" y1="38034.74" x2="42975.93" y2= "37626.9" />
 <line fill="none" stroke="#D6D5D5" stroke-width="283.17" x1="42941.94" y1="38000.76" x2="43383.77" y2= "38000.76" />
</symbol>
<symbol id="icon-12" viewBox="96682.75 99112.89 8005.92 7413.26">
 <path fill="none" stroke="#64BAE9" stroke-width="340.22" d="M97852.74 99283l5665.94 0c499.94,0 999.88,416.61 999.88,999.87l0 3666.2c0,583.26 -499.94,999.88 -999.88,999.88l-416.61 0 0 1166.52 -1166.52 -1166.52 -4082.81 0c-499.94,0 -999.88,-416.62 -999.88,-999.88l0 -3666.2c0,-583.26 499.94,-999.87 999.88,-999.87z"/>
 <circle fill="#64BAE9" cx="101019" cy="100699.49" r="416.61"/>
 <path fill="#64BAE9" d="M100019.13 101866c166.64,-249.96 499.93,-416.61 916.55,-249.96 83.32,0 166.64,166.64 166.64,333.29 -166.64,416.61 -249.97,833.22 -333.29,1249.84 -83.32,83.32 -83.32,416.61 499.94,249.97 -166.65,333.29 -583.26,416.61 -916.55,333.29 -166.65,-83.33 -249.97,-249.97 -249.97,-416.62 166.64,-416.61 249.97,-749.9 333.29,-1166.52 83.32,-166.64 166.64,-416.61 -416.61,-333.29l0 0z"/>
</symbol>
<symbol id="icon-29" viewBox="24482.9 25639.93 7738.28 7476.45">
 <path fill="none" stroke="#64BAE9" stroke-width="208.26" d="M29836.37 28587.81c324.96,-624.92 -74.99,-1024.87 -349.96,-1174.85 -424.94,-249.97 -949.87,-99.99 -1199.84,324.96l-374.96 624.92c-24.99,74.99 -49.99,149.98 -74.99,199.97"/>
 <path fill="none" stroke="#64BAE9" stroke-width="208.26" d="M27836.62 28562.81c25,-74.99 50,-124.98 74.99,-199.97l199.98 -324.96c-74.99,-199.98 -199.98,-399.95 -399.95,-499.94l0 0c-424.95,-249.97 -974.88,-99.99 -1199.85,324.96l-374.95 624.92c-25,25 -25,49.99 -50,99.99"/>
 <rect fill="none" stroke="#D6D5D5" stroke-width="208.26" x="24587.04" y="28562.81" width="7530.02" height="719.73"/>
 <polygon fill="none" stroke="#D6D5D5" stroke-width="208.26" points="24986.98,29312.72 31736.13,29312.72 30836.24,33012.25 25811.88,33012.25 "/>
 <line fill="none" stroke="#64BAE9" stroke-width="208.26" x1="27736.64" y1="29937.64" x2="27736.64" y2= "32087.36" />
 <line fill="none" stroke="#64BAE9" stroke-width="208.26" x1="28986.48" y1="29937.64" x2="28986.48" y2= "32087.36" />
 <line fill="none" stroke="#64BAE9" stroke-width="208.26" x1="30386.3" y1="29987.63" x2="29936.36" y2= "32062.37" />
 <line fill="none" stroke="#D6D5D5" stroke-width="208.26" x1="27811.63" y1="25713.17" x2="25461.92" y2= "28087.87" />
 <line fill="none" stroke="#D6D5D5" stroke-width="208.26" x1="28861.49" y1="25713.17" x2="31211.2" y2= "28087.87" />
 <polygon fill="none" stroke="#64BAE9" stroke-width="208.26" points="29511.41,27337.97 29511.41,26988.01 29886.36,27212.98 "/>
 <polygon fill="none" stroke="#64BAE9" stroke-width="208.26" points="27761.63,27462.95 27736.64,27112.99 28086.59,27337.97 "/>
 <line fill="none" stroke="#64BAE9" stroke-width="208.26" x1="26311.82" y1="29987.63" x2="26786.76" y2= "32062.37" />
</symbol>
<symbol id="icon-53" viewBox="1198.12 1724.44 83.76 58.55">
 <path fill="#55ACEE" fill-rule="nonzero" d="M1198.17 1766.65c4.31,3.59 9.81,5.86 15.55,5.62 5.5,-0.35 11.12,-2.87 14.95,-6.81 -1.92,0 -4.43,-0.36 -5.5,-2.27 -1.2,-2.16 0.95,-3.95 2.51,-4.79 -2.99,-0.24 -5.86,-0.72 -8.02,-2.99 -0.59,-0.6 -1.19,-1.31 -1.55,-1.91 -0.36,-0.72 0,-0.96 0.72,-1.44 1.19,-0.95 2.75,-1.19 4.3,-1.43 -3.23,-0.96 -6.34,-2.39 -8.01,-5.5 -0.24,-0.48 -1.2,-2.51 -0.72,-3.11 0.12,-0.12 1.2,-0.24 1.44,-0.24 0.95,-0.12 2.03,-0.24 3.11,-0.36 -3.71,-2.39 -7.06,-5.74 -6.7,-10.52 2.63,0.72 5.14,2.03 7.65,3.11 2.51,1.07 5.02,2.15 7.54,3.23 2.39,1.07 4.66,2.27 6.93,3.58 2.15,1.32 3.95,3.11 5.86,4.79 1.44,-3.95 3.11,-7.9 5.26,-11.48 2.04,-3.47 4.43,-6.94 7.9,-8.97 0,0.71 -0.48,1.31 -0.72,1.91 1.79,-1.2 3.82,-2.27 6.1,-2.63 0.12,1.07 -1.08,1.79 -1.8,2.39 0.84,-0.24 6.22,-2.15 5.62,0.12 -0.24,0.96 -1.91,1.43 -2.75,1.67 -1.19,0.48 -2.51,0.84 -3.82,1.32 2.99,0.36 5.86,0.96 8.49,2.51 2.51,1.55 4.66,3.71 6.22,6.34 0.83,1.31 1.43,2.75 2.03,4.18 0.24,0.72 0.48,1.44 0.72,2.28 0.12,0.83 0.12,0.95 0.95,1.19 1.68,0.24 3.23,0.48 4.91,0.36 0.71,0 1.55,-0.12 2.39,-0.36 0.36,-0.12 1.43,-0.6 1.79,-0.48 -0.84,1.56 -1.91,2.63 -3.47,3.35 -0.83,0.36 -1.67,0.6 -2.51,0.84 -0.95,0.24 -1.91,0.12 -2.75,0.48 2.87,1.07 5.98,1.31 9.09,0.95 -2.15,2.4 -5.14,3.59 -8.37,3.71 -0.36,0 -0.84,-0.12 -1.2,0 -0.24,-0.12 -0.36,-0.12 -0.48,-0.12 -0.11,0.36 -0.11,0.6 -0.23,0.84 -0.24,0.84 -0.48,1.67 -0.84,2.51 -0.48,1.55 -1.2,3.11 -2.03,4.54 -3.11,5.86 -7.9,10.41 -13.64,13.64 -6.1,3.58 -12.91,5.26 -19.85,5.98 -6.7,0.83 -13.63,0 -19.97,-2.64 -3.47,-1.43 -6.82,-3.34 -9.8,-5.74 -0.84,-0.59 -8.02,-7.05 -7.3,-7.65 0.12,0.12 -0.12,0 0,0l0 0z"/>
</symbol>
<symbol id="icon-07" viewBox="35065.1 37222.54 7793.69 6624.02">
 <path fill="none" stroke="#D6D5D5" stroke-width="279.49" d="M37318.21 37362.29c670.91,0 1241.19,301.91 1643.73,805.09 369,-503.18 972.82,-805.09 1643.73,-805.09 1140.55,0 2113.37,939.27 2113.37,2113.37 0,402.54 -167.72,838.64 -436.09,1174.09 -469.64,570.27 -2851.37,2650.1 -3321.01,3019.1 -469.63,-369 -2918.46,-2482.37 -3354.55,-3086.19 -234.82,-335.46 -402.54,-704.46 -402.54,-1107 0,-1174.1 939.27,-2113.37 2113.36,-2113.37l0 0 0 0z"/>
 <path fill="none" stroke="#D6D5D5" stroke-width="279.49" d="M38961.94 39341.48c301.91,0 536.73,268.36 536.73,570.27 0,201.27 -134.18,402.55 -301.91,469.64l268.37 1274.73 -1006.37 0 234.82 -1274.73c-167.73,-100.64 -268.37,-268.37 -268.37,-469.64 0,-301.91 234.82,-570.27 536.73,-570.27z"/>
</symbol>
<symbol id="icon-18" viewBox="46873.1 50502.59 7749.02 5305.85">
 <path fill="none" stroke="#64BAE9" stroke-width="269.05" d="M50747.6 51498.09c1937.26,0 3573.16,1506.76 3702.31,3444.01l-7404.61 0c172.2,-1894.2 1765.05,-3444.01 3702.3,-3444.01l0 0 0 0z"/>
 <line fill="none" stroke="#64BAE9" stroke-width="268.99" x1="46873.1" y1="55673.95" x2="54622.11" y2= "55673.95" />
 <path fill="none" stroke="#64BAE9" stroke-width="269.05" d="M52168.26 52359.1c731.85,473.55 1248.45,1205.4 1291.5,2109.45"/>
 <line fill="none" stroke="#64BAE9" stroke-width="268.99" x1="50747.6" y1="51498.09" x2="50747.6" y2= "50507.94" />
 <line fill="none" stroke="#64BAE9" stroke-width="268.99" x1="50101.85" y1="50637.09" x2="51393.36" y2= "50637.09" />
</symbol>
<symbol id="icon-24" viewBox="159020.45 161404.61 8027.34 8027.34">
 <circle fill="none" stroke="#A1C141" stroke-width="545.53" cx="163034.12" cy="165418.28" r="3740.9"/>
 <polyline fill="none" stroke="#A1C141" stroke-width="545.53" points="161698.08,164616.66 163034.12,165952.7 164770.96,163815.04 "/>
</symbol>
<symbol id="icon-21" viewBox="84139.85 85677.02 7749.02 7749.02">
 <circle fill="none" stroke="#64BAE9" stroke-width="456.78" cx="88014.36" cy="89551.53" r="2851.05"/>
 <line fill="none" stroke="#64BAE9" stroke-width="609.07" x1="91888.87" y1="89551.53" x2="89622.65" y2= "89551.53" />
 <line fill="none" stroke="#64BAE9" stroke-width="609.07" x1="86406.07" y1="89551.53" x2="84139.85" y2= "89551.53" />
 <line fill="none" stroke="#64BAE9" stroke-width="609.07" x1="88014.36" y1="93426.04" x2="88014.36" y2= "91159.82" />
 <line fill="none" stroke="#64BAE9" stroke-width="609.07" x1="88014.36" y1="87943.24" x2="88014.36" y2= "85677.02" />
</symbol>
<symbol id="icon-44" viewBox="117696.41 118259.72 6546.95 7836.5">
 <path fill="#C72127" d="M120969.89 118259.72c1785.53,0 3273.48,1487.95 3273.48,3273.48 0,1785.53 -2083.13,3471.87 -3273.48,4563.03 -1190.36,-1091.16 -3273.48,-2777.5 -3273.48,-4563.03 0,-1785.53 1487.95,-3273.48 3273.48,-3273.48z"/>
 <circle fill="#FEFEFE" cx="120969.89" cy="121533.2" r="1289.55"/>
</symbol>
<symbol id="icon-45" viewBox="117696.41 118259.72 6546.95 7836.5">
 <path fill-rule="evenodd" d="M120969.89 118259.72c1785.53,0 3273.48,1487.95 3273.48,3273.48 0,1785.53 -2083.13,3471.87 -3273.48,4563.03 -1190.36,-1091.16 -3273.48,-2777.5 -3273.48,-4563.03 0,-1785.53 1487.95,-3273.48 3273.48,-3273.48zm0 1983.93c694.37,0 1289.55,595.18 1289.55,1289.55 0,694.38 -595.18,1289.55 -1289.55,1289.55 -694.38,0 -1289.55,-595.17 -1289.55,-1289.55 0,-694.37 595.17,-1289.55 1289.55,-1289.55z"/>
</symbol>
<symbol id="icon-56" viewBox="1214.68 1709.26 50.65 88.91">
 <line fill="none" stroke="#FEFEFE" stroke-width="12.5" stroke-linecap="round" x1="1259.07" y1="1753.77" x2="1220.93" y2= "1791.92" />
 <line fill="none" stroke="#FEFEFE" stroke-width="12.5" stroke-linecap="round" x1="1220.93" y1="1715.51" x2="1259.07" y2= "1753.65" />
</symbol>
<symbol id="icon-09" viewBox="97846.51 99581.54 7906.47 7822.08">
 <rect fill="none" stroke="#64BAE9" stroke-width="343.92" x="98018.47" y="102280.36" width="1626.83" height="4951.31"/>
 <path fill="none" stroke="#64BAE9" stroke-width="343.92" d="M99703.04 106828.69c336.92,168.46 1094.97,336.91 1684.57,336.91l2105.71 0c421.14,0 673.83,-252.68 842.29,-421.14l1010.74 -2442.62c336.91,-589.6 421.14,-1684.57 -505.37,-1684.57l-1937.26 0 0 -1347.66c0,-842.28 -168.45,-1516.11 -1431.88,-1516.11l0 1010.74c0,1010.75 -673.83,1853.03 -1347.65,1853.03l-421.15 0 0 4211.42 0 0 0 0z"/>
 <rect fill="none" stroke="#64BAE9" stroke-width="343.92" x="98608.07" y="106070.63" width="526.39" height="526.39"/>
</symbol>
<symbol id="icon-40" viewBox="89877.97 88434.32 4886.76 7782.62">
 <polygon fill="none" stroke="#D6D5D5" stroke-width="627.8" points="90191.86,95565.72 90191.86,89085.53 94260.82,92325.63 "/>
</symbol>
<symbol id="icon-05" viewBox="37783.01 39475.15 7725.15 7142">
 <path fill="none" stroke="#D6D5D5" stroke-width="297.52" d="M38895.93 39623.91l5499.31 0c535.64,0 964.16,428.51 964.16,928.45l0 3642.4c0,535.64 -428.52,964.16 -964.16,964.16l-392.81 0 0 1107 -1142.71 -1107 -3963.79 0c-535.64,0 -964.16,-428.52 -964.16,-964.16l0 -3642.4c0,-499.93 428.52,-928.45 964.16,-928.45z"/>
 <circle fill="#D6D5D5" cx="42074.1" cy="40766.62" r="357.1"/>
 <path fill="#D6D5D5" d="M41038.52 41909.33c178.55,-285.68 571.36,-392.81 892.74,-249.97 142.84,35.71 249.97,178.55 178.55,357.1 -107.13,392.81 -214.26,785.61 -321.39,1178.42 -35.71,142.84 -107.13,428.52 499.94,285.68 -178.55,321.39 -571.36,428.52 -928.46,285.68 -142.83,-35.71 -214.25,-178.55 -178.54,-357.1 107.13,-392.81 249.97,-785.61 357.09,-1178.42 0,-142.84 71.42,-428.52 -499.93,-321.39l0 0 0 0z"/>
</symbol>
<symbol id="icon-55" viewBox="1099.67 1686.51 282.75 134.41">
 <path fill="#BDC0C4" fill-rule="nonzero" d="M1280.24 1741.64c-1.31,-0.84 -3.71,-1.2 -7.17,-1.2 -2.64,0 -5.03,0.12 -7.18,0.36l0 3.59c2.75,-0.36 5.02,-0.48 6.58,-0.48 1.79,0 2.87,0.12 3.34,0.6 0.6,0.36 0.84,1.07 0.84,2.27l0 1.19 -6.34 0c-2.27,0 -3.7,0.48 -4.66,1.32 -0.84,0.84 -1.2,2.39 -1.2,4.66 0,2.51 0.36,4.07 1.2,4.91 0.84,0.72 2.51,1.07 5.02,1.07 2.16,0 3.59,-0.12 4.31,-0.48 0.83,-0.23 1.31,-0.83 1.79,-1.55l0 1.68 5.5 0 0 -12.92c0,-2.51 -0.6,-4.18 -2.03,-5.02l0 0zm-3.59 13.15l0 0c0,0.36 0,0.6 -0.12,0.84 -0.12,0.12 -0.24,0.36 -0.36,0.48 -0.23,0.11 -0.47,0.11 -0.83,0.24 -0.36,0 -0.72,0 -0.96,0.11 -0.36,0 -0.84,0 -1.43,0 -1.32,0 -2.16,-0.11 -2.51,-0.47 -0.36,-0.24 -0.48,-0.96 -0.48,-2.16 0,-1.19 0.12,-2.03 0.48,-2.27 0.35,-0.36 1.07,-0.48 2.27,-0.48l3.94 0 0 3.71 0 0z"/>
 <path fill="#BDC0C4" fill-rule="nonzero" d="M1304.4 1741.99c-0.48,-0.47 -1.32,-0.95 -2.27,-1.19 -1.08,-0.24 -2.4,-0.36 -3.95,-0.36 -1.91,0 -3.35,0.12 -4.43,0.48 -0.95,0.36 -1.55,0.95 -1.91,1.67l0 -1.79 -5.38 0 0 26.31 5.62 0 0 -9.45c0.36,0.96 0.84,1.55 1.67,1.91 0.96,0.24 2.28,0.36 3.95,0.36 2.87,0 4.9,-0.48 6.1,-1.43 1.19,-0.96 1.91,-2.75 1.91,-5.62l0 -6.1c0,-1.2 -0.12,-2.15 -0.24,-2.75 -0.24,-0.72 -0.6,-1.44 -1.07,-2.03l0 -0.01zm-4.43 11.61l0 0c0,1.19 -0.24,1.91 -0.72,2.27 -0.47,0.36 -1.55,0.59 -3.22,0.59 -1.68,0 -2.75,-0.24 -3.23,-0.59 -0.48,-0.36 -0.72,-1.08 -0.72,-2.27l0 -6.94c0,-0.96 0.24,-1.68 0.72,-2.15 0.48,-0.36 1.55,-0.6 3.23,-0.6 1.67,0 2.87,0.12 3.34,0.48 0.36,0.36 0.6,1.07 0.6,2.27l0 6.94 0 0z"/>
 <polygon fill="#BDC0C4" fill-rule="nonzero" points="1308.58,1744.27 1314.44,1744.27 1314.44,1759.57 1320.06,1759.57 1320.06,1744.27 1325.92,1744.27 1325.92,1740.8 1308.58,1740.8 "/>
 <polygon fill="#BDC0C4" fill-rule="nonzero" points="1338.6,1754.07 1334.29,1740.8 1328.19,1740.8 1335.61,1759.45 1332.5,1767.11 1338.24,1767.11 1348.29,1740.8 1342.43,1740.8 "/>
 <path fill="#BDC0C4" fill-rule="nonzero" d="M1360.12 1756.46c-2.87,0 -4.3,-1.07 -4.3,-2.99l0 -6.93c0,-1.8 1.2,-2.63 3.83,-2.63 1.43,0 3.46,0.24 6.21,0.95l0 -3.7c-2.39,-0.48 -4.3,-0.72 -5.74,-0.72 -0.83,0 -1.55,0 -2.03,0 -0.6,0 -1.19,0 -2.03,0.12 -0.84,0.12 -1.44,0.24 -1.91,0.48 -0.48,0.12 -1.08,0.36 -1.68,0.71 -0.48,0.36 -0.96,0.72 -1.31,1.2 -0.36,0.48 -0.6,1.08 -0.84,1.79 -0.24,0.72 -0.36,1.56 -0.36,2.52l0 6.21c0,1.08 0.24,1.92 0.48,2.75 0.24,0.72 0.6,1.32 1.19,1.8 0.48,0.48 1.08,0.84 1.56,1.07 0.48,0.36 1.19,0.48 2.03,0.6 0.96,0.12 1.68,0.24 2.27,0.24 0.48,0 1.32,0 2.28,0 1.91,0 4.06,-0.24 6.33,-0.6l0 -3.7c-2.63,0.48 -4.66,0.83 -5.98,0.83z"/>
 <path fill="#BDC0C4" fill-rule="nonzero" d="M1099.67 1686.51l0 134.41 134.41 0 0 -134.41 -134.41 0zm24.51 85.74l0 0 -12.43 0 0 -12.44 12.43 0 0 12.44zm48.67 36.59l0 0 -11.95 0 -0.24 0 -12.32 0 0 -12.43 12.32 0 0 -36.6 12.19 0 0 49.03zm-36.83 -24.27l0 0 0 -24.76 12.32 0 0 24.76 -12.32 0zm85.74 24.27l0 0 -24.51 0 0 -12.19 -12.32 0 0 -12.32 12.56 0 0 12.08 24.27 0 0 12.43 0 0zm0 -36.59l0 0 -36.83 0 0 -12.44 36.83 0 0 12.44zm0 -60.99l0 0 -12.19 0 0 36.48 -12.32 0 0 -36.48 -12.08 0 0 12.08 0 12.55 -12.32 0 0 11.96 -24.27 0 -9.45 0 -3.11 0 0 -11.96 -11.84 0 0 11.96 -12.43 0 0 -36.59 0 -3.47 0 -8.97 110.01 0 0 12.44 0 0z"/>
 <polygon fill="#BDC0C4" fill-rule="nonzero" points="1160.66,1723.1 1172.85,1723.1 1172.85,1711.26 1148.58,1711.26 1148.58,1735.42 1160.66,1735.42 "/>
 <polygon fill="#BDC0C4" fill-rule="nonzero" points="1136.02,1711.26 1124.18,1711.26 1124.18,1723.34 1136.02,1723.34 "/>
 <rect fill="none" fill-rule="nonzero" stroke="#BDC0C4" stroke-width="4.17" x="1250.22" y="1688.66" width="130.11" height="130.11"/>
</symbol>
<symbol id="icon-37" viewBox="123339.36 125319.11 7749.02 7749.02">
 <line fill="none" stroke="#64BAE9" stroke-width="436.17" x1="131088.38" y1="129193.62" x2="123339.36" y2= "129193.62" />
 <line fill="none" stroke="#64BAE9" stroke-width="436.17" x1="127213.87" y1="133068.12" x2="127213.87" y2= "125319.11" />
</symbol>
<symbol id="icon-14" viewBox="87691.6 90612.58 7830.1 6449.55">
 <ellipse fill="none" stroke="#64BAE9" stroke-width="310.11" cx="89745.92" cy="94551.98" rx="1899.27" ry="2355.09"/>
 <path fill="none" stroke="#64BAE9" stroke-width="310.11" d="M88758.3 92500.77l2507.04 -1443.44c1063.59,-607.77 2431.06,-227.91 3038.83,835.68l0 0c911.65,911.65 303.88,2507.03 -759.71,3114.8l-3266.74 1823.3"/>
 <polygon fill="none" stroke="#64BAE9" stroke-width="310.11" points="94456.11,91817.04 94608.05,91057.33 94835.96,91285.24 95139.84,91437.18 95215.82,91741.06 95291.79,91968.98 "/>
 <circle fill="none" stroke="#64BAE9" stroke-width="310.11" cx="89442.04" cy="94324.07" r="227.91"/>
 <circle fill="none" stroke="#64BAE9" stroke-width="310.11" cx="90353.69" cy="94020.19" r="227.91"/>
 <circle fill="none" stroke="#64BAE9" stroke-width="310.11" cx="90885.48" cy="94931.84" r="303.88"/>
 <circle fill="none" stroke="#64BAE9" stroke-width="310.11" cx="89062.18" cy="95615.57" r="303.88"/>
 <circle fill="none" stroke="#64BAE9" stroke-width="310.11" cx="88454.42" cy="94627.95" r="227.91"/>
 <circle fill="none" stroke="#64BAE9" stroke-width="310.11" cx="88986.21" cy="93260.48" r="227.91"/>
 <circle fill="none" stroke="#64BAE9" stroke-width="310.11" cx="90125.77" cy="93032.57" r="151.94"/>
 <circle fill="none" stroke="#64BAE9" stroke-width="310.11" cx="90201.75" cy="96147.37" r="227.91"/>
</symbol>
<symbol id="icon-01" viewBox="33738.34 36090.97 7775.15 6309.93">
 <ellipse fill="none" stroke="#D6D5D5" stroke-width="270.13" cx="35721.5" cy="39963.82" rx="1848.09" ry="2302.01"/>
 <path fill="none" stroke="#D6D5D5" stroke-width="270.13" d="M34813.67 37953.62l2464.12 -1426.6c1069.95,-616.03 2399.28,-259.38 3015.31,810.57l0 0c875.41,842.99 259.38,2399.27 -810.57,3015.3l-3177.42 1815.67"/>
 <polygon fill="none" stroke="#D6D5D5" stroke-width="270.13" points="40390.36,37240.32 40584.9,36462.17 40747.01,36689.13 41103.66,36818.82 41136.09,37175.47 41265.78,37434.85 "/>
 <ellipse fill="none" stroke="#D6D5D5" stroke-width="135.05" cx="35462.12" cy="39672.02" rx="194.54" ry="226.96"/>
 <ellipse fill="none" stroke="#D6D5D5" stroke-width="135.05" cx="36369.95" cy="39412.64" rx="194.54" ry="226.96"/>
 <ellipse fill="none" stroke="#D6D5D5" stroke-width="135.05" cx="36856.29" cy="40320.47" rx="259.38" ry="324.23"/>
 <ellipse fill="none" stroke="#D6D5D5" stroke-width="135.05" cx="35105.47" cy="40968.92" rx="259.38" ry="324.23"/>
 <ellipse fill="none" stroke="#D6D5D5" stroke-width="135.05" cx="34489.44" cy="39996.24" rx="194.54" ry="226.96"/>
 <ellipse fill="none" stroke="#D6D5D5" stroke-width="135.05" cx="35073.05" cy="38634.49" rx="194.54" ry="226.96"/>
 <ellipse fill="none" stroke="#D6D5D5" stroke-width="135.05" cx="36175.42" cy="38407.53" rx="129.69" ry="162.11"/>
 <ellipse fill="none" stroke="#D6D5D5" stroke-width="135.05" cx="36175.42" cy="41487.69" rx="194.54" ry="226.96"/>
</symbol>
<symbol id="icon-43" viewBox="134672.56 136762.29 8005.88 8025.25">
 <circle fill="none" stroke="#FEFEFE" stroke-width="1011.26" transform="matrix(0.737104 -0.737104 0.737104 0.737104 138288 140378)" r="2962.86"/>
 <line fill="none" stroke="#FEFEFE" stroke-width="1177.35" stroke-linecap="round" x1="140608.34" y1="142717.44" x2="142089.77" y2= "144198.87" />
</symbol>
<symbol id="icon-23" viewBox="144582.81 145036.24 6279.09 8091.27">
 <path fill="none" stroke="#A1C141" stroke-width="492.13" d="M147722.36 145282.31c1567.3,0 2893.48,1205.62 2893.48,2772.92 0,1687.86 -1928.99,3616.85 -2893.48,4701.9 -964.49,-1085.05 -2893.48,-3014.04 -2893.48,-4701.9 0,-1567.3 1326.18,-2772.92 2893.48,-2772.92zm0 1687.87c602.81,0 1085.05,482.24 1085.05,1085.05 0,602.81 -482.24,1205.62 -1085.05,1205.62 -602.81,0 -1085.06,-602.81 -1085.06,-1205.62 0,-602.81 482.25,-1085.05 1085.06,-1085.05z"/>
</symbol>
<symbol id="icon-30" viewBox="21096.88 22623.75 7760.11 7150.71">
 <path fill="none" stroke="#D6D5D5" stroke-width="278.3" d="M22215.79 22762.9l5522.28 0c534.42,0 979.76,445.35 979.76,957.49l0 3629.57c0,534.42 -445.34,957.5 -979.76,957.5l-400.81 0 0 1135.63 -1157.9 -1135.63 -3963.57 0c-534.42,0 -979.76,-423.08 -979.76,-957.5l0 -3629.57c0,-512.14 445.34,-957.49 979.76,-957.49z"/>
 <circle fill="#64BAE9" cx="25333.21" cy="24321.61" r="311.74"/>
 <path fill="#64BAE9" d="M24487.05 25279.1c133.6,-244.94 445.34,-356.27 734.82,-222.67 111.34,44.54 178.14,155.87 133.6,289.48 -89.07,334 -178.14,645.75 -267.2,979.76 -22.27,111.33 -66.81,334.01 400.81,222.67 -133.61,244.94 -467.62,356.28 -734.82,222.67 -111.34,-44.53 -178.14,-155.87 -133.61,-289.47 89.07,-334.01 178.14,-645.75 244.94,-979.76 22.27,-111.34 89.07,-334.01 -378.54,-222.68l0 0z"/>
</symbol>
<symbol id="icon-15" viewBox="66223.63 69892.58 7882.76 5537.94">
 <path fill="none" stroke="#64BAE9" stroke-width="239.7" d="M68515.55 70027.24l5166.01 1350.21c176.12,58.71 352.23,293.52 293.53,528.34l-763.17 2759.12c-58.7,234.82 -293.52,352.23 -528.34,293.53l-176.11 -58.71 0 0 0 -2817.82c0,-234.82 -176.12,-469.64 -410.93,-469.64l-4461.56 0 352.23 -1291.5c58.71,-234.82 293.52,-352.23 528.34,-293.53l0 0 0 0z"/>
 <path fill="none" stroke="#64BAE9" stroke-width="239.7" d="M66754.41 71612.27l5342.12 0c234.82,0 410.94,234.82 410.94,469.64l0 2817.82c0,234.82 -176.12,410.93 -410.94,410.93l-5342.12 0c-234.82,0 -410.93,-176.11 -410.93,-410.93l0 -2817.82c0,-234.82 176.11,-469.64 410.93,-469.64z"/>
 <line fill="none" stroke="#64BAE9" stroke-width="239.7" x1="66402.18" y1="72316.73" x2="72507.47" y2= "72316.73" />
 <line fill="none" stroke="#64BAE9" stroke-width="239.7" x1="66402.18" y1="73079.89" x2="72507.47" y2= "73079.89" />
 <line fill="none" stroke="#64BAE9" stroke-width="239.7" x1="69513.53" y1="74253.98" x2="71861.72" y2= "74253.98" />
</symbol>
<symbol id="icon-25" viewBox="159020.45 161404.61 8027.34 8027.34">
 <circle fill="none" stroke-width="545.53" cx="163034.12" cy="165418.28" r="3740.9"/>
 <line fill="none" stroke-width="545.53" x1="163034.12" y1="167422.34" x2="163034.12" y2= "164750.26" />
 <line fill="none" stroke-width="812.74" x1="163034.12" y1="163414.23" x2="163034.12" y2= "163948.64" />
</symbol>
<symbol id="icon-13" viewBox="98994.05 100698.26 7924.87 7931.05">
 <polygon fill="none" stroke="#64BAE9" stroke-width="347.7" points="102956.48,100915.58 103637.72,101426.5 104489.26,101256.19 104915.03,102022.58 105766.57,102107.73 105851.72,103044.43 106532.95,103555.35 106277.49,104321.74 106703.26,105088.12 106107.18,105684.2 106277.49,106620.9 105425.95,106876.36 105170.49,107727.9 104318.95,107727.9 103722.87,108409.13 102956.48,107983.36 102190.1,108409.13 101594.02,107727.9 100742.48,107727.9 100487.02,106876.36 99635.48,106620.9 99805.78,105684.2 99209.71,105088.12 99635.48,104321.74 99380.01,103555.35 100061.25,103044.43 100146.4,102107.73 100997.94,102022.58 101423.71,101256.19 102275.25,101426.5 "/>
 <circle fill="none" stroke="#64BAE9" stroke-width="347.7" transform="matrix(0.707107 -0.707107 0.707107 0.707107 101789 103508)" r="766.39"/>
 <circle fill="none" stroke="#64BAE9" stroke-width="347.7" transform="matrix(0.707107 -0.707107 0.707107 0.707107 104122 105840)" r="766.39"/>
 <line fill="none" stroke="#64BAE9" stroke-width="347.7" x1="101849.48" y1="105769.36" x2="104063.49" y2= "103555.35" />
</symbol>
<symbol id="icon-32" viewBox="168199.93 170686.13 7741.3 7741.3">
 <line fill="none" stroke="#D6D5D5" stroke-width="586.84" x1="175733.76" y1="170893.61" x2="168407.41" y2= "178219.95" />
 <line fill="none" stroke="#D6D5D5" stroke-width="586.84" x1="175733.76" y1="178219.95" x2="168407.41" y2= "170893.61" />
</symbol>
<symbol id="icon-19" viewBox="89578.79 91177.36 7749.02 7749.02">
 <line fill="none" stroke="#64BAE9" stroke-width="645.62" x1="93453.29" y1="91177.36" x2="93453.29" y2= "98926.38" />
 <line fill="none" stroke="#64BAE9" stroke-width="645.62" x1="97327.8" y1="95051.87" x2="89578.79" y2= "95051.87" />
</symbol>
<symbol id="icon-34" viewBox="246319.81 251727.64 7816.64 5777.42">
 <line fill="none" stroke="#64BAE9" stroke-width="1699" stroke-linecap="round" x1="247169.31" y1="254412.43" x2="249208.52" y2= "256451.64" />
 <line fill="none" stroke="#64BAE9" stroke-width="1699" stroke-linecap="round" x1="253286.95" y1="252577.14" x2="249208.52" y2= "256655.56" />
</symbol>
<symbol id="icon-54" viewBox="1216.3 1714.25 47.39 78.93">
 <path fill="#EC641B" fill-rule="nonzero" d="M1224.57 1793.18c-0.24,-0.12 -0.48,-0.12 -0.83,-0.24 -1.68,-0.48 -3.95,-2.75 -3.71,-5.14 0,-1.2 0.48,-2.16 1.31,-2.99 4.79,-4.91 9.69,-9.69 14.59,-14.59 0,-0.12 0.12,-0.24 0.24,-0.36 -0.36,-0.12 -0.59,-0.12 -0.95,-0.12 -3.23,-0.48 -6.46,-1.08 -9.57,-2.27 -1.91,-0.84 -3.71,-1.92 -5.38,-3.11 -0.96,-0.72 -1.91,-1.56 -2.75,-2.39 -0.84,-0.72 -1.32,-1.68 -1.2,-2.75 0.12,-2.28 1.44,-4.55 3.83,-5.15 1.31,-0.24 2.63,0.12 3.71,0.72 0.95,0.6 1.79,1.2 2.75,1.8 1.79,1.19 3.7,1.91 5.86,2.51 2.39,0.71 4.9,1.07 7.41,1.07 1.2,0 2.39,-0.12 3.59,-0.24 2.51,-0.36 4.9,-0.95 7.29,-1.91 1.56,-0.72 3.11,-1.68 4.55,-2.63 0.95,-0.84 2.03,-1.32 3.34,-1.32 1.8,-0.12 3.23,0.72 4.07,2.15 0.6,0.84 0.84,1.68 0.96,2.64 0.12,1.31 -0.36,2.27 -1.2,3.22 -1.08,1.2 -2.39,2.04 -3.71,2.87 -3.23,2.4 -7.05,3.59 -11,4.31 -1.19,0.24 -2.51,0.36 -3.82,0.6 0.11,0.12 0.11,0.24 0.24,0.36 4.66,4.66 9.44,9.32 14.11,14.11 0.71,0.59 1.31,1.31 1.67,2.27 0.48,1.79 0.12,3.47 -1.2,4.78 -0.83,0.84 -1.79,1.56 -2.99,1.68 -0.11,0 -0.11,0.12 -0.24,0.12l-0.95 0c-0.12,0 -0.24,-0.12 -0.36,-0.12 -0.84,-0.12 -1.55,-0.48 -2.27,-1.08 -0.24,-0.36 -0.6,-0.72 -0.96,-0.96 -3.59,-3.58 -7.05,-7.17 -10.64,-10.76 -0.24,-0.24 -0.36,-0.24 -0.6,0 -3.59,3.59 -7.18,7.18 -10.76,10.88 -0.96,0.96 -1.92,1.8 -3.35,1.92 0,0 -0.12,0.12 -0.12,0.12l-0.96 0 0 0z"/>
 <path fill="#EC641B" fill-rule="nonzero" d="M1249.81 1734.22c0,-5.5 -4.31,-9.8 -9.81,-9.92 -5.38,0 -9.8,4.42 -9.8,9.8 -0.12,5.5 4.3,9.81 9.56,9.93 5.62,0.12 10.17,-4.43 10.05,-9.81l0 0zm-9.81 -19.97c11.24,0 20.09,9.09 19.97,20.21 -0.24,10.76 -8.85,19.61 -19.97,19.73 -11,0 -20.09,-8.97 -19.97,-20.33 0.24,-10.76 8.97,-19.61 19.97,-19.61l0 0z"/>
</symbol>
<symbol id="icon-22" viewBox="131972.65 132155.25 6189.96 8000.32">
 <path fill="none" stroke="#A1C141" stroke-width="450.55" d="M133080.91 137678.44c-441.49,-772.61 -882.98,-1655.6 -882.98,-2317.84 0,-1655.6 1324.48,-2980.08 2869.7,-2980.08 1545.23,0 2869.71,1324.48 2869.71,2980.08 0,1545.23 -1876.35,3642.32 -2869.71,4635.68"/>
 <polyline fill="none" stroke="#A1C141" stroke-width="450.68" points="133743.15,136464.33 134295.02,134146.49 135067.63,135802.1 135840.25,134256.87 136392.11,136464.33 "/>
</symbol>
<symbol id="icon-33" viewBox="168199.93 170686.13 7741.3 7741.3">
 <line fill="none" stroke="#64BAE9" stroke-width="586.84" x1="175733.76" y1="170893.61" x2="168407.41" y2= "178219.95" />
 <line fill="none" stroke="#64BAE9" stroke-width="586.84" x1="175733.76" y1="178219.95" x2="168407.41" y2= "170893.61" />
</symbol>
<symbol id="icon-10" viewBox="84063.71 86624.33 7901.31 6892.15">
 <rect fill="none" stroke="#64BAE9" stroke-width="298.5" x="85894.35" y="92183.27" width="4200.92" height="1183.96"/>
 <path fill="none" stroke="#64BAE9" stroke-width="298.5" d="M85894.35 92183.27l4240.03 0 0 -438.62c950.35,-73.11 1681.39,-950.35 1681.39,-1900.7 0,-1096.56 -877.25,-1973.81 -1973.81,-1973.81l0 0c-292.42,-657.93 -1023.45,-1096.56 -1827.6,-1096.56 -804.14,0 -1535.18,438.63 -1827.6,1096.56l0 0c-1096.56,0 -1973.8,877.25 -1973.8,1973.81 0,950.35 731.04,1827.6 1681.39,1900.7l0 438.62 0 0z"/>
 <path fill="none" stroke="#64BAE9" stroke-width="298.5" d="M86186.76 89843.95c-146.2,-292.42 -219.31,-657.94 -219.31,-1023.46 0,-1096.56 950.35,-2046.91 2046.91,-2046.91 804.15,0 1535.18,438.62 1900.7,1096.56"/>
</symbol>
<symbol id="icon-17" viewBox="65373 65006.56 6260.63 7843.56">
 <ellipse fill="none" stroke="#64BAE9" stroke-width="354.82" cx="70320.49" cy="66830.78" rx="1135.73" ry="1646.8"/>
 <line fill="none" stroke="#64BAE9" stroke-width="354.82" x1="70320.49" y1="68534.36" x2="70320.49" y2= "72850.12" />
 <line fill="none" stroke="#64BAE9" stroke-width="354.82" x1="66742.96" y1="65581.48" x2="66742.96" y2= "72850.12" />
 <path fill="none" stroke="#64BAE9" stroke-width="354.89" d="M67935.47 65638.26l0 1817.16c0,681.44 -511.08,1192.52 -1192.51,1192.52l0 0c-681.44,0 -1192.51,-511.08 -1192.51,-1192.52l0 -1817.16"/>
</symbol>
<symbol id="icon-52" viewBox="1213.71 1720.92 52.58 65.59">
 <path fill="#4D6D91" fill-rule="nonzero" d="M1230.21 1746.8c0,0 5.26,0 7.53,-0.11 0.96,0 2.04,-0.24 2.99,-0.48 1.68,-0.6 3.11,-1.56 3.83,-3.35 0.48,-1.44 0.72,-2.99 0.48,-4.55 -0.36,-1.79 -1.08,-3.46 -2.87,-4.3 -0.96,-0.48 -2.03,-0.84 -2.99,-0.84 -2.99,-0.24 -8.97,-0.24 -8.97,-0.24l0 0.12 0 13.75 0 0zm0 27.63c0,0 5.14,0 7.77,0 1.8,0 3.71,-0.12 5.5,-0.72 2.28,-0.72 4.19,-1.79 5.15,-4.18 0.71,-1.68 0.71,-3.47 0.47,-5.27 -0.36,-2.63 -1.91,-4.3 -4.3,-5.26 -1.55,-0.72 -3.23,-0.84 -4.9,-0.84 -2.99,-0.12 -9.69,0 -9.69,0l0 16.27 0 0zm-16.5 12.08l0 -65.54c0,0 19.25,-0.12 28.46,0 3.47,0 6.93,0.36 10.16,1.68 2.99,1.07 5.5,2.63 7.3,5.38 1.43,2.27 2.15,4.66 2.27,7.41 0.12,4.43 -1.2,8.37 -4.3,11.72 -1.2,1.2 -2.64,2.04 -4.07,2.75 -0.24,0.12 -1.2,0.48 -1.2,0.48 0,0 0.96,0.24 1.2,0.36 3.23,0.72 6.22,2.15 8.61,4.55 2.27,2.27 3.47,5.02 3.95,8.13 0.47,3.47 0.12,6.93 -1.08,10.16 -1.67,4.43 -4.78,7.54 -8.85,9.69 -3.23,1.79 -6.7,2.75 -10.4,2.99 -2.51,0.12 -5.14,0.24 -7.78,0.24 -7.77,0 -24.27,0 -24.27,0l0 0z"/>
</symbol>
<symbol id="icon-41" viewBox="178250.51 180850.5 7798.43 7798.43">
 <line fill="none" stroke="#FEFEFE" stroke-width="1241.57" stroke-linecap="round" x1="178871.3" y1="181471.28" x2="185428.16" y2= "188028.14" />
 <line fill="none" stroke="#FEFEFE" stroke-width="1241.57" stroke-linecap="round" x1="185428.16" y1="181471.28" x2="178871.3" y2= "188028.14" />
</symbol>
<symbol id="icon-03" viewBox="44344.79 45453.01 7753.66 7702.3">
 <rect fill="none" stroke="#D6D5D5" stroke-width="341.6" x="44515.59" y="48124.81" width="1603.5" height="4859.7"/>
 <path fill="none" stroke="#D6D5D5" stroke-width="341.6" d="M46114.59 52552.82c328.01,164 1107.01,369 1681.01,369l2050 0c410,0 697,-246 820,-492l1066 -2337c287.01,-574 369.01,-1681.01 -533,-1681.01l-1886 0 0 -1312c0,-820 -205,-1476 -1435,-1476l0 984c0,984 -697.01,1804 -1353.01,1804l-410 0 0 4141.01 0 0z"/>
 <rect fill="none" stroke="#D6D5D5" stroke-width="341.6" x="45048.59" y="51814.82" width="516.44" height="516.44"/>
</symbol>
<symbol id="icon-31" viewBox="19952.33 21864.98 7733.26 6617.68">
 <path fill="none" stroke="#D6D5D5" stroke-width="177.86" d="M25180.83 25299.62c-448.29,-555.02 -1110.05,384.25 -832.54,1174.1 277.52,-128.09 640.42,-298.86 981.97,-512.33 -42.69,-298.86 -85.39,-576.38 -149.43,-661.77l0 0zm-426.94 2262.8l0 0c384.25,725.8 1046.01,896.58 1665.08,811.19 512.33,-64.04 853.88,-704.45 256.16,-1003.31 -448.29,-234.82 -704.45,-42.7 -939.27,-234.82 -256.17,170.78 -640.42,341.55 -981.97,426.94l0 0z"/>
 <path fill="none" stroke="#D6D5D5" stroke-width="177.86" d="M24860.62 25022.11c-362.9,-597.72 149.43,-1067.36 234.82,-1216.79 106.74,-106.73 811.19,-811.19 1750.47,-362.9 661.76,320.21 917.93,981.97 640.41,1515.65 -42.69,85.39 -170.77,170.78 -320.2,213.47 -42.7,-85.39 -106.74,-149.43 -213.47,-256.17 -128.09,-106.73 -320.21,-42.69 -490.99,64.05 -21.35,-64.05 -42.69,-106.74 -42.69,-192.13 -42.7,-512.33 -490.99,-490.98 -747.15,-42.69 -256.17,448.29 -704.46,490.98 -811.19,277.51l0 0 -0.01 0z"/>
 <path fill="none" stroke="#D6D5D5" stroke-width="177.86" d="M23537.1 26922.01c-320.21,-384.25 -1515.65,277.51 -1344.87,-811.19 64.04,-469.64 -21.35,-832.54 -426.94,-832.54 -469.64,-21.35 -683.11,533.68 -640.42,917.92 192.13,2049.33 2198.76,1579.69 2412.23,1344.88 213.47,-149.44 128.08,-448.3 0,-619.07l0 0z"/>
 <path fill="none" stroke="#D6D5D5" stroke-width="177.86" d="M24092.13 27583.77c-320.21,-149.43 -619.07,-426.94 -298.86,-768.5 298.86,-341.55 1515.64,-597.72 2262.79,-1494.3 192.13,-213.47 661.77,-619.07 896.58,-405.6 320.21,277.52 298.86,426.95 192.13,853.89 -149.43,533.68 -768.5,896.58 -1152.75,1216.79 -384.25,277.51 -1451.6,768.5 -1899.89,597.72z"/>
 <path fill="none" stroke="#D6D5D5" stroke-width="177.86" d="M20804.66 22161.59c640.42,0 1110.06,384.25 1515.65,725.8 405.6,362.91 640.42,1131.4 597.72,1707.78 -85.39,875.23 -917.93,704.45 -1024.66,661.76 -85.39,-64.04 -320.21,-298.86 -170.78,-640.42 149.43,-341.55 149.43,-811.19 -213.47,-981.97 -234.82,-106.73 -960.62,-576.37 -1088.7,-853.88 -85.39,-256.17 -21.35,-576.38 384.24,-619.07l0 0 0 0z"/>
 <polyline fill="none" stroke="#D6D5D5" stroke-width="177.86" points="20505.8,22289.67 20270.99,22033.51 20078.86,22567.19 20441.76,22567.19 "/>
 <polyline fill="none" stroke="#D6D5D5" stroke-width="177.86" points="27038.03,27925.32 27358.24,28053.41 27294.2,27477.03 26952.64,27647.81 "/>
</symbol>
<symbol id="icon-39" viewBox="199084.68 198618.83 4625.43 7727.22">
 <line fill="none" stroke="#FEFEFE" stroke-width="1360.22" stroke-linecap="round" x1="203030" y1="202564.15" x2="199764.79" y2= "205666.1" />
 <line fill="none" stroke="#FEFEFE" stroke-width="1360.22" stroke-linecap="round" x1="199764.79" y1="199298.94" x2="203030" y2= "202564.15" />
</symbol>
<symbol id="icon-36" viewBox="123339.36 125319.11 7749.02 7749.02">
 <line fill="none" stroke="#D6D5D5" stroke-width="436.17" x1="131088.38" y1="129193.62" x2="123339.36" y2= "129193.62" />
 <line fill="none" stroke="#D6D5D5" stroke-width="436.17" x1="127213.87" y1="133068.12" x2="127213.87" y2= "125319.11" />
</symbol>
<symbol id="icon-35" viewBox="153626.65 158079.45 7727.14 5542.44">
 <rect fill="none" stroke-width="537.94" x="153895.62" y="158348.42" width="7189.2" height="5004.5"/>
 <polyline fill="none" stroke-width="537.94" points="160998.88,158477.57 157511.83,161448.02 154024.77,158477.57 "/>
 <path fill="none" stroke-width="537.94" d="M160998.88 163256.13l-2583 -2583.01m-1937.25 0l-2453.86 2583.01"/>
</symbol>
<symbol id="icon-42" viewBox="178250.51 180850.5 7798.43 7798.43">
 <line fill="none" stroke="#979797" stroke-width="1241.57" stroke-linecap="round" x1="178871.3" y1="181471.28" x2="185428.16" y2= "188028.14" />
 <line fill="none" stroke="#979797" stroke-width="1241.57" stroke-linecap="round" x1="185428.16" y1="181471.28" x2="178871.3" y2= "188028.14" />
</symbol>
<symbol id="icon-16" viewBox="47467.46 48590.65 7759.88 7759.88">
 <circle fill="none" stroke="#64BAE9" stroke-width="272.07" cx="51347.4" cy="52470.59" r="3743.91"/>
 <line fill="none" stroke="#64BAE9" stroke-width="272.02" x1="51216.8" y1="50293.9" x2="51216.8" y2= "52818.86" />
 <line fill="none" stroke="#64BAE9" stroke-width="272.02" x1="53611.16" y1="52688.26" x2="51086.2" y2= "52688.26" />
</symbol>
<symbol id="icon-38" viewBox="105954.28 104354.78 4446.38 7792.3">
 <line fill="none" stroke="#FEFEFE" stroke-width="1100.46" stroke-linecap="round" x1="109850.43" y1="108250.93" x2="106504.51" y2= "111596.86" />
 <line fill="none" stroke="#FEFEFE" stroke-width="1100.46" stroke-linecap="round" x1="106504.51" y1="104905.01" x2="109850.43" y2= "108250.93" />
</symbol>
<symbol id="icon-20" viewBox="89578.79 98293.61 7749.02 645.62">
 <line fill="none" stroke="#64BAE9" stroke-width="645.62" x1="97327.8" y1="98616.42" x2="89578.79" y2= "98616.42" />
</symbol>
<symbol id="icon-26" viewBox="181522.92 182716.61 6715.68 8163.45">
 <path fill="none" stroke="#A1C141" stroke-width="615.17" d="M186076.02 188322.81c0,0 301.41,-150.7 602.81,0 301.4,301.4 1507.02,1054.91 1205.62,1657.72 -301.41,452.11 -1054.92,904.21 -2411.24,301.4 -1356.31,-602.8 -1959.12,-1507.02 -2561.93,-2260.53 -452.11,-602.8 -1657.72,-2411.23 -753.51,-4219.65 0,0 301.4,-753.51 904.21,-753.51 0,0 150.7,-150.71 452.11,301.4 301.4,301.4 753.51,1205.62 602.8,1507.02 0,0 -150.7,301.4 -301.4,602.81 -150.7,150.7 -452.11,452.11 -301.4,1054.91 150.7,602.81 1054.91,2109.83 1959.12,2109.83 0,0 301.41,0 602.81,-301.4l0 0 0 0z"/>
</symbol>
<symbol id="icon-28" viewBox="25098.81 26054.38 7749.02 7655.51">
 <polyline fill="none" stroke="#D6D5D5" stroke-width="212.37" points="28132.15,29831.15 30247.83,28888.02 30247.83,30137.04 32312.54,28913.51 32312.54,33603.7 "/>
 <line fill="none" stroke="#D6D5D5" stroke-width="212.37" x1="25098.81" y1="33603.7" x2="32847.83" y2= "33603.7" />
 <path fill="none" stroke="#D6D5D5" stroke-width="212.37" d="M25608.62 33552.72c280.39,-2013.72 458.82,-3976.47 484.31,-5913.72l1401.96 0c25.49,1988.23 203.92,3950.98 535.29,5913.72"/>
 <polyline fill="none" stroke="#D6D5D5" stroke-width="212.37" points="26551.75,28276.25 27494.89,28276.25 27494.89,28327.23 "/>
 <path fill="none" stroke="#D6D5D5" stroke-width="212.37" d="M26806.66 26925.27c0,-611.76 433.33,-764.7 739.21,-764.7 866.67,0 866.67,994.11 1886.27,764.7"/>
 <rect fill="none" stroke="#64BAE9" stroke-width="212.37" x="28718.42" y="30570.37" width="828.73" height="828.73"/>
 <rect fill="none" stroke="#64BAE9" stroke-width="212.37" x="30783.13" y="30570.37" width="828.73" height="828.73"/>
 <rect fill="none" stroke="#64BAE9" stroke-width="212.37" x="28718.42" y="32074.29" width="828.73" height="828.73"/>
 <rect fill="none" stroke="#64BAE9" stroke-width="212.37" x="30783.13" y="32074.29" width="828.73" height="828.73"/>
</symbol>
<symbol id="icon-04" viewBox="37562.06 39550.93 7760.81 6756.68">
 <rect fill="none" stroke="#D6D5D5" stroke-width="296.16" x="39380.8" y="44995.36" width="4119.38" height="1164.18"/>
 <path fill="none" stroke="#D6D5D5" stroke-width="296.16" d="M39380.8 44995.36l4123.33 0 0 -391.01c924.19,-106.63 1670.66,-924.19 1670.66,-1883.93 0,-1066.38 -853.1,-1919.48 -1919.48,-1919.48l0 0c-319.92,-639.83 -1030.83,-1101.93 -1812.85,-1101.93 -782.01,0 -1492.93,462.1 -1812.84,1101.93l0 0c-1066.38,0 -1919.48,853.1 -1919.48,1919.48 0,959.74 746.46,1777.29 1670.66,1883.93l0 391.01 0 0 0 0z"/>
 <path fill="none" stroke="#D6D5D5" stroke-width="296.16" d="M39665.17 42720.42c-142.19,-284.37 -248.82,-639.83 -248.82,-959.74 0,-1137.47 924.19,-2061.67 2026.11,-2061.67 817.56,0 1492.93,462.1 1812.85,1101.93"/>
</symbol>
 <g id="Layer_x0020_1">
  <metadata id="CorelCorpID_0Corel-Layer"/>
  <use transform="scale(0.096371 0.096371)" x="-20167.77" y="-1884.58" width="7775.15" height="6309.93" xlink:href="#icon-01"/>
  <use transform="scale(0.0769537 0.0769537)" x="-12681.14" y="-2310.59" width="5210.73" height="7809.37" xlink:href="#icon-02"/>
  <use transform="scale(0.0762097 0.0762097)" x="-3785.59" y="-2210.15" width="7753.66" height="7702.3" xlink:href="#icon-03"/>
  <use transform="scale(0.0879032 0.0879032)" x="6031.6" y="-1951.69" width="7760.81" height="6756.68" xlink:href="#icon-04"/>
  <use transform="scale(0.0875 0.0875)" x="16343.8" y="-976.36" width="7725.15" height="7142" xlink:href="#icon-05"/>
  <use transform="scale(0.0794355 0.0794355)" x="29011.61" y="-2351.51" width="7811.98" height="7723.49" xlink:href="#icon-06"/>
  <use transform="scale(0.0931452 0.0931452)" x="32864.03" y="-1757.63" width="7793.69" height="6624.02" xlink:href="#icon-07"/>
  <use transform="scale(0.0919355 0.0919355)" x="43328.23" y="-1893.91" width="7749.02" height="6463.15" xlink:href="#icon-08"/>
  <use transform="scale(0.0370968 0.0370968)" x="-53080.85" y="18632.87" width="7906.47" height="7822.08" xlink:href="#icon-09"/>
  <use transform="scale(0.0427419 0.0427419)" x="-35250.07" y="16098.82" width="7901.31" height="6892.15" xlink:href="#icon-10"/>
  <use transform="scale(0.0438596 0.0438596)" x="-23095.65" y="15047.89" width="5277.67" height="7984.87" xlink:href="#icon-11"/>
  <use transform="scale(0.0375 0.0375)" x="-16847.13" y="21769.85" width="8005.92" height="7413.26" xlink:href="#icon-12"/>
  <use transform="scale(0.0366935 0.0366935)" x="-4741.56" y="18831.8" width="7924.87" height="7931.05" xlink:href="#icon-13"/>
  <use transform="scale(0.041129 0.041129)" x="7239.62" y="17128.53" width="7830.1" height="6449.55" xlink:href="#icon-14"/>
  <use transform="scale(0.0532258 0.0532258)" x="13725.1" y="12914.33" width="7882.76" height="5537.94" xlink:href="#icon-15"/>
  <use transform="scale(0.0717742 0.0717742)" x="19839.46" y="8451.44" width="7759.88" height="7759.88" xlink:href="#icon-16"/>
  <use transform="scale(0.0550239 0.0550239)" x="38201.29" y="10806.89" width="6260.63" height="7843.56" xlink:href="#icon-17"/>
  <use transform="scale(0.0725806 0.0725806)" x="35079.39" y="10732.46" width="7749.02" height="5305.85" xlink:href="#icon-18"/>
  <use transform="scale(0.0403226 0.0403226)" x="85615.04" y="18850.24" width="7749.02" height="7749.02" xlink:href="#icon-19"/>
  <use transform="scale(0.0403226 0.0403226)" x="97161.08" y="22401.95" width="7749.02" height="645.62" xlink:href="#icon-20"/>
  <use transform="scale(0.0427419 0.0427419)" x="101530.41" y="17563.94" width="7749.02" height="7749.02" xlink:href="#icon-21"/>
  <use transform="scale(0.0283094 0.0283094)" x="-69004.36" y="40833.67" width="6189.96" height="8000.32" xlink:href="#icon-22"/>
  <use transform="scale(0.0259171 0.0259171)" x="-65849.62" y="48537.62" width="6279.09" height="8091.27" xlink:href="#icon-23"/>
  <use transform="scale(0.0233871 0.0233871)" x="-61884.07" y="51600.2" width="8027.34" height="8027.34" xlink:href="#icon-24"/>
  <use transform="scale(0.0233871 0.0233871)" x="-51062.17" y="51600.2" width="8027.34" height="8027.34" xlink:href="#icon-25"/>
  <use transform="scale(0.0207337 0.0207337)" x="-42725.07" y="57879.9" width="6715.68" height="8163.45" xlink:href="#icon-26"/>
  <use transform="scale(0.243145 0.243145)" x="-9667.83" y="7069.14" width="7740.43" height="3782.39" xlink:href="#icon-27"/>
  <use transform="scale(0.122581 0.122581)" x="-2043.03" y="13639.64" width="7749.02" height="7655.51" xlink:href="#icon-28"/>
  <use transform="scale(0.125 0.125)" x="6566.28" y="13514.66" width="7738.28" height="7476.45" xlink:href="#icon-29"/>
  <use transform="scale(0.140323 0.140323)" x="14464.86" y="12368.46" width="7760.11" height="7150.71" xlink:href="#icon-30"/>
  <use transform="scale(0.146371 0.146371)" x="-15033.7" y="18347.68" width="7733.26" height="6617.68" xlink:href="#icon-31"/>
  <use transform="scale(0.0221774 0.0221774)" x="158978.5" y="57735.42" width="7741.3" height="7741.3" xlink:href="#icon-32"/>
  <use transform="scale(0.0221774 0.0221774)" x="173490.29" y="57735.42" width="7741.3" height="7741.3" xlink:href="#icon-33"/>
  <use transform="scale(0.0153226 0.0153226)" x="273598.31" y="86074.04" width="7816.64" height="5777.42" xlink:href="#icon-34"/>
  <use transform="scale(0.0241935 0.0241935)" x="183621.69" y="52974.5" width="7727.14" height="5542.44" xlink:href="#icon-35"/>
  <use transform="scale(0.0298387 0.0298387)" x="116952.59" y="52699.58" width="7749.02" height="7749.02" xlink:href="#icon-36"/>
  <use transform="scale(0.0298387 0.0298387)" x="127947.81" y="52699.58" width="7749.02" height="7749.02" xlink:href="#icon-37"/>
  <use transform="scale(0.0354864 0.0354864)" x="117600.52" y="43762.14" width="4446.38" height="7792.3" xlink:href="#icon-38"/>
  <use transform="scale(0.0191388 0.0191388)" x="231288.66" y="84253.55" width="4625.43" height="7727.22" xlink:href="#icon-39"/>
  <use transform="scale(0.0414673 0.0414673)" x="113842.49" y="36817.82" width="4886.76" height="7782.62" xlink:href="#icon-40"/>
  <use transform="scale(0.0209677 0.0209677)" x="169239.2" y="98664.95" width="7798.43" height="7798.43" xlink:href="#icon-41"/>
  <use transform="scale(0.0209677 0.0209677)" x="179521.55" y="98664.95" width="7798.43" height="7798.43" xlink:href="#icon-42"/>
  <use transform="scale(0.0274194 0.0274194)" x="147271.02" y="75050.13" width="8005.88" height="8025.25" xlink:href="#icon-43"/>
  <use transform="scale(0.0314992 0.0314992)" x="137669.57" y="63511.38" width="6546.95" height="7836.5" xlink:href="#icon-44"/>
  <use transform="scale(0.0314992 0.0314992)" x="145605.27" y="63511.38" width="6546.95" height="7836.5" xlink:href="#icon-45"/>
  <use x="-661.97" y="1126.1" width="299.92" height="299.92" xlink:href="#icon-50"/>
  <use x="42.66" y="1232.96" width="47.39" height="78.93" xlink:href="#icon-54"/>
  <use x="-278.88" y="1232.4" width="38.98" height="80.09" xlink:href="#icon-51"/>
  <use x="-83.53" y="1243.13" width="83.76" height="58.55" xlink:href="#icon-53"/>
  <use x="-177.47" y="1239.61" width="52.58" height="65.59" xlink:href="#icon-52"/>
  <use x="158.09" y="1202.86" width="282.75" height="134.41" xlink:href="#icon-55"/>
  <use x="506.4" y="1211.61" width="50.65" height="88.91" xlink:href="#icon-56"/>
 </g>
</svg>
