<?xml version="1.0" encoding="UTF-8"?>
<!DOCTYPE svg PUBLIC "-//W3C//DTD SVG 1.1//EN" "http://www.w3.org/Graphics/SVG/1.1/DTD/svg11.dtd">
<!-- Creator: CorelDRAW X7 -->
<svg xmlns="http://www.w3.org/2000/svg" xml:space="preserve" width="17.4965mm" height="14.2619mm" version="1.1" style="shape-rendering:geometricPrecision; text-rendering:geometricPrecision; image-rendering:optimizeQuality; fill-rule:evenodd; clip-rule:evenodd"
viewBox="0 0 34 28"
 xmlns:xlink="http://www.w3.org/1999/xlink">
 <defs>
  <style type="text/css">
   <![CDATA[
    .str1 {stroke:#64BAE9;stroke-width:1.03185}
    .str0 {stroke:#D6D5D5;stroke-width:1.03185}
    .str2 {stroke:#64BAE9;stroke-width:0.687833}
    .fil0 {fill:none}
   ]]>
  </style>
 </defs>
 <g id="Слой_x0020_1">
  <metadata id="CorelCorpID_0Corel-Layer"/>
  <path class="fil0 str0" d="M5 8l11 -6c4,-3 10,-1 13,3l0 0c4,4 1,11 -4,14l-14 8"/>
  <ellipse class="fil0 str1" cx="9" cy="17" rx="8" ry="10"/>
  <polygon class="fil0 str0" points="29,5 30,2 31,3 33,3 33,5 33,6 "/>
  <circle class="fil0 str2" cx="8" cy="16" r="1"/>
  <circle class="fil0 str2" cx="12" cy="15" r="1"/>
  <circle class="fil0 str2" cx="14" cy="19" r="1"/>
  <circle class="fil0 str2" cx="6" cy="22" r="1"/>
  <circle class="fil0 str2" cx="3" cy="17" r="1"/>
  <circle class="fil0 str2" cx="6" cy="11" r="1"/>
  <circle class="fil0 str2" cx="11" cy="10" r="1"/>
  <circle class="fil0 str2" cx="11" cy="24" r="1"/>
 </g>
</svg>
