<svg id="svg" version="1.1" width="613" height="500" xmlns="http://www.w3.org/2000/svg" xmlns:xlink="http://www.w3.org/1999/xlink" style="display: block;"><g id="svgg"><path id="path0" d="M216.639 0.979 C 216.639 1.517,216.933 1.958,217.292 1.958 C 217.651 1.958,217.945 1.517,217.945 0.979 C 217.945 0.440,217.651 0.000,217.292 0.000 C 216.933 0.000,216.639 0.440,216.639 0.979 M277.150 3.263 C 277.764 3.980,278.660 4.568,279.139 4.568 C 279.633 4.568,279.809 4.895,279.546 5.321 C 279.251 5.799,279.368 5.897,279.866 5.589 C 280.464 5.220,280.470 4.886,279.892 4.191 C 279.476 3.688,278.905 3.419,278.624 3.592 C 278.344 3.766,277.946 3.469,277.740 2.933 C 277.534 2.396,277.066 1.958,276.699 1.958 C 276.332 1.958,276.535 2.545,277.150 3.263 M156.607 26.645 C 156.607 27.064,156.279 27.333,155.878 27.243 C 155.477 27.153,155.056 27.640,154.942 28.324 C 154.749 29.485,154.828 29.475,156.124 28.179 C 156.888 27.415,157.309 26.586,157.060 26.337 C 156.811 26.088,156.607 26.226,156.607 26.645 M378.684 27.080 C 378.684 27.573,379.100 27.775,379.667 27.557 C 380.350 27.295,380.535 27.481,380.273 28.163 C 380.052 28.740,380.260 29.146,380.777 29.146 C 381.408 29.146,381.488 28.828,381.060 28.027 C 380.296 26.600,378.684 25.957,378.684 27.080 M324.223 30.229 C 324.716 30.830,324.900 31.321,324.633 31.321 C 324.366 31.321,324.510 31.759,324.953 32.293 C 325.743 33.245,326.917 33.076,326.917 32.010 C 326.917 31.714,326.109 30.946,325.122 30.304 C 323.561 29.287,323.444 29.278,324.223 30.229 M328.462 34.756 C 328.673 36.146,329.591 37.231,330.225 36.840 C 331.193 36.242,330.933 35.337,329.586 34.616 C 328.666 34.123,328.372 34.160,328.462 34.756 M372.435 41.543 C 372.886 41.725,373.060 42.187,372.823 42.571 C 372.568 42.983,372.700 43.078,373.146 42.803 C 373.560 42.547,373.899 42.697,373.899 43.137 C 373.899 43.577,374.088 43.748,374.318 43.518 C 374.866 42.969,373.301 41.094,372.351 41.161 C 371.892 41.193,371.924 41.337,372.435 41.543 M345.080 84.096 C 345.559 84.400,346.000 84.903,346.059 85.214 C 346.118 85.525,346.559 85.836,347.038 85.907 C 347.645 85.996,347.565 85.653,346.774 84.779 C 346.149 84.089,345.316 83.528,344.923 83.534 C 344.525 83.539,344.594 83.788,345.080 84.096 M34.539 101.523 C 34.102 102.048,33.934 102.667,34.165 102.898 C 34.395 103.128,34.584 102.957,34.584 102.517 C 34.584 102.077,34.818 101.862,35.105 102.039 C 35.391 102.216,36.003 102.127,36.464 101.842 C 37.124 101.435,37.092 101.242,36.318 100.945 C 35.776 100.737,34.975 100.997,34.539 101.523 M120.516 105.341 C 119.866 105.834,119.572 106.365,119.863 106.522 C 120.154 106.679,120.905 106.267,121.533 105.606 C 122.864 104.206,122.230 104.041,120.516 105.341 M138.157 117.489 C 138.789 118.159,138.789 118.542,138.157 119.308 C 137.506 120.097,137.540 120.217,138.336 119.954 C 138.874 119.776,139.315 119.092,139.315 118.434 C 139.315 117.776,138.874 117.103,138.336 116.939 C 137.555 116.700,137.519 116.811,138.157 117.489 M38.173 124.327 C 36.179 125.962,36.325 126.449,38.465 125.304 C 39.117 124.955,39.823 124.221,40.033 123.672 C 40.519 122.408,40.511 122.410,38.173 124.327 M112.036 126.451 C 111.900 126.707,112.319 127.420,112.967 128.035 C 113.615 128.650,114.256 128.944,114.391 128.687 C 114.527 128.431,114.108 127.719,113.460 127.104 C 112.812 126.489,112.172 126.195,112.036 126.451 M170.298 126.369 C 170.668 126.552,170.817 126.950,170.630 127.254 C 170.442 127.557,170.615 128.007,171.015 128.254 C 171.466 128.533,171.655 128.263,171.515 127.538 C 171.390 126.897,170.914 126.297,170.457 126.204 C 169.999 126.112,169.928 126.186,170.298 126.369 M49.534 134.311 C 50.435 135.996,52.157 137.395,51.922 136.252 C 51.531 134.349,50.706 133.116,49.826 133.116 C 49.124 133.116,49.052 133.412,49.534 134.311 M132.463 150.904 C 132.463 151.476,131.949 152.078,131.321 152.242 C 130.251 152.522,130.252 152.545,131.342 152.616 C 132.522 152.693,133.615 151.016,132.870 150.271 C 132.646 150.047,132.463 150.332,132.463 150.904 M127.657 189.554 C 127.844 190.040,128.430 190.604,128.959 190.807 C 129.500 191.014,129.746 190.893,129.522 190.531 C 129.303 190.176,129.484 189.886,129.923 189.886 C 131.099 189.886,130.245 189.234,128.674 188.931 C 127.738 188.751,127.423 188.944,127.657 189.554 M23.229 190.435 C 22.600 191.452,23.792 192.379,24.604 191.504 C 25.221 190.838,25.191 190.579,24.462 190.299 C 23.951 190.103,23.396 190.164,23.229 190.435 M173.161 197.888 C 173.371 199.278,174.289 200.364,174.923 199.972 C 175.891 199.374,175.631 198.469,174.284 197.748 C 173.364 197.255,173.070 197.292,173.161 197.888 M36.868 205.546 C 37.090 205.905,38.061 206.178,39.027 206.153 C 40.595 206.112,40.643 206.047,39.478 205.546 C 37.665 204.767,36.386 204.767,36.868 205.546 M15.053 211.141 C 16.586 212.773,17.653 213.360,16.449 211.909 C 16.076 211.460,15.820 210.827,15.879 210.503 C 15.939 210.178,15.442 209.832,14.776 209.735 C 13.698 209.576,13.728 209.730,15.053 211.141 M55.310 232.348 C 54.686 232.711,53.862 233.657,53.479 234.449 C 52.830 235.791,52.849 235.807,53.745 234.694 C 54.274 234.037,55.245 233.092,55.902 232.595 C 57.295 231.538,56.948 231.393,55.310 232.348 M63.958 255.527 C 63.944 256.511,66.465 258.711,66.997 258.180 C 67.234 257.943,67.085 257.749,66.667 257.749 C 66.248 257.749,65.979 257.529,66.069 257.259 C 66.158 256.990,65.971 256.722,65.652 256.663 C 65.333 256.604,64.824 256.163,64.520 255.684 C 64.212 255.198,63.963 255.128,63.958 255.527 M68.842 259.706 C 68.328 260.537,69.840 260.537,71.126 259.706 C 71.921 259.192,71.837 259.072,70.675 259.064 C 69.888 259.058,69.064 259.347,68.842 259.706 M137.694 263.357 C 137.680 264.341,140.201 266.542,140.733 266.010 C 140.970 265.773,140.821 265.579,140.402 265.579 C 139.984 265.579,139.715 265.359,139.804 265.090 C 139.894 264.821,139.707 264.552,139.388 264.493 C 139.069 264.434,138.560 263.993,138.256 263.514 C 137.948 263.028,137.699 262.959,137.694 263.357 M198.369 285.737 C 198.369 286.177,198.108 286.376,197.790 286.179 C 197.472 285.983,196.870 286.233,196.453 286.735 C 196.020 287.258,195.951 287.807,196.292 288.018 C 197.028 288.472,199.398 285.967,198.800 285.368 C 198.563 285.131,198.369 285.297,198.369 285.737 M48.781 286.894 C 49.231 287.075,49.471 287.433,49.313 287.689 C 49.155 287.944,49.296 288.580,49.625 289.101 C 50.073 289.809,50.227 289.833,50.235 289.195 C 50.241 288.693,50.581 288.537,51.060 288.818 C 51.509 289.080,51.317 288.657,50.633 287.877 C 49.949 287.098,49.068 286.483,48.675 286.512 C 48.267 286.541,48.312 286.705,48.781 286.894 M147.514 295.218 C 147.065 295.758,147.005 296.286,147.366 296.509 C 147.701 296.716,148.317 296.475,148.734 295.973 C 149.183 295.432,149.243 294.905,148.882 294.682 C 148.546 294.474,147.931 294.716,147.514 295.218 M142.778 317.618 C 142.239 318.246,141.584 319.201,141.323 319.739 C 140.958 320.493,141.048 320.478,141.713 319.674 C 142.189 319.100,142.798 318.586,143.067 318.532 C 143.336 318.478,143.531 318.247,143.501 318.017 C 143.470 317.788,143.837 317.352,144.316 317.049 C 144.802 316.741,144.872 316.492,144.473 316.486 C 144.080 316.481,143.317 316.990,142.778 317.618 " stroke="none" fill="#ffffff" fill-rule="evenodd"></path><path id="path1" d="M278.993 3.536 C 280.360 4.535,280.979 4.425,280.288 3.306 C 280.051 2.923,279.378 2.610,278.793 2.610 C 277.902 2.610,277.935 2.762,278.993 3.536 M350.408 8.809 C 349.743 9.611,349.787 9.788,350.654 9.788 C 351.236 9.788,351.713 9.347,351.713 8.809 C 351.713 8.271,351.602 7.830,351.467 7.830 C 351.331 7.830,350.855 8.271,350.408 8.809 M182.708 11.746 C 181.930 12.523,181.474 13.339,181.693 13.558 C 181.912 13.777,182.728 13.321,183.506 12.543 C 184.283 11.765,184.740 10.950,184.521 10.730 C 184.301 10.511,183.486 10.968,182.708 11.746 M344.740 23.328 C 344.517 23.956,344.211 24.763,344.060 25.122 C 343.909 25.481,344.248 25.205,344.813 24.508 C 345.378 23.812,346.207 23.009,346.656 22.724 C 347.235 22.356,347.134 22.203,346.309 22.196 C 345.670 22.190,344.964 22.700,344.740 23.328 M154.667 27.058 C 154.231 27.584,154.025 28.392,154.210 28.852 C 154.426 29.392,154.565 29.295,154.598 28.581 C 154.626 27.970,155.163 27.172,155.791 26.806 C 156.419 26.440,156.602 26.132,156.197 26.121 C 155.793 26.110,155.104 26.532,154.667 27.058 M320.392 28.385 C 320.392 28.923,320.868 29.364,321.450 29.364 C 322.317 29.364,322.362 29.187,321.697 28.385 C 321.250 27.847,320.773 27.406,320.638 27.406 C 320.502 27.406,320.392 27.847,320.392 28.385 M301.537 34.039 C 301.946 34.996,302.905 35.936,303.668 36.128 C 304.978 36.457,304.989 36.426,303.862 35.583 C 303.205 35.092,302.246 34.152,301.731 33.495 C 300.888 32.419,300.869 32.474,301.537 34.039 M169.788 37.977 C 168.556 39.209,168.873 39.921,170.310 39.152 C 171.028 38.768,171.615 38.170,171.615 37.824 C 171.615 36.959,170.731 37.034,169.788 37.977 M371.428 41.358 C 371.531 42.033,372.349 43.019,373.246 43.550 C 374.360 44.209,374.552 44.233,373.851 43.628 C 373.287 43.140,372.469 42.153,372.033 41.436 C 371.300 40.228,371.255 40.222,371.428 41.358 M142.723 53.515 C 142.104 54.237,141.599 54.981,141.599 55.169 C 141.599 55.872,144.070 54.157,144.438 53.199 C 144.978 51.791,144.052 51.962,142.723 53.515 M325.612 56.972 C 325.612 57.553,326.199 58.343,326.917 58.728 C 327.635 59.112,328.222 59.168,328.222 58.852 C 328.222 58.536,327.635 57.746,326.917 57.096 C 325.765 56.054,325.612 56.039,325.612 56.972 M115.965 69.915 C 114.402 71.424,114.337 71.618,115.497 71.315 C 116.238 71.121,117.152 70.387,117.529 69.683 C 118.513 67.843,118.040 67.914,115.965 69.915 M356.281 68.554 C 356.281 68.934,356.029 69.090,355.722 68.900 C 355.415 68.710,355.299 69.260,355.464 70.123 C 355.763 71.686,357.586 73.026,357.586 71.682 C 357.586 71.292,358.173 71.127,358.891 71.315 C 360.542 71.746,360.530 71.677,358.596 69.590 C 356.872 67.730,356.281 67.465,356.281 68.554 M377.873 73.676 C 379.696 76.142,379.783 76.157,379.179 73.899 C 378.915 72.912,378.177 72.004,377.540 71.881 C 376.529 71.686,376.572 71.916,377.873 73.676 M74.388 74.715 C 73.723 75.516,73.768 75.693,74.635 75.693 C 75.217 75.693,75.693 75.253,75.693 74.715 C 75.693 74.176,75.582 73.736,75.447 73.736 C 75.311 73.736,74.835 74.176,74.388 74.715 M344.555 84.586 C 344.526 85.662,346.314 86.964,347.286 86.573 C 347.826 86.357,347.729 86.218,347.014 86.185 C 346.404 86.157,345.606 85.620,345.240 84.992 C 344.874 84.364,344.566 84.181,344.555 84.586 M157.259 90.375 C 157.259 90.914,157.736 91.354,158.318 91.354 C 159.185 91.354,159.230 91.177,158.564 90.375 C 158.118 89.837,157.641 89.396,157.506 89.396 C 157.370 89.396,157.259 89.837,157.259 90.375 M43.876 93.303 C 42.831 94.976,42.856 95.269,44.046 95.269 C 44.655 95.269,45.024 94.653,45.024 93.638 C 45.024 91.669,44.916 91.637,43.876 93.303 M67.863 96.328 C 67.863 97.195,68.040 97.240,68.842 96.574 C 69.380 96.127,69.821 95.651,69.821 95.516 C 69.821 95.380,69.380 95.269,68.842 95.269 C 68.303 95.269,67.863 95.746,67.863 96.328 M120.972 103.739 C 119.598 104.294,118.423 106.242,119.071 106.891 C 119.259 107.078,119.413 106.885,119.413 106.461 C 119.413 106.037,120.367 105.109,121.533 104.397 C 123.706 103.073,123.428 102.746,120.972 103.739 M176.258 105.850 C 176.217 106.465,176.843 107.317,177.651 107.742 C 178.458 108.167,179.335 108.838,179.598 109.233 C 179.928 109.727,180.081 109.692,180.088 109.121 C 180.093 108.665,179.377 107.964,178.497 107.562 C 177.616 107.161,176.770 106.360,176.615 105.782 C 176.372 104.873,176.324 104.883,176.258 105.850 M353.307 119.686 C 352.611 120.195,352.188 120.757,352.366 120.935 C 352.545 121.112,353.385 120.696,354.232 120.009 C 356.004 118.573,355.209 118.295,353.307 119.686 M367.809 127.352 C 367.151 128.070,366.782 128.826,366.989 129.034 C 367.428 129.473,369.984 127.302,369.984 126.489 C 369.984 125.598,369.092 125.952,367.809 127.352 M169.762 127.496 C 169.884 128.173,170.718 128.997,171.615 129.327 C 172.991 129.833,173.093 129.793,172.268 129.074 C 171.729 128.606,170.895 127.781,170.414 127.243 C 169.649 126.386,169.568 126.418,169.762 127.496 M15.842 128.059 C 14.225 130.150,14.231 130.663,15.859 129.475 C 17.590 128.213,18.105 127.243,17.046 127.243 C 16.731 127.243,16.189 127.610,15.842 128.059 M11.419 137.466 C 10.272 138.385,10.259 138.461,11.309 138.098 C 11.967 137.870,12.774 137.684,13.104 137.684 C 13.433 137.684,13.703 137.390,13.703 137.031 C 13.703 136.107,12.932 136.254,11.419 137.466 M136.223 149.891 C 137.035 150.047,138.209 150.041,138.833 149.877 C 139.457 149.714,138.793 149.586,137.357 149.594 C 135.922 149.601,135.411 149.734,136.223 149.891 M182.708 149.675 C 182.708 149.811,183.148 150.287,183.687 150.734 C 184.488 151.399,184.666 151.355,184.666 150.488 C 184.666 149.905,184.225 149.429,183.687 149.429 C 183.148 149.429,182.708 149.540,182.708 149.675 M346.539 152.310 C 345.507 153.553,345.816 154.166,347.080 153.384 C 347.562 153.086,347.837 152.483,347.690 152.043 C 347.501 151.474,347.168 151.551,346.539 152.310 M3.444 158.728 C 3.097 159.176,2.620 160.131,2.384 160.848 L 1.954 162.153 2.949 160.848 C 3.496 160.131,4.434 159.176,5.033 158.728 C 5.985 158.015,5.993 157.912,5.099 157.912 C 4.536 157.912,3.791 158.279,3.444 158.728 M18.094 164.831 C 17.832 165.093,17.618 165.757,17.618 166.308 C 17.618 167.042,17.811 167.115,18.344 166.582 C 18.743 166.183,18.958 165.519,18.820 165.106 C 18.682 164.693,18.356 164.570,18.094 164.831 M338.662 168.026 C 337.997 168.828,338.042 169.005,338.909 169.005 C 339.491 169.005,339.967 168.564,339.967 168.026 C 339.967 167.488,339.857 167.047,339.721 167.047 C 339.586 167.047,339.109 167.488,338.662 168.026 M332.767 173.927 C 332.176 174.638,332.135 175.136,332.626 175.627 C 333.117 176.118,333.290 175.967,333.218 175.110 C 333.152 174.324,333.516 173.931,334.258 173.989 C 334.886 174.039,335.400 173.819,335.400 173.500 C 335.400 172.558,333.670 172.838,332.767 173.927 M189.233 177.218 C 190.406 178.714,191.317 179.422,192.086 179.435 C 192.921 179.450,191.193 177.534,189.613 176.693 C 188.343 176.016,188.318 176.050,189.233 177.218 M121.183 180.525 C 120.991 180.836,121.248 181.658,121.754 182.351 C 122.405 183.240,122.672 183.334,122.665 182.670 C 122.651 181.354,121.606 179.841,121.183 180.525 M37.043 181.223 C 38.216 181.369,39.977 181.366,40.958 181.217 C 41.938 181.068,40.979 180.949,38.825 180.953 C 36.672 180.956,35.870 181.078,37.043 181.223 M90.753 181.219 C 90.725 181.656,89.894 182.452,88.907 182.987 C 87.852 183.560,87.532 183.972,88.130 183.987 C 89.685 184.027,91.578 182.381,91.169 181.346 C 90.938 180.763,90.786 180.716,90.753 181.219 M350.459 181.534 C 350.431 182.144,349.894 182.942,349.266 183.308 C 348.638 183.674,348.455 183.982,348.860 183.993 C 349.937 184.022,351.238 182.234,350.847 181.262 C 350.631 180.722,350.493 180.819,350.459 181.534 M52.202 189.580 C 52.202 190.003,54.732 192.496,55.162 192.496 C 55.870 192.496,54.163 190.027,53.199 189.657 C 52.651 189.446,52.202 189.412,52.202 189.580 M104.078 198.502 L 102.121 200.556 104.241 199.092 C 105.408 198.286,106.362 197.354,106.362 197.019 C 106.362 196.150,106.250 196.222,104.078 198.502 M36.790 201.958 C 36.865 204.473,36.950 204.571,39.152 204.653 C 41.361 204.735,41.367 204.729,39.352 204.451 C 37.502 204.196,37.237 203.894,36.990 201.756 L 36.712 199.347 36.790 201.958 M177.681 201.341 C 178.325 202.039,179.280 203.197,179.802 203.915 C 180.710 205.164,180.727 205.152,180.201 203.629 C 179.899 202.753,178.944 201.595,178.080 201.055 C 176.542 200.093,176.533 200.099,177.681 201.341 M84.817 204.872 C 86.536 208.084,94.020 207.830,94.448 204.545 C 94.595 203.418,94.541 203.434,94.006 204.673 C 92.898 207.238,86.884 207.136,85.886 204.536 C 85.686 204.015,85.209 203.589,84.826 203.589 C 84.336 203.589,84.334 203.969,84.817 204.872 M14.845 209.261 C 15.653 209.818,16.313 210.727,16.313 211.281 C 16.313 211.836,16.487 212.116,16.699 211.903 C 17.474 211.129,16.231 208.941,14.823 208.599 L 13.377 208.249 14.845 209.261 M180.750 209.361 C 180.750 209.664,181.338 210.443,182.055 211.093 C 183.587 212.479,183.841 211.340,182.335 209.835 C 181.182 208.681,180.750 208.552,180.750 209.361 M0.000 216.313 C 0.000 216.852,0.440 217.292,0.979 217.292 C 1.517 217.292,1.958 216.852,1.958 216.313 C 1.958 215.775,1.517 215.334,0.979 215.334 C 0.440 215.334,0.000 215.775,0.000 216.313 M167.047 215.581 C 167.047 215.716,167.488 216.193,168.026 216.639 C 168.828 217.305,169.005 217.260,169.005 216.393 C 169.005 215.811,168.564 215.334,168.026 215.334 C 167.488 215.334,167.047 215.445,167.047 215.581 M167.178 221.338 C 165.930 222.585,166.271 223.253,167.700 222.361 C 169.018 221.537,169.444 220.555,168.483 220.555 C 168.196 220.555,167.608 220.907,167.178 221.338 M272.963 223.822 C 272.179 224.138,271.186 225.073,270.757 225.901 C 270.002 227.360,270.015 227.370,271.204 226.234 C 271.879 225.590,273.018 224.645,273.736 224.134 C 275.220 223.079,275.014 222.995,272.963 223.822 M206.852 225.035 C 206.852 225.465,206.191 226.082,205.383 226.407 C 204.390 226.806,204.259 227.011,204.977 227.039 C 206.184 227.086,207.907 225.308,207.271 224.672 C 207.040 224.441,206.852 224.604,206.852 225.035 M177.818 236.211 C 177.166 236.931,176.936 237.520,177.307 237.520 C 178.128 237.520,179.755 235.655,179.317 235.217 C 179.144 235.044,178.469 235.491,177.818 236.211 M172.920 239.884 C 172.920 240.751,173.097 240.796,173.899 240.131 C 174.437 239.684,174.878 239.207,174.878 239.072 C 174.878 238.936,174.437 238.825,173.899 238.825 C 173.361 238.825,172.920 239.302,172.920 239.884 M200.489 242.558 C 200.041 242.718,199.674 243.328,199.674 243.914 C 199.674 244.882,199.773 244.879,200.777 243.875 C 201.956 242.695,201.823 242.082,200.489 242.558 M23.025 244.894 C 24.744 246.680,25.176 246.627,24.173 244.754 C 23.773 244.006,23.025 243.393,22.513 243.393 C 21.853 243.393,22.003 243.832,23.025 244.894 M237.520 245.677 C 236.855 246.479,236.900 246.656,237.767 246.656 C 238.349 246.656,238.825 246.215,238.825 245.677 C 238.825 245.139,238.715 244.698,238.579 244.698 C 238.444 244.698,237.967 245.139,237.520 245.677 M178.793 256.444 C 178.015 257.221,177.558 258.037,177.778 258.256 C 177.997 258.476,178.813 258.019,179.590 257.241 C 180.368 256.464,180.825 255.648,180.605 255.429 C 180.386 255.209,179.570 255.666,178.793 256.444 M252.365 256.552 C 251.399 257.565,251.377 257.749,252.223 257.749 C 252.772 257.749,253.396 257.296,253.608 256.742 C 254.174 255.267,253.666 255.189,252.365 256.552 M139.478 264.165 C 140.779 265.528,141.287 265.451,140.721 263.976 C 140.508 263.422,139.885 262.969,139.335 262.969 C 138.490 262.969,138.512 263.153,139.478 264.165 M34.083 268.842 C 34.906 270.160,35.889 270.586,35.889 269.625 C 35.889 268.947,34.475 267.537,33.795 267.537 C 33.505 267.537,33.635 268.124,34.083 268.842 M76.461 275.399 C 75.680 276.127,75.041 276.869,75.041 277.047 C 75.041 277.546,77.524 276.101,78.006 275.320 C 78.807 274.024,77.887 274.071,76.461 275.399 M167.592 274.501 C 166.995 274.659,166.327 275.255,166.109 275.824 C 165.535 277.318,165.866 277.262,167.640 275.566 C 168.504 274.739,169.092 274.096,168.945 274.138 C 168.799 274.179,168.190 274.343,167.592 274.501 M45.768 283.141 C 46.615 283.828,47.455 284.245,47.634 284.067 C 48.016 283.686,45.701 281.892,44.827 281.892 C 44.497 281.892,44.921 282.454,45.768 283.141 M53.650 290.416 C 54.266 290.775,55.065 291.574,55.424 292.190 C 55.784 292.807,56.087 292.966,56.098 292.543 C 56.123 291.549,54.292 289.717,53.298 289.743 C 52.875 289.753,53.033 290.056,53.650 290.416 M140.998 294.421 C 140.969 295.031,140.432 295.830,139.804 296.196 C 139.176 296.562,138.993 296.870,139.398 296.881 C 140.475 296.910,141.776 295.121,141.386 294.149 C 141.169 293.610,141.031 293.707,140.998 294.421 M147.192 294.663 C 146.628 295.227,146.175 296.035,146.186 296.458 C 146.197 296.881,146.500 296.722,146.860 296.106 C 147.219 295.489,148.018 294.690,148.634 294.331 C 149.251 293.972,149.409 293.669,148.986 293.658 C 148.563 293.647,147.756 294.099,147.192 294.663 M170.188 301.954 C 168.293 304.160,168.062 304.923,169.577 303.977 C 170.886 303.159,171.900 301.536,171.409 301.045 C 171.279 300.914,170.729 301.323,170.188 301.954 " stroke="none" fill="#00ffff" fill-rule="evenodd"></path><path id="path2" d="M302.121 34.010 C 302.121 34.348,302.559 34.793,303.096 34.999 C 303.632 35.205,303.880 35.682,303.647 36.058 C 303.413 36.438,303.534 36.552,303.919 36.314 C 304.956 35.673,304.457 33.737,303.208 33.554 C 302.610 33.466,302.121 33.671,302.121 34.010 M353.341 120.722 C 351.673 122.565,352.382 122.736,354.137 120.914 C 354.931 120.088,355.344 119.413,355.053 119.413 C 354.763 119.413,353.992 120.002,353.341 120.722 M90.049 181.194 C 90.049 181.558,89.388 182.175,88.581 182.564 C 87.773 182.954,87.423 183.292,87.804 183.316 C 88.901 183.386,91.076 181.560,90.537 181.021 C 90.269 180.753,90.049 180.831,90.049 181.194 M177.390 201.840 C 177.796 202.329,177.911 202.970,177.645 203.264 C 177.379 203.558,177.529 203.587,177.977 203.329 C 178.441 203.062,178.793 203.204,178.793 203.659 C 178.793 204.099,178.947 204.305,179.134 204.117 C 179.703 203.549,178.759 201.758,177.671 201.341 C 176.870 201.033,176.809 201.140,177.390 201.840 M86.589 204.953 C 88.437 206.845,93.654 207.283,93.784 205.558 C 93.829 204.953,93.464 204.459,92.973 204.459 C 92.481 204.459,92.136 204.760,92.206 205.127 C 92.450 206.414,89.984 206.290,87.581 204.894 L 85.155 203.486 86.589 204.953 M306.222 224.926 C 305.428 225.752,305.015 226.427,305.306 226.427 C 305.942 226.427,308.316 223.890,307.935 223.617 C 307.788 223.512,307.017 224.101,306.222 224.926 M271.825 225.495 C 270.272 227.048,270.598 227.452,272.268 226.046 C 273.075 225.366,273.858 224.733,274.008 224.640 C 274.157 224.546,273.958 224.470,273.565 224.470 C 273.172 224.470,272.389 224.931,271.825 225.495 M185.971 237.054 C 185.069 237.789,184.334 239.478,184.917 239.478 C 185.055 239.478,185.649 238.744,186.237 237.847 C 187.432 236.023,187.390 235.898,185.971 237.054 M174.548 264.278 C 172.880 266.121,173.590 266.293,175.344 264.470 C 176.138 263.645,176.551 262.969,176.261 262.969 C 175.970 262.969,175.199 263.558,174.548 264.278 M167.731 275.334 C 167.210 275.664,166.612 275.828,166.403 275.698 C 166.193 275.569,166.022 276.048,166.022 276.764 C 166.022 277.902,166.116 277.936,166.770 277.042 C 167.656 275.830,168.637 275.659,167.960 276.835 C 167.702 277.284,167.742 277.422,168.049 277.143 C 168.512 276.721,169.129 274.692,168.784 274.725 C 168.726 274.730,168.252 275.004,167.731 275.334 M45.863 284.046 C 46.658 284.872,47.429 285.461,47.576 285.355 C 47.957 285.082,45.583 282.545,44.947 282.545 C 44.656 282.545,45.069 283.220,45.863 284.046 " stroke="none" fill="#0080ff" fill-rule="evenodd"></path><path id="path3" d="M217.990 0.816 C 217.950 1.822,217.188 1.958,211.582 1.960 C 205.229 1.962,200.979 3.265,200.979 5.211 C 200.979 5.575,199.437 5.877,197.553 5.883 C 193.581 5.894,192.472 6.424,192.324 8.378 C 192.230 9.630,191.835 9.788,188.804 9.788 C 185.721 9.788,185.306 9.963,184.533 11.582 C 183.809 13.101,183.176 13.427,180.419 13.703 C 177.445 14.001,177.144 14.186,176.955 15.824 C 176.765 17.476,176.522 17.618,173.902 17.618 C 170.993 17.618,169.005 18.829,169.005 20.601 C 169.005 21.181,168.326 21.537,167.210 21.542 C 164.077 21.558,162.478 22.291,162.075 23.895 C 161.785 25.052,161.235 25.449,159.921 25.449 C 158.718 25.449,157.697 26.071,156.710 27.406 C 155.574 28.943,154.764 29.364,152.942 29.364 C 150.962 29.364,150.512 29.652,149.882 31.321 C 149.244 33.010,148.812 33.279,146.729 33.279 C 143.319 33.279,142.251 33.840,142.251 35.633 C 142.251 36.925,141.921 37.194,140.336 37.194 C 137.516 37.194,135.243 38.243,134.759 39.767 C 134.457 40.720,133.778 41.109,132.419 41.109 C 131.329 41.109,130.501 41.460,130.496 41.925 C 130.474 43.706,129.150 44.645,126.174 44.989 C 123.522 45.297,123.000 45.594,122.677 46.982 C 122.351 48.383,121.849 48.659,119.127 48.940 C 116.850 49.174,115.754 49.634,115.238 50.571 C 114.271 52.326,113.491 52.833,111.740 52.845 C 110.929 52.850,109.344 53.736,108.217 54.812 C 107.090 55.889,105.478 56.770,104.634 56.770 C 103.461 56.770,103.100 57.129,103.100 58.296 C 103.100 59.649,102.676 59.889,99.347 60.416 C 96.223 60.912,95.562 61.248,95.394 62.424 C 95.229 63.583,94.607 63.916,91.927 64.285 C 89.296 64.647,88.545 65.038,88.066 66.299 C 87.665 67.354,86.958 67.863,85.893 67.863 C 85.025 67.863,83.371 68.744,82.219 69.821 C 81.066 70.897,79.694 71.778,79.170 71.778 C 77.447 71.778,75.693 73.106,75.693 74.411 C 75.693 75.483,75.238 75.695,72.920 75.703 C 69.678 75.715,68.857 76.142,68.233 78.140 C 67.885 79.256,67.277 79.611,65.698 79.617 C 62.060 79.633,60.685 80.278,60.685 81.968 C 60.685 83.198,60.339 83.524,59.033 83.524 C 56.613 83.524,52.855 85.263,52.855 86.383 C 52.855 86.955,52.119 87.437,51.060 87.559 C 49.662 87.719,49.221 88.153,49.063 89.520 C 48.907 90.876,48.462 91.321,47.106 91.478 C 45.738 91.636,45.305 92.077,45.144 93.475 C 44.971 94.978,44.627 95.269,43.024 95.269 C 41.332 95.269,41.109 95.497,41.109 97.227 C 41.109 98.967,40.892 99.184,39.152 99.184 C 37.658 99.184,37.194 99.480,37.194 100.435 C 37.194 101.196,36.429 102.024,35.237 102.552 C 33.761 103.205,33.279 103.851,33.279 105.173 C 33.279 106.602,32.946 106.966,31.485 107.134 C 30.086 107.295,29.645 107.729,29.487 109.096 C 29.331 110.452,28.886 110.897,27.530 111.053 C 26.163 111.211,25.729 111.653,25.569 113.049 C 25.426 114.289,24.894 114.959,23.845 115.223 C 22.329 115.603,21.533 117.619,21.533 121.082 C 21.533 122.241,21.119 122.636,19.739 122.795 C 18.069 122.987,17.931 123.236,17.749 126.383 C 17.566 129.535,17.423 129.792,15.628 130.187 C 13.791 130.590,13.703 130.767,13.703 134.083 C 13.703 137.355,13.590 137.595,11.746 138.238 C 9.902 138.881,9.788 139.122,9.788 142.389 C 9.788 145.342,9.573 145.953,8.341 146.501 C 6.595 147.278,6.024 149.139,5.938 154.330 C 5.883 157.655,5.600 158.546,4.078 160.185 C 2.307 162.094,2.281 162.244,2.075 172.087 C 1.890 180.881,1.737 182.061,0.770 182.101 C -0.115 182.138,-0.075 182.255,0.979 182.708 C 2.095 183.188,2.118 183.275,1.142 183.315 C -0.478 183.380,-0.641 215.334,0.979 215.334 C 1.805 215.334,1.958 216.852,1.958 225.080 C 1.958 235.534,2.393 237.793,4.518 238.349 C 5.745 238.670,5.873 239.189,5.873 243.854 C 5.873 249.171,6.444 250.571,8.613 250.571 C 9.612 250.571,9.788 251.149,9.788 254.444 C 9.788 259.304,10.636 261.664,12.382 261.664 C 13.492 261.664,13.703 262.088,13.703 264.317 C 13.703 267.611,14.661 269.494,16.336 269.494 C 17.251 269.494,17.618 269.939,17.618 271.044 C 17.618 274.550,18.407 276.565,19.930 276.947 C 20.979 277.210,21.511 277.881,21.653 279.121 C 21.813 280.505,22.250 280.959,23.575 281.112 C 25.101 281.289,25.337 281.669,25.721 284.564 C 26.073 287.218,26.449 287.930,27.758 288.427 C 28.654 288.768,29.364 289.564,29.364 290.229 C 29.364 291.731,30.591 292.985,32.061 292.985 C 32.810 292.985,33.262 293.592,33.399 294.780 C 33.560 296.178,33.993 296.619,35.360 296.777 C 36.716 296.934,37.161 297.378,37.318 298.734 C 37.474 300.091,37.919 300.535,39.275 300.692 C 40.632 300.849,41.076 301.293,41.233 302.650 C 41.391 304.017,41.832 304.450,43.230 304.611 C 44.485 304.755,45.024 305.190,45.024 306.056 C 45.024 307.358,46.810 308.646,48.613 308.646 C 49.198 308.646,50.418 309.527,51.324 310.604 C 52.459 311.953,53.561 312.561,54.870 312.561 C 56.324 312.561,56.770 312.862,56.770 313.843 C 56.770 315.519,58.653 316.476,61.947 316.476 C 64.311 316.476,64.600 316.647,64.600 318.038 C 64.600 319.890,65.660 320.392,69.568 320.392 C 71.578 320.392,72.590 320.700,72.856 321.394 C 73.610 323.358,76.757 324.307,82.512 324.307 C 87.036 324.307,88.091 324.492,88.091 325.285 C 88.091 326.127,90.194 326.264,103.100 326.264 C 116.005 326.264,118.108 326.127,118.108 325.285 C 118.108 324.493,119.150 324.307,123.573 324.307 C 131.091 324.307,133.044 323.842,133.521 321.940 C 133.868 320.559,134.276 320.392,137.305 320.392 C 140.306 320.392,140.866 320.169,142.120 318.472 C 143.240 316.957,144.125 316.510,146.321 316.351 C 148.812 316.171,149.124 315.962,149.309 314.356 C 149.504 312.664,149.703 312.561,152.792 312.561 C 155.832 312.561,156.121 312.421,156.807 310.604 C 157.291 309.320,158.002 308.643,158.871 308.637 C 161.409 308.620,162.978 307.873,163.671 306.351 C 164.157 305.284,165.016 304.756,166.498 304.612 C 168.151 304.451,168.712 304.040,169.006 302.773 C 169.335 301.353,169.787 301.116,172.504 300.941 C 175.295 300.762,175.695 300.537,176.294 298.820 C 176.891 297.106,177.257 296.900,179.705 296.900 C 182.651 296.900,184.013 296.034,184.013 294.160 C 184.013 293.294,184.519 292.985,185.940 292.985 C 188.562 292.985,191.013 291.778,191.401 290.296 C 191.627 289.430,192.314 289.070,193.740 289.070 C 195.020 289.070,195.759 288.741,195.759 288.171 C 195.759 286.737,197.613 285.583,200.546 285.191 C 202.917 284.875,203.289 284.601,203.469 283.034 C 203.662 281.358,203.880 281.240,206.764 281.240 C 210.035 281.240,211.419 280.425,211.419 278.499 C 211.419 277.588,211.940 277.325,213.746 277.325 C 216.468 277.325,218.597 276.343,218.597 275.088 C 218.597 274.168,219.962 273.409,221.615 273.409 C 222.140 273.409,223.364 272.666,224.335 271.758 C 225.306 270.849,226.835 269.944,227.732 269.746 C 230.690 269.092,230.995 268.895,230.995 267.631 C 230.995 266.643,231.631 266.285,234.015 265.927 C 237.658 265.381,238.911 264.940,238.538 264.338 C 237.957 263.396,239.252 262.521,242.088 261.940 C 244.164 261.514,245.213 260.907,245.669 259.869 C 246.059 258.979,246.885 258.401,247.767 258.401 C 248.566 258.401,250.224 257.520,251.450 256.444 C 252.676 255.367,254.281 254.486,255.015 254.486 C 256.558 254.486,258.401 252.862,258.401 251.503 C 258.401 250.921,259.135 250.540,260.359 250.489 C 261.436 250.445,262.610 250.334,262.969 250.245 C 263.328 250.155,264.062 250.045,264.600 250.000 C 265.188 249.951,265.579 249.266,265.579 248.287 C 265.579 247.005,265.911 246.656,267.129 246.656 C 270.705 246.656,272.772 245.845,273.162 244.289 C 273.456 243.117,273.999 242.741,275.391 242.741 C 276.403 242.741,277.658 242.314,278.179 241.793 C 278.700 241.272,279.282 241.000,279.471 241.190 C 279.661 241.379,280.003 240.942,280.233 240.219 C 280.515 239.329,281.327 238.838,282.740 238.701 C 284.473 238.534,284.864 238.194,285.035 236.705 C 285.228 235.029,285.446 234.910,288.330 234.910 C 291.601 234.910,292.985 234.095,292.985 232.170 C 292.985 231.281,293.502 230.993,295.106 230.986 C 298.564 230.972,300.152 230.287,300.567 228.633 C 300.852 227.498,301.421 227.072,302.681 227.052 C 303.773 227.035,304.992 226.317,306.005 225.095 C 307.027 223.863,308.219 223.165,309.301 223.165 C 311.260 223.165,312.561 222.088,312.561 220.467 C 312.561 219.719,313.168 219.267,314.356 219.130 C 315.765 218.968,316.194 218.538,316.357 217.129 C 316.517 215.734,316.908 215.334,318.109 215.334 C 320.522 215.334,323.098 214.130,323.434 212.843 C 323.602 212.200,324.602 211.348,325.655 210.950 C 326.930 210.469,327.569 209.773,327.569 208.866 C 327.569 207.990,327.988 207.504,328.744 207.504 C 330.194 207.504,331.485 206.281,331.485 204.907 C 331.485 204.339,332.365 203.543,333.442 203.136 C 334.793 202.626,335.400 201.956,335.400 200.974 C 335.400 200.138,335.898 199.421,336.608 199.236 C 337.802 198.923,339.967 195.241,339.967 193.523 C 339.967 193.036,340.678 192.459,341.547 192.241 C 342.617 191.972,343.262 191.226,343.547 189.926 C 343.831 188.633,344.425 187.942,345.370 187.805 C 346.332 187.665,346.895 186.987,347.170 185.638 C 347.389 184.559,348.354 182.827,349.314 181.791 C 350.275 180.755,351.060 179.232,351.060 178.407 C 351.060 177.413,351.666 176.618,352.855 176.050 C 354.353 175.336,354.703 174.679,354.976 172.073 C 355.238 169.566,355.623 168.794,356.933 168.147 C 358.321 167.463,358.621 166.762,358.944 163.443 C 359.153 161.298,359.373 159.799,359.434 160.113 C 359.494 160.426,359.980 160.319,360.515 159.875 C 361.049 159.432,361.345 158.839,361.171 158.559 C 360.998 158.278,361.295 157.880,361.831 157.674 C 362.551 157.398,362.808 156.229,362.816 153.202 C 362.825 149.366,363.376 147.286,364.347 147.416 C 364.576 147.446,364.753 147.314,364.740 147.122 C 364.727 146.930,365.168 146.321,365.719 145.770 C 366.522 144.967,366.721 143.001,366.721 135.867 C 366.721 127.121,366.750 126.943,368.377 125.636 C 371.546 123.092,371.376 109.445,368.158 108.002 C 366.774 107.381,366.721 107.014,366.721 97.994 L 366.721 88.631 364.763 87.892 C 362.927 87.198,362.806 86.939,362.806 83.684 C 362.806 80.060,361.427 76.998,359.794 76.998 C 359.208 76.998,358.891 76.246,358.891 74.858 C 358.891 73.078,358.560 72.592,356.933 71.978 C 353.939 70.848,354.068 67.693,357.096 67.985 C 358.688 68.138,359.267 68.539,359.417 69.591 C 359.687 71.490,361.093 71.759,370.799 71.769 C 378.631 71.778,379.119 71.853,379.119 73.060 C 379.119 75.213,381.253 75.693,390.822 75.693 L 400.000 75.693 400.000 72.104 C 400.000 69.349,399.773 68.515,399.021 68.515 C 398.312 68.515,398.042 67.786,398.042 65.862 C 398.042 62.568,397.085 60.685,395.409 60.685 C 394.384 60.685,394.127 60.237,394.127 58.444 C 394.127 55.124,393.074 52.855,391.533 52.855 C 390.265 52.855,390.212 52.457,390.202 42.904 C 390.190 30.124,390.046 29.801,384.151 29.364 C 381.731 29.184,379.756 28.817,379.762 28.548 C 379.767 28.279,379.566 28.081,379.315 28.107 C 379.063 28.134,378.632 27.546,378.357 26.802 C 377.933 25.656,377.303 25.449,374.246 25.449 C 370.821 25.449,370.636 25.364,370.636 23.801 C 370.636 22.499,370.233 22.073,368.715 21.769 C 367.247 21.475,366.746 20.979,366.594 19.665 C 366.440 18.334,365.988 17.898,364.600 17.738 C 362.908 17.543,362.806 17.344,362.806 14.256 C 362.806 11.226,362.661 10.925,360.879 10.252 C 359.544 9.748,358.892 9.014,358.758 7.862 C 358.448 5.203,352.140 5.323,351.833 7.993 C 351.696 9.182,351.244 9.788,350.495 9.788 C 348.294 9.788,347.798 11.193,347.798 17.423 C 347.798 21.259,347.544 23.491,347.107 23.491 C 346.727 23.491,346.595 23.781,346.814 24.136 C 347.051 24.519,346.758 24.607,346.093 24.351 C 345.384 24.079,345.131 24.177,345.403 24.617 C 345.639 24.999,345.394 25.480,344.858 25.686 C 344.093 25.979,343.883 27.322,343.883 31.909 C 343.883 37.026,343.731 37.807,342.677 38.141 C 341.039 38.661,339.985 41.202,339.879 44.892 C 339.830 46.580,339.662 47.300,339.507 46.493 C 339.311 45.476,338.761 45.024,337.720 45.024 C 336.570 45.024,336.123 44.563,335.824 43.067 C 335.513 41.512,335.093 41.109,333.785 41.109 C 332.472 41.109,332.137 40.785,332.137 39.514 C 332.137 38.416,331.577 37.650,330.343 37.060 C 329.354 36.588,328.457 35.564,328.345 34.781 C 328.219 33.900,327.600 33.282,326.720 33.156 C 325.937 33.044,324.912 32.146,324.440 31.158 C 323.869 29.963,323.078 29.364,322.069 29.364 C 320.908 29.364,320.463 28.906,320.163 27.406 C 319.859 25.884,319.424 25.449,318.206 25.449 C 316.987 25.449,316.552 25.014,316.248 23.491 C 315.920 21.853,315.546 21.533,313.953 21.533 C 312.504 21.533,311.959 21.171,311.668 20.011 C 311.458 19.173,310.912 18.439,310.455 18.379 C 305.713 17.753,304.731 17.400,304.731 16.322 C 304.731 14.608,303.441 13.845,300.163 13.620 C 297.615 13.445,297.183 13.200,296.897 11.766 C 296.595 10.259,296.239 10.097,292.818 9.918 C 289.758 9.759,289.070 9.513,289.070 8.581 C 289.070 6.556,287.628 5.873,283.355 5.873 C 280.755 5.873,279.356 5.629,279.608 5.220 C 279.830 4.861,279.619 4.568,279.139 4.568 C 278.660 4.568,277.764 3.980,277.150 3.263 C 276.186 2.137,275.225 1.958,270.153 1.958 C 265.362 1.958,264.274 1.776,264.274 0.979 C 264.274 -0.646,219.269 -0.483,219.204 1.142 C 219.165 2.118,219.077 2.095,218.597 0.979 C 218.118 -0.137,218.030 -0.161,217.990 0.816 M258.893 15.242 C 259.740 17.101,261.915 17.618,268.878 17.618 C 273.663 17.618,273.984 17.707,274.180 19.086 C 274.355 20.319,274.986 20.659,278.116 21.207 C 280.371 21.602,282.182 22.325,282.701 23.038 C 283.174 23.687,284.852 24.507,286.430 24.862 C 288.009 25.217,289.969 26.228,290.786 27.109 C 291.673 28.066,293.005 28.715,294.096 28.721 C 296.393 28.734,297.336 29.337,297.647 30.995 C 297.801 31.812,298.500 32.373,299.517 32.495 C 300.411 32.603,301.582 32.871,302.121 33.091 C 302.659 33.312,303.320 33.518,303.589 33.549 C 303.858 33.580,304.005 33.780,303.915 33.994 C 303.560 34.842,305.627 36.542,307.013 36.542 C 308.124 36.542,308.578 37.019,308.874 38.499 C 309.179 40.022,309.614 40.457,310.832 40.457 C 312.050 40.457,312.485 40.892,312.790 42.414 C 313.094 43.937,313.529 44.372,314.747 44.372 C 315.965 44.372,316.400 44.807,316.705 46.330 C 317.009 47.852,317.444 48.287,318.662 48.287 C 319.880 48.287,320.315 48.722,320.620 50.245 C 320.928 51.783,321.355 52.202,322.616 52.202 C 323.874 52.202,324.264 52.583,324.426 53.971 C 324.574 55.235,325.098 55.848,326.261 56.120 C 327.156 56.330,327.944 56.929,328.012 57.451 C 328.665 62.494,328.986 63.298,330.497 63.678 C 331.578 63.949,332.124 64.607,332.263 65.804 C 332.418 67.148,332.866 67.583,334.258 67.743 C 335.689 67.908,336.052 68.285,336.052 69.602 C 336.052 70.574,336.813 71.967,337.900 72.985 C 338.916 73.936,339.952 75.532,340.202 76.531 C 340.456 77.548,341.366 78.671,342.269 79.083 C 343.258 79.533,343.883 80.362,343.883 81.222 C 343.883 82.025,344.720 83.245,345.840 84.073 C 347.434 85.251,347.798 85.994,347.798 88.068 C 347.798 91.490,348.838 94.017,350.416 94.430 C 351.607 94.741,351.713 95.333,351.715 101.707 C 351.718 108.650,352.950 112.887,354.966 112.887 C 356.626 112.887,355.679 119.730,353.789 121.388 C 351.519 123.381,351.713 122.283,351.713 133.116 L 351.713 142.251 350.151 142.251 C 348.167 142.251,347.798 143.273,347.798 148.766 C 347.798 153.124,347.757 153.231,345.840 153.899 C 344.029 154.530,343.883 154.818,343.883 157.735 C 343.883 160.640,343.728 160.947,341.925 161.627 C 340.108 162.313,339.967 162.601,339.967 165.642 C 339.967 168.731,339.865 168.930,338.173 169.125 C 336.673 169.297,336.325 169.706,336.052 171.615 C 335.873 172.871,335.432 173.903,335.073 173.909 C 333.969 173.926,332.749 174.937,333.116 175.530 C 333.307 175.839,333.165 176.277,332.800 176.502 C 332.435 176.728,332.137 177.756,332.137 178.788 C 332.137 180.349,331.836 180.698,330.343 180.870 C 328.933 181.032,328.504 181.462,328.342 182.871 C 328.192 184.168,327.770 184.666,326.817 184.666 C 325.957 184.666,325.246 185.333,324.774 186.585 C 324.354 187.697,323.418 188.662,322.547 188.881 C 321.629 189.111,321.044 189.747,321.044 190.514 C 321.044 191.217,320.183 192.278,319.086 192.926 C 318.010 193.562,317.129 194.606,317.129 195.247 C 317.129 195.933,316.647 196.411,315.954 196.411 C 314.467 196.411,313.214 197.644,313.214 199.108 C 313.214 199.853,312.609 200.310,311.445 200.446 C 310.179 200.594,309.569 201.116,309.299 202.284 C 309.031 203.439,308.417 203.974,307.195 204.117 C 305.888 204.271,305.368 204.785,305.048 206.238 C 304.633 208.129,303.796 208.459,299.720 208.340 C 299.296 208.327,298.600 209.162,298.172 210.194 C 297.570 211.648,296.970 212.072,295.516 212.072 C 293.960 212.072,293.638 212.345,293.638 213.663 C 293.638 215.068,293.275 215.303,290.538 215.669 C 286.196 216.251,285.808 216.433,285.808 217.884 C 285.808 218.910,285.207 219.260,282.839 219.615 C 280.058 220.032,277.977 221.262,277.977 222.488 C 277.977 222.782,277.237 223.209,276.333 223.436 C 275.428 223.663,273.937 224.502,273.019 225.301 C 272.100 226.100,270.271 227.056,268.953 227.425 C 267.237 227.905,266.499 228.506,266.349 229.545 C 266.203 230.564,265.693 230.995,264.637 230.995 C 261.215 230.995,259.036 231.820,258.676 233.250 C 258.391 234.387,257.611 234.812,254.933 235.288 C 252.143 235.784,251.513 236.146,251.341 237.357 C 251.181 238.484,250.704 238.825,249.290 238.825 C 248.142 238.825,246.655 239.565,245.351 240.783 C 244.198 241.860,242.611 242.741,241.823 242.741 C 240.087 242.741,238.825 243.894,238.825 245.481 C 238.825 246.426,238.284 246.658,236.052 246.666 C 232.810 246.677,231.989 247.104,231.365 249.103 C 231.030 250.177,230.406 250.571,229.036 250.571 C 226.061 250.571,223.817 251.686,223.817 253.165 C 223.817 254.148,223.389 254.486,222.143 254.486 C 220.098 254.486,217.907 255.592,216.766 257.200 C 216.297 257.861,215.206 258.401,214.342 258.401 C 212.737 258.401,211.036 260.516,211.733 261.644 C 211.943 261.983,210.445 262.337,208.338 262.447 C 204.766 262.632,204.557 262.737,204.361 264.437 C 204.174 266.061,203.907 266.232,201.545 266.232 C 198.336 266.232,196.411 267.192,196.411 268.793 C 196.411 269.691,195.821 270.073,194.127 270.271 C 190.950 270.642,190.758 267.116,193.801 264.274 C 195.555 262.635,195.759 262.039,195.759 258.530 C 195.759 254.765,195.834 254.587,197.716 253.931 C 199.673 253.249,199.674 253.246,199.674 247.995 C 199.674 244.981,199.952 242.706,200.326 242.659 C 200.685 242.614,201.272 242.504,201.631 242.414 C 201.990 242.325,202.577 242.215,202.936 242.170 C 203.330 242.120,203.589 239.014,203.589 234.334 C 203.589 227.144,203.683 226.555,204.886 226.240 C 207.270 225.617,207.504 223.152,207.494 198.816 C 207.484 174.895,207.368 173.627,205.155 173.306 C 204.031 173.143,203.885 172.347,203.589 164.802 C 203.270 156.675,203.220 156.445,201.468 155.050 C 199.857 153.767,199.674 153.208,199.674 149.573 C 199.674 145.944,199.475 145.335,197.755 143.691 C 196.172 142.179,195.800 141.239,195.634 138.329 C 195.454 135.188,195.255 134.759,193.820 134.422 C 192.447 134.101,192.176 133.612,191.996 131.133 C 191.708 127.171,191.442 126.591,189.919 126.591 C 188.620 126.591,188.197 125.689,187.785 122.039 C 187.676 121.082,186.937 120.095,185.971 119.617 C 185.001 119.138,184.205 118.073,184.009 116.991 C 183.786 115.766,183.224 115.106,182.289 114.973 C 181.374 114.842,180.778 114.167,180.544 112.996 C 180.348 112.018,179.401 110.368,178.438 109.330 C 177.476 108.292,176.409 106.639,176.067 105.657 C 175.697 104.596,174.800 103.710,173.856 103.473 C 172.814 103.212,172.268 102.611,172.268 101.725 C 172.268 100.825,171.616 100.130,170.310 99.637 C 169.116 99.186,168.352 98.432,168.352 97.702 C 168.352 96.969,167.620 96.251,166.460 95.847 C 165.419 95.484,164.420 94.622,164.239 93.931 C 163.883 92.570,161.360 91.354,158.892 91.354 C 157.691 91.354,157.300 90.954,157.140 89.560 C 156.977 88.151,156.548 87.721,155.140 87.559 C 153.897 87.416,153.230 86.885,152.964 85.826 C 152.555 84.196,151.047 83.547,147.635 83.533 C 146.031 83.526,145.514 83.237,145.514 82.349 C 145.514 80.418,144.127 79.608,140.816 79.608 C 137.954 79.608,137.684 79.475,137.684 78.059 C 137.684 76.241,135.852 75.693,129.772 75.693 C 126.950 75.693,125.938 75.456,125.938 74.794 C 125.938 73.084,123.886 72.208,119.212 71.923 C 113.680 71.586,113.617 71.551,115.230 69.712 C 116.028 68.802,116.124 68.483,115.498 68.825 C 114.811 69.200,114.714 69.148,115.171 68.652 C 115.530 68.264,117.145 67.853,118.760 67.741 C 121.419 67.556,121.716 67.367,121.903 65.742 C 122.090 64.118,122.357 63.948,124.719 63.948 C 127.973 63.948,129.853 62.983,129.853 61.315 C 129.853 60.391,130.298 60.033,131.442 60.033 C 133.976 60.033,136.476 58.821,136.844 57.415 C 137.097 56.449,137.736 56.117,139.348 56.117 C 141.224 56.117,141.540 55.878,141.718 54.323 C 141.911 52.648,142.154 52.515,145.374 52.331 C 148.610 52.145,148.847 52.014,149.208 50.210 C 149.558 48.456,149.829 48.286,152.284 48.277 C 155.444 48.265,156.268 47.829,156.889 45.840 C 157.196 44.856,157.860 44.372,158.904 44.372 C 161.158 44.372,163.700 43.057,164.142 41.663 C 164.401 40.848,165.151 40.457,166.455 40.457 C 167.883 40.457,168.537 40.056,168.971 38.914 C 169.632 37.175,170.866 36.542,173.590 36.542 C 174.986 36.542,175.676 36.088,176.315 34.747 C 177.010 33.293,177.714 32.891,180.037 32.626 C 182.002 32.403,183.127 31.890,183.621 30.995 C 184.583 29.248,185.366 28.733,187.083 28.721 C 187.874 28.716,189.236 27.997,190.110 27.123 C 190.983 26.250,192.733 25.341,193.998 25.104 C 195.263 24.866,196.974 24.039,197.799 23.266 C 198.727 22.397,200.806 21.610,203.239 21.207 C 206.589 20.652,207.209 20.335,207.386 19.086 C 207.575 17.761,207.956 17.618,211.302 17.613 C 218.618 17.601,221.911 16.913,222.676 15.237 L 223.374 13.703 240.783 13.703 L 258.192 13.703 258.893 15.242 M363.458 37.767 C 363.458 39.735,364.847 40.369,369.480 40.519 C 371.873 40.597,373.800 40.835,373.761 41.048 C 373.723 41.261,373.860 41.876,374.067 42.414 C 374.273 42.953,374.605 46.256,374.805 49.755 L 375.169 56.117 369.033 56.117 C 363.166 56.117,362.887 56.053,362.688 54.649 C 362.508 53.378,361.997 53.137,358.891 52.855 L 355.302 52.529 355.192 48.787 C 355.090 45.326,355.213 44.982,356.823 44.214 C 358.335 43.492,358.590 42.932,358.762 39.962 L 358.959 36.542 361.209 36.542 C 362.974 36.542,363.458 36.805,363.458 37.767 M119.413 88.347 C 119.413 89.602,124.083 91.354,127.428 91.354 C 129.673 91.354,130.318 91.632,130.840 92.822 C 131.327 93.931,132.317 94.438,134.880 94.894 C 137.579 95.373,138.315 95.775,138.469 96.851 C 138.623 97.931,139.347 98.322,142.038 98.778 C 144.805 99.248,145.484 99.629,145.800 100.889 C 146.035 101.824,146.841 102.591,147.855 102.846 C 148.773 103.076,149.781 103.939,150.094 104.764 C 150.414 105.604,151.324 106.356,152.167 106.475 C 153.127 106.611,153.743 107.201,153.872 108.106 C 153.999 108.993,154.793 109.775,155.993 110.193 C 157.048 110.561,157.912 111.192,157.912 111.595 C 157.912 112.456,159.530 114.192,160.332 114.192 C 160.638 114.192,161.221 115.073,161.627 116.150 C 162.102 117.409,162.823 118.108,163.646 118.108 C 164.547 118.108,165.043 118.688,165.318 120.065 C 165.629 121.620,166.049 122.023,167.357 122.023 C 168.739 122.023,169.005 122.327,169.005 123.910 C 169.005 125.386,169.365 125.887,170.663 126.213 C 171.575 126.442,172.152 126.902,171.946 127.236 C 171.740 127.569,171.857 128.368,172.206 129.011 C 172.555 129.654,173.011 130.987,173.219 131.974 C 173.509 133.348,173.977 133.768,175.216 133.768 C 176.679 133.768,176.840 134.036,176.881 136.542 C 176.930 139.490,177.564 141.727,178.329 141.647 C 180.542 141.417,180.750 141.682,180.750 144.731 C 180.750 148.042,181.560 149.429,183.491 149.429 C 184.513 149.429,184.667 150.043,184.676 154.160 C 184.687 159.374,184.963 160.133,187.092 160.798 C 188.457 161.224,188.549 161.659,188.723 168.545 C 188.906 175.787,188.920 175.848,190.701 176.700 L 192.496 177.559 192.496 198.747 L 192.496 219.934 190.956 220.520 C 189.084 221.232,188.587 223.320,188.563 230.587 C 188.546 235.594,188.437 235.995,186.605 237.792 C 184.896 239.469,184.666 240.145,184.666 243.479 C 184.666 246.986,183.201 249.542,181.924 248.264 C 181.569 247.909,181.510 248.227,180.892 253.834 C 180.450 257.841,180.325 258.086,178.630 258.282 C 177.038 258.465,176.833 258.760,176.817 260.892 C 176.804 262.681,176.303 263.782,174.860 265.198 C 173.793 266.245,172.920 267.755,172.920 268.554 C 172.920 269.551,172.419 270.131,171.317 270.408 C 169.848 270.776,168.858 273.029,168.708 276.346 C 168.692 276.705,168.385 277.024,168.026 277.055 C 166.142 277.217,165.090 278.259,165.090 279.961 C 165.090 281.488,164.781 281.841,163.295 282.012 C 161.886 282.174,161.457 282.604,161.294 284.013 C 161.132 285.428,160.749 285.808,159.484 285.808 C 158.230 285.808,157.795 286.227,157.495 287.729 C 157.201 289.197,156.705 289.697,155.391 289.850 C 154.060 290.004,153.624 290.456,153.464 291.843 C 153.293 293.327,152.940 293.638,151.419 293.638 C 150.134 293.638,149.479 294.028,149.242 294.935 C 148.878 296.326,146.380 297.553,143.911 297.553 C 142.854 297.553,142.274 298.027,142.001 299.113 C 141.686 300.368,141.003 300.782,138.505 301.235 C 136.251 301.643,135.227 302.192,134.768 303.235 C 134.275 304.358,133.381 304.767,130.683 305.104 C 127.824 305.461,127.166 305.789,126.860 307.010 C 126.523 308.350,126.023 308.511,121.356 308.781 C 118.533 308.945,115.812 309.419,115.311 309.835 C 114.809 310.252,114.253 310.446,114.074 310.268 C 113.896 310.089,113.216 310.532,112.565 311.252 C 111.051 312.925,94.617 313.301,94.617 311.662 C 94.617 309.518,92.232 308.855,84.025 308.719 C 79.964 308.651,79.604 308.528,79.241 307.083 C 78.907 305.750,78.323 305.455,75.278 305.074 C 72.379 304.712,71.600 304.348,71.141 303.139 C 70.692 301.960,69.893 301.559,67.304 301.216 C 64.582 300.855,64.000 300.539,63.828 299.331 C 63.681 298.298,63.105 297.820,61.829 297.673 C 60.560 297.527,59.919 297.000,59.636 295.873 C 59.383 294.867,58.602 294.120,57.515 293.847 C 56.569 293.610,54.964 292.584,53.948 291.569 C 52.294 289.915,51.431 289.468,50.175 289.614 C 49.957 289.640,49.370 288.868,48.870 287.900 C 48.370 286.931,47.190 285.404,46.248 284.505 C 45.305 283.606,44.033 281.789,43.420 280.466 C 42.691 278.893,41.985 278.183,41.381 278.415 C 40.741 278.660,40.457 278.285,40.457 277.199 C 40.457 275.335,39.344 274.062,37.716 274.062 C 36.846 274.062,36.542 273.554,36.542 272.104 C 36.542 270.479,36.279 270.147,34.992 270.147 C 33.402 270.147,32.626 268.306,32.626 264.531 C 32.626 263.436,32.158 262.876,30.995 262.584 C 30.098 262.359,29.319 261.693,29.264 261.104 C 29.210 260.515,29.097 259.739,29.013 259.380 C 28.930 259.021,28.828 257.926,28.787 256.946 C 28.731 255.642,28.292 255.058,27.148 254.771 C 25.810 254.435,25.520 253.854,25.129 250.726 C 24.786 247.980,24.283 246.766,23.103 245.838 C 21.927 244.913,21.533 243.968,21.533 242.073 C 21.533 237.738,20.206 232.825,18.946 232.495 C 17.949 232.234,17.762 231.014,17.452 222.728 C 17.112 213.649,17.027 213.186,15.400 211.488 C 13.037 209.021,12.696 188.336,15.007 187.602 C 16.767 187.044,17.069 185.471,17.540 174.393 C 17.904 165.827,18.064 164.867,19.146 164.710 C 20.876 164.458,20.868 164.481,21.313 158.708 C 21.678 153.977,21.867 153.402,23.167 153.076 C 24.368 152.774,24.685 152.106,25.034 149.140 C 25.336 146.572,25.911 145.111,27.082 143.939 C 28.033 142.989,28.715 141.551,28.721 140.486 C 28.732 138.455,29.531 136.843,30.416 137.065 C 31.313 137.291,32.606 134.326,32.617 132.017 C 32.625 130.239,32.885 129.910,34.421 129.733 C 35.872 129.566,36.278 129.131,36.542 127.457 C 36.733 126.244,37.611 124.806,38.662 123.984 C 39.998 122.939,40.457 122.009,40.457 120.344 C 40.457 118.294,40.620 118.108,42.414 118.108 C 44.145 118.108,44.372 117.885,44.372 116.193 C 44.372 114.590,44.664 114.246,46.166 114.073 C 47.565 113.912,48.006 113.479,48.164 112.111 C 48.320 110.755,48.765 110.310,50.121 110.154 C 51.377 110.009,51.936 109.526,52.088 108.457 C 52.238 107.402,52.861 106.850,54.209 106.581 C 55.627 106.297,56.117 105.829,56.117 104.759 C 56.117 103.559,56.636 103.218,59.217 102.719 C 61.469 102.285,62.493 101.719,62.961 100.653 C 63.329 99.813,64.181 99.184,64.951 99.184 C 66.610 99.184,67.863 98.005,67.863 96.444 C 67.863 95.505,68.396 95.269,70.516 95.269 C 73.810 95.269,75.693 94.311,75.693 92.636 C 75.693 91.534,76.175 91.343,79.119 91.277 C 84.573 91.154,86.431 90.570,86.669 88.903 L 86.877 87.439 103.145 87.439 C 116.606 87.439,119.413 87.595,119.413 88.347 M123.853 103.563 C 122.760 103.730,122.216 104.148,122.415 104.666 C 122.916 105.973,121.282 106.906,118.095 107.133 C 115.451 107.321,115.152 107.513,114.965 109.135 C 114.851 110.122,114.358 110.930,113.869 110.930 C 110.320 110.930,109.299 124.436,112.724 126.071 C 114.184 126.767,114.580 127.467,114.845 129.820 C 115.256 133.467,116.540 133.889,126.440 133.627 L 133.442 133.442 133.645 131.687 C 133.801 130.331,134.246 129.886,135.602 129.730 L 137.357 129.527 137.537 119.312 C 137.744 107.518,137.548 107.015,132.743 107.015 C 131.154 107.015,129.853 106.721,129.853 106.362 C 129.853 105.386,127.363 103.085,126.427 103.197 C 125.979 103.251,124.820 103.416,123.853 103.563 M58.492 113.229 C 57.107 114.477,55.576 115.498,55.090 115.498 C 53.715 115.498,52.841 117.732,52.409 122.353 C 52.192 124.684,51.783 126.591,51.502 126.591 C 48.908 126.591,48.286 130.847,50.502 133.426 C 51.705 134.826,52.168 136.342,52.511 140.007 C 52.934 144.522,53.057 144.804,54.864 145.434 C 56.089 145.861,56.770 146.552,56.770 147.368 C 56.770 149.237,57.872 149.429,68.626 149.429 L 78.417 149.429 79.134 147.529 C 79.625 146.229,80.433 145.512,81.693 145.260 C 82.705 145.058,83.497 144.665,83.451 144.387 C 82.902 141.019,83.652 137.602,85.059 137.068 C 86.984 136.336,87.834 130.927,86.656 126.902 C 86.238 125.474,85.950 124.086,86.015 123.817 C 86.080 123.548,85.914 123.363,85.644 123.405 C 84.149 123.641,83.524 123.162,83.524 121.778 C 83.524 117.992,82.680 115.965,80.811 115.259 C 79.789 114.873,78.801 114.080,78.616 113.495 C 78.018 111.614,75.169 110.929,67.995 110.945 L 61.011 110.960 58.492 113.229 M70.190 129.596 C 72.154 130.089,72.171 129.947,69.844 132.438 L 67.910 134.509 67.487 132.825 C 67.255 131.899,66.584 130.861,65.996 130.517 C 65.028 129.952,65.037 129.891,66.085 129.873 C 66.854 129.860,67.400 129.141,67.709 127.732 C 68.172 125.626,68.176 125.624,68.388 127.405 C 68.539 128.668,69.071 129.315,70.190 129.596 M133.306 151.368 C 132.666 152.116,131.079 152.898,129.779 153.105 C 126.681 153.601,122.675 157.135,122.675 159.374 C 122.675 160.646,122.206 161.210,120.718 161.729 L 118.760 162.412 118.760 170.906 C 118.760 179.636,119.011 180.471,121.697 180.670 C 122.055 180.697,122.496 182.091,122.675 183.768 C 123.031 187.087,123.500 187.535,127.725 188.589 C 129.246 188.969,130.459 189.489,130.421 189.746 C 130.137 191.648,130.695 191.843,136.421 191.843 C 142.529 191.843,144.861 191.202,144.861 189.520 C 144.861 188.958,145.702 188.380,146.853 188.150 C 148.385 187.843,148.931 187.320,149.218 185.882 C 149.467 184.638,149.993 184.013,150.793 184.013 C 152.911 184.013,153.346 181.823,153.279 171.495 C 153.205 160.141,152.890 158.322,150.945 158.039 C 150.043 157.908,149.453 157.217,149.211 156.007 C 148.832 154.112,147.035 153.344,142.977 153.344 C 141.818 153.344,141.045 152.865,140.612 151.876 C 139.685 149.765,134.960 149.437,133.306 151.368 M82.871 165.665 C 81.974 165.911,80.961 166.737,80.620 167.503 C 80.278 168.268,79.171 169.060,78.159 169.262 C 76.751 169.544,76.225 170.099,75.920 171.625 C 75.700 172.721,75.003 173.896,74.371 174.235 C 70.762 176.166,70.550 195.759,74.138 195.759 C 75.395 195.759,75.697 196.103,75.714 197.553 C 75.725 198.540,76.157 199.905,76.672 200.586 C 77.187 201.266,77.485 202.025,77.332 202.271 C 77.180 202.517,77.410 202.771,77.843 202.834 C 78.276 202.898,80.392 203.193,82.545 203.489 C 84.698 203.786,87.341 204.515,88.418 205.110 C 90.971 206.520,91.821 206.478,92.810 204.894 C 93.442 203.884,94.364 203.579,96.894 203.543 C 100.278 203.496,102.579 202.901,102.495 202.095 C 102.311 200.327,102.685 199.448,104.497 197.384 C 108.077 193.306,108.114 175.141,104.545 173.421 C 103.601 172.966,102.658 171.860,102.449 170.962 C 102.188 169.841,101.561 169.271,100.442 169.138 C 99.527 169.030,98.540 168.326,98.184 167.528 C 97.378 165.719,95.477 165.220,89.396 165.220 C 86.705 165.220,83.768 165.420,82.871 165.665 M137.664 172.104 C 137.649 174.971,137.487 175.587,136.979 174.715 C 136.613 174.086,135.741 173.573,135.041 173.573 C 133.298 173.573,133.180 169.254,134.910 168.802 C 137.545 168.114,137.684 168.280,137.664 172.104 M91.354 184.666 L 91.354 188.581 89.396 188.581 C 86.793 188.581,86.456 184.063,88.907 182.019 C 91.123 180.170,91.354 180.419,91.354 184.666 M34.851 183.034 C 33.864 184.022,32.475 184.666,31.334 184.666 C 27.797 184.666,26.209 185.712,25.710 188.372 C 25.220 190.985,24.520 191.977,22.675 192.675 C 20.135 193.637,21.213 213.692,23.860 214.698 C 24.833 215.068,25.429 215.905,25.565 217.095 C 25.739 218.614,26.123 218.957,27.829 219.123 C 29.207 219.257,29.992 219.737,30.213 220.583 C 30.683 222.381,33.298 223.165,38.825 223.165 C 44.353 223.165,46.968 222.381,47.438 220.583 C 47.659 219.737,48.444 219.257,49.822 219.123 C 51.613 218.949,51.902 218.651,52.080 216.803 C 52.266 214.875,52.874 214.381,54.840 214.559 C 55.498 214.619,55.709 211.778,55.750 202.314 L 55.791 192.883 54.173 192.500 C 52.864 192.190,52.463 191.572,52.067 189.254 C 51.444 185.606,51.170 185.366,47.068 184.880 C 44.681 184.598,43.468 184.110,43.007 183.248 C 42.645 182.572,42.070 182.191,41.729 182.402 C 41.388 182.613,41.109 182.474,41.109 182.094 C 41.109 180.667,36.530 181.355,34.851 183.034 M149.882 198.369 C 149.355 199.764,148.711 200.326,147.638 200.326 C 146.513 200.326,146.042 200.786,145.768 202.153 C 145.567 203.158,144.777 204.259,144.012 204.600 C 140.453 206.186,140.686 235.002,144.253 234.423 C 144.873 234.323,145.479 235.049,145.869 236.360 C 146.299 237.806,147.000 238.575,148.124 238.832 C 149.128 239.062,149.832 239.734,149.955 240.580 C 150.230 242.472,151.646 242.721,162.186 242.732 C 171.618 242.741,172.920 242.415,172.920 240.043 C 172.920 239.294,173.526 238.842,174.715 238.706 C 176.124 238.543,176.553 238.114,176.715 236.705 C 176.874 235.325,177.270 234.910,178.428 234.910 C 179.995 234.910,180.750 233.025,180.750 229.111 C 180.750 227.952,181.230 227.179,182.219 226.745 C 184.922 225.559,185.070 213.094,182.393 212.076 C 181.213 211.627,180.865 210.882,180.613 208.261 C 180.308 205.085,178.808 202.536,177.787 203.457 C 177.507 203.709,177.446 203.618,177.652 203.255 C 178.179 202.323,176.717 200.525,175.193 200.231 C 174.487 200.095,173.523 199.180,173.053 198.198 L 172.196 196.411 161.409 196.411 L 150.621 196.411 149.882 198.369 M41.032 203.247 C 40.891 206.732,40.845 206.811,39.204 206.420 C 36.633 205.807,36.542 205.675,36.542 202.572 C 36.542 199.687,36.552 199.674,38.859 199.674 L 41.176 199.674 41.032 203.247 M165.210 213.214 C 165.372 214.623,165.801 215.052,167.210 215.215 C 169.504 215.478,170.103 223.165,167.830 223.165 C 166.327 223.165,165.090 224.402,165.090 225.905 C 165.090 226.906,164.510 227.080,161.175 227.080 L 157.259 227.080 157.259 219.250 L 157.259 211.419 161.131 211.419 C 164.870 211.419,165.010 211.481,165.210 213.214 M62.969 227.651 C 61.599 227.942,60.949 228.506,60.803 229.531 C 60.663 230.514,60.147 230.995,59.233 230.995 C 57.990 230.995,52.639 235.717,52.447 236.983 C 52.402 237.279,52.329 237.961,52.284 238.499 C 52.239 239.038,51.635 239.478,50.941 239.478 C 47.427 239.478,47.633 261.443,51.178 264.730 C 52.100 265.585,52.855 266.987,52.855 267.846 C 52.855 269.064,53.249 269.453,54.649 269.614 C 55.664 269.731,56.482 270.246,56.532 270.799 C 56.580 271.338,56.653 272.107,56.695 272.510 C 56.736 272.912,58.238 273.436,60.032 273.674 C 62.517 274.004,63.550 274.497,64.366 275.742 C 65.895 278.075,74.314 277.910,75.360 275.528 C 75.715 274.719,76.276 274.148,76.608 274.258 C 78.406 274.857,83.188 272.873,83.537 271.383 C 83.766 270.407,84.454 269.741,85.371 269.609 C 86.401 269.460,86.954 268.820,87.225 267.465 C 87.437 266.402,88.129 265.256,88.761 264.917 C 92.384 262.978,92.591 239.478,88.985 239.478 C 87.727 239.478,87.439 239.138,87.439 237.655 C 87.439 235.482,83.090 230.995,80.984 230.995 C 80.105 230.995,79.497 230.452,79.243 229.441 C 78.694 227.251,69.569 226.247,62.969 227.651 M72.044 244.362 C 72.295 245.362,73.072 246.139,74.072 246.390 C 76.598 247.024,76.619 258.401,74.094 258.401 C 73.215 258.401,72.261 258.799,71.974 259.285 C 71.456 260.161,67.886 261.179,67.972 260.425 C 68.113 259.196,67.770 258.401,67.099 258.401 C 64.917 258.401,63.948 256.263,63.948 251.449 C 63.948 247.268,64.098 246.656,65.122 246.656 C 66.626 246.656,67.863 245.419,67.863 243.915 C 67.863 241.933,71.532 242.325,72.044 244.362 M123.817 259.106 C 123.189 259.472,122.675 260.329,122.675 261.011 C 122.675 262.063,122.106 262.281,118.923 262.447 C 115.413 262.630,115.158 262.754,114.972 264.363 C 114.819 265.680,114.320 266.174,112.837 266.470 L 110.902 266.857 111.079 279.758 L 111.256 292.659 113.011 292.862 C 114.367 293.018,114.812 293.463,114.969 294.819 C 115.135 296.258,115.542 296.610,117.230 296.774 C 118.752 296.922,119.389 297.369,119.669 298.485 C 120.607 302.222,133.768 301.613,133.768 297.833 C 133.768 297.304,134.403 296.897,135.237 296.892 C 139.177 296.868,141.599 294.564,141.599 290.839 C 141.599 289.818,142.150 289.028,143.195 288.552 C 145.229 287.625,145.767 284.910,145.380 277.523 C 145.091 272.024,143.904 269.451,142.155 270.532 C 141.849 270.722,141.599 269.901,141.599 268.709 C 141.599 267.087,141.229 266.379,140.131 265.897 C 139.323 265.543,138.372 264.592,138.018 263.785 C 137.542 262.698,136.826 262.316,135.268 262.316 C 133.869 262.316,132.940 261.902,132.500 261.080 C 131.327 258.889,126.194 257.722,123.817 259.106 M128.265 277.325 C 130.546 277.325,130.662 281.686,128.389 282.010 C 127.365 282.156,126.800 282.806,126.509 284.176 C 126.280 285.253,126.102 283.344,126.113 279.935 C 126.124 276.525,126.256 274.543,126.405 275.530 C 126.616 276.922,127.034 277.325,128.265 277.325 " stroke="none" fill="#64bae9" fill-rule="evenodd"></path><path id="path4" d="M190.538 7.830 C 189.761 8.608,189.304 9.424,189.523 9.643 C 189.743 9.862,190.558 9.405,191.336 8.628 C 192.113 7.850,192.570 7.035,192.351 6.815 C 192.132 6.596,191.316 7.053,190.538 7.830 M296.900 11.012 C 296.900 11.640,299.084 13.703,299.748 13.703 C 300.002 13.703,299.913 13.150,299.552 12.475 C 298.861 11.184,296.900 10.102,296.900 11.012 M362.806 14.659 C 362.806 15.305,365.521 17.731,365.862 17.390 C 366.047 17.204,366.007 16.741,365.771 16.360 C 365.275 15.557,362.806 14.141,362.806 14.659 M270.799 17.898 C 270.799 18.052,271.261 18.639,271.825 19.203 C 273.330 20.708,274.470 20.455,273.083 18.923 C 272.011 17.738,270.799 17.195,270.799 17.898 M332.137 38.375 C 332.137 38.691,332.724 39.481,333.442 40.131 C 334.594 41.173,334.747 41.188,334.747 40.255 C 334.747 39.673,334.160 38.883,333.442 38.499 C 332.724 38.115,332.137 38.059,332.137 38.375 M128.628 42.480 C 127.198 43.812,127.109 44.935,128.501 44.075 C 129.192 43.647,130.754 41.109,130.325 41.109 C 130.201 41.109,129.437 41.726,128.628 42.480 M363.948 54.939 C 364.735 55.727,365.549 56.202,365.755 55.996 C 366.243 55.508,364.243 53.507,363.267 53.507 C 362.854 53.507,363.160 54.152,363.948 54.939 M100.816 58.728 C 100.166 59.445,99.928 60.033,100.287 60.033 C 100.646 60.033,101.471 59.445,102.121 58.728 C 102.770 58.010,103.008 57.423,102.649 57.423 C 102.290 57.423,101.465 58.010,100.816 58.728 M333.213 68.860 C 333.650 69.998,336.052 71.468,336.052 70.597 C 336.052 69.959,333.903 67.863,333.248 67.863 C 333.018 67.863,333.003 68.312,333.213 68.860 M39.081 97.154 C 38.223 97.850,37.716 98.616,37.955 98.856 C 38.195 99.097,39.027 98.657,39.804 97.879 C 41.637 96.046,41.105 95.513,39.081 97.154 M137.684 116.026 C 137.684 116.376,138.124 116.832,138.662 117.039 C 139.988 117.547,139.899 119.203,138.505 119.984 C 137.880 120.334,137.611 120.862,137.908 121.158 C 139.057 122.304,141.064 118.698,140.092 117.234 C 139.106 115.749,137.684 115.036,137.684 116.026 M203.589 170.185 C 203.589 170.684,205.258 172.261,206.784 173.205 C 207.325 173.539,207.240 173.124,206.554 172.076 C 205.484 170.444,203.589 169.235,203.589 170.185 M189.233 178.071 C 189.233 178.897,191.807 180.352,192.334 179.824 C 192.543 179.616,192.392 179.445,191.999 179.445 C 191.606 179.445,190.823 178.984,190.259 178.420 C 189.695 177.856,189.233 177.699,189.233 178.071 M340.750 193.279 C 339.519 194.511,339.835 195.223,341.272 194.454 C 341.990 194.069,342.577 193.472,342.577 193.125 C 342.577 192.261,341.694 192.336,340.750 193.279 M182.335 209.835 C 182.899 210.399,183.361 211.182,183.361 211.575 C 183.361 211.968,183.531 212.119,183.740 211.910 C 184.267 211.382,182.812 208.809,181.986 208.809 C 181.614 208.809,181.771 209.271,182.335 209.835 M317.497 216.593 C 316.820 217.341,316.409 218.095,316.582 218.268 C 317.148 218.834,319.274 216.875,318.996 216.043 C 318.814 215.495,318.331 215.672,317.497 216.593 M181.733 228.381 C 181.081 229.101,180.851 229.690,181.222 229.690 C 182.043 229.690,183.670 227.825,183.232 227.386 C 183.059 227.213,182.384 227.661,181.733 228.381 M286.297 236.146 C 285.669 236.783,285.155 237.510,285.155 237.761 C 285.155 238.548,287.591 236.956,287.994 235.907 C 288.498 234.594,287.720 234.703,286.297 236.146 M7.178 251.042 C 7.178 251.864,9.043 253.491,9.481 253.053 C 9.654 252.880,9.207 252.205,8.487 251.553 C 7.767 250.902,7.178 250.672,7.178 251.042 M73.464 256.863 C 72.847 258.470,73.380 258.571,74.711 257.100 C 75.712 255.994,75.739 255.791,74.885 255.791 C 74.330 255.791,73.690 256.274,73.464 256.863 M67.767 258.567 C 68.096 258.895,69.060 259.055,69.908 258.922 C 71.215 258.716,71.123 258.624,69.311 258.324 C 68.014 258.109,67.405 258.205,67.767 258.567 M120.647 260.286 C 119.789 260.982,119.282 261.748,119.521 261.988 C 119.761 262.229,120.593 261.789,121.370 261.011 C 123.203 259.179,122.671 258.645,120.647 260.286 M209.592 260.489 C 209.162 260.920,208.809 261.507,208.809 261.794 C 208.809 262.756,209.792 262.330,210.615 261.011 C 211.508 259.583,210.840 259.242,209.592 260.489 M61.455 274.740 C 61.609 275.203,62.453 276.047,63.331 276.616 L 64.927 277.651 63.892 276.055 C 62.769 274.324,60.998 273.368,61.455 274.740 M68.688 277.793 C 69.679 277.943,71.148 277.939,71.950 277.784 C 72.753 277.629,71.941 277.506,70.147 277.511 C 68.352 277.516,67.696 277.643,68.688 277.793 M171.615 301.313 C 171.615 301.706,171.154 302.489,170.590 303.053 C 170.026 303.617,169.868 304.078,170.240 304.078 C 171.067 304.078,172.522 301.505,171.994 300.977 C 171.786 300.769,171.615 300.920,171.615 301.313 " stroke="none" fill="#0000ff" fill-rule="evenodd"></path></g></svg>