<?xml version="1.0" encoding="UTF-8"?>
<!DOCTYPE svg PUBLIC "-//W3C//DTD SVG 1.1//EN" "http://www.w3.org/Graphics/SVG/1.1/DTD/svg11.dtd">
<!-- Creator: CorelDRAW X7 -->
<svg xmlns="http://www.w3.org/2000/svg" xml:space="preserve" width="21.1011mm" height="17.3075mm" version="1.1" style="shape-rendering:geometricPrecision; text-rendering:geometricPrecision; image-rendering:optimizeQuality; fill-rule:evenodd; clip-rule:evenodd"
viewBox="0 0 144283 118343"
 xmlns:xlink="http://www.w3.org/1999/xlink">
 <defs>
  <style type="text/css">
   <![CDATA[
    .str0 {stroke:#D6D5D5;stroke-width:4823.99}
    .fil0 {fill:none}
   ]]>
  </style>
 </defs>
 <g id="Слой_x0020_1">
  <metadata id="CorelCorpID_0Corel-Layer"/>
  <g id="_374750808">
   <path class="fil0 str0" d="M83343 44811c-7457,-12697 3180,-22941 5440,-25911 2088,-2195 17209,-17418 37118,-7733 13920,6772 19591,20593 13619,32108 -964,1857 -3658,3518 -6879,4453 -846,-1611 -2258,-3213 -4398,-5142 -2729,-2458 -6793,-1273 -10636,1116 -556,-1073 -923,-2350 -1045,-3855 -887,-11059 -10550,-10779 -15984,-803 -5069,9303 -14555,10330 -17235,5767z"/>
   <path class="fil0 str0" d="M90879 50324c-9497,-11856 -23621,8108 -17916,24817 6143,-2913 13689,-6313 21025,-11061 -807,-6047 -1778,-12095 -3109,-13756zm-9323 47841l171 322c8327,15365 22079,18874 35563,16973 10553,-1487 18088,-14936 5366,-21278 -9699,-4834 -15073,-1010 -19910,-4823 -5768,3346 -13856,6957 -21190,8806z"/>
   <path class="fil0 str0" d="M55915 84866c-6786,-8410 -32097,5727 -28870,-17445 1408,-10112 -291,-17521 -8982,-17760 -9953,-276 -14410,11426 -13642,19341 4255,43883 46839,33940 51303,28866 4656,-3257 2952,-9580 191,-13002z"/>
   <path class="fil0 str0" d="M67757 98556c-7073,-2913 -13264,-8896 -6594,-16313 6425,-7145 32206,-12430 48232,-31420 4162,-4932 14124,-13337 19292,-8682 6571,5918 6276,8769 3827,18182 -2921,11228 -16124,19063 -24660,25681 -7843,6081 -30600,16463 -40097,12552z"/>
   <path class="fil0 str0" d="M19806 9348c13753,0 24015,8084 32413,15417 8808,7693 13737,23803 12533,36292 -1795,18610 -19396,15081 -21466,13829 -2029,-1226 -7083,-6249 -3810,-13642 3039,-6864 3435,-17057 -4584,-20732 -5042,-2312 -20541,-12119 -22864,-17854 -2213,-5461 -731,-12450 7778,-13310z"/>
   <polyline class="fil0 str0" points="12527,10218 7694,4672 3448,16363 11588,16323 "/>
   <polyline class="fil0 str0" points="130226,105897 136931,108926 135920,96529 128536,99956 "/>
   <polyline class="fil0 str0" points="21217,49110 25461,43101 13096,41746 15063,49644 "/>
  </g>
 </g>
</svg>
