<?xml version="1.0" encoding="UTF-8"?>
<!DOCTYPE svg PUBLIC "-//W3C//DTD SVG 1.1//EN" "http://www.w3.org/Graphics/SVG/1.1/DTD/svg11.dtd">
<!-- Creator: CorelDRAW X7 -->
<svg xmlns="http://www.w3.org/2000/svg" xml:space="preserve" width="20.32mm" height="10.032mm" version="1.1" style="shape-rendering:geometricPrecision; text-rendering:geometricPrecision; image-rendering:optimizeQuality; fill-rule:evenodd; clip-rule:evenodd"
viewBox="0 0 42 21"
 xmlns:xlink="http://www.w3.org/1999/xlink">
 <defs>
  <style type="text/css">
   <![CDATA[
    .str1 {stroke:#C5C6C6;stroke-width:0.734915}
    .str0 {stroke:#64BAE9;stroke-width:0.734915;stroke-dasharray:1.469829 0.734915}
    .fil0 {fill:none}
   ]]>
  </style>
 </defs>
 <g id="Слой_x0020_1">
  <metadata id="CorelCorpID_0Corel-Layer"/>
  <g id="_400133216">
   <path class="fil0 str0" d="M26 17c-4,-4 -11,-7 -23,-6"/>
   <line class="fil0 str0" x1="36" y1="12" x2="32" y2= "16" />
   <path class="fil0 str0" d="M27 17c0,-5 2,-9 4,-12"/>
   <path class="fil0 str0" d="M14 19c2,-5 -2,-12 1,-16"/>
   <path class="fil0 str0" d="M8 11c-1,-4 -1,-7 1,-9"/>
   <polyline class="fil0 str0" points="14,17 4,14 4,14 "/>
   <line class="fil0 str0" x1="6" y1="18" x2="7" y2= "15" />
   <path class="fil0 str0" d="M21 13c0,-3 2,-5 2,-7"/>
   <path class="fil0 str0" d="M33 16c-1,-3 -2,-5 -5,-5"/>
   <path class="fil0 str1" d="M41 20c-1,0 -1,-1 -1,-2 -1,0 -2,0 -3,0 -2,0 -3,-2 -6,-2 -1,1 -3,1 -4,1 -2,0 -3,0 -4,0 -4,1 -8,3 -11,2 -3,0 -4,-1 -6,-1 0,0 -2,0 -3,1 -1,1 -1,1 -2,2 -1,0 -1,-2 -1,-2 2,-2 2,-4 4,-5 -1,-1 0,-2 -1,-3 0,-2 -1,-2 -1,-4 0,-4 1,-4 2,-7 1,0 2,2 2,2 1,1 1,0 2,0 5,0 11,2 15,4 2,1 4,-3 7,-3 0,1 0,1 0,2 1,0 2,0 2,0 2,2 3,6 5,7 1,2 2,1 3,2 0,2 1,3 2,3l-1 3z"/>
  </g>
 </g>
</svg>
