<?xml version="1.0" encoding="UTF-8"?>
<!DOCTYPE svg PUBLIC "-//W3C//DTD SVG 1.1//EN" "http://www.w3.org/Graphics/SVG/1.1/DTD/svg11.dtd">
<!-- Creator: CorelDRAW X7 -->
<svg xmlns="http://www.w3.org/2000/svg" xml:space="preserve" width="19.2266mm" height="13.9299mm" version="1.1" style="shape-rendering:geometricPrecision; text-rendering:geometricPrecision; image-rendering:optimizeQuality; fill-rule:evenodd; clip-rule:evenodd"
viewBox="0 0 38 28"
 xmlns:xlink="http://www.w3.org/1999/xlink">
 <defs>
  <style type="text/css">
   <![CDATA[
    .str0 {stroke:#C5C6C6;stroke-width:0.697607}
    .str1 {stroke:#64BAE9;stroke-width:0.697607;stroke-linecap:round;stroke-linejoin:round}
    .fil0 {fill:none}
    .fil1 {fill:#64BAE9;fill-rule:nonzero}
   ]]>
  </style>
 </defs>
 <g id="Слой_x0020_1">
  <metadata id="CorelCorpID_0Corel-Layer"/>
  <path class="fil0 str0" d="M0 0l23 0 0 23 -9 0c-1,-2 -2,-4 -4,-4 -2,0 -4,2 -4,4l-6 0 0 -23z"/>
  <path class="fil0 str0" d="M23 4l7 0 5 9 3 1 0 9 -4 0c0,-2 -2,-4 -4,-4 -2,0 -3,2 -4,4l-3 0 0 -19z"/>
  <circle class="fil0 str0" cx="10" cy="23" r="4"/>
  <circle class="fil0 str0" cx="30" cy="23" r="4"/>
  <g id="_413016080">
   <path class="fil1" d="M15 12c0,0 0,1 0,1 0,0 0,0 0,0 0,0 0,0 0,0 0,0 0,0 1,0 0,0 0,0 0,0 0,0 0,-1 0,-1 -1,0 -1,0 -1,0 0,0 0,0 0,0zm0 0l0 0c1,0 1,1 1,1 0,0 0,0 -1,0 0,0 0,0 0,0 0,0 0,0 0,0 0,0 0,0 0,0 0,0 0,-1 0,-1 0,0 0,0 0,0 0,0 0,0 0,0z"/>
   <path class="fil1" d="M15 13l0 0c0,0 0,0 0,0 0,0 0,0 0,0l0 0c0,0 0,0 0,0 0,0 0,0 0,0l0 0c0,0 0,0 0,0 0,0 0,-1 0,-1 0,0 0,0 0,0 0,0 0,0 0,0l0 1 0 0 0 0zm0 -1l0 0c0,0 0,0 0,0 0,0 0,1 0,1 0,0 0,0 0,0l0 0 0 -1z"/>
   <path class="fil1" d="M9 9c0,0 0,0 0,1 -1,0 -1,0 -1,0 0,0 0,0 0,0 0,0 0,1 0,1 0,0 0,0 0,0 0,0 0,0 0,-1 0,0 0,0 0,0 0,0 0,0 0,-1l0 0c0,0 0,0 -1,0 0,0 0,1 0,1 0,0 0,0 0,0 0,0 0,0 0,1 0,0 0,0 0,0 0,0 0,0 0,0 0,0 0,0 0,0 0,0 0,0 0,-1 0,0 0,0 0,0 0,0 0,0 0,0 0,0 0,0 0,0 -1,0 -1,0 -1,1 0,0 0,0 0,0 0,0 1,0 1,0 0,0 0,0 0,0 0,0 0,0 0,0 0,0 0,-1 0,-1 0,0 0,0 0,0 0,0 0,1 0,1 0,0 0,0 0,0 0,0 1,0 1,0 0,0 0,0 0,0 0,0 0,0 0,0 0,0 0,0 1,0 0,0 0,0 0,0l0 0 1 0 0 -1 0 0c0,0 0,1 0,1 0,0 0,0 0,0 0,0 1,0 1,0 0,0 0,0 0,0 0,0 0,0 0,0 0,0 0,0 0,0 1,0 1,0 1,0 0,0 0,0 0,0 0,0 1,0 1,0 0,0 0,0 0,0 0,0 0,0 0,0 0,0 1,0 1,0 0,0 0,0 0,0 0,0 0,0 0,0 0,0 0,0 0,0 0,0 0,0 0,0 0,0 0,0 0,0 0,0 0,0 0,0 0,0 0,0 0,0l0 0c-1,0 -1,0 -1,0 0,0 0,0 0,0 0,0 0,0 0,1l0 0c0,0 0,0 0,0 0,0 0,0 0,0l1 0c0,0 0,0 0,0 0,0 0,-1 0,-1 0,0 0,0 0,0l0 0c0,0 0,0 0,0 0,-1 0,-1 0,-1l1 -1 -1 0 0 1c0,1 0,1 -1,1 0,0 0,0 0,-1 0,0 0,0 0,0l1 -1 -1 0 0 1c0,0 0,0 0,0 0,1 0,1 0,1 0,0 -1,0 -1,0 0,-1 1,-1 1,-1l0 -1 0 0 -1 1c0,1 0,1 0,1 0,0 0,0 0,-1 0,0 0,0 0,0l0 -1 0 0 -1 1c0,0 0,0 0,0 0,0 0,0 0,1 0,0 0,0 0,0 0,0 0,0 0,-1 0,0 0,0 0,0l0 0 0 -1 0 0 0 1 -1 0 0 -1 0 0 0 1c-1,0 -1,1 -1,1 0,0 0,0 0,0 0,0 0,0 0,-1 0,0 0,0 0,0 0,0 0,0 0,0 0,-1 0,-1 0,-1 0,0 0,0 0,1 0,0 0,0 0,0 0,0 0,0 0,0 0,0 1,0 1,0 0,0 0,0 0,0 0,-1 0,-1 -1,-1 0,0 0,0 0,0zm-1 1l0 0c0,0 0,0 0,0l-1 0c0,0 0,0 0,0 0,0 0,0 0,0 0,0 0,0 0,0 0,-1 1,-1 1,-1l0 0 0 1z"/>
   <path class="fil1" d="M15 11l0 -1 0 0c0,0 0,0 0,0 1,0 1,0 1,0 0,0 0,0 0,0 -1,0 -1,1 -1,1 0,0 0,0 1,0 0,0 0,0 0,0 0,0 0,0 0,0 0,0 0,0 0,0 0,0 0,0 1,0 0,0 0,0 0,0 0,0 0,0 0,0 1,0 1,0 1,0 0,0 0,0 0,0 0,0 0,0 0,0 0,0 1,0 1,0 0,0 0,0 0,0 0,0 0,0 0,0 0,0 0,0 0,0 0,0 0,0 1,0 -1,0 -1,0 -1,0 0,0 0,0 0,0 0,-1 0,-1 0,-1l1 -1 -1 0 0 1c0,1 0,1 0,1 -1,0 -1,0 -1,-1 0,0 0,0 1,0l0 -1 -1 0 0 1c0,0 0,0 0,0 0,1 0,1 0,1 0,0 0,0 0,0 0,-1 0,-1 0,-1l0 -1 0 0 -1 1c0,1 0,1 0,1 0,0 0,0 0,-1 0,0 0,0 0,0l0 -1 0 0 -1 1c0,0 0,0 0,0 0,0 0,1 0,1 0,0 0,0 0,0 0,0 0,0 0,-1 0,0 0,0 0,0l0 0c0,0 0,0 0,0 0,0 0,0 0,0 0,0 0,0 0,0 0,0 0,0 0,0 0,0 0,0 0,0l0 0c0,0 0,0 0,-1l0 1c0,0 0,0 0,0 0,0 0,0 0,0 0,0 0,0 0,0 0,0 0,0 1,-1 0,0 0,0 -1,0 0,0 0,0 0,0 0,0 0,0 0,0 0,0 0,0 0,1l0 0 -1 0 1 -1 -1 0 -1 2 1 0z"/>
   <path class="fil1" d="M19 9c0,0 0,0 0,0 0,0 0,0 0,0 0,0 0,0 0,0 0,0 0,0 0,0 0,0 0,0 0,0 0,0 0,0 0,0 1,0 1,0 1,0l0 0c0,0 -1,0 -1,0 0,0 0,0 0,0 0,0 0,0 0,0z"/>
   <path class="fil1" d="M10 12l-1 2 1 0 0 -1 0 0c1,0 1,0 1,0 0,0 0,-1 0,-1 0,0 0,0 0,0 1,0 0,0 0,0 0,-1 0,-1 0,-1 0,0 -1,0 -1,1 0,0 0,0 0,0 0,0 0,0 -1,0 0,0 0,0 0,0 1,1 1,1 1,1 0,0 0,0 0,0 0,-1 0,-1 0,-1 0,0 0,0 0,0 0,0 1,0 1,0 0,0 0,0 0,0 0,0 0,0 0,0 0,0 0,0 0,1 0,0 0,0 -1,0l1 -1 -1 0z"/>
   <path class="fil1" d="M6 8l-1 2 1 -2c0,0 0,0 0,0 -1,0 -1,0 -1,1 0,0 0,0 0,0 0,0 -1,0 -1,0 0,1 0,1 1,1 0,0 0,0 0,0 0,0 0,-1 0,-1 0,0 0,0 0,0 0,0 0,0 0,0l-1 1 0 0 -1 2c0,0 0,0 0,0 0,0 0,0 0,0 0,0 0,0 0,0 0,0 0,0 0,0 0,0 0,0 0,0 0,0 0,0 0,0 0,0 0,0 0,0 0,0 0,0 0,0 1,0 1,0 1,-1l0 0 1 -2 0 2 0 0 0 0 0 0 1 -2 0 2 -1 1c0,0 0,0 1,0 0,0 0,0 0,0 0,0 0,0 0,0 0,0 0,0 0,0 0,0 0,-1 0,-1l0 0 0 0c0,0 0,0 0,0l0 0 1 -3 -1 0z"/>
   <path class="fil1" d="M21 8c0,0 0,-1 -1,-1 -1,0 -3,0 -4,-1l0 1c1,0 3,0 4,0 1,0 1,1 1,1 0,1 0,2 -1,3 0,1 0,2 -1,3 -1,0 -1,1 -2,1 -1,-1 -3,-1 -3,-1l0 -2 0 0 0 0 0 0c0,0 0,0 0,0 0,0 0,0 0,0 -1,0 -1,0 -1,0 0,1 0,1 0,1 0,0 0,0 0,0 0,0 0,0 0,0 0,0 0,0 0,0 0,0 0,0 -1,0 0,1 0,1 0,1 0,0 0,0 0,-1 0,0 0,0 0,0 0,0 0,0 1,-1l-1 0c0,0 0,0 0,0 -1,0 -1,1 -1,1 0,0 0,0 0,0 0,0 0,0 0,1 0,0 0,0 0,0 0,0 0,0 0,0 0,0 0,0 0,0 0,0 0,-1 0,-1 0,0 0,0 0,0 0,0 0,0 0,0 0,0 0,0 0,0 0,0 0,0 0,1 0,0 0,0 0,0 0,0 0,0 0,0 0,0 0,0 0,0 0,0 0,0 0,0 0,0 1,-1 1,-1 0,0 0,0 0,0 0,0 0,0 0,1 0,0 0,0 0,0 0,0 0,0 0,0 0,0 0,0 1,0 0,0 0,0 0,0 0,0 0,0 0,0l0 0c0,0 0,0 0,0 0,0 0,0 0,0 0,0 0,0 0,0 0,0 0,1 0,1 0,0 0,0 0,0 0,0 0,0 0,0 0,0 1,-1 1,-1l0 0c0,0 1,0 1,0 1,1 1,1 1,1 -1,1 -3,1 -4,1 0,-1 -2,-1 -3,-1 -1,-1 -2,-1 -3,-1 -2,0 -3,0 -3,0 -1,0 -1,0 -1,0 0,-1 0,-1 0,-2 0,0 0,-1 0,-1 1,-1 1,-2 2,-3 0,-1 1,-1 2,-1 1,0 3,0 3,0l1 -1c0,0 -3,0 -4,1 -1,0 -2,0 -3,1 0,1 -1,2 -1,3 0,0 0,1 0,1 0,1 0,1 0,2 0,0 0,0 0,0 1,0 2,0 3,0 2,0 3,0 4,1 1,0 3,1 3,1 1,0 3,0 5,-1 1,0 1,-1 2,-1 1,-1 1,-2 2,-3 0,-1 0,-2 0,-3zm-9 5l0 0c0,0 0,0 0,0l0 0c0,0 0,0 0,0 0,0 0,0 0,0 0,0 0,0 0,-1 0,0 0,0 0,0l0 0 0 1zm1 1l0 0c0,0 0,0 0,0 0,0 0,0 0,0 0,0 0,0 0,0 0,0 0,0 0,0 0,0 0,0 0,0 0,0 0,0 0,0l0 0zm1 -1l0 0c-1,0 -1,0 -1,1 0,0 0,0 0,0 0,0 0,-1 0,-1 0,0 0,0 0,0 0,0 0,0 1,-1 0,0 0,0 0,0 0,0 0,0 0,0 0,0 0,0 0,1l0 0z"/>
   <path class="fil1" d="M18 5c0,0 -1,0 -1,0 -1,0 -1,-1 -2,-1 -2,0 -3,1 -3,1 0,0 0,0 0,0 0,0 -1,0 -2,1 -1,1 -1,2 -1,2 0,0 0,0 0,0 0,1 0,1 0,1 0,0 0,0 0,0 0,0 0,0 0,0 0,0 0,-1 1,-1 0,0 1,0 1,0 0,0 1,1 2,0 1,0 2,-1 2,-1 0,0 1,0 1,0 1,-1 2,-2 2,-2 0,0 0,0 0,0zm-1 0l0 0c0,0 0,1 -1,2 -1,0 -1,0 -1,0 0,0 -1,1 -2,1 -1,0 -1,0 -2,0 0,0 -1,0 -1,0 0,0 -1,0 -1,0 3,-2 7,-2 7,-2 0,0 1,-1 0,0 -2,0 -3,0 -5,1 -1,1 -2,1 -2,1 0,0 0,0 0,0 0,0 0,0 0,0 0,0 0,-1 1,-2 1,-1 2,-1 2,-1 0,0 0,0 1,0 0,0 0,0 1,0 2,0 2,0 3,0 0,0 0,0 0,0 0,0 0,0 0,0 0,0 0,0 0,0z"/>
  </g>
  <polyline class="fil0 str1" points="32,13 25,13 25,7 29,7 "/>
  <path class="fil0 str1" d="M32 23c0,1 -1,2 -2,2 -1,0 -2,-1 -2,-2 0,-1 1,-2 2,-2"/>
  <path class="fil0 str1" d="M12 23c0,1 -1,2 -2,2 -1,0 -2,-1 -2,-2 0,-1 1,-2 2,-2"/>
 </g>
</svg>
