<?xml version="1.0" encoding="UTF-8"?>
<!DOCTYPE svg PUBLIC "-//W3C//DTD SVG 1.1//EN" "http://www.w3.org/Graphics/SVG/1.1/DTD/svg11.dtd">
<!-- Creator: CorelDRAW X7 -->
<svg xmlns="http://www.w3.org/2000/svg" xml:space="preserve" width="16.8715mm" height="13.7342mm" version="1.1" style="shape-rendering:geometricPrecision; text-rendering:geometricPrecision; image-rendering:optimizeQuality; fill-rule:evenodd; clip-rule:evenodd"
viewBox="0 0 29 24"
 xmlns:xlink="http://www.w3.org/1999/xlink">
 <defs>
  <style type="text/css">
   <![CDATA[
    .str0 {stroke:#C5C6C6;stroke-width:0.611826}
    .str1 {stroke:#64BAE9;stroke-width:0.611826}
    .fil0 {fill:none}
   ]]>
  </style>
 </defs>
 <g id="Слой_x0020_1">
  <metadata id="CorelCorpID_0Corel-Layer"/>
  <g id="_400140704">
   <path class="fil0 str0" d="M17 9c-2,-3 1,-5 1,-5 0,-1 4,-4 8,-2 3,1 4,4 2,7 0,0 0,0 -1,0 0,0 0,0 -1,-1 0,0 -1,0 -2,1 0,-1 0,-1 0,-1 0,-2 -2,-2 -4,0 -1,2 -3,2 -3,1z"/>
   <path class="fil0 str1" d="M18 10c-2,-2 -4,2 -3,5 1,0 3,-1 4,-2 0,-1 0,-3 -1,-3zm-1 10l0 0c1,3 4,4 7,3 2,0 4,-3 1,-4 -2,-1 -3,0 -4,-1 -1,1 -3,1 -4,2z"/>
   <path class="fil0 str0" d="M11 17c-1,-2 -6,1 -6,-3 1,-3 0,-4 -2,-4 -2,0 -3,2 -2,4 1,9 9,7 10,6 1,-1 1,-2 0,-3z"/>
   <path class="fil0 str0" d="M14 20c-2,-1 -3,-2 -2,-3 2,-2 7,-3 10,-7 1,-1 3,-3 4,-2 2,2 2,2 1,4 -1,2 -3,4 -5,5 -2,2 -6,4 -8,3z"/>
   <path class="fil0 str1" d="M4 2c3,0 5,1 6,3 2,1 3,5 3,7 0,4 -4,3 -4,3 -1,0 -2,-1 -1,-3 0,-1 1,-3 -1,-4 -1,0 -4,-3 -5,-4 0,-1 0,-2 2,-2z"/>
   <polyline class="fil0 str1" points="2,2 1,1 0,3 2,3 "/>
   <polyline class="fil0 str1" points="27,21 28,22 28,20 26,20 "/>
   <polyline class="fil0 str0" points="4,10 5,9 2,8 3,10 "/>
  </g>
 </g>
</svg>
