<svg width="26" height="26" viewBox="0 0 26 26" fill="none" xmlns="http://www.w3.org/2000/svg">
<path d="M17.0566 2.19104C15.4538 2.19104 13.8511 2.79934 12.6344 4.01599L2.50885 14.1416C2.40488 14.2414 2.32188 14.361 2.26469 14.4933C2.20751 14.6256 2.1773 14.7679 2.17584 14.9121C2.17437 15.0562 2.20168 15.1992 2.25616 15.3326C2.31064 15.4661 2.3912 15.5873 2.49311 15.6892C2.59503 15.7911 2.71626 15.8717 2.8497 15.9262C2.98314 15.9806 3.12611 16.0079 3.27024 16.0065C3.41437 16.005 3.55675 15.9748 3.68906 15.9176C3.82136 15.8604 3.94093 15.7774 4.04075 15.6735L14.1663 5.54789C15.7717 3.94253 18.3416 3.94253 19.9469 5.54789C21.5523 7.15325 21.5523 9.72313 19.9469 11.3285L10.1885 21.087C9.40597 21.8694 8.16951 21.8694 7.38703 21.087C6.60454 20.3045 6.60454 19.068 7.38703 18.2855L15.1566 10.516C15.2605 10.4162 15.3435 10.2966 15.4007 10.1643C15.4579 10.032 15.4881 9.8896 15.4896 9.74548C15.491 9.60135 15.4637 9.45838 15.4093 9.32494C15.3548 9.19149 15.2742 9.07026 15.1723 8.96834C15.0704 8.86643 14.9492 8.78587 14.8157 8.73139C14.6823 8.67691 14.5393 8.6496 14.3952 8.65107C14.251 8.65253 14.1087 8.68274 13.9764 8.73993C13.844 8.79711 13.7245 8.88012 13.6247 8.98409L5.85512 16.7536C4.24453 18.3642 4.24453 21.0083 5.85512 22.6189C7.46572 24.2294 10.1098 24.2295 11.7204 22.6189L21.4788 12.8604C23.9121 10.4271 23.9121 6.4493 21.4788 4.01599C20.2622 2.79934 18.6594 2.19104 17.0566 2.19104Z" fill="#04A3E9"/>
</svg>
