<svg width="40" height="40" viewBox="0 0 40 40" fill="none" xmlns="http://www.w3.org/2000/svg">
<path d="M28.7501 3.33331C28.4494 3.33343 28.1588 3.44193 27.9316 3.63894C27.7044 3.83594 27.5558 4.10824 27.5131 4.4059L25.9994 15H23.3334V11.25C23.3335 11.0288 23.2748 10.8115 23.1635 10.6203C23.0521 10.4292 22.8921 10.271 22.6996 10.162C22.5071 10.0529 22.2892 9.99686 22.068 9.99957C21.8468 10.0023 21.6302 10.0636 21.4405 10.1774L15.0001 14.0413V11.25C15.0001 11.0288 14.9415 10.8115 14.8302 10.6203C14.7188 10.4292 14.5587 10.271 14.3663 10.162C14.1738 10.0529 13.9558 9.99686 13.7346 9.99957C13.5134 10.0023 13.2969 10.0636 13.1072 10.1774L6.39168 14.2073C5.01261 15.0348 4.16675 16.53 4.16675 18.138V33.75C4.16678 34.0815 4.29849 34.3994 4.5329 34.6338C4.76731 34.8682 5.08524 34.9999 5.41675 35H34.5834C34.9149 34.9999 35.2328 34.8682 35.4673 34.6338C35.7017 34.3994 35.8334 34.0815 35.8334 33.75V4.58331C35.8334 4.2518 35.7017 3.93388 35.4673 3.69947C35.2328 3.46505 34.9149 3.33335 34.5834 3.33331H28.7501ZM29.8341 5.83331H33.3334V32.5H6.66675V18.138C6.66675 17.4043 7.04823 16.7284 7.67749 16.3509L12.5001 13.4586V16.25C12.5 16.4712 12.5587 16.6885 12.67 16.8796C12.7814 17.0708 12.9414 17.2289 13.1339 17.338C13.3264 17.4471 13.5443 17.5031 13.7655 17.5004C13.9867 17.4977 14.2032 17.4363 14.393 17.3226L20.8334 13.4586V16.25C20.8334 16.5815 20.9652 16.8994 21.1996 17.1338C21.434 17.3682 21.7519 17.4999 22.0834 17.5H27.0834C27.3841 17.4999 27.6747 17.3914 27.9019 17.1944C28.1291 16.9974 28.2777 16.7251 28.3204 16.4274L29.8341 5.83331ZM10.8334 20C10.3734 20 10.0001 20.3733 10.0001 20.8333V29.1666C10.0001 29.6266 10.3734 30 10.8334 30H11.6667C12.1267 30 12.5001 29.6266 12.5001 29.1666V20.8333C12.5001 20.3733 12.1267 20 11.6667 20H10.8334ZM16.6667 20C16.2067 20 15.8334 20.3733 15.8334 20.8333V29.1666C15.8334 29.6266 16.2067 30 16.6667 30H17.5001C17.9601 30 18.3334 29.6266 18.3334 29.1666V20.8333C18.3334 20.3733 17.9601 20 17.5001 20H16.6667ZM22.5001 20C22.0401 20 21.6667 20.3733 21.6667 20.8333V29.1666C21.6667 29.6266 22.0401 30 22.5001 30H23.3334C23.7934 30 24.1667 29.6266 24.1667 29.1666V20.8333C24.1667 20.3733 23.7934 20 23.3334 20H22.5001ZM28.3334 20C27.8734 20 27.5001 20.3733 27.5001 20.8333V29.1666C27.5001 29.6266 27.8734 30 28.3334 30H29.1667C29.6267 30 30.0001 29.6266 30.0001 29.1666V20.8333C30.0001 20.3733 29.6267 20 29.1667 20H28.3334Z" fill="black"/>
</svg>
