<svg width="22" height="22" viewBox="0 0 22 22" fill="none" xmlns="http://www.w3.org/2000/svg">
<g id="Fast Cart">
<path id="Vector" d="M4.9611 1.83154L1.83512 1.84587L1.84408 3.6792L3.74186 3.67025L4.50456 5.5H5.71484V5.50179H17.6888L15.1429 10.0851H8.5293V10.0833H7.41748L5.79362 12.674C5.42695 13.2607 5.40799 14.0017 5.74349 14.6058C6.07899 15.2099 6.71557 15.5851 7.40674 15.5851H18.3315V13.7518H7.40674L7.34766 13.6444L8.42725 11.9185H15.1429C15.8093 11.9185 16.4226 11.5561 16.7453 10.9749L20.0485 5.02913C20.2071 4.74497 20.2028 4.40013 20.0378 4.11963C19.8728 3.84005 19.5709 3.66846 19.2464 3.66846H5.72738L4.9611 1.83154ZM0 7.33333V9.16667H5.82943L5.86702 9.11117L6.98421 7.33333H0ZM0 11V12.8333H3.51986L4.68359 11H0ZM7.33154 16.5018C6.84531 16.5018 6.379 16.6949 6.03518 17.0388C5.69136 17.3826 5.49821 17.8489 5.49821 18.3351C5.49821 18.8214 5.69136 19.2877 6.03518 19.6315C6.379 19.9753 6.84531 20.1685 7.33154 20.1685C7.81777 20.1685 8.28409 19.9753 8.6279 19.6315C8.97172 19.2877 9.16488 18.8214 9.16488 18.3351C9.16488 17.8489 8.97172 17.3826 8.6279 17.0388C8.28409 16.6949 7.81777 16.5018 7.33154 16.5018ZM16.4982 16.5018C16.012 16.5018 15.5457 16.6949 15.2018 17.0388C14.858 17.3826 14.6649 17.8489 14.6649 18.3351C14.6649 18.8214 14.858 19.2877 15.2018 19.6315C15.5457 19.9753 16.012 20.1685 16.4982 20.1685C16.9844 20.1685 17.4508 19.9753 17.7946 19.6315C18.1384 19.2877 18.3315 18.8214 18.3315 18.3351C18.3315 17.8489 18.1384 17.3826 17.7946 17.0388C17.4508 16.6949 16.9844 16.5018 16.4982 16.5018Z" fill="white"/>
</g>
</svg>
