<svg width="227" height="149" viewBox="0 0 227 149" fill="none" xmlns="http://www.w3.org/2000/svg">
<path opacity="0.5" d="M113.5 148.041C176.184 148.041 227 118.716 227 82.541C227 46.3664 176.184 17.041 113.5 17.041C50.8157 17.041 0 46.3664 0 82.541C0 118.716 50.8157 148.041 113.5 148.041Z" fill="#AAACAF"/>
<path d="M113.5 132.041C176.184 132.041 227 102.492 227 66.041C227 29.5902 176.184 0.0410156 113.5 0.0410156C50.8157 0.0410156 0 29.5902 0 66.041C0 102.492 50.8157 132.041 113.5 132.041Z" fill="#6E6666"/>
<g opacity="0.5">
<path d="M120.771 75.8584L51.9705 36.0054C45.3732 32.2356 34.7368 32.2356 28.1395 36.0054C21.5423 39.7753 21.5423 45.9687 28.1395 49.7386L107.307 95.5155C110.942 97.6698 115.924 98.6122 120.771 98.3429V75.8584Z" fill="#161313"/>
<path d="M162.643 89.9955C154.834 94.5732 142.043 94.5732 134.234 89.9955L65.4342 50.2772C57.6252 45.6995 57.6252 38.429 65.4342 33.8513C73.2432 29.2736 86.0339 29.2736 93.8429 33.8513L162.643 73.5696C170.452 78.0126 170.452 85.4178 162.643 89.9955Z" fill="#161313"/>
<path d="M96.5358 106.69C93.9777 108.172 90.0732 108.172 87.5151 106.69L54.798 87.8411C52.2399 86.3601 52.2399 84.0713 54.798 82.5903C57.3561 81.1092 61.2606 81.1092 63.8188 82.5903L96.5358 101.44C99.094 102.921 99.094 105.344 96.5358 106.69Z" fill="#635757"/>
<path d="M175.972 35.063C173.549 36.4093 169.779 36.4093 167.356 35.063L136.254 17.1561C133.831 15.8097 133.831 13.5208 136.254 12.1745C138.678 10.8281 142.447 10.8281 144.871 12.1745L175.972 30.216C178.396 31.5624 178.396 33.7166 175.972 35.063Z" fill="#635757"/>
<path d="M197.38 39.2367C194.956 40.7178 190.917 40.7178 188.494 39.2367L156.046 20.522C153.622 19.041 153.622 16.7522 156.046 15.4058C158.469 13.9248 162.508 13.9248 164.932 15.4058L197.38 34.1205C199.938 35.4669 199.938 37.7557 197.38 39.2367Z" fill="#635757"/>
<path d="M182.973 82.5903C180.415 81.1092 176.511 81.1092 173.953 82.5903L141.236 101.44C138.812 102.921 138.812 105.209 141.236 106.69C143.794 108.172 147.698 108.172 150.256 106.69L182.973 87.8411C185.532 86.3601 185.532 84.0713 182.973 82.5903Z" fill="#635757"/>
<path d="M182.435 38.5636C182.166 35.7362 180.011 33.3127 177.453 33.3127C174.895 33.3127 173.145 35.6015 173.414 38.5636L176.78 76.3969C177.049 79.2243 179.204 81.6478 181.762 81.6478C184.32 81.6478 186.07 79.359 185.801 76.3969L182.435 38.5636Z" fill="#635757"/>
<path d="M139.62 104.536H100.171C97.4782 104.536 95.1894 105.883 94.9201 107.498C94.6508 109.114 96.6704 110.46 99.3631 110.46H138.812C141.505 110.46 143.794 109.114 144.063 107.498C144.198 105.883 142.313 104.536 139.62 104.536Z" fill="#635757"/>
<path d="M69.6082 101.709C67.1847 103.055 63.4148 103.055 60.9913 101.709L29.8899 83.802C27.4664 82.4556 27.4664 80.1668 29.8899 78.8204C32.3134 77.474 36.0832 77.474 38.5067 78.8204L69.6082 96.7273C71.897 98.0737 71.897 100.363 69.6082 101.709Z" fill="#635757"/>
<path d="M59.6449 85.4177C57.0868 86.8987 53.1822 86.8987 50.6241 85.4177L17.907 66.5684C15.4835 65.0873 15.4835 62.7985 17.907 61.3174C20.4652 59.8364 24.3697 59.8364 26.9278 61.3174L59.6449 80.1668C62.203 81.6478 62.203 83.9367 59.6449 85.4177Z" fill="#635757"/>
</g>
<path d="M198.053 29.1389L164.797 9.88568C164.663 9.75104 164.528 9.75103 164.393 9.75103H164.528C163.182 9.07784 161.701 9.21249 160.354 10.0203C156.988 11.7706 156.046 16.8869 159.547 19.1757L192.802 38.429C194.283 39.2368 195.63 39.1022 197.245 38.2943C198.996 37.3519 200.207 35.3323 200.207 33.3127C200.342 31.9663 199.938 30.216 198.053 29.1389Z" fill="url(#paint0_linear_909_8292)"/>
<path opacity="0.3" d="M197.515 36.8133C195.899 37.6212 194.552 37.6212 193.071 36.948L159.816 17.6947C158.873 17.0215 158.469 15.9444 158.739 14.8673C159.277 12.9823 160.624 10.9628 162.239 10.1549C163.047 9.61638 163.855 9.61639 164.528 9.75103C163.182 9.07784 161.701 9.21249 160.354 10.0203C159.008 10.8282 157.931 12.1745 157.527 13.5209C157.258 14.3287 157.258 15.0019 157.392 15.8098V15.9444C157.392 16.079 157.527 16.3483 157.527 16.4829V16.6176C157.527 16.7522 157.662 16.8869 157.662 17.1561C157.662 17.2908 157.796 17.2908 157.796 17.4254C157.931 17.5601 157.931 17.6947 158.066 17.8293C158.066 17.964 158.2 17.964 158.2 18.0986C158.335 18.2333 158.469 18.3679 158.604 18.5025L158.739 18.6372C158.873 18.7718 159.143 19.0411 159.412 19.1757L192.668 38.429C194.149 39.2368 195.495 39.1022 197.111 38.2943C198.861 37.3519 200.073 35.4669 200.073 33.3127C199.938 34.7937 198.861 36.1401 197.515 36.8133Z" fill="url(#paint1_linear_909_8292)"/>
<path opacity="0.4" d="M198.053 29.1388C197.38 28.7349 196.437 28.8696 195.495 29.4081C193.475 30.4852 191.725 33.4473 191.725 35.8708C191.725 37.0825 192.129 38.025 192.802 38.4289C194.283 39.2367 195.63 39.1021 197.245 38.2943C198.996 37.3518 200.207 35.3322 200.207 33.3126C200.342 31.9663 199.938 30.2159 198.053 29.1388Z" fill="url(#paint2_linear_909_8292)"/>
<path d="M194.687 32.6394C194.956 33.178 196.168 33.178 197.245 32.5048C198.322 31.8316 198.995 30.8891 198.592 30.3506C198.188 29.812 197.111 29.812 196.033 30.4852C195.091 31.0238 194.418 32.1009 194.687 32.6394Z" fill="url(#paint3_linear_909_8292)"/>
<path d="M176.107 25.2344L142.851 5.98115C142.717 5.84651 142.582 5.84651 142.447 5.84651H142.582C141.236 5.17331 139.755 5.30793 138.408 6.11576C135.042 7.86605 134.1 12.9823 137.6 15.2712L170.856 34.5244C172.337 35.3323 173.683 35.1976 175.299 34.3898C177.049 33.4473 178.261 31.4278 178.261 29.4082C178.261 28.1964 177.992 26.4461 176.107 25.2344Z" fill="url(#paint4_linear_909_8292)"/>
<path opacity="0.3" d="M175.434 33.0433C173.818 33.8512 172.472 33.8512 170.991 33.178L137.735 13.9247C136.793 13.2515 136.389 12.1744 136.658 11.0973C137.197 9.07775 138.543 7.19282 140.159 6.38499C140.966 5.84643 141.774 5.84645 142.447 5.98109C141.101 5.3079 139.62 5.44251 138.274 6.25034C136.927 7.05817 135.85 8.40456 135.446 9.75094C135.177 10.5588 135.177 11.232 135.312 12.0398V12.1744C135.312 12.3091 135.446 12.5784 135.446 12.713V12.8476C135.446 12.9822 135.581 13.1169 135.581 13.3862C135.581 13.5208 135.716 13.5208 135.716 13.6554C135.85 13.7901 135.85 13.9247 135.985 14.0594C135.985 14.194 136.119 14.194 136.119 14.3286C136.254 14.4633 136.389 14.5979 136.523 14.7326L136.658 14.8672C136.793 15.0018 137.062 15.2711 137.331 15.4058L170.587 34.659C172.068 35.4668 173.414 35.3322 175.03 34.5244C176.78 33.5819 177.992 31.697 177.992 29.5428C177.857 31.0238 176.915 32.2355 175.434 33.0433Z" fill="url(#paint5_linear_909_8292)"/>
<path opacity="0.4" d="M176.107 25.2344C175.434 24.8304 174.491 24.9651 173.549 25.5037C171.529 26.5808 169.779 29.5428 169.779 31.9663C169.779 33.178 170.183 34.1205 170.856 34.5244C172.337 35.3322 173.684 35.1976 175.299 34.3897C177.049 33.4473 178.261 31.4277 178.261 29.4082C178.261 28.1964 177.992 26.4461 176.107 25.2344Z" fill="url(#paint6_linear_909_8292)"/>
<path d="M172.741 28.735C173.01 29.2735 174.222 29.2735 175.299 28.6003C176.376 27.9271 177.049 26.9847 176.646 26.4461C176.242 25.9076 175.165 25.9076 174.087 26.5808C173.01 27.2539 172.472 28.1964 172.741 28.735Z" fill="url(#paint7_linear_909_8292)"/>
<path d="M188.224 73.5695L185.262 35.1976C185.262 35.063 185.262 34.9283 185.128 34.7937V34.9284C184.858 33.4473 184.051 32.3702 182.57 31.5624C179.204 29.8121 174.491 31.8317 174.626 36.0054L177.588 74.3773C177.723 75.993 178.665 77.2048 180.146 78.0126C182.031 78.9551 184.185 78.8204 185.936 77.6086C187.147 77.0701 188.359 75.7237 188.224 73.5695Z" fill="url(#paint8_linear_909_8292)"/>
<path opacity="0.3" d="M180.55 74.108C178.934 75.0505 179.473 77.3394 180.954 77.8779C182.57 78.4165 184.455 78.1472 185.801 77.2048C187.551 76.1276 185.128 71.5499 180.55 74.108Z" fill="url(#paint9_linear_909_8292)"/>
<path d="M67.454 2.61519C66.6462 1.53809 65.5691 0.595588 63.9534 0.730226C63.4149 0.730226 63.011 0.99951 62.4724 0.864872C62.0685 0.864872 61.6646 0.730226 61.2607 0.730226C59.9143 0.595588 58.4333 1.26881 57.7601 2.61519C57.6254 2.88447 57.4908 3.28835 57.2215 3.42299C57.0869 3.55763 56.8176 3.55764 56.5483 3.69228C55.6059 3.96156 54.9326 4.76939 54.798 5.71186C54.798 5.98113 54.798 6.25043 54.6634 6.65434C54.3941 7.59681 53.1824 8.13534 53.0477 9.07781C52.9131 9.751 53.1823 10.9627 53.317 11.5013C53.317 11.6359 53.317 11.7706 53.317 11.9052C53.317 12.0399 53.1824 12.0398 53.1824 12.1745C52.7785 12.713 52.5092 13.5209 52.7784 14.194C53.0477 14.8672 53.7209 15.4058 54.3941 15.2712C54.3941 15.5405 54.1248 15.6751 54.1248 15.9444C53.9902 16.2136 54.1248 16.6175 54.3941 16.8868C55.7405 18.2332 58.2986 18.3679 60.0489 18.6371C61.9338 18.9064 63.8188 19.1757 65.7037 19.1757C67.0501 19.1757 70.5507 17.56 70.9546 12.8477C71.0892 10.4242 70.0121 8.6739 69.0697 6.51969C68.8004 5.30795 68.3965 3.82694 67.454 2.61519Z" fill="#F2A25E"/>
<path opacity="0.3" d="M67.454 2.61519C66.6462 1.53809 65.5691 0.595588 63.9534 0.730226C63.4149 0.730226 63.011 0.99951 62.4724 0.864872C62.0685 0.864872 61.6646 0.730226 61.2607 0.730226C59.9143 0.595588 58.4333 1.26881 57.7601 2.61519C57.6254 2.88447 57.4908 3.28835 57.2215 3.42299C57.0869 3.55763 56.8176 3.55764 56.5483 3.69228C55.6059 3.96156 54.9326 4.76939 54.798 5.71186C54.798 5.98113 54.798 6.25043 54.6634 6.65434C54.3941 7.59681 53.1824 8.13534 53.0477 9.07781C52.9131 9.751 53.1823 10.9627 53.317 11.5013C53.317 11.6359 53.317 11.7706 53.317 11.9052C53.317 12.0399 53.1824 12.0398 53.1824 12.1745C52.7785 12.713 52.5092 13.5209 52.7784 14.194C53.0477 14.8672 53.7209 15.4058 54.3941 15.2712C54.3941 15.5405 54.1248 15.6751 54.1248 15.9444C53.9902 16.2136 54.1248 16.6175 54.3941 16.8868C55.7405 18.2332 58.2986 18.3679 60.0489 18.6371C61.9338 18.9064 63.8188 19.1757 65.7037 19.1757C67.0501 19.1757 70.5507 17.56 70.9546 12.8477C71.0892 10.4242 70.0121 8.6739 69.0697 6.51969C68.8004 5.30795 68.3965 3.82694 67.454 2.61519Z" fill="#E78B4B"/>
<path d="M67.5887 18.5025C67.5887 21.3299 69.6083 22.407 71.8971 21.0606C74.3206 19.7142 76.2055 16.2136 76.2055 13.5209C76.2055 10.6935 74.186 9.61636 71.8971 10.9627C69.4736 12.3091 67.5887 15.6751 67.5887 18.5025Z" fill="#B2ACA7"/>
<path d="M74.9938 10.5588L72.0317 8.8085C71.2239 8.26995 70.1468 8.4046 68.935 9.07779C66.5116 10.4242 64.6266 13.9248 64.6266 16.6175C64.6266 17.9639 65.1652 18.9064 65.8384 19.445L68.8004 21.1952C67.9926 20.7913 67.5887 19.7142 67.5887 18.3678C67.5887 15.5404 69.6083 12.1745 71.8971 10.8281C73.1088 10.1549 74.1859 10.1549 74.9938 10.5588Z" fill="#E6DED7"/>
<path d="M163.316 37.3519L103.133 2.88451C102.46 2.4806 101.652 2.21131 100.844 2.07668C101.114 2.07668 101.383 2.21132 101.517 2.21132C94.247 -1.01999 86.8419 -0.750693 79.3021 3.28845C61.6645 12.7131 56.4136 39.7754 75.1284 51.6236L135.312 86.091C143.121 90.1301 150.66 89.9954 159.143 85.687C168.702 80.3015 174.761 70.2036 175.03 59.1633C175.165 52.7007 173.28 43.6799 163.316 37.3519Z" fill="url(#paint10_linear_909_8292)"/>
<path opacity="0.4" d="M168.433 74.6467C168.702 74.1082 168.837 73.4349 168.837 72.7617C168.702 71.55 167.76 70.4729 166.682 69.9344C165.605 69.3958 164.259 69.1265 163.047 68.9919L161.297 68.7226C160.085 71.55 158.873 74.2428 157.662 77.0702C156.719 79.2244 154.834 80.84 152.545 81.1093C147.025 81.9172 141.505 80.9747 136.658 78.4166L83.7453 48.123C78.0905 44.8916 74.186 39.2369 73.3782 32.7742C71.7625 17.964 78.6291 -1.96246 101.652 2.21132C94.3817 -1.01999 86.9766 -0.750693 79.4369 3.28845C71.6279 7.46224 66.2423 15.1366 64.3574 23.4842C64.3574 23.6188 64.3574 23.7534 64.2228 23.8881C64.0881 24.4266 63.9535 24.9652 63.9535 25.5038C63.9535 25.6384 63.9535 25.773 63.8189 26.0423C63.6842 26.5809 63.6842 27.1194 63.6842 27.5233C63.6842 27.658 63.6842 27.7926 63.6842 27.9272C63.6842 28.4658 63.5496 29.0043 63.5496 29.6775C63.5496 29.8121 63.5496 29.8122 63.5496 29.9468C63.5496 31.2932 63.5496 32.6396 63.8189 33.986C63.8189 34.1206 63.8189 34.2552 63.8189 34.3899C63.9535 34.9284 63.9535 35.3323 64.0881 35.8709C64.0881 36.0055 64.2228 36.2748 64.2228 36.4094C64.3574 36.8133 64.4921 37.3519 64.6267 37.7558C64.6267 38.0251 64.7613 38.1597 64.7613 38.429C64.8959 38.8329 65.0306 39.2368 65.1652 39.7754C65.2999 39.91 65.2998 40.1793 65.4345 40.314C65.7038 40.8525 65.8384 41.2564 66.1077 41.795C66.1077 41.9296 66.2423 42.0642 66.2423 42.0642C66.5116 42.6028 66.9155 43.276 67.1848 43.8145C67.3194 43.9492 67.3194 44.0838 67.4541 44.2185C67.7233 44.6224 67.9926 45.1609 68.3965 45.5648C68.5312 45.6995 68.6658 45.9688 68.8004 46.1034C69.0697 46.5073 69.339 46.7766 69.6083 47.1805C69.7429 47.3151 70.0122 47.5844 70.1468 47.7191C70.4161 47.9883 70.82 48.3922 71.0893 48.6615C71.2239 48.7961 71.4932 49.0654 71.6279 49.2001C72.0318 49.4693 72.4357 49.8733 72.705 50.1425C72.8396 50.2772 73.1089 50.4118 73.2435 50.5464C73.7821 50.9503 74.4553 51.3543 75.1285 51.7582C74.5899 51.4889 74.186 51.2196 73.7821 50.8157C74.186 51.085 74.7245 51.4889 75.1285 51.7582L135.312 86.2256C143.121 90.2647 150.66 90.1301 159.143 85.8217C164.663 82.725 168.971 78.0126 171.664 72.4925C170.722 73.1657 169.644 73.9735 168.433 74.6467Z" fill="url(#paint11_linear_909_8292)"/>
<path d="M141.37 24.696L120.905 12.8478C117.539 11.636 113.231 12.4439 108.653 15.002C107.038 15.9445 105.422 17.0215 103.941 18.2333C94.5163 14.8673 84.2838 30.8893 90.881 37.0826C89.4 41.1218 88.4575 45.2956 88.4575 49.2001C88.3229 55.7974 90.6117 60.5097 94.3816 62.5293L114.712 74.2428C110.942 72.0886 108.788 67.5109 108.788 60.9136C108.788 57.0091 109.73 52.97 111.211 48.9308C120.098 51.7582 129.926 36.4095 123.733 30.3507C125.348 28.8697 127.099 27.658 128.984 26.5809C133.427 24.1574 138.004 23.4842 141.37 24.696Z" fill="#ED1E26"/>
<path opacity="0.5" d="M108.653 62.5292L88.3229 50.8157C88.5922 56.6051 90.7464 60.6442 94.1123 62.6638L114.443 74.3774C111.077 72.3578 108.923 68.3187 108.653 62.5292Z" fill="url(#paint12_linear_909_8292)"/>
<path d="M120.905 29.6775L105.153 19.9835C104.345 19.445 103.537 19.1757 102.729 19.041C99.7672 18.6371 96.6705 20.1182 93.9777 22.8109C91.0157 26.0423 89.5347 30.3507 90.2079 33.582C90.6118 35.1977 91.6889 36.6787 93.3045 37.6211L109.596 47.0458C110.404 47.5844 111.346 47.8536 112.154 47.8536C112.289 47.8536 112.558 47.8536 112.692 47.8536C114.981 47.8536 117.27 46.7765 119.29 44.8916C122.252 42.1988 124.137 38.1597 124.002 34.7937C124.137 32.9088 122.79 30.8892 120.905 29.6775ZM118.886 44.6223C116.732 46.6419 114.443 47.5844 112.154 47.4497C111.481 47.4497 110.673 47.1804 110 46.6419L93.7084 37.2172C92.2274 36.4094 91.285 35.063 90.8811 33.582C90.2079 30.4853 91.6889 26.4462 94.5163 23.3495C96.6705 20.926 99.3632 19.7142 101.787 19.7142C102.056 19.7142 102.325 19.7142 102.729 19.7142C103.402 19.8489 104.21 20.1182 104.883 20.5221L120.636 30.216C122.386 31.2931 123.463 33.1781 123.463 35.063C123.463 38.1597 121.713 42.0642 118.886 44.6223Z" fill="white"/>
<path d="M25.8507 22.1377C25.4468 21.5992 24.9083 21.0606 24.1004 21.1952C23.8312 21.1952 23.5619 21.3299 23.2926 21.3299C23.0233 21.3299 22.8887 21.1952 22.7541 21.1952C22.0809 21.0606 21.273 21.4645 21.0037 22.1377C20.8691 22.2724 20.8691 22.5416 20.7345 22.5416C20.5998 22.6763 20.4652 22.6763 20.3305 22.6763C19.9266 22.8109 19.5227 23.2148 19.3881 23.7533C19.3881 23.888 19.3881 24.0226 19.3881 24.1573C19.2535 24.6958 18.5803 24.9651 18.5803 25.369C18.5803 25.6383 18.7149 26.3115 18.7149 26.5808C18.7149 26.7154 18.7149 26.7154 18.7149 26.8501C18.7149 26.8501 18.7149 26.9847 18.5803 26.9847C18.311 27.2539 18.311 27.6579 18.311 28.0618C18.4456 28.4657 18.8495 28.6003 19.1188 28.6003C19.1188 28.735 18.9842 28.8696 18.9842 28.8696C18.9842 29.0043 18.9842 29.2735 19.1188 29.2735C19.792 29.9467 21.1384 30.0814 22.0809 30.216C23.0233 30.3506 24.1004 30.4853 25.0429 30.4853C25.7161 30.4853 27.601 29.6774 27.7356 27.254C27.8703 26.0422 27.1971 25.0997 26.7932 24.0226C26.5239 23.4841 26.2546 22.8109 25.8507 22.1377Z" fill="#7F2A27"/>
<path d="M25.8508 30.3507C25.8508 31.8317 26.9279 32.3703 28.1396 31.6971C29.3514 31.0239 30.4285 29.2736 30.4285 27.7926C30.4285 26.3116 29.3514 25.773 28.1396 26.4462C26.7933 27.1194 25.8508 28.8697 25.8508 30.3507Z" fill="#B2ACA7"/>
<path d="M29.6206 26.3115L28.1396 25.3691C27.7357 25.0998 27.1971 25.0998 26.5239 25.5037C25.3122 26.1769 24.2351 27.9272 24.2351 29.4082C24.2351 30.0814 24.5044 30.62 24.9083 30.8892L26.3893 31.8317C25.9854 31.5624 25.7161 31.0238 25.7161 30.3507C25.7161 28.8696 26.7932 27.1193 28.005 26.4462C28.6782 26.0422 29.2167 26.0422 29.6206 26.3115Z" fill="#E6DED7"/>
<path d="M111.077 60.7789L44.2961 22.2724C43.8922 22.0031 43.4883 22.0031 43.0844 21.8685C43.219 21.8685 43.3536 21.8685 43.4883 22.0031C39.7184 20.3874 35.8139 20.5221 32.044 22.5416C22.8886 27.3886 20.1958 41.5256 29.8898 47.5844L115.52 96.9966C114.981 93.7653 110.942 60.9135 111.077 60.7789Z" fill="url(#paint13_linear_909_8292)"/>
<path opacity="0.3" d="M115.789 97.1312C115.789 95.7848 115.654 94.4385 115.789 93.0921L30.4283 43.8145C27.8702 42.1988 26.6585 38.8329 27.6009 35.8708C29.082 30.4853 32.9864 25.2344 37.2949 22.6763C39.7184 21.3299 41.8726 21.0606 43.4882 21.7338C39.7184 20.1182 35.8139 20.2528 32.044 22.2724C28.1395 24.2919 25.4467 28.0618 24.3696 32.101C23.831 34.1205 23.6964 36.2748 23.9657 38.2943C23.9657 38.429 23.9657 38.429 23.9657 38.5636C24.1003 39.1021 24.235 39.6407 24.3696 40.1793C24.3696 40.3139 24.5042 40.5832 24.5042 40.7178C24.6389 41.1217 24.9081 41.6603 25.0428 42.0642C25.1774 42.3335 25.3121 42.4681 25.3121 42.6027C25.5814 43.0067 25.716 43.4106 25.9853 43.6799C26.1199 43.8145 26.2545 44.0838 26.3892 44.2184C26.6584 44.6223 27.0624 44.8916 27.3317 45.2955C27.4663 45.4301 27.6009 45.5648 27.8702 45.834C28.4088 46.3726 28.9473 46.7765 29.6205 47.1804C29.7552 47.5843 115.789 97.1312 115.789 97.1312Z" fill="url(#paint14_linear_909_8292)"/>
<path d="M124.32 97.6932C129.729 94.5701 129.262 83.6338 123.276 73.2663C117.29 62.8988 108.053 57.026 102.643 60.149C97.2343 63.2721 97.7018 74.2084 103.688 84.5759C109.674 94.9434 118.911 100.816 124.32 97.6932Z" fill="#DD5050"/>
<path d="M113.635 68.9919C114.443 70.3383 115.654 71.1461 116.328 70.7422C117.001 70.3383 117.001 68.8572 116.193 67.5109C115.385 66.1645 114.173 65.3567 113.5 65.7606C112.827 66.1645 112.827 67.6455 113.635 68.9919Z" fill="#FFE5D7"/>
<path d="M103.268 77.0701C104.076 78.4165 105.287 79.2243 105.961 78.8204C106.634 78.4165 106.634 76.9355 105.826 75.5891C105.018 74.2427 103.806 73.4349 103.133 73.8388C102.46 74.3774 102.46 75.7238 103.268 77.0701Z" fill="#FFE5D7"/>
<path d="M111.615 75.1852C112.288 76.2624 113.231 76.9356 113.904 76.6663C114.443 76.2624 114.443 75.1853 113.77 73.9735C113.096 72.8964 112.154 72.2232 111.481 72.4925C110.942 72.8964 110.942 74.1081 111.615 75.1852Z" fill="#FFE5D7"/>
<path d="M111.885 91.2073C112.288 92.0151 112.962 92.419 113.366 92.1497C113.769 91.8805 113.769 91.0726 113.231 90.3994C112.827 89.5916 112.154 89.1877 111.75 89.457C111.346 89.7263 111.346 90.5341 111.885 91.2073Z" fill="#FFE5D7"/>
<path d="M124.406 89.5914C124.81 90.3992 125.483 90.8032 125.887 90.5339C126.291 90.2646 126.291 89.4568 125.752 88.7836C125.348 87.9758 124.675 87.5719 124.271 87.8411C124.002 88.1104 124.002 88.7836 124.406 89.5914Z" fill="#FFE5D7"/>
<path d="M110.808 83.5327C111.346 84.3406 112.019 84.8791 112.558 84.6099C112.962 84.3406 112.962 83.3981 112.423 82.5903C111.885 81.7825 111.211 81.2439 110.673 81.5132C110.269 81.7824 110.269 82.7249 110.808 83.5327Z" fill="#FFE5D7"/>
<path d="M104.345 67.7801C105.422 69.6651 107.038 70.6075 107.98 70.069C108.923 69.5304 108.788 67.6455 107.845 65.7606C106.768 63.8756 105.153 62.9331 104.21 63.4717C103.268 64.0102 103.402 65.8952 104.345 67.7801Z" fill="#FFE5D7"/>
<path d="M119.424 81.3785C120.501 83.2635 122.117 84.2059 123.06 83.6673C124.002 83.1288 123.867 81.2439 122.925 79.359C121.848 77.474 120.232 76.5315 119.29 77.0701C118.347 77.6086 118.347 79.6282 119.424 81.3785Z" fill="#FFE5D7"/>
<path d="M117.943 92.2843C118.751 93.7653 120.097 94.5732 120.771 94.1692C121.579 93.7653 121.444 92.1497 120.636 90.8033C119.828 89.3223 118.482 88.5144 117.809 88.9183C117.001 89.3222 117.001 90.9379 117.943 92.2843Z" fill="#FFE5D7"/>
<path d="M56.2788 73.1656L23.0232 53.9123C22.8885 53.7776 22.7539 53.7777 22.6193 53.7777H22.7539C21.4075 53.1045 19.9265 53.2391 18.5801 54.0469C15.2142 55.7972 14.2717 60.9135 17.7723 63.2023L51.028 82.4556C52.509 83.2634 53.8553 83.1288 55.471 82.3209C57.2213 81.3785 58.4331 79.3589 58.4331 77.3393C58.5677 76.1276 58.1638 74.3773 56.2788 73.1656Z" fill="url(#paint15_linear_909_8292)"/>
<path opacity="0.3" d="M55.7404 80.9746C54.1247 81.7824 52.7783 81.7824 51.2973 81.1092L18.0417 61.856C17.0992 61.1828 16.6953 60.1057 16.9645 59.0286C17.5031 57.009 18.8495 55.1241 20.4651 54.3162C21.273 53.7777 22.0808 53.7776 22.754 53.9123C21.4076 53.2391 19.9266 53.3737 18.5802 54.1816C17.2338 54.9894 16.1567 56.3358 15.7528 57.6822C15.4835 58.49 15.4835 59.1632 15.6182 59.971V60.1057C15.6182 60.2403 15.7528 60.5096 15.7528 60.6442V60.7788C15.7528 60.9135 15.8875 61.0481 15.8875 61.3174C15.8875 61.452 16.0221 61.452 16.0221 61.5867C16.1567 61.7213 16.1567 61.8559 16.2913 61.9906C16.2913 62.1252 16.426 62.1252 16.426 62.2599C16.5606 62.3945 16.6953 62.5291 16.8299 62.6638L16.9645 62.7984C17.0992 62.9331 17.3685 63.2023 17.6377 63.337L50.8934 82.5903C52.3744 83.3981 53.7208 83.2634 55.3364 82.4556C57.0867 81.5131 58.2985 79.6282 58.2985 77.474C58.0292 78.955 57.0868 80.3014 55.7404 80.9746Z" fill="url(#paint16_linear_909_8292)"/>
<path opacity="0.4" d="M56.2789 73.1656C55.6057 72.7617 54.6632 72.8963 53.7208 73.4348C51.7012 74.5119 49.9509 77.474 49.9509 79.8975C49.9509 81.1092 50.3548 82.0517 51.028 82.4556C52.509 83.2634 53.8554 83.1288 55.471 82.321C57.2213 81.3785 58.4331 79.359 58.4331 77.3394C58.5677 76.1276 58.1638 74.3773 56.2789 73.1656Z" fill="url(#paint17_linear_909_8292)"/>
<path d="M52.913 76.8008C53.1823 77.3394 54.394 77.3394 55.4711 76.6662C56.5482 75.9931 57.2214 75.0506 56.8175 74.512C56.4136 73.9735 55.3365 73.9735 54.2594 74.6467C53.1823 75.1852 52.6437 76.1277 52.913 76.8008Z" fill="url(#paint18_linear_909_8292)"/>
<path d="M96.2664 96.7272L63.0108 77.4739C62.8761 77.3393 62.7415 77.3393 62.6069 77.3393H62.7415C61.3951 76.6661 59.9141 76.8007 58.5677 77.6086C55.2018 79.3589 54.2593 84.4751 57.7599 86.764L91.0155 106.017C92.4965 106.825 93.8429 106.69 95.4586 105.883C97.2089 104.94 98.4206 102.921 98.4206 100.901C98.4206 99.5546 98.1514 97.9389 96.2664 96.7272Z" fill="url(#paint19_linear_909_8292)"/>
<path opacity="0.3" d="M95.5933 104.536C93.9777 105.344 92.6313 105.344 91.1503 104.671L57.8946 85.4176C56.9522 84.7444 56.5482 83.6673 56.8175 82.5902C57.3561 80.5706 58.7025 78.6857 60.3181 77.8779C61.1259 77.3393 61.9338 77.3393 62.607 77.4739C61.2606 76.8007 59.7796 76.9354 58.4332 77.7432C57.0868 78.5511 56.0097 79.8974 55.6058 81.2438C55.3365 82.0517 55.3365 82.7248 55.4711 83.5327V83.6673C55.4711 83.8019 55.6058 84.0712 55.6058 84.2058V84.3405C55.6058 84.4751 55.7404 84.6098 55.7404 84.879C55.7404 85.0137 55.8751 85.0137 55.8751 85.1483C56.0097 85.283 56.0097 85.4176 56.1443 85.5522C56.1443 85.6869 56.279 85.6869 56.279 85.8215C56.4136 85.9562 56.5482 86.0908 56.6829 86.2254L56.8175 86.3601C56.9521 86.4947 57.2214 86.764 57.4907 86.8986L90.7464 106.152C92.2274 106.96 93.5737 106.825 95.1894 106.017C96.9397 105.075 98.1515 103.19 98.1515 101.036C98.0168 102.382 97.0744 103.728 95.5933 104.536Z" fill="url(#paint20_linear_909_8292)"/>
<path opacity="0.4" d="M96.2665 96.7273C95.5933 96.3234 94.6508 96.458 93.7083 96.9965C91.6888 98.0737 89.9385 101.036 89.9385 103.459C89.9385 104.671 90.3424 105.613 91.0156 106.017C92.4966 106.825 93.843 106.691 95.4587 105.883C97.2089 104.94 98.4207 102.921 98.4207 100.901C98.4207 99.5547 98.1514 97.939 96.2665 96.7273Z" fill="url(#paint21_linear_909_8292)"/>
<path d="M92.9006 100.228C93.1699 100.766 94.3816 100.766 95.4587 100.093C96.5358 99.4201 97.209 98.4776 96.8051 97.939C96.4012 97.4005 95.3241 97.4005 94.247 98.0737C93.1699 98.7469 92.4967 99.6893 92.9006 100.228Z" fill="url(#paint22_linear_909_8292)"/>
<path d="M69.2042 91.6111L35.9485 72.3578C35.8139 72.2232 35.6793 72.2232 35.5446 72.2232H35.6793C34.3329 71.55 32.8519 71.6847 31.5055 72.4925C28.1395 74.2428 27.1971 79.359 30.6976 81.6479L63.9533 100.901C65.4343 101.709 66.7807 101.574 68.3963 100.767C70.1466 99.824 71.3584 97.8045 71.3584 95.7849C71.3584 94.4385 71.0891 92.6882 69.2042 91.6111Z" fill="url(#paint23_linear_909_8292)"/>
<path opacity="0.3" d="M68.6657 99.2855C67.05 100.093 65.7036 100.093 64.2226 99.4201L30.967 80.1668C30.0245 79.4937 29.6206 78.4166 29.8898 77.3395C30.4284 75.3199 31.7748 73.435 33.3904 72.6271C34.1983 72.0886 35.0061 72.0886 35.6793 72.2232C34.3329 71.55 32.8519 71.6847 31.5055 72.4925C30.1591 73.3003 29.082 74.6467 28.6781 75.9931C28.4088 76.8009 28.4088 77.4741 28.5435 78.2819V78.4166C28.5435 78.5512 28.6781 78.8205 28.6781 78.9551V79.0898C28.6781 79.2244 28.8127 79.359 28.8127 79.6283C28.8127 79.7629 28.9474 79.763 28.9474 79.8976C29.082 80.0322 29.082 80.1669 29.2166 80.3015C29.2166 80.4361 29.3513 80.4361 29.3513 80.5708C29.4859 80.7054 29.6205 80.84 29.7552 80.9747L29.8898 81.1093C30.0245 81.244 30.2937 81.5132 30.563 81.6479L63.8187 100.901C65.2997 101.709 66.6461 101.574 68.2617 100.767C70.012 99.824 71.2238 97.9391 71.2238 95.7849C70.9545 97.2659 70.012 98.6123 68.6657 99.2855Z" fill="url(#paint24_linear_909_8292)"/>
<path opacity="0.4" d="M69.2042 91.6111C68.531 91.2072 67.5886 91.3418 66.6461 91.8804C64.6265 92.9575 62.8762 95.9195 62.8762 98.343C62.8762 99.5547 63.2802 100.497 63.9534 100.901C65.4344 101.709 66.7807 101.574 68.3964 100.766C70.1467 99.824 71.3585 97.8044 71.3585 95.7849C71.3585 94.4385 71.0892 92.6882 69.2042 91.6111Z" fill="url(#paint25_linear_909_8292)"/>
<path d="M65.8383 95.1117C66.1076 95.6502 67.3193 95.6502 68.3964 94.977C69.4735 94.3038 70.1467 93.3614 69.7428 92.8228C69.4735 92.2843 68.2618 92.2842 67.1847 92.9574C66.1076 93.496 65.569 94.4385 65.8383 95.1117Z" fill="url(#paint26_linear_909_8292)"/>
<path d="M144.871 96.1888L178.127 76.9355C178.261 76.8008 178.396 76.8008 178.531 76.8008H178.396C179.742 76.1276 181.223 76.2623 182.57 77.0701C185.936 78.8204 186.878 83.9367 183.377 86.2255L150.122 105.479C148.641 106.287 147.294 106.152 145.679 105.344C143.928 104.402 142.717 102.382 142.717 100.363C142.582 99.0161 142.986 97.4005 144.871 96.1888Z" fill="url(#paint27_linear_909_8292)"/>
<path opacity="0.3" d="M183.243 84.8792L153.084 102.248C146.083 104.806 142.986 100.497 142.986 98.2084C142.717 98.8816 142.582 99.6894 142.582 100.363C142.582 100.363 142.582 100.363 142.582 100.497C142.582 101.574 142.986 102.517 143.39 103.325C143.525 103.594 143.659 103.729 143.794 103.998L143.929 104.132C144.063 104.267 144.198 104.402 144.332 104.536C144.467 104.671 144.467 104.671 144.602 104.806C144.736 104.94 144.871 104.94 144.871 105.075C145.006 105.21 145.275 105.344 145.544 105.479C145.948 105.748 146.352 105.883 146.756 105.883C147.833 106.152 148.91 106.017 150.122 105.479L183.378 86.2256C183.647 86.0909 183.781 85.9563 184.051 85.687L184.185 85.5524C184.32 85.4177 184.455 85.2831 184.589 85.1485C184.589 85.0138 184.724 85.0138 184.724 84.8792C184.859 84.7446 184.859 84.6099 184.993 84.4753C184.993 84.3407 185.128 84.3406 185.128 84.206C185.262 84.0714 185.262 83.9367 185.262 83.6675V83.5328C185.262 83.3982 185.397 83.1289 185.397 82.9943V82.8596C185.397 82.5903 185.397 82.1865 185.397 81.9172C184.993 83.6675 183.916 84.3406 183.243 84.8792Z" fill="url(#paint28_linear_909_8292)"/>
<path d="M139.485 98.4775H101.114C100.979 98.4775 100.844 98.4775 100.71 98.6122H100.844C99.3633 98.7468 98.1515 99.5547 97.3437 100.901C95.3241 104.132 97.0744 108.979 101.248 109.114H139.62C141.236 108.979 142.448 108.306 143.39 106.825C144.467 105.075 144.467 102.786 143.525 101.036C142.851 99.8239 141.64 98.4775 139.485 98.4775Z" fill="url(#paint29_linear_909_8292)"/>
<path opacity="0.3" d="M142.851 105.479C141.909 106.96 140.697 107.768 139.082 107.768C139.082 107.768 108.923 107.768 102.056 107.768C100.306 107.768 98.5555 106.96 97.613 105.344C96.9398 104.132 96.6705 102.517 97.3437 100.766C96.5359 102.113 96.4013 103.728 96.6705 105.209C96.8052 106.017 97.2091 106.69 97.613 107.229C97.613 107.229 97.613 107.229 97.7476 107.364C97.8823 107.498 98.0169 107.633 98.1516 107.768L98.2862 107.902C98.4208 108.037 98.5555 108.171 98.6901 108.171C98.8247 108.171 98.8248 108.306 98.9594 108.306C99.094 108.441 99.2287 108.441 99.3633 108.575C99.4979 108.575 99.4979 108.71 99.6326 108.71C99.7672 108.71 99.9019 108.845 100.171 108.845C100.306 108.845 100.306 108.845 100.44 108.845C100.71 108.845 100.979 108.979 101.248 108.979H139.62C141.236 108.845 142.448 108.171 143.39 106.69C144.467 104.94 144.467 102.786 143.525 100.901C143.794 102.517 143.659 104.132 142.851 105.479Z" fill="url(#paint30_linear_909_8292)"/>
<path d="M163.047 73.7042C163.047 76.5316 165.067 77.6087 167.355 76.2623C169.779 74.9159 171.664 71.4153 171.664 68.7225C171.664 65.8951 169.644 64.818 167.355 66.1644C165.067 67.5108 163.047 70.8767 163.047 73.7042Z" fill="#B2ACA7"/>
<path d="M170.587 65.7605L167.625 64.0102C166.817 63.4716 165.74 63.6063 164.528 64.2795C162.105 65.6258 160.22 69.1264 160.22 71.8192C160.22 73.1656 160.758 74.1081 161.431 74.6466L164.393 76.3969C163.586 75.993 163.182 74.9159 163.182 73.5695C163.182 70.7421 165.201 67.3761 167.49 66.0297C168.702 65.3565 169.779 65.3566 170.587 65.7605Z" fill="#E6DED7"/>
<path opacity="0.5" d="M182.423 76.1849C182.423 76.0461 182.555 76.0461 182.555 75.9072C182.951 75.3519 183.083 74.6576 182.951 74.1022C182.687 74.3799 182.291 74.6576 181.895 74.9353C181.895 74.9353 181.895 74.7964 181.763 74.7964C181.236 74.2411 179.389 75.0741 178.993 75.4907C179.785 74.7964 181.631 70.9088 179.521 72.2973C178.465 72.9915 178.07 74.5188 177.41 75.3519C177.938 74.7965 177.278 73.6857 176.487 73.6857C174.772 73.6857 174.772 77.1569 175.827 78.1288C175.036 77.2957 173.057 77.2957 172.134 78.1288C169.1 77.2957 167.121 75.3518 165.67 72.8526C165.274 73.6857 165.142 74.5188 165.01 75.6295C164.878 78.1287 166.065 79.9337 166.857 82.1553C167.253 83.4049 167.78 84.7933 168.572 86.0429C169.363 87.1537 170.419 88.1256 172.002 87.9867C172.529 87.9867 172.925 87.7091 173.453 87.7091C173.848 87.7091 174.244 87.8479 174.64 87.8479C175.959 87.9868 177.41 87.1537 178.07 85.9041C178.202 85.6264 178.334 85.2099 178.597 85.071C178.729 84.9322 178.993 84.9322 179.257 84.7933C180.18 84.5156 180.84 83.6826 180.84 82.7106C180.84 82.4329 180.84 82.1552 180.972 81.7387C181.236 80.7668 182.423 80.2114 182.555 79.2395C182.687 78.5453 182.423 77.2957 182.291 76.7403C182.423 76.4626 182.291 76.3237 182.423 76.1849Z" fill="#423C3C"/>
<path d="M168.298 83.5327C169.106 84.6098 170.183 85.5523 171.799 85.4177C172.337 85.4177 172.741 85.1484 173.28 85.1484C173.684 85.1484 174.087 85.283 174.491 85.283C175.838 85.4177 177.319 84.6099 177.992 83.3981C178.127 83.1288 178.261 82.7249 178.531 82.5903C178.665 82.4556 178.934 82.4556 179.204 82.321C180.146 82.0517 180.819 81.2439 180.819 80.3014C180.819 80.0321 180.819 79.7629 180.954 79.359C181.223 78.4165 182.435 77.8779 182.57 76.9355C182.704 76.2623 182.435 75.0505 182.3 74.512C182.3 74.3773 182.3 74.2427 182.3 74.108C182.3 73.9734 182.435 73.9734 182.435 73.8388C182.839 73.3002 183.108 72.4924 182.839 71.8192C182.57 71.146 181.896 70.6074 181.223 70.7421C181.223 70.4728 181.358 70.3382 181.493 70.0689C181.627 69.7996 181.493 69.3957 181.223 69.1265C179.877 67.7801 177.319 67.6454 175.568 67.3761C173.684 67.1069 171.799 66.9722 169.914 66.8376C168.567 66.8376 165.067 68.4533 164.797 73.1656C164.663 75.5891 165.875 77.3394 166.682 79.4936C166.952 80.84 167.49 82.321 168.298 83.5327Z" fill="url(#paint31_linear_909_8292)"/>
<path opacity="0.5" d="M178.8 81.1093C177.857 81.2439 177.184 78.8204 177.319 78.1472C177.319 79.7629 177.184 81.5132 176.915 83.1289C176.78 83.9367 175.568 85.4177 174.761 84.206C174.222 83.3981 175.703 80.7054 176.242 80.0322C175.299 80.84 174.895 81.9171 174.222 82.8596C173.818 83.3981 173.145 84.0713 172.606 84.206C172.337 84.3406 171.933 84.3406 171.799 84.0714C171.395 83.6674 171.664 82.9942 171.933 82.5903C172.741 81.3786 174.222 79.2244 175.434 78.6858C174.357 79.2244 173.549 80.0322 172.472 80.7054C172.202 80.84 170.991 81.3786 170.721 81.1093C170.587 80.9747 170.452 80.5707 170.587 80.4361C170.856 79.359 173.684 78.2819 174.626 78.0126C173.414 78.4165 170.318 78.4165 171.529 76.2623C172.203 75.0506 174.626 74.9159 175.703 75.8584C174.761 74.9159 174.626 71.6846 176.376 71.55C177.184 71.55 177.723 72.4925 177.319 73.1656C177.992 72.2232 178.396 70.7421 179.473 70.2036C181.762 68.8572 179.742 72.6271 178.934 73.3003C179.338 72.8964 181.223 72.2232 181.762 72.6271C182.57 73.4349 179.742 75.1852 178.934 75.3199C179.473 75.1852 180.55 74.9159 181.089 75.1852C182.3 75.993 181.358 77.2048 180.281 77.474C179.608 77.6087 179.069 77.3394 178.396 77.2048C178.8 77.878 179.473 78.4165 179.742 78.9551C180.146 79.8975 179.608 80.9747 178.8 81.1093Z" fill="#E78B4B"/>
<defs>
<linearGradient id="paint0_linear_909_8292" x1="181.46" y1="19.4805" x2="176.149" y2="28.6785" gradientUnits="userSpaceOnUse">
<stop stop-color="#FFA373"/>
<stop offset="0.3497" stop-color="#FC9D6F"/>
<stop offset="0.8315" stop-color="#F58B63"/>
<stop offset="1" stop-color="#F2835E"/>
</linearGradient>
<linearGradient id="paint1_linear_909_8292" x1="181.427" y1="19.5404" x2="176.15" y2="28.6793" gradientUnits="userSpaceOnUse">
<stop stop-color="#AA4744"/>
<stop offset="1" stop-color="#7F2A27"/>
</linearGradient>
<linearGradient id="paint2_linear_909_8292" x1="198.043" y1="30.6569" x2="194.809" y2="36.5115" gradientUnits="userSpaceOnUse">
<stop stop-color="#AA4744"/>
<stop offset="1"/>
</linearGradient>
<linearGradient id="paint3_linear_909_8292" x1="196.878" y1="29.9658" x2="196.177" y2="35.8312" gradientUnits="userSpaceOnUse">
<stop stop-color="#DB7A6B"/>
<stop offset="1"/>
</linearGradient>
<linearGradient id="paint4_linear_909_8292" x1="159.445" y1="15.6623" x2="154.135" y2="24.8602" gradientUnits="userSpaceOnUse">
<stop stop-color="#FFA373"/>
<stop offset="0.3497" stop-color="#FC9D6F"/>
<stop offset="0.8315" stop-color="#F58B63"/>
<stop offset="1" stop-color="#F2835E"/>
</linearGradient>
<linearGradient id="paint5_linear_909_8292" x1="159.413" y1="15.7222" x2="154.136" y2="24.861" gradientUnits="userSpaceOnUse">
<stop stop-color="#AA4744"/>
<stop offset="1" stop-color="#7F2A27"/>
</linearGradient>
<linearGradient id="paint6_linear_909_8292" x1="176.029" y1="26.8387" x2="172.795" y2="32.6932" gradientUnits="userSpaceOnUse">
<stop stop-color="#AA4744"/>
<stop offset="1"/>
</linearGradient>
<linearGradient id="paint7_linear_909_8292" x1="174.864" y1="26.1476" x2="174.163" y2="32.0131" gradientUnits="userSpaceOnUse">
<stop stop-color="#DB7A6B"/>
<stop offset="1"/>
</linearGradient>
<linearGradient id="paint8_linear_909_8292" x1="186.792" y1="54.416" x2="176.201" y2="55.2266" gradientUnits="userSpaceOnUse">
<stop stop-color="#FFA373"/>
<stop offset="0.3497" stop-color="#FC9D6F"/>
<stop offset="0.8315" stop-color="#F58B63"/>
<stop offset="1" stop-color="#F2835E"/>
</linearGradient>
<linearGradient id="paint9_linear_909_8292" x1="184.362" y1="73.4814" x2="181.594" y2="78.2747" gradientUnits="userSpaceOnUse">
<stop stop-color="#AA4744"/>
<stop offset="1" stop-color="#7F2A27"/>
</linearGradient>
<linearGradient id="paint10_linear_909_8292" x1="133.366" y1="20.0561" x2="105.158" y2="68.9156" gradientUnits="userSpaceOnUse">
<stop stop-color="#FFC896"/>
<stop offset="0.2433" stop-color="#FEC490"/>
<stop offset="0.5792" stop-color="#F9B87E"/>
<stop offset="0.9676" stop-color="#F3A461"/>
<stop offset="1" stop-color="#F2A25E"/>
</linearGradient>
<linearGradient id="paint11_linear_909_8292" x1="133.827" y1="19.0762" x2="110.64" y2="59.5185" gradientUnits="userSpaceOnUse">
<stop stop-color="#F0C7B6"/>
<stop offset="0.0585592" stop-color="#EEC2AC"/>
<stop offset="0.3562" stop-color="#E6AA80"/>
<stop offset="0.6229" stop-color="#E09960"/>
<stop offset="0.8466" stop-color="#DC8F4D"/>
<stop offset="1" stop-color="#DB8B46"/>
</linearGradient>
<linearGradient id="paint12_linear_909_8292" x1="104.108" y1="59.134" x2="100.682" y2="63.5852" gradientUnits="userSpaceOnUse">
<stop stop-color="#EAEAEA"/>
<stop offset="1" stop-color="#CACACA"/>
</linearGradient>
<linearGradient id="paint13_linear_909_8292" x1="81.614" y1="43.748" x2="67.0054" y2="69.0509" gradientUnits="userSpaceOnUse">
<stop stop-color="#AA4744"/>
<stop offset="1" stop-color="#7F2A27"/>
</linearGradient>
<linearGradient id="paint14_linear_909_8292" x1="81.7277" y1="43.997" x2="67.213" y2="69.1372" gradientUnits="userSpaceOnUse">
<stop stop-color="#AA4744"/>
<stop offset="1" stop-color="#7F2A27"/>
</linearGradient>
<linearGradient id="paint15_linear_909_8292" x1="39.6476" y1="63.624" x2="34.3373" y2="72.8219" gradientUnits="userSpaceOnUse">
<stop stop-color="#FFA373"/>
<stop offset="0.3497" stop-color="#FC9D6F"/>
<stop offset="0.8315" stop-color="#F58B63"/>
<stop offset="1" stop-color="#F2835E"/>
</linearGradient>
<linearGradient id="paint16_linear_909_8292" x1="39.6147" y1="63.6839" x2="34.3385" y2="72.8226" gradientUnits="userSpaceOnUse">
<stop stop-color="#AA4744"/>
<stop offset="1" stop-color="#7F2A27"/>
</linearGradient>
<linearGradient id="paint17_linear_909_8292" x1="56.2309" y1="74.8005" x2="52.9969" y2="80.6551" gradientUnits="userSpaceOnUse">
<stop stop-color="#AA4744"/>
<stop offset="1"/>
</linearGradient>
<linearGradient id="paint18_linear_909_8292" x1="55.0665" y1="74.1095" x2="54.3653" y2="79.9749" gradientUnits="userSpaceOnUse">
<stop stop-color="#DB7A6B"/>
<stop offset="1"/>
</linearGradient>
<linearGradient id="paint19_linear_909_8292" x1="79.593" y1="87.0929" x2="74.2826" y2="96.2907" gradientUnits="userSpaceOnUse">
<stop stop-color="#FFA373"/>
<stop offset="0.3497" stop-color="#FC9D6F"/>
<stop offset="0.8315" stop-color="#F58B63"/>
<stop offset="1" stop-color="#F2835E"/>
</linearGradient>
<linearGradient id="paint20_linear_909_8292" x1="79.5602" y1="87.1527" x2="74.2839" y2="96.2915" gradientUnits="userSpaceOnUse">
<stop stop-color="#AA4744"/>
<stop offset="1" stop-color="#7F2A27"/>
</linearGradient>
<linearGradient id="paint21_linear_909_8292" x1="96.1763" y1="98.2694" x2="92.9422" y2="104.124" gradientUnits="userSpaceOnUse">
<stop stop-color="#AA4744"/>
<stop offset="1"/>
</linearGradient>
<linearGradient id="paint22_linear_909_8292" x1="95.012" y1="97.5782" x2="94.3106" y2="103.444" gradientUnits="userSpaceOnUse">
<stop stop-color="#DB7A6B"/>
<stop offset="1"/>
</linearGradient>
<linearGradient id="paint23_linear_909_8292" x1="52.5625" y1="81.9501" x2="47.2521" y2="91.1481" gradientUnits="userSpaceOnUse">
<stop stop-color="#FFA373"/>
<stop offset="0.3497" stop-color="#FC9D6F"/>
<stop offset="0.8315" stop-color="#F58B63"/>
<stop offset="1" stop-color="#F2835E"/>
</linearGradient>
<linearGradient id="paint24_linear_909_8292" x1="52.5295" y1="82.0099" x2="47.2533" y2="91.1486" gradientUnits="userSpaceOnUse">
<stop stop-color="#AA4744"/>
<stop offset="1" stop-color="#7F2A27"/>
</linearGradient>
<linearGradient id="paint25_linear_909_8292" x1="69.1457" y1="93.1266" x2="65.9118" y2="98.9811" gradientUnits="userSpaceOnUse">
<stop stop-color="#AA4744"/>
<stop offset="1"/>
</linearGradient>
<linearGradient id="paint26_linear_909_8292" x1="67.9813" y1="92.4353" x2="67.2801" y2="98.3008" gradientUnits="userSpaceOnUse">
<stop stop-color="#DB7A6B"/>
<stop offset="1"/>
</linearGradient>
<linearGradient id="paint27_linear_909_8292" x1="161.467" y1="86.5499" x2="166.778" y2="95.7478" gradientUnits="userSpaceOnUse">
<stop stop-color="#FFA373"/>
<stop offset="0.3497" stop-color="#FC9D6F"/>
<stop offset="0.8315" stop-color="#F58B63"/>
<stop offset="1" stop-color="#F2835E"/>
</linearGradient>
<linearGradient id="paint28_linear_909_8292" x1="170.48" y1="79.6209" x2="158.343" y2="101.594" gradientUnits="userSpaceOnUse">
<stop stop-color="#AA4744"/>
<stop offset="1" stop-color="#7F2A27"/>
</linearGradient>
<linearGradient id="paint29_linear_909_8292" x1="120.245" y1="98.4446" x2="120.25" y2="109.064" gradientUnits="userSpaceOnUse">
<stop stop-color="#FFA373"/>
<stop offset="0.3497" stop-color="#FC9D6F"/>
<stop offset="0.8315" stop-color="#F58B63"/>
<stop offset="1" stop-color="#F2835E"/>
</linearGradient>
<linearGradient id="paint30_linear_909_8292" x1="120.248" y1="100.784" x2="120.252" y2="109.064" gradientUnits="userSpaceOnUse">
<stop stop-color="#AA4744"/>
<stop offset="1" stop-color="#7F2A27"/>
</linearGradient>
<linearGradient id="paint31_linear_909_8292" x1="179.838" y1="66.7027" x2="168.38" y2="81.801" gradientUnits="userSpaceOnUse">
<stop stop-color="#FFC896"/>
<stop offset="0.2433" stop-color="#FEC490"/>
<stop offset="0.5792" stop-color="#F9B87E"/>
<stop offset="0.9676" stop-color="#F3A461"/>
<stop offset="1" stop-color="#F2A25E"/>
</linearGradient>
</defs>
</svg>
