<svg width="188" height="215" viewBox="0 0 188 215" fill="none" xmlns="http://www.w3.org/2000/svg">
<path d="M46.3657 119.854L72.1066 104.907L92.213 116.473L66.4128 131.419L46.3657 119.854Z" fill="url(#paint0_linear_909_8768)"/>
<path d="M103.008 119.854L128.808 104.907L148.855 116.473L123.114 131.419L103.008 119.854Z" fill="url(#paint1_linear_909_8768)"/>
<path d="M155.999 93.226L154.694 92.455L156.414 94.8274L157.659 95.5984L155.999 93.226Z" fill="#C6C6C6"/>
<path d="M154.753 91.506L153.508 90.7943L154.694 92.455L155.999 93.226L154.753 91.506Z" fill="#C6C6C6"/>
<path d="M179.664 57.936L178.418 57.2243C177.825 56.8684 177.054 56.9277 176.164 57.4615L177.41 58.1733C178.3 57.6988 179.071 57.6395 179.664 57.936Z" fill="#C6C6C6"/>
<path d="M149.949 91.7433L151.195 92.455C150.661 92.0991 150.305 91.4467 150.305 90.4384L149.059 89.7267C149.059 90.735 149.415 91.4467 149.949 91.7433Z" fill="#C6C6C6"/>
<path d="M150.305 77.4493L149 76.6783L149.059 89.7267L150.305 90.4977V77.4493Z" fill="#C6C6C6"/>
<path d="M177.41 58.1733L176.164 57.4615L152.144 71.281L153.389 72.052L177.41 58.1733Z" fill="#C6C6C6"/>
<path d="M153.389 72.0521L152.143 71.3403C150.423 72.3486 149 74.7804 149 76.7376L150.246 77.4494C150.305 75.4328 151.669 73.001 153.389 72.0521Z" fill="#C6C6C6"/>
<path d="M153.389 72.052C151.669 73.0603 150.245 75.4921 150.245 77.4493L150.305 90.4977C150.305 92.5143 151.728 93.2853 153.448 92.2771L154.753 91.506L155.939 93.226L157.6 95.5984L159.261 91.3281L160.447 88.2439L177.41 78.4576C179.13 77.4493 180.553 75.0176 180.553 73.0603L180.494 60.0119C180.494 57.9953 179.071 57.2243 177.351 58.2326L153.389 72.052Z" fill="#EDEDED"/>
<path d="M170.826 72.6451C170.826 73.9499 171.716 74.4837 172.843 73.8313C173.97 73.1789 174.86 71.6368 174.86 70.332C174.86 69.0271 173.97 68.4933 172.843 69.1458C171.716 69.7982 170.826 71.3996 170.826 72.6451Z" fill="white"/>
<path d="M163.413 76.9747C163.413 78.2796 164.302 78.8134 165.429 78.161C166.556 77.5085 167.446 75.9665 167.446 74.6616C167.446 73.3568 166.556 72.823 165.429 73.4754C164.302 74.0685 163.413 75.6699 163.413 76.9747Z" fill="white"/>
<path d="M155.999 81.2451C155.999 82.55 156.888 83.0838 158.015 82.4314C159.142 81.7789 160.032 80.2369 160.032 78.932C160.032 77.6272 159.142 77.0934 158.015 77.7458C156.888 78.3389 155.999 79.9403 155.999 81.2451Z" fill="white"/>
<path d="M49.3315 118.312L66.4724 108.347L66.4131 131.419L49.2722 141.384L49.3315 118.312Z" fill="#B92C31"/>
<path d="M29.2251 106.687L46.4253 96.7225L66.4723 108.347L49.3315 118.312L29.2251 106.687Z" fill="#EE353C"/>
<path d="M49.3315 118.312L49.2721 141.384L29.1658 129.818L29.2251 106.687L49.3315 118.312Z" fill="#FF484F"/>
<path d="M51.8225 25.49L68.9634 15.5258L65.3454 94.1721L48.1453 104.136L51.8225 25.49Z" fill="#B92C31"/>
<path d="M27.3271 11.3148L44.468 1.35052L68.9634 15.5258L51.8226 25.4901L27.3271 11.3148Z" fill="#EE353C"/>
<path d="M51.8226 25.4901L48.1453 104.136L30.4706 93.9348L27.3271 11.3148L51.8226 25.4901Z" fill="#FF484F"/>
<path d="M106.033 118.312L123.173 108.347L123.114 131.419L105.973 141.384L106.033 118.312Z" fill="#B92C31"/>
<path d="M85.9261 106.687L103.067 96.7225L123.173 108.347L106.033 118.312L85.9261 106.687Z" fill="#FF484F"/>
<path d="M106.033 118.312L105.973 141.384L85.8668 129.818L85.9262 106.687L106.033 118.312Z" fill="#EE353C"/>
<path d="M145.237 52.5951C145.178 66.1773 137.764 70.7443 131.892 74.8367C126.258 78.8106 123.885 84.3858 123.944 92.5114V95.6549L106.804 105.619V102.476C106.744 94.35 109.117 88.8341 114.692 84.801C120.623 80.7085 128.037 76.2009 128.096 62.5594C128.155 47.8503 118.844 29.4639 98.4407 17.661C87.3496 11.2554 78.2157 9.47612 72.5812 10.0692L89.722 0.104997C95.3565 -0.488112 104.55 1.35052 115.582 7.69679C135.985 19.4997 145.296 37.886 145.237 52.5951Z" fill="#B92C31"/>
<path d="M98.3814 17.7203C118.784 29.5232 128.096 47.9095 128.037 62.6186C127.978 76.2008 120.564 80.7678 114.633 84.8602C108.998 88.8341 106.626 94.4093 106.685 102.535V105.678L86.104 93.8162L85.9261 89.1899C85.5109 79.8188 88.1206 72.0491 95.06 66.5925C100.042 62.6186 104.135 59.1786 104.135 53.2475C104.135 47.0792 100.635 40.8516 92.9248 36.166C87.7054 33.1411 81.5964 31.6584 77.504 32.548L72.4032 10.1878C78.1564 9.53539 87.3496 11.3147 98.3814 17.7203Z" fill="#EE353C"/>
<path d="M163.608 174.528L123.943 197.409C117.429 201.166 117.429 207.262 123.943 211.02C130.456 214.778 141.061 214.778 147.575 211.02L187.24 188.139L163.608 174.528Z" fill="url(#paint2_linear_909_8768)"/>
<path d="M159.266 137.619C159.266 137.619 160.351 136.784 161.019 136.951C161.687 137.118 161.437 137.869 160.769 138.203C160.184 138.537 159.015 138.871 159.015 138.871C159.015 138.871 159.099 139.539 159.6 139.706C160.101 139.873 161.27 140.04 161.103 140.625C160.936 141.209 160.184 141.209 159.767 141.126C159.349 141.042 159.182 141.126 159.182 141.293C159.182 141.46 160.101 141.627 160.017 142.044C159.934 142.462 159.182 142.712 158.514 142.211C157.846 141.71 158.013 142.712 157.679 142.879C157.345 143.13 156.844 142.462 156.51 142.712C156.176 143.046 155.508 143.297 154.923 142.796C154.339 142.295 153.42 141.042 153.671 138.788L159.266 137.619Z" fill="#FDB58C"/>
<path d="M110.749 145.134C110.749 145.134 108.494 145.385 107.576 145.134C106.657 144.884 105.154 145.134 104.236 145.468C103.4 145.802 101.647 145.301 101.396 146.053C101.146 146.721 101.313 147.222 102.148 147.222C102.983 147.305 104.319 146.888 104.319 147.472C104.403 148.057 103.901 148.725 103.15 148.975C102.398 149.309 101.396 149.894 100.728 149.894C100.06 149.894 99.8932 150.395 100.06 150.812C100.227 151.23 100.227 151.481 101.062 151.648C101.062 151.648 101.396 151.815 101.48 152.065C101.563 152.316 101.897 152.399 102.315 152.399C102.732 152.399 104.319 151.982 104.486 151.898C104.486 151.898 105.238 152.149 106.073 151.982C106.908 151.815 110.999 149.643 111.417 148.975L112.67 147.305L111.835 145.468L110.749 145.134Z" fill="#FDB58C"/>
<path d="M146.656 198.828C146.656 198.828 145.654 199.329 145.738 200.582C145.821 201.835 146.322 202.586 146.907 203.087C147.491 203.588 148.326 203.755 148.66 204.674C148.994 205.592 149.161 206.928 150.748 207.012C152.335 207.095 153.754 206.928 153.504 204.924L146.656 198.828Z" fill="white"/>
<path d="M136.302 206.761C136.302 206.761 136.719 208.181 135.049 208.765C133.379 209.35 131.625 208.181 129.788 207.596C127.867 207.012 123.442 206.26 122.607 204.757C121.772 203.254 121.438 201.333 123.108 200.749L136.302 206.761Z" fill="white"/>
<path d="M153.086 199.413C153.086 199.413 153.253 202.419 153.42 203.421C153.671 204.423 153.42 205.008 153.42 205.008C153.42 205.008 150.748 205.843 149.328 204.757C147.909 203.755 149.495 203.672 147.157 201.835C147.157 201.835 144.986 198.912 147.324 198.578L153.086 199.413Z" fill="#242424"/>
<path d="M135.968 201.333L136.302 206.761C136.302 206.761 135.55 207.763 133.713 207.596C131.876 207.429 130.373 206.344 128.536 206.26C126.699 206.177 122.857 204.006 122.607 202.168C122.44 200.331 123.943 200.582 124.694 200.665C125.446 200.749 127.283 201.417 128.953 199.997L135.968 201.333Z" fill="#242424"/>
<path d="M148.577 149.811C148.577 149.811 148.66 153.568 149.245 155.405C149.829 157.243 149.746 165.844 149.579 167.931C149.412 170.019 150.497 176.449 150.497 176.449C150.497 176.449 155.341 188.975 153.337 198.828C153.337 198.828 153.253 200.415 151.249 200.415C149.245 200.498 147.408 198.578 147.408 198.578C147.408 198.578 146.907 188.056 145.153 184.382C143.399 180.708 141.646 171.188 138.139 167.681C134.631 164.09 136.635 153.318 136.635 153.318L148.577 149.811Z" fill="#343C4B"/>
<path d="M141.312 152.483C141.312 152.483 143.901 157.159 139.308 166.178C134.715 175.196 136.636 185.384 136.636 185.384C136.636 185.384 138.055 196.156 136.051 202.085C136.051 202.085 133.964 207.012 128.786 201.668C128.786 201.668 130.039 188.808 128.786 184.048C127.534 179.288 124.861 156.241 128.786 151.481L141.312 152.483Z" fill="#343C4B"/>
<path d="M144.235 113.068C144.235 113.068 143.734 112.233 144.235 109.31C144.736 106.388 146.489 103.131 144.569 100.041C142.648 97.035 140.477 96.2 137.888 96.534C135.3 96.868 132.293 97.8701 131.208 100.208C131.208 100.208 130.874 101.21 130.957 103.298C131.041 105.386 130.373 105.636 131.208 106.972C131.959 108.308 131.291 109.143 131.291 109.978C131.291 110.813 134.13 115.49 135.3 115.74L144.235 113.068Z" fill="#FDB58C"/>
<path d="M133.128 108.893C133.128 108.893 132.711 106.889 134.047 107.39C135.383 107.891 137.053 111.314 138.139 111.815C139.224 112.316 142.397 112.066 144.068 111.314C145.738 110.479 144.569 108.058 145.988 104.801C147.408 101.544 144.235 96.868 141.395 96.1999C138.556 95.5319 131.375 96.4504 131.208 100.292C130.957 104.133 131.542 102.88 131.625 104.634C131.792 106.388 132.627 108.726 132.627 108.726L133.128 108.893Z" fill="#343434"/>
<path d="M144.569 112.066C144.569 112.066 144.736 113.736 145.654 114.237C146.573 114.738 153.587 116.241 154.673 118.496C155.758 120.751 156.259 130.27 153.337 138.37C150.414 146.554 151.416 148.725 148.994 150.813C146.573 152.9 139.391 155.823 128.786 153.151C128.786 153.151 127.116 153.151 127.533 149.894C127.951 146.637 127.951 136.784 127.199 133.109C126.448 129.435 124.611 121.753 126.782 119.08C126.782 119.08 129.955 118.078 131.208 117.16C132.46 116.241 134.464 115.907 134.464 115.907L135.884 113.653C135.884 113.653 137.053 112.567 139.558 112.651C142.147 112.901 144.569 112.066 144.569 112.066Z" fill="#6E6666"/>
<path d="M126.782 119.164C126.782 119.164 125.028 119.832 124.444 122.838C123.859 125.844 124.193 136.116 120.519 139.79C116.845 143.464 110.749 145.134 110.749 145.134C110.749 145.134 112.419 147.556 111.5 148.975C111.5 148.975 121.605 148.558 123.609 147.806C125.613 147.055 129.621 144.383 129.621 144.383C133.212 133.527 132.043 125.26 126.782 119.164Z" fill="#6E6666"/>
<path d="M154.172 117.828C154.172 117.828 156.928 121.753 156.844 126.178C156.761 130.688 160.184 134.529 159.85 137.368C159.516 140.207 156.176 141.71 155.424 141.293C154.673 140.875 153.671 140.291 153.253 136.867L154.172 117.828Z" fill="#6E6666"/>
<path d="M48.3496 174.954L8.68451 197.835C2.17108 201.593 2.17108 207.689 8.68451 211.446C15.1979 215.204 25.8031 215.204 32.3166 211.446L71.9817 188.566L48.3496 174.954Z" fill="url(#paint3_linear_909_8768)"/>
<path d="M7.5155 146.729C7.5155 146.729 4.59279 146.813 3.00618 146.145C1.41957 145.56 0 138.629 0 136.876C0 135.122 0.584524 129.694 0.584524 129.026C0.584524 128.358 1.58659 125.686 3.00618 126.02C4.50928 126.27 7.5155 146.729 7.5155 146.729Z" fill="#E6E8EC"/>
<path d="M10.5215 202.344C10.5215 202.344 12.6092 203.43 13.5277 203.012L12.1916 199.839H10.1875L10.5215 202.344Z" fill="#6C6C6C"/>
<path d="M24.5505 207.689V209.526C24.5505 209.526 25.7196 210.361 27.8072 210.695L26.4712 207.354L24.5505 207.689Z" fill="#6C6C6C"/>
<path d="M9.18559 197C9.18559 197 8.10001 199.338 9.51961 201.008L10.1876 205.434C10.1876 205.434 10.5217 205.601 10.6887 205.434C10.8557 205.35 10.7722 201.008 10.7722 201.008C10.7722 201.008 11.6072 200.173 11.8578 200.59C12.1083 201.008 12.6928 202.929 13.4444 202.929C14.1959 202.929 15.7825 201.426 15.532 199.755C15.2815 198.085 14.4464 198.085 13.4444 198.169C12.4423 198.169 10.9392 196.332 10.9392 196.332L9.18559 197Z" fill="#242424"/>
<path d="M24.1331 203.68C24.1331 203.68 22.7135 204.348 22.797 206.102C22.8805 207.772 23.298 207.855 23.3816 208.273C23.4651 208.691 23.8826 212.448 23.8826 212.448C23.8826 212.615 24.4671 212.615 24.4671 212.448L24.5506 208.189L25.9702 208.022C25.9702 208.022 26.8888 210.945 28.2249 210.945C29.561 210.945 30.396 209.526 30.563 208.691C30.73 207.855 30.396 205.016 28.1414 205.601L25.1351 203.597L24.1331 203.68Z" fill="#242424"/>
<path d="M5.59471 180.8C5.59471 180.8 4.25862 185.726 6.84729 190.987C9.43597 196.165 9.35248 196.081 9.18546 197C9.18546 197 11.6906 196.749 12.6092 198.67C13.5277 200.59 14.4463 200.256 14.5298 199.839C14.5298 199.338 13.6113 198.503 13.2772 197.334C12.9432 196.165 11.9411 195.163 11.7741 193.91C11.6071 192.657 10.8556 182.887 11.3566 180.967C11.8576 179.046 12.9432 175.205 12.9432 174.036L10.1875 171.781L5.59471 180.8Z" fill="#FDB58C"/>
<path d="M18.2041 182.386C18.2041 182.386 20.3753 185.893 20.3753 186.562C20.3753 187.146 19.9577 191.822 21.9619 195.58C23.966 199.338 24.467 202.845 24.133 203.764C24.133 203.764 26.3876 204.682 26.8887 205.935C27.3897 207.187 28.3083 208.44 28.6423 208.189C28.9763 207.939 29.4774 207.354 29.0598 206.77C28.6423 206.269 28.4753 206.603 28.4753 205.016C28.3918 203.43 27.8908 201.509 27.8908 201.509C27.8908 201.509 27.5567 189.818 25.8866 186.812C25.8866 186.812 25.8031 184.056 25.7196 183.472C25.5526 182.804 18.2041 182.386 18.2041 182.386Z" fill="#FDB58C"/>
<path d="M16.2001 127.356C15.9496 126.354 15.8661 125.018 16.2001 123.264C16.2001 123.264 17.1187 123.264 17.5362 122.93C17.9537 122.596 18.3712 121.01 18.7888 120.676C19.2063 120.342 19.9578 118.588 19.7908 117.67C19.7073 116.751 19.6238 114.914 19.7908 114.329C19.9578 113.745 19.7908 110.906 18.0372 110.071C16.2836 109.235 12.0248 107.565 9.51965 110.405C7.01448 113.244 8.18357 116.834 8.76811 118.087C9.35264 119.256 8.93512 123.682 8.35058 125.102L16.2001 127.356Z" fill="#FDB58C"/>
<path d="M26.471 183.472C19.7906 192.49 3.08945 180.967 3.08945 180.967C1.75336 164.015 6.76369 151.656 6.76369 151.656C11.774 154.996 17.0349 156.165 22.4628 155.247C25.7195 161.927 26.471 172.031 26.471 183.472Z" fill="#493B3A"/>
<path d="M23.8825 141.636C22.7135 143.556 21.5444 151.907 22.5465 155.163C17.1186 156.082 11.8577 154.913 6.84741 151.573C7.01442 149.652 7.09794 145.978 6.17938 144.224C3.34019 138.713 1.41955 134.204 1.00202 131.531C0.500988 128.859 1.08553 126.271 1.92059 125.686C2.75564 125.101 3.50719 125.519 4.42575 125.686C5.34432 125.853 8.60103 124.183 8.60103 124.183C10.6887 125.686 13.1103 126.438 16.033 126.02L23.2145 131.949C23.2145 132.032 26.2207 137.878 23.8825 141.636Z" fill="#F3F4F6"/>
<path d="M14.9473 129.778C14.9473 129.778 13.4442 127.022 15.1143 122.095L7.01424 119.757C7.01424 119.757 5.09361 124.35 6.59671 126.605C8.09981 128.859 3.674 130.446 5.51113 133.285C7.18124 135.874 16.4504 134.371 14.9473 129.778Z" fill="#373737"/>
<path d="M22.463 155.247C17.0351 156.165 11.7742 154.996 6.76392 151.656C6.76392 151.656 6.84743 150.487 6.84743 149.068C7.09794 151.072 17.1186 154.746 22.129 153.41C22.2125 153.744 22.3795 154.913 22.463 155.247Z" fill="#373737"/>
<path d="M15.1143 122.095C15.1143 122.095 8.2669 122.429 7.26483 121.678C6.26276 120.926 7.76587 118.421 7.01432 116.584C6.34628 114.747 8.01638 108.233 10.5215 107.315C13.0267 106.396 18.1205 107.565 19.7072 109.82C21.2938 112.075 21.6278 113.077 20.5422 114.58C19.4566 116.083 18.2041 115.331 17.536 117.419C16.868 119.674 15.1143 122.095 15.1143 122.095Z" fill="#373737"/>
<path d="M23.7156 163.43C23.7156 163.43 23.9661 167.94 24.0497 168.524C24.1332 169.109 23.1311 171.363 22.63 171.697C22.2125 172.031 20.9599 173.535 19.4568 172.533C19.4568 172.533 19.0393 172.115 19.6239 171.363C20.2084 170.528 20.4589 170.361 20.4589 169.109C20.4589 167.94 20.2084 166.52 20.7094 165.435C21.294 164.349 21.294 164.182 21.3775 163.597L23.7156 163.43Z" fill="#FDB58C"/>
<path d="M18.7888 140.55C18.7888 140.55 19.7909 153.076 20.0414 153.827C20.2919 154.579 20.6259 160.675 20.6259 162.178C20.6259 162.512 20.6259 164.099 20.6259 164.85C20.6259 165.101 20.7929 165.268 21.0435 165.268C22.0455 165.435 24.4672 165.351 24.6342 163.764C24.8847 161.51 25.0517 160.09 25.1352 159.422C25.3857 158.086 25.3022 152.408 24.8847 150.738C24.4672 149.068 25.1352 136.291 25.3022 135.206C25.4693 134.037 23.6321 131.949 23.2981 132.116C22.7971 132.199 19.6239 134.872 18.7888 140.55Z" fill="#E6E8EC"/>
<defs>
<linearGradient id="paint0_linear_909_8768" x1="57.2048" y1="125.12" x2="82.0097" y2="110.799" gradientUnits="userSpaceOnUse">
<stop stop-color="#CCD6FF"/>
<stop offset="0.2717" stop-color="#DEE4FF"/>
<stop offset="0.7226" stop-color="#F6F8FF"/>
<stop offset="1" stop-color="white"/>
</linearGradient>
<linearGradient id="paint1_linear_909_8768" x1="113.896" y1="125.12" x2="138.7" y2="110.799" gradientUnits="userSpaceOnUse">
<stop stop-color="#CCD6FF"/>
<stop offset="0.2717" stop-color="#DEE4FF"/>
<stop offset="0.7226" stop-color="#F6F8FF"/>
<stop offset="1" stop-color="white"/>
</linearGradient>
<linearGradient id="paint2_linear_909_8768" x1="123.957" y1="211.1" x2="149.69" y2="166.531" gradientUnits="userSpaceOnUse">
<stop stop-color="#D4D5D7"/>
<stop offset="1" stop-color="white"/>
</linearGradient>
<linearGradient id="paint3_linear_909_8768" x1="8.6987" y1="211.526" x2="34.4314" y2="166.957" gradientUnits="userSpaceOnUse">
<stop stop-color="#D4D5D7"/>
<stop offset="1" stop-color="white"/>
</linearGradient>
</defs>
</svg>
