<svg width="67" height="56" viewBox="0 0 67 56" fill="none" xmlns="http://www.w3.org/2000/svg">
<path d="M67 0H0V55.7655C0 55.7655 6.24139 52.5091 14.6537 52.5091C30.6642 52.5091 40.4062 55.9826 52.5091 55.9826C62.9295 55.9826 67 48.1944 67 43.8526V0Z" fill="#D70222"/>
<path d="M27.3536 4.69467C22.3605 6.24145 22.1434 10.1762 22.6862 14.3824C23.3374 11.2617 27.4893 7.65254 32.2653 5.59017L32.3467 2.1167C32.1568 2.55088 31.7497 3.33784 27.3536 4.69467Z" fill="#B0D033"/>
<path d="M32.2925 2.30662C32.3196 2.22521 32.3468 2.17094 32.3468 2.1438L32.2925 2.30662Z" fill="#B0D033"/>
<mask id="mask0_909_16763" style="mask-type:luminance" maskUnits="userSpaceOnUse" x="22" y="2" width="11" height="13">
<path d="M31.1526 5.04741C29.5244 6.86555 27.3535 6.94696 25.1555 8.65656C24.0429 9.52492 22.9031 11.2617 22.686 14.4095C22.7946 14.1924 22.9574 13.8939 23.2288 13.514C24.0157 12.4557 24.9384 11.8587 25.3997 11.6416C28.5475 10.1762 30.5828 9.98625 32.1567 8.19524C32.9165 7.32687 33.5135 5.40018 32.3195 2.1438C32.2381 2.82221 31.9938 4.09763 31.1526 5.04741Z" fill="white"/>
</mask>
<g mask="url(#mask0_909_16763)">
<path d="M22.415 2.14392L33.5139 1.87256L33.8124 14.3825L22.6864 14.6538L22.415 2.14392Z" fill="url(#paint0_linear_909_16763)"/>
</g>
<path d="M31.994 11.2888C30.5015 11.2888 29.1446 12.1029 28.4662 13.4326L23.1475 23.5274C23.0118 23.8259 22.5776 23.8259 22.4419 23.5274L17.096 13.4326C16.4176 12.13 15.0608 11.2888 13.5683 11.2888H9.66064V26.4581C9.66064 27.5436 10.5561 28.4391 11.6416 28.4391H13.9753V18.3172C13.9753 17.9101 14.5452 17.7744 14.7352 18.1272L19.7283 27.5707C19.9997 28.0863 20.5424 28.4391 21.1394 28.4391H24.45C25.047 28.4391 25.5898 28.1134 25.8611 27.5707L30.9085 18.0187C31.0985 17.6388 31.6683 17.7744 31.6683 18.2086V26.4581C31.6683 27.5436 32.5638 28.4391 33.6493 28.4391H36.0102V11.2888H31.994Z" fill="white"/>
<path d="M49.5512 11.2888H38.0996V26.4581C38.0996 27.5436 38.9951 28.4391 40.0806 28.4391H42.3872V23.0661C42.3872 22.849 42.5771 22.659 42.7942 22.659H49.5512C52.699 22.659 57.4751 21.7364 57.4751 16.9603C57.5022 12.3471 52.699 11.2888 49.5512 11.2888ZM49.1442 19.1041H42.3872V14.8166H49.1442C50.6638 14.8166 52.9975 15.2236 52.9975 16.9603C52.9975 18.7514 50.6909 19.1041 49.1442 19.1041Z" fill="white"/>
<path d="M9.74219 30.9084H10.7734L12.3744 33.0522L13.8941 30.9084H14.8981V35.4131H13.7855V32.6995L12.483 34.5176H12.1845L10.8548 32.6995V35.4131H9.74219V30.9084Z" fill="white"/>
<path d="M18.887 33.9206H18.0457L16.7703 35.4131H15.4678L16.9331 33.7307C16.2276 33.5407 15.8205 33.0794 15.8205 32.401C15.8205 31.5326 16.5261 30.8813 17.9101 30.8813H19.9996V35.4131H18.887V33.9206ZM18.887 32.998V31.8311H17.8287C17.1774 31.8311 16.9331 32.0482 16.9331 32.401C16.9331 32.7266 17.2588 32.9709 17.7744 32.9709H18.887V32.998Z" fill="white"/>
<path d="M25.4542 34.572C24.9928 35.169 24.2059 35.4946 23.3104 35.4946C21.7365 35.4946 20.7324 34.572 20.7324 33.1609C20.7324 31.8583 21.7636 30.8271 23.3375 30.8271C24.2602 30.8271 25.02 31.1799 25.3728 31.6955L24.6129 32.3197C24.3144 31.994 23.826 31.8041 23.4189 31.8041C22.5234 31.8041 21.8993 32.3468 21.8993 33.1609C21.8993 33.975 22.5506 34.5177 23.4189 34.5177C23.9888 34.5177 24.4501 34.3006 24.8029 33.9207L25.4542 34.572Z" fill="white"/>
<path d="M29.4159 33.6221H27.1907V35.4131H26.0781V30.9084H27.1907V32.6723H29.4159V30.9084H30.5285V35.4131H29.4159V33.6221Z" fill="white"/>
<path d="M31.5327 35.4131V30.9084H32.6453V33.6764L35.0876 30.9084H36.0102V35.4131H34.8976V32.6723L32.4282 35.4131H31.5327Z" fill="white"/>
<path d="M37.0146 30.9084H38.1272V34.4905H40.1353V30.9084H41.2479V34.4905H41.8449V36.1729H40.8138V35.4131H37.0146V30.9084Z" fill="white"/>
<path d="M42.4419 30.9084H43.5545V32.6723L45.4812 30.9084H46.9466L44.7485 32.8894L47.0822 35.4131H45.6169L43.9073 33.5678L43.5545 33.8935V35.4131H42.4419V30.9084Z" fill="white"/>
<path d="M47.5435 35.4131V30.9084H48.656V33.6764L51.0983 30.9084H52.021V35.4131H50.9084V32.6723L48.4661 35.4131H47.5435Z" fill="white"/>
<path d="M53.0249 35.4131V30.8813H54.1375V33.6492L56.5798 30.8813H57.5024V35.4131H56.3898V32.6452L53.9475 35.4131H53.0249ZM54.8702 29.6602C54.9245 29.9044 55.0873 29.9858 55.3044 29.9858C55.4943 29.9858 55.7114 29.8772 55.7386 29.6602H56.6612C56.6341 30.2572 55.9285 30.7185 55.3315 30.7185C54.4631 30.7185 54.029 30.2572 53.9204 29.6602H54.8702Z" fill="white"/>
<path d="M9.74219 44.938V37.9368H12.89C15.5223 37.9368 16.1193 39.1308 16.1193 40.2434C16.1193 41.3831 15.3052 42.55 12.89 42.55H11.099V44.938H9.74219ZM11.099 39.0765V41.4102H12.8629C14.1654 41.4102 14.7353 40.9489 14.7353 40.2434C14.7353 39.565 14.274 39.0765 12.9443 39.0765H11.099Z" fill="white"/>
<path d="M22.0077 42.4959H20.2981L18.1001 44.9653H16.499L18.9142 42.3059C17.7473 42.0345 17.0418 41.3019 17.0418 40.2707C17.0418 38.9953 18.0729 37.9912 20.1896 37.9912H23.3646V44.9924H22.0077V42.4959ZM22.0077 41.3561V39.0767H20.081C18.887 39.0767 18.4257 39.538 18.4257 40.2164C18.4257 40.8134 18.9956 41.3019 19.9454 41.3561H22.0077Z" fill="white"/>
<path d="M24.0703 43.8254H24.9115C25.4271 43.147 25.7799 42.0887 25.7799 38.968V37.9368H31.2886V43.8254H32.2384V46.1863H30.9358V44.9651H25.3729V46.1863H24.0703V43.8254ZM27.0553 39.5107C27.0553 41.6816 26.8111 42.9842 26.3226 43.7983H29.9318V39.0494H27.0553V39.5107Z" fill="white"/>
<path d="M35.9829 37.964H38.0996V38.2896H36.39V40.6505H35.9829V37.964Z" fill="white"/>
<path d="M38.9684 37.9368H39.2669L40.5694 40.6233H40.1624L39.8367 39.9449H38.3714L38.0457 40.6233H37.6387L38.9684 37.9368ZM38.5342 39.6464H39.701L39.104 38.4252L38.5342 39.6464Z" fill="white"/>
<path d="M40.9219 40.6505V37.964H42.0887C43.0928 37.964 43.3099 38.3982 43.3099 38.8052C43.3099 39.2394 42.9843 39.6465 42.0887 39.6465H41.3289V40.6234H40.9219V40.6505ZM41.3289 38.2896V39.348H42.0887C42.6858 39.348 42.93 39.1309 42.93 38.8052C42.93 38.5067 42.7129 38.2896 42.1159 38.2896H41.3289Z" fill="white"/>
<path d="M44.3683 37.9368H44.6668L45.9693 40.6233H45.5623L45.2366 39.9449H43.7713L43.4456 40.6233H43.0386L44.3683 37.9368ZM43.9341 39.6464H45.1009L44.5039 38.4252L43.9341 39.6464Z" fill="white"/>
<path d="M48.4929 39.4294H46.729V40.6505H46.3491V37.964H46.729V39.1037H48.4929V37.964H48.9V40.6505H48.4929V39.4294Z" fill="white"/>
<path d="M49.2529 37.964H51.7224V38.2896H50.664V40.6505H50.2841V38.2896H49.2529V37.964Z" fill="white"/>
<path d="M52.0752 40.6505V37.964H52.4551V40.0264L54.2733 37.964H54.5989V40.6505H54.219V38.561L52.4008 40.6505H52.0752Z" fill="white"/>
<path d="M57.1226 39.6465H56.3085L55.413 40.6505H54.9517L55.9286 39.5922C55.4401 39.5108 55.1687 39.2123 55.1687 38.8052C55.1687 38.3439 55.5487 37.964 56.3356 37.964H57.5296V40.6505H57.1226V39.6465ZM57.1226 39.3208V38.2896H56.2813C55.7658 38.2896 55.5487 38.5067 55.5487 38.8052C55.5487 39.0766 55.7929 39.2937 56.1999 39.3208H57.1226Z" fill="white"/>
<path d="M35.983 42.2515H37.177C37.9911 42.2515 38.2353 42.5228 38.2353 42.9299C38.2353 43.2284 38.0725 43.4455 37.8011 43.554C38.1268 43.6083 38.3167 43.8254 38.3167 44.1781C38.3167 44.7209 37.8554 44.938 37.1227 44.938H35.9287V42.2515H35.983ZM36.39 42.5771V43.4183H37.2313C37.6112 43.4183 37.8554 43.2555 37.8554 43.0113C37.8554 42.7399 37.6926 42.6042 37.177 42.6042H36.39V42.5771ZM36.39 43.7168V44.6123H37.177C37.7197 44.6123 37.9639 44.4767 37.9639 44.151C37.9639 43.8797 37.7469 43.7168 37.2313 43.7168H36.39Z" fill="white"/>
<path d="M38.8867 42.2515H39.2666V43.554L40.7863 42.2515H41.3019L39.8908 43.4726L41.4104 44.938H40.8948L39.5923 43.6897L39.2666 43.9882V44.938H38.8867V42.2515Z" fill="white"/>
<path d="M42.3057 44.5853C42.3329 44.6124 42.3871 44.6396 42.4414 44.6396C42.5771 44.6396 42.6857 44.5039 42.7942 44.2868L41.356 42.2787H41.8173L43.0113 43.934L43.9068 42.2787H44.3138L43.2012 44.3411C42.9842 44.7481 42.7942 44.9652 42.4686 44.9652C42.3329 44.9652 42.1972 44.8838 42.1429 44.8567L42.3057 44.5853Z" fill="white"/>
<path d="M47.0008 44.4753C46.7837 44.7467 46.3223 44.9366 45.8339 44.9366C44.8841 44.9366 44.2871 44.3939 44.2871 43.5527C44.2871 42.7928 44.8841 42.1687 45.8067 42.1687C46.3495 42.1687 46.7565 42.3858 46.9465 42.6029L46.7023 42.82C46.4852 42.6029 46.2138 42.4943 45.8067 42.4943C45.1012 42.4943 44.6942 42.9285 44.6942 43.5255C44.6942 44.1497 45.1555 44.5567 45.861 44.5567C46.2681 44.5567 46.5666 44.3939 46.7837 44.2039L47.0008 44.4753Z" fill="white"/>
<path d="M48.3575 42.1687H48.656L49.9586 44.8552H49.5515L49.2259 44.1768H47.7605L47.4349 44.8552H47.0278L48.3575 42.1687ZM47.9233 43.8783H49.0902L48.4932 42.6572L47.9233 43.8783Z" fill="white"/>
<defs>
<linearGradient id="paint0_linear_909_16763" x1="22.5453" y1="8.39094" x2="33.0753" y2="8.15047" gradientUnits="userSpaceOnUse">
<stop stop-color="#549A3B"/>
<stop offset="0.2064" stop-color="#589C36"/>
<stop offset="0.478" stop-color="#65A42D"/>
<stop offset="0.7847" stop-color="#82B529"/>
<stop offset="1" stop-color="#9DC52E"/>
</linearGradient>
</defs>
</svg>
