<svg width="26" height="26" viewBox="0 0 26 26" fill="none" xmlns="http://www.w3.org/2000/svg">
<path d="M12.1875 6.7666C13.2412 6.7666 14.0982 7.62354 14.0982 8.67725C14.0982 9.72778 13.2412 10.5847 12.1875 10.5847C11.1338 10.5847 10.2769 9.72778 10.2769 8.67725C10.2769 7.62354 11.1338 6.7666 12.1875 6.7666ZM12.1875 13.2888C14.7329 13.2888 16.8023 11.2195 16.8023 8.67725C16.8023 6.13184 14.7329 4.0625 12.1875 4.0625C9.64212 4.0625 7.57596 6.13184 7.57596 8.67725C7.57596 11.2195 9.64212 13.2888 12.1875 13.2888ZM14.0537 17.053C14.9932 16.8372 15.8977 16.4658 16.7325 15.9421C17.364 15.5454 17.5545 14.7107 17.1577 14.0791C16.7578 13.4443 15.9263 13.2539 15.2915 13.6538C13.4031 14.8408 10.972 14.8408 9.08035 13.6538C8.44876 13.2539 7.61404 13.4443 7.21732 14.0791C6.82059 14.7107 7.01102 15.5454 7.64261 15.9421C8.47733 16.4658 9.38187 16.8372 10.3213 17.053L7.741 19.6301C7.21414 20.157 7.21414 21.0139 7.741 21.5408C8.0076 21.8042 8.35037 21.9375 8.69632 21.9375C9.04227 21.9375 9.38822 21.8042 9.65482 21.5408L12.1875 19.0081L14.7234 21.5408C15.2503 22.0708 16.104 22.0708 16.6341 21.5408C17.1609 21.0139 17.1609 20.157 16.6341 19.6301L14.0537 17.053Z" fill="#04A3E9"/>
</svg>
