<svg width="26" height="26" viewBox="0 0 26 26" fill="none" xmlns="http://www.w3.org/2000/svg">
<g id="Test">
<path id="Vector" d="M5.41667 3.25C4.21958 3.25 3.25 4.21958 3.25 5.41667V20.5833C3.25 21.7804 4.21958 22.75 5.41667 22.75H20.5833C21.7804 22.75 22.75 21.7804 22.75 20.5833V5.41667C22.75 4.21958 21.7804 3.25 20.5833 3.25H5.41667ZM5.41667 5.41667H20.5833V7.58333H5.41667V5.41667ZM5.41667 9.75H20.5833V20.5833H5.41667V9.75ZM16.8848 10.8333L15.8014 11.9167H14.0833V14.0833H16.6986L18.4167 12.3652L16.8848 10.8333ZM7.58333 11.9167V14.0833H11.9167V11.9167H7.58333ZM16.8848 15.1667L15.8014 16.25H14.0833V18.4167H16.6986L18.4167 16.6986L16.8848 15.1667ZM7.58333 16.25V18.4167H11.9167V16.25H7.58333Z" fill="#ED1E26"/>
</g>
</svg>
