<svg width="26" height="26" viewBox="0 0 26 26" fill="none" xmlns="http://www.w3.org/2000/svg">
<g id="Shopping Bag">
<path id="Vector" d="M10.8333 2.16663C9.63842 2.16663 8.66667 3.13838 8.66667 4.33329V6.49996H3.25V20.5833C3.25 21.7782 4.22175 22.75 5.41667 22.75H20.5833C21.7783 22.75 22.75 21.7782 22.75 20.5833V6.49996H17.3333V4.33329C17.3333 3.13838 16.3616 2.16663 15.1667 2.16663H10.8333ZM10.8333 4.33329H15.1667V6.49996H10.8333V4.33329ZM5.41667 8.66663H20.5833L20.5854 20.5833H5.41667V8.66663ZM9.75 10.8333C9.152 10.8333 8.66667 11.3186 8.66667 11.9166C8.66667 12.5146 9.152 13 9.75 13C10.348 13 10.8333 12.5146 10.8333 11.9166C10.8333 11.3186 10.348 10.8333 9.75 10.8333ZM16.25 10.8333C15.652 10.8333 15.1667 11.3186 15.1667 11.9166C15.1667 12.5146 15.652 13 16.25 13C16.848 13 17.3333 12.5146 17.3333 11.9166C17.3333 11.3186 16.848 10.8333 16.25 10.8333Z" fill="#ED1E26"/>
</g>
</svg>
