<svg width="30" height="30" viewBox="0 0 30 30" fill="none" xmlns="http://www.w3.org/2000/svg">
<g opacity="0.3">
<path d="M4.36607 14.1161L13.1161 5.36609C13.6042 4.87797 14.3954 4.87797 14.8836 5.36609C15.3717 5.85422 15.3717 6.64547 14.8836 7.13359L8.26732 13.7498H25.2498C25.9398 13.7498 26.4998 14.3098 26.4998 14.9998C26.4998 15.6898 25.9398 16.2498 25.2498 16.2498H8.26732L14.8836 22.8661C15.3717 23.3542 15.3717 24.1455 14.8836 24.6336C14.6392 24.878 14.3198 24.9998 13.9998 24.9998C13.6798 24.9998 13.3604 24.878 13.1161 24.6336L4.36607 15.8836C3.87794 15.3955 3.87794 14.6042 4.36607 14.1161Z" fill="#343C4B"/>
</g>
</svg>
