<svg width="40" height="40" viewBox="0 0 40 40" fill="none" xmlns="http://www.w3.org/2000/svg">
<path d="M19.1666 2.5C15.321 2.5 12.133 5.4284 11.7155 9.16667H9.99997C8.0733 9.16667 6.4695 10.611 6.2695 12.5277L4.18616 32.5277C4.07616 33.5818 4.42017 34.6389 5.13017 35.4281C5.84017 36.2156 6.85663 36.6667 7.91663 36.6667H32.0833C33.1433 36.6667 34.1598 36.2156 34.8698 35.4281C35.5798 34.6397 35.9221 33.5818 35.8121 32.5277L33.7304 12.5277C33.5304 10.611 31.9266 9.16667 30 9.16667H28.2942C28.3201 9.44167 28.3333 9.72 28.3333 10V11.6667H30C30.6425 11.6667 31.1768 12.1489 31.2435 12.7881L33.3268 32.7881C33.3635 33.1397 33.2485 33.4916 33.0127 33.7533C32.776 34.0158 32.4366 34.1667 32.0833 34.1667H7.91663C7.5633 34.1667 7.22473 34.0165 6.9889 33.7549C6.75223 33.4924 6.63648 33.1397 6.67314 32.7881L8.75648 12.7881C8.82314 12.1489 9.35747 11.6667 9.99997 11.6667H11.6666V14.5833C11.6643 14.749 11.6949 14.9134 11.7567 15.0671C11.8184 15.2208 11.9101 15.3607 12.0264 15.4787C12.1427 15.5967 12.2813 15.6903 12.4342 15.7543C12.587 15.8182 12.751 15.8511 12.9166 15.8511C13.0823 15.8511 13.2463 15.8182 13.3991 15.7543C13.5519 15.6903 13.6905 15.5967 13.8068 15.4787C13.9231 15.3607 14.0148 15.2208 14.0766 15.0671C14.1384 14.9134 14.169 14.749 14.1666 14.5833V10C14.1666 7.22393 16.3906 5 19.1666 5C21.6581 5 23.6999 6.79257 24.0934 9.16667H15.944C15.874 9.43333 15.8333 9.71167 15.8333 10V11.6667H24.1666V14.5833C24.1643 14.749 24.1949 14.9134 24.2567 15.0671C24.3184 15.2208 24.4101 15.3607 24.5264 15.4787C24.6427 15.5967 24.7813 15.6903 24.9342 15.7543C25.087 15.8182 25.251 15.8511 25.4166 15.8511C25.5823 15.8511 25.7463 15.8182 25.8991 15.7543C26.0519 15.6903 26.1905 15.5967 26.3068 15.4787C26.4231 15.3607 26.5148 15.2208 26.5766 15.0671C26.6384 14.9134 26.669 14.749 26.6666 14.5833V10C26.6666 5.87273 23.2939 2.5 19.1666 2.5ZM24.5589 19.1553C24.2343 19.1647 23.926 19.3002 23.6995 19.5329L14.5328 28.6995C14.4129 28.8147 14.3171 28.9527 14.2511 29.1053C14.1851 29.258 14.1503 29.4223 14.1486 29.5886C14.1469 29.7549 14.1784 29.9199 14.2413 30.0738C14.3041 30.2278 14.3971 30.3677 14.5147 30.4853C14.6323 30.6029 14.7722 30.6958 14.9261 30.7587C15.0801 30.8215 15.2451 30.8531 15.4114 30.8514C15.5777 30.8497 15.742 30.8148 15.8946 30.7488C16.0473 30.6829 16.1852 30.5871 16.3004 30.4671L25.4671 21.3005C25.6474 21.1248 25.7705 20.8988 25.8203 20.6521C25.8701 20.4053 25.8442 20.1493 25.7461 19.9175C25.6479 19.6857 25.4821 19.4889 25.2703 19.3529C25.0585 19.2169 24.8105 19.148 24.5589 19.1553ZM15.8333 19.1667C15.3913 19.1667 14.9673 19.3423 14.6548 19.6548C14.3422 19.9674 14.1666 20.3913 14.1666 20.8333C14.1666 21.2754 14.3422 21.6993 14.6548 22.0118C14.9673 22.3244 15.3913 22.5 15.8333 22.5C16.2753 22.5 16.6993 22.3244 17.0118 22.0118C17.3244 21.6993 17.5 21.2754 17.5 20.8333C17.5 20.3913 17.3244 19.9674 17.0118 19.6548C16.6993 19.3423 16.2753 19.1667 15.8333 19.1667ZM24.1666 27.5C23.7246 27.5 23.3007 27.6756 22.9881 27.9882C22.6756 28.3007 22.5 28.7246 22.5 29.1667C22.5 29.6087 22.6756 30.0326 22.9881 30.3452C23.3007 30.6577 23.7246 30.8333 24.1666 30.8333C24.6087 30.8333 25.0326 30.6577 25.3451 30.3452C25.6577 30.0326 25.8333 29.6087 25.8333 29.1667C25.8333 28.7246 25.6577 28.3007 25.3451 27.9882C25.0326 27.6756 24.6087 27.5 24.1666 27.5Z" fill="black"/>
</svg>
