<svg width="40" height="40" viewBox="0 0 40 40" fill="none" xmlns="http://www.w3.org/2000/svg">
<path d="M29.564 5.81543C29.2328 5.8206 28.9171 5.95704 28.6864 6.19477C28.4557 6.43251 28.3288 6.75209 28.3335 7.08333V17.5814C26.9404 17.7848 25.8335 18.951 25.8335 20.3955V23.4098C25.4001 23.9816 23.2021 26.9809 22.6255 31.7057C22.4157 33.4212 23.7763 35 25.521 35H33.7486C35.4936 35 36.854 33.4217 36.6457 31.7074V31.7057C36.0479 26.8068 33.6279 23.6246 33.3352 23.2471V20.3955C33.3352 18.9507 32.2272 17.7844 30.8335 17.5814V7.08333C30.8359 6.91603 30.8047 6.74994 30.7418 6.59492C30.6788 6.4399 30.5853 6.2991 30.467 6.18086C30.3486 6.06262 30.2076 5.96936 30.0525 5.90658C29.8974 5.84381 29.7313 5.81282 29.564 5.81543ZM12.5002 5.83333C10.3445 5.83333 8.57416 7.25116 7.88107 9.1748C5.38189 9.19557 3.33355 11.2463 3.33355 13.75C3.33166 13.9067 3.35926 14.0624 3.41493 14.209C3.14674 14.2804 2.90995 14.439 2.74186 14.6599C2.57378 14.8807 2.48397 15.1512 2.48658 15.4288C2.48919 15.7063 2.58408 15.975 2.75629 16.1927C2.92849 16.4103 3.16823 16.5645 3.43771 16.6309L4.09527 23.8477L2.1812 25.2393C2.04843 25.3358 1.93598 25.4577 1.85028 25.5977C1.76458 25.7378 1.70732 25.8933 1.68175 26.0555C1.65619 26.2177 1.66282 26.3834 1.70128 26.543C1.73974 26.7026 1.80926 26.8531 1.90589 26.9859C2.00252 27.1186 2.12435 27.231 2.26442 27.3167C2.4045 27.4024 2.56008 27.4596 2.72228 27.4851C2.88448 27.5106 3.05012 27.504 3.20974 27.4655C3.36936 27.427 3.51983 27.3574 3.65256 27.2607L4.35894 26.748L4.73003 30.8317C4.94442 33.1808 6.93409 35 9.29383 35H15.7066C18.0663 35 20.056 33.1808 20.2704 30.8317L21.5627 16.6309C21.8252 16.5661 22.0595 16.418 22.2307 16.2088C22.4019 15.9997 22.5007 15.7406 22.5122 15.4705C22.5238 15.2005 22.4475 14.934 22.2948 14.7109C22.1421 14.4879 21.9212 14.3203 21.6653 14.2334C21.6664 14.2112 21.6669 14.1889 21.6669 14.1667C21.6669 11.5883 19.6577 9.51552 17.1421 9.2627C16.4735 7.2954 14.6875 5.83333 12.5002 5.83333ZM12.5002 8.33333C13.8079 8.33333 14.8427 9.3127 14.9693 10.5859C14.9857 10.7517 15.035 10.9125 15.1143 11.0589C15.1937 11.2053 15.3015 11.3343 15.4314 11.4385C15.5614 11.5427 15.7108 11.6198 15.871 11.6654C16.0312 11.711 16.1988 11.7242 16.3641 11.7041C16.5667 11.6795 16.6581 11.6667 16.6669 11.6667C18.062 11.6667 19.1669 12.7716 19.1669 14.1667H5.76682C5.81251 14.0326 5.83507 13.8917 5.83355 13.75C5.83355 12.5848 6.75169 11.6667 7.91688 11.6667C8.07105 11.6667 8.24443 11.6947 8.45562 11.7513C8.63293 11.7989 8.81856 11.8069 8.99931 11.7747C9.18006 11.7425 9.3515 11.6708 9.50143 11.5649C9.65137 11.4589 9.77612 11.3212 9.86683 11.1616C9.95753 11.002 10.012 10.8243 10.0263 10.6413C10.1278 9.33976 11.1738 8.33333 12.5002 8.33333ZM5.95236 16.6667H19.0481L17.7818 30.6055C17.6828 31.6897 16.7952 32.5 15.7066 32.5H9.29383C8.20524 32.5 7.31759 31.6897 7.21864 30.6055L6.71245 25.0358L12.8192 20.5941C12.952 20.4975 13.0644 20.3757 13.1501 20.2356C13.2358 20.0956 13.2931 19.94 13.3187 19.7778C13.3442 19.6156 13.3376 19.45 13.2991 19.2904C13.2607 19.1307 13.1911 18.9802 13.0945 18.8475C12.9979 18.7147 12.8761 18.6023 12.736 18.5167C12.5959 18.431 12.4403 18.3738 12.2781 18.3482C12.1159 18.3227 11.9503 18.3294 11.7907 18.3679C11.6311 18.4064 11.4806 18.4759 11.3479 18.5726L6.44878 22.1354L5.95236 16.6667ZM28.7291 20H30.4397C30.6722 20 30.8352 20.163 30.8352 20.3955V22.5H28.3335V20.3955C28.3335 20.163 28.4966 20 28.7291 20ZM27.772 25H31.4992C31.9344 25.5904 33.6826 28.0671 34.1636 32.0085C34.1987 32.2974 34.0236 32.5 33.7486 32.5H25.521C25.2475 32.5 25.0708 32.2964 25.106 32.0085H25.1076C25.5886 28.0663 27.3369 25.5902 27.772 25Z" fill="black"/>
</svg>
