<svg width="40" height="40" viewBox="0 0 40 40" fill="none" xmlns="http://www.w3.org/2000/svg">
<path d="M7.08325 4.16667C5.02659 4.16667 3.33325 5.86 3.33325 7.91667V25.4167C3.33325 27.4733 5.02659 29.1667 7.08325 29.1667H14.1666V33.3333H11.2499C10.5599 33.3233 9.99118 33.8746 9.98201 34.5654C9.97285 35.2563 10.5233 35.8242 11.2141 35.8333H11.2499H15.2115C15.3457 35.855 15.4826 35.855 15.6168 35.8333H22.4527C22.0044 35.2967 21.6672 34.6618 21.5022 33.9518L21.315 33.3333H16.6666V29.1667H20.0601L19.4433 27.1143L19.4172 27.028L19.401 26.9401C19.3843 26.8493 19.3906 26.7583 19.3798 26.6667H7.08325C6.37825 26.6667 5.83325 26.1217 5.83325 25.4167V7.91667C5.83325 7.21167 6.37825 6.66667 7.08325 6.66667H32.9166C33.6216 6.66667 34.1666 7.21167 34.1666 7.91667V13.5466C34.8024 13.4449 35.455 13.365 36.1441 13.335L36.2092 13.3333H36.2353C36.3811 13.3333 36.5249 13.3483 36.6666 13.3691V7.91667C36.6666 5.86 34.9733 4.16667 32.9166 4.16667H7.08325ZM25.4019 14.7396C23.509 14.6822 21.8375 15.0244 21.8375 15.0244C21.5683 15.0785 21.3245 15.2197 21.1436 15.4262C20.9626 15.6327 20.8547 15.8931 20.8365 16.167C20.5935 19.8114 22.1388 22.4595 23.675 24.1683H23.0875C21.8084 24.1683 20.8049 25.3773 21.04 26.6341L21.0513 26.7008L23.1314 33.5856L23.1005 33.4554C23.3585 34.8266 24.5717 35.8333 25.9667 35.8333H31.5331C32.9284 35.8333 34.1442 34.8259 34.401 33.4538L34.3684 33.5856L36.4485 26.7008L36.4599 26.6341C36.6478 25.6291 36.0386 24.6649 35.135 24.3148C36.5296 22.8496 37.2406 21.2305 37.5194 19.8275C37.9509 17.6562 37.4511 15.9066 37.4511 15.9066C37.376 15.6439 37.217 15.4131 36.9983 15.2493C36.7796 15.0856 36.5133 14.998 36.2402 15C36.2255 15.0003 36.2108 15.0008 36.1962 15.0016C33.699 15.1103 31.7712 15.7693 30.3124 16.6992C29.7959 16.0071 29.0664 15.5408 28.3333 15.2588C27.3684 14.8877 26.3484 14.7683 25.4019 14.7396ZM24.676 17.2396C24.8629 17.2329 25.0757 17.232 25.3271 17.2396C26.0993 17.263 26.8762 17.3779 27.4348 17.5928C27.9557 17.7931 28.2378 18.0268 28.3967 18.3431C27.8642 18.9576 27.4519 19.6085 27.1516 20.2555C26.6384 21.3615 26.4129 22.4378 26.3118 23.304C25.1141 22.234 23.5388 20.299 23.3756 17.3926C23.79 17.3325 24.1153 17.2595 24.676 17.2396ZM35.1594 17.6709C35.1845 18.1351 35.2015 18.6689 35.0683 19.3392C34.7642 20.8694 33.9068 22.6874 31.2597 24.1683H28.7499C28.7771 23.49 28.8985 22.4282 29.4189 21.307C30.1671 19.6947 31.675 18.1253 35.1594 17.6709ZM23.6539 26.6683H26.927C27.05 26.6868 27.1751 26.6868 27.2981 26.6683H31.398C31.5152 26.685 31.6341 26.685 31.7512 26.6683H33.8459L31.9547 32.9281L31.9433 32.9948C31.905 33.1993 31.7429 33.3333 31.5331 33.3333H25.9667C25.7584 33.3333 25.5952 33.1986 25.5566 32.9932L25.5435 32.9264L23.6539 26.6683Z" fill="black"/>
</svg>
