<svg width="40" height="40" viewBox="0 0 40 40" fill="none" xmlns="http://www.w3.org/2000/svg">
<path d="M20.0405 1.66669C19.7182 1.65663 19.4045 1.77151 19.1649 1.98732C19.1649 1.98732 12.9083 7.50002 5.4165 7.50002C5.08499 7.50005 4.76707 7.63176 4.53266 7.86617C4.29824 8.10058 4.16654 8.41851 4.1665 8.75002V18.9665C4.1665 24.5315 6.74102 33.6887 19.5148 39.069C19.6683 39.1337 19.8333 39.167 19.9998 39.167C20.1664 39.167 20.3313 39.1337 20.4849 39.069C33.2587 33.6887 35.8332 24.5315 35.8332 18.9665V8.75002C35.8331 8.41851 35.7014 8.10058 35.467 7.86617C35.2326 7.63176 34.9147 7.50005 34.5832 7.50002C27.0914 7.50002 20.8348 1.98732 20.8348 1.98732C20.6161 1.79025 20.3348 1.6767 20.0405 1.66669ZM19.9998 4.52313C21.719 5.90532 26.7592 9.44768 33.3332 9.89585V18.9665C33.3332 23.7517 31.4944 31.4714 19.9998 36.5218C8.5053 31.4714 6.6665 23.7517 6.6665 18.9665V9.89585C13.2405 9.44768 18.2807 5.90532 19.9998 4.52313ZM19.9803 12.4821C19.6491 12.4873 19.3334 12.6237 19.1027 12.8615C18.872 13.0992 18.7451 13.4188 18.7498 13.75V22.0833C18.7475 22.249 18.7781 22.4134 18.8399 22.5672C18.9016 22.7209 18.9933 22.8608 19.1096 22.9787C19.2259 23.0967 19.3645 23.1904 19.5174 23.2543C19.6702 23.3182 19.8342 23.3512 19.9998 23.3512C20.1655 23.3512 20.3295 23.3182 20.4823 23.2543C20.6351 23.1904 20.7737 23.0967 20.89 22.9787C21.0063 22.8608 21.098 22.7209 21.1598 22.5672C21.2216 22.4134 21.2522 22.249 21.2498 22.0833V13.75C21.2522 13.5827 21.221 13.4166 21.1581 13.2616C21.0951 13.1066 21.0016 12.9658 20.8832 12.8475C20.7649 12.7293 20.6239 12.636 20.4688 12.5733C20.3137 12.5105 20.1476 12.4795 19.9803 12.4821ZM19.9998 25.8333C19.5578 25.8333 19.1339 26.0089 18.8213 26.3215C18.5088 26.6341 18.3332 27.058 18.3332 27.5C18.3332 27.942 18.5088 28.366 18.8213 28.6785C19.1339 28.9911 19.5578 29.1667 19.9998 29.1667C20.4419 29.1667 20.8658 28.9911 21.1783 28.6785C21.4909 28.366 21.6665 27.942 21.6665 27.5C21.6665 27.058 21.4909 26.6341 21.1783 26.3215C20.8658 26.0089 20.4419 25.8333 19.9998 25.8333Z" fill="black"/>
</svg>
