<svg width="40" height="40" viewBox="0 0 40 40" fill="none" xmlns="http://www.w3.org/2000/svg">
<path d="M20.4166 3.33331C16.4355 3.33331 13.1681 4.45315 10.9114 6.59015C8.65465 8.72715 7.49992 11.8198 7.49992 15.4166V18.5482C6.54973 19.3069 5.83325 20.3589 5.83325 21.6666C5.83325 23.6348 7.25365 25.225 9.09985 25.651C9.84696 28.6136 11.089 31.2527 12.8385 33.1901C14.7569 35.3146 17.2557 36.6666 19.9999 36.6666C20.1656 36.669 20.33 36.6384 20.4837 36.5766C20.6374 36.5149 20.7773 36.4232 20.8953 36.3069C21.0133 36.1905 21.1069 36.052 21.1709 35.8991C21.2348 35.7463 21.2677 35.5823 21.2677 35.4166C21.2677 35.251 21.2348 35.087 21.1709 34.9342C21.1069 34.7813 21.0133 34.6428 20.8953 34.5264C20.7773 34.4101 20.6374 34.3184 20.4837 34.2567C20.33 34.1949 20.1656 34.1643 19.9999 34.1666C18.0683 34.1666 16.2517 33.2387 14.6939 31.5137C13.1362 29.7886 11.8939 27.2739 11.2743 24.3213C11.2153 24.0404 11.0614 23.7885 10.8385 23.6077C10.6156 23.4269 10.3374 23.3283 10.0504 23.3284C9.79478 23.3284 9.77932 23.3333 9.99992 23.3333C9.06463 23.3333 8.33325 22.6019 8.33325 21.6666C8.33325 20.997 8.71783 20.4514 9.2854 20.1823C9.49918 20.0809 9.67981 19.921 9.80629 19.721C9.93277 19.521 9.99992 19.2893 9.99992 19.0527V15.4166C9.99992 12.3401 10.9285 10.0163 12.6301 8.40493C14.3317 6.79359 16.8977 5.83331 20.4166 5.83331C25.681 5.83331 29.1436 8.24685 30.83 11.7724C30.8463 11.8072 30.8435 11.8187 30.7812 11.8375C29.8593 12.1164 27.6297 12.5 24.9999 12.5C21.8228 12.5 19.7096 11.908 18.4097 11.3509C17.1099 10.7938 16.717 10.3662 16.717 10.3662C16.5687 10.2178 16.3853 10.1092 16.1839 10.0503C15.9825 9.99137 15.7695 9.98413 15.5645 10.0292C15.3596 10.0743 15.1693 10.1702 15.0111 10.3082C14.853 10.4462 14.7322 10.6217 14.6597 10.8187C14.6597 10.8187 14.3812 11.6849 12.9866 12.7588C12.8564 12.859 12.7473 12.9839 12.6654 13.1263C12.5835 13.2688 12.5304 13.4259 12.5093 13.5889C12.4881 13.7518 12.4992 13.9173 12.542 14.0759C12.5848 14.2345 12.6585 14.3832 12.7587 14.5133C12.859 14.6435 12.9839 14.7526 13.1263 14.8345C13.2687 14.9164 13.4259 14.9695 13.5888 14.9906C13.7517 15.0118 13.9172 15.0007 14.0758 14.9579C14.2345 14.9151 14.3831 14.8414 14.5133 14.7412C15.3313 14.1113 15.8323 13.4686 16.2271 12.9166C16.6429 13.2046 16.6417 13.314 17.4234 13.6491C19.0402 14.342 21.5103 15 24.9999 15C26.7881 15 28.3266 14.8482 29.5816 14.6419C29.7773 15.2293 29.9999 16.088 29.9999 17.0833V25.4166C29.9999 27.5029 28.3362 29.1666 26.2499 29.1666H24.7167C24.4803 28.6682 24.1074 28.2471 23.6413 27.9521C23.1751 27.6571 22.6349 27.5003 22.0833 27.5C21.7002 27.5 21.321 27.5754 20.9671 27.722C20.6132 27.8686 20.2917 28.0834 20.0209 28.3543C19.75 28.6251 19.5352 28.9466 19.3886 29.3005C19.242 29.6544 19.1666 30.0336 19.1666 30.4166C19.1666 30.7997 19.242 31.1789 19.3886 31.5328C19.5352 31.8867 19.75 32.2082 20.0209 32.479C20.2917 32.7499 20.6132 32.9647 20.9671 33.1113C21.321 33.2579 21.7002 33.3333 22.0833 33.3333C22.6346 33.3327 23.1745 33.1758 23.6403 32.8808C24.1061 32.5858 24.4788 32.1648 24.7151 31.6666H26.2499C29.5464 31.6666 32.2615 29.0772 32.4788 25.8333H32.4999C34.3408 25.8333 35.8333 24.3408 35.8333 22.5V20.8333C35.8333 18.9925 34.3408 17.5 32.4999 17.5V17.0833C32.4999 15.8673 32.2561 14.7881 32.0133 14.012C33.1395 13.3743 33.6727 11.9225 33.0859 10.6933C30.999 6.3306 26.4772 3.33331 20.4166 3.33331ZM15.8333 20C15.3912 20 14.9673 20.1756 14.6547 20.4881C14.3422 20.8007 14.1666 21.2246 14.1666 21.6666C14.1666 22.1087 14.3422 22.5326 14.6547 22.8452C14.9673 23.1577 15.3912 23.3333 15.8333 23.3333C16.2753 23.3333 16.6992 23.1577 17.0118 22.8452C17.3243 22.5326 17.4999 22.1087 17.4999 21.6666C17.4999 21.2246 17.3243 20.8007 17.0118 20.4881C16.6992 20.1756 16.2753 20 15.8333 20ZM24.1666 20C23.7246 20 23.3006 20.1756 22.9881 20.4881C22.6755 20.8007 22.4999 21.2246 22.4999 21.6666C22.4999 22.1087 22.6755 22.5326 22.9881 22.8452C23.3006 23.1577 23.7246 23.3333 24.1666 23.3333C24.6086 23.3333 25.0325 23.1577 25.3451 22.8452C25.6577 22.5326 25.8333 22.1087 25.8333 21.6666C25.8333 21.2246 25.6577 20.8007 25.3451 20.4881C25.0325 20.1756 24.6086 20 24.1666 20Z" fill="black"/>
</svg>
