<svg width="40" height="40" viewBox="0 0 40 40" fill="none" xmlns="http://www.w3.org/2000/svg">
<path d="M2.91673 8.33333C2.75109 8.33099 2.58664 8.36159 2.43293 8.42336C2.27921 8.48512 2.13931 8.57683 2.02135 8.69313C1.90339 8.80944 1.80972 8.94803 1.74578 9.10085C1.68185 9.25367 1.64893 9.41767 1.64893 9.58333C1.64893 9.74899 1.68185 9.91299 1.74578 10.0658C1.80972 10.2186 1.90339 10.3572 2.02135 10.4735C2.13931 10.5898 2.27921 10.6815 2.43293 10.7433C2.58664 10.8051 2.75109 10.8357 2.91673 10.8333H15.4167C15.5824 10.8357 15.7468 10.8051 15.9005 10.7433C16.0542 10.6815 16.1941 10.5898 16.3121 10.4735C16.4301 10.3572 16.5237 10.2186 16.5877 10.0658C16.6516 9.91299 16.6845 9.74899 16.6845 9.58333C16.6845 9.41767 16.6516 9.25367 16.5877 9.10085C16.5237 8.94803 16.4301 8.80944 16.3121 8.69313C16.1941 8.57683 16.0542 8.48512 15.9005 8.42336C15.7468 8.36159 15.5824 8.33099 15.4167 8.33333H2.91673ZM20.4167 8.33333C20.2511 8.33099 20.0866 8.36159 19.9329 8.42336C19.7792 8.48512 19.6393 8.57683 19.5214 8.69313C19.4034 8.80944 19.3097 8.94803 19.2458 9.10085C19.1819 9.25367 19.1489 9.41767 19.1489 9.58333C19.1489 9.74899 19.1819 9.91299 19.2458 10.0658C19.3097 10.2186 19.4034 10.3572 19.5214 10.4735C19.6393 10.5898 19.7792 10.6815 19.9329 10.7433C20.0866 10.8051 20.2511 10.8357 20.4167 10.8333H22.9167C23.6221 10.8333 24.1667 11.3779 24.1667 12.0833V27.5H14.821C14.2715 25.5847 12.4998 24.1667 10.4167 24.1667C8.33362 24.1667 6.56193 25.5847 6.01243 27.5H5.41673C4.71131 27.5 4.16673 26.9554 4.16673 26.25V24.5833C4.16913 24.416 4.13792 24.2499 4.07495 24.0949C4.01198 23.9399 3.91853 23.7991 3.80014 23.6809C3.68175 23.5626 3.54083 23.4694 3.38572 23.4066C3.23062 23.3438 3.0645 23.3128 2.8972 23.3154C2.56596 23.3206 2.25032 23.457 2.01961 23.6948C1.7889 23.9325 1.66198 24.2521 1.66673 24.5833V26.25C1.66673 28.3063 3.36048 30 5.41673 30H6.01243C6.56193 31.9153 8.33362 33.3333 10.4167 33.3333C12.4998 33.3333 14.2715 31.9153 14.821 30H25.1791C25.7286 31.9153 27.5003 33.3333 29.5834 33.3333C31.6665 33.3333 33.4382 31.9153 33.9877 30H34.5834C36.6396 30 38.3334 28.3063 38.3334 26.25V20.9473C38.3334 20.4211 38.2224 19.9042 38.0111 19.4271L38.0095 19.4255L35.5518 13.8949V13.8932C34.9517 12.5419 33.6041 11.6667 32.1257 11.6667H26.6244C26.412 9.80552 24.8306 8.33333 22.9167 8.33333H20.4167ZM2.91673 13.3333C2.75109 13.331 2.58664 13.3616 2.43293 13.4234C2.27921 13.4851 2.13931 13.5768 2.02135 13.6931C1.90339 13.8094 1.80972 13.948 1.74578 14.1008C1.68185 14.2537 1.64893 14.4177 1.64893 14.5833C1.64893 14.749 1.68185 14.913 1.74578 15.0658C1.80972 15.2186 1.90339 15.3572 2.02135 15.4735C2.13931 15.5898 2.27921 15.6815 2.43293 15.7433C2.58664 15.8051 2.75109 15.8357 2.91673 15.8333H12.0834C12.249 15.8357 12.4135 15.8051 12.5672 15.7433C12.7209 15.6815 12.8608 15.5898 12.9788 15.4735C13.0967 15.3572 13.1904 15.2186 13.2543 15.0658C13.3183 14.913 13.3512 14.749 13.3512 14.5833C13.3512 14.4177 13.3183 14.2537 13.2543 14.1008C13.1904 13.948 13.0967 13.8094 12.9788 13.6931C12.8608 13.5768 12.7209 13.4851 12.5672 13.4234C12.4135 13.3616 12.249 13.331 12.0834 13.3333H2.91673ZM26.6667 14.1667H32.1257C32.6236 14.1667 33.0649 14.4542 33.2667 14.9089L34.7885 18.3333H26.6667V14.1667ZM2.91673 18.3333C2.75109 18.331 2.58664 18.3616 2.43293 18.4234C2.27921 18.4851 2.13931 18.5768 2.02135 18.6931C1.90339 18.8094 1.80972 18.948 1.74578 19.1008C1.68185 19.2537 1.64893 19.4177 1.64893 19.5833C1.64893 19.749 1.68185 19.913 1.74578 20.0658C1.80972 20.2186 1.90339 20.3572 2.02135 20.4735C2.13931 20.5898 2.27921 20.6815 2.43293 20.7433C2.58664 20.8051 2.75109 20.8357 2.91673 20.8333H8.75006C8.9157 20.8357 9.08016 20.8051 9.23387 20.7433C9.38758 20.6815 9.52748 20.5898 9.64544 20.4735C9.7634 20.3572 9.85707 20.2186 9.92101 20.0658C9.98494 19.913 10.0179 19.749 10.0179 19.5833C10.0179 19.4177 9.98494 19.2537 9.92101 19.1008C9.85707 18.948 9.7634 18.8094 9.64544 18.6931C9.52748 18.5768 9.38758 18.4851 9.23387 18.4234C9.08016 18.3616 8.9157 18.331 8.75006 18.3333H2.91673ZM26.6667 20.8333H35.822C35.8256 20.8713 35.8334 20.9094 35.8334 20.9473V26.25C35.8334 26.9554 35.2888 27.5 34.5834 27.5H33.9877C33.4382 25.5847 31.6665 24.1667 29.5834 24.1667C28.4784 24.1667 27.4614 24.566 26.6667 25.2262V20.8333ZM10.4167 26.6667C11.5407 26.6667 12.4288 27.5273 12.4887 28.6344C12.4815 28.7113 12.4815 28.7887 12.4887 28.8656C12.4288 29.9727 11.5407 30.8333 10.4167 30.8333C9.29277 30.8333 8.40466 29.9727 8.34479 28.8656C8.35193 28.7887 8.35193 28.7113 8.34479 28.6344C8.40466 27.5273 9.29277 26.6667 10.4167 26.6667ZM29.5834 26.6667C30.7471 26.6667 31.6667 27.5863 31.6667 28.75C31.6667 29.9137 30.7471 30.8333 29.5834 30.8333C28.4197 30.8333 27.5001 29.9137 27.5001 28.75C27.5001 27.5863 28.4197 26.6667 29.5834 26.6667Z" fill="black"/>
</svg>
