<svg width="40" height="40" viewBox="0 0 40 40" fill="none" xmlns="http://www.w3.org/2000/svg">
<path d="M20 4.17969C19.0428 4.17969 18.0859 4.49106 17.2949 5.11393H17.2933L7.38281 12.9232C5.87956 14.1079 5 15.9182 5 17.832V32.9069C5 34.5027 6.32087 35.8236 7.91667 35.8236H32.0833C33.6791 35.8236 35 34.5027 35 32.9069V17.832C35 15.9182 34.1204 14.1079 32.6172 12.9232L22.7051 5.11393C21.9141 4.49106 20.9572 4.17969 20 4.17969ZM20 6.67318C20.4082 6.67318 20.8165 6.80882 21.1589 7.07845L31.071 14.8877C31.9738 15.5997 32.5 16.683 32.5 17.832V32.9069C32.5 33.1528 32.3292 33.3236 32.0833 33.3236H30V27.0833C30 25.4875 28.6791 24.1667 27.0833 24.1667H25.8333V18.75C25.8333 17.1542 24.5125 15.8333 22.9167 15.8333H17.0833C15.4875 15.8333 14.1667 17.1542 14.1667 18.75V24.1667H12.9167C11.3209 24.1667 10 25.4875 10 27.0833V33.3236H7.91667C7.6708 33.3236 7.5 33.1528 7.5 32.9069V17.832C7.5 16.6826 8.02562 15.598 8.92904 14.8861L18.8411 7.07845C19.1835 6.80882 19.5918 6.67318 20 6.67318ZM17.0833 18.3333H22.9167C23.1625 18.3333 23.3333 18.5041 23.3333 18.75V24.1667H16.6667V18.75C16.6667 18.5041 16.8375 18.3333 17.0833 18.3333ZM12.9167 26.6667H18.75V33.3236H12.5V27.0833C12.5 26.8375 12.6708 26.6667 12.9167 26.6667ZM21.25 26.6667H27.0833C27.3292 26.6667 27.5 26.8375 27.5 27.0833V33.3236H21.25V26.6667Z" fill="black"/>
</svg>
