<svg width="40" height="40" viewBox="0 0 40 40" fill="none" xmlns="http://www.w3.org/2000/svg">
<path d="M30.7616 3.33333C29.7593 3.33333 28.7765 3.6121 27.9231 4.13737L18.9403 9.66471C18.8516 9.71996 18.7701 9.78613 18.6978 9.86165L17.7701 9.13411C17.1096 8.61498 16.2947 8.33333 15.4556 8.33333H9.58325C7.527 8.33333 5.83325 10.0271 5.83325 12.0833V18.75C5.83325 20.8062 7.527 22.5 9.58325 22.5H21.2499C23.3062 22.5 24.9999 20.8062 24.9999 18.75V16.6325C24.9999 15.4822 24.4696 14.3937 23.5644 13.6833L20.76 11.4811L29.2349 6.26627C29.6948 5.98321 30.2223 5.83333 30.7616 5.83333H33.7499C33.9156 5.83567 34.08 5.80507 34.2337 5.7433C34.3874 5.68154 34.5273 5.58984 34.6453 5.47353C34.7633 5.35723 34.8569 5.21863 34.9209 5.06581C34.9848 4.91299 35.0177 4.74899 35.0177 4.58333C35.0177 4.41767 34.9848 4.25367 34.9209 4.10085C34.8569 3.94803 34.7633 3.80944 34.6453 3.69313C34.5273 3.57683 34.3874 3.48512 34.2337 3.42336C34.08 3.36159 33.9156 3.33099 33.7499 3.33333H30.7616ZM33.7499 7.5C33.4184 7.5 33.1005 7.63169 32.866 7.86611C32.6316 8.10053 32.4999 8.41848 32.4999 8.75C32.4999 9.08152 32.6316 9.39946 32.866 9.63388C33.1005 9.8683 33.4184 10 33.7499 10C34.0814 10 34.3994 9.8683 34.6338 9.63388C34.8682 9.39946 34.9999 9.08152 34.9999 8.75C34.9999 8.41848 34.8682 8.10053 34.6338 7.86611C34.3994 7.63169 34.0814 7.5 33.7499 7.5ZM9.58325 10.8333H15.4556C15.7366 10.8333 16.006 10.9261 16.2255 11.0986C16.226 11.0992 16.2266 11.0997 16.2271 11.1003L20.1334 14.1667H8.33325V12.0833C8.33325 11.3779 8.87784 10.8333 9.58325 10.8333ZM33.7499 11.6667C33.4184 11.6667 33.1005 11.7984 32.866 12.0328C32.6316 12.2672 32.4999 12.5851 32.4999 12.9167C32.4999 13.2482 32.6316 13.5661 32.866 13.8005C33.1005 14.035 33.4184 14.1667 33.7499 14.1667C34.0814 14.1667 34.3994 14.035 34.6338 13.8005C34.8682 13.5661 34.9999 13.2482 34.9999 12.9167C34.9999 12.5851 34.8682 12.2672 34.6338 12.0328C34.3994 11.7984 34.0814 11.6667 33.7499 11.6667ZM33.7499 15.8333C33.4184 15.8333 33.1005 15.965 32.866 16.1994C32.6316 16.4339 32.4999 16.7518 32.4999 17.0833C32.4999 17.4149 32.6316 17.7328 32.866 17.9672C33.1005 18.2016 33.4184 18.3333 33.7499 18.3333C34.0814 18.3333 34.3994 18.2016 34.6338 17.9672C34.8682 17.7328 34.9999 17.4149 34.9999 17.0833C34.9999 16.7518 34.8682 16.4339 34.6338 16.1994C34.3994 15.965 34.0814 15.8333 33.7499 15.8333ZM8.33325 16.6667H22.4999V18.75C22.4999 19.4554 21.9553 20 21.2499 20H9.58325C8.87784 20 8.33325 19.4554 8.33325 18.75V16.6667ZM33.7304 19.9821C33.3991 19.9873 33.0835 20.1237 32.8528 20.3614C32.6221 20.5992 32.4952 20.9188 32.4999 21.25V22.9167C32.4999 23.2482 32.6317 23.5661 32.8661 23.8005C33.1005 24.0349 33.4184 24.1666 33.7499 24.1667C34.4553 24.1667 34.9999 24.7112 34.9999 25.4167C34.9999 26.1221 34.4553 26.6667 33.7499 26.6667C33.3257 26.6667 32.965 26.4637 32.7375 26.1507C32.6431 26.0129 32.5219 25.8955 32.3813 25.8053C32.2406 25.7151 32.0833 25.6541 31.9187 25.6257C31.754 25.5973 31.5854 25.6023 31.4227 25.6402C31.26 25.6782 31.1065 25.7483 30.9714 25.8466C30.8363 25.9448 30.7222 26.0691 30.6359 26.2122C30.5497 26.3553 30.493 26.5142 30.4692 26.6796C30.4454 26.845 30.4549 27.0134 30.4973 27.175C30.5398 27.3366 30.6141 27.4881 30.7161 27.6204C31.3969 28.5574 32.5108 29.1667 33.7499 29.1667C35.8062 29.1667 37.4999 27.4729 37.4999 25.4167C37.4999 23.8026 36.4433 22.4457 34.9999 21.9222V21.25C35.0023 21.0827 34.9711 20.9166 34.9081 20.7616C34.8452 20.6066 34.7517 20.4658 34.6333 20.3475C34.5149 20.2293 34.374 20.136 34.2189 20.0732C34.0638 20.0105 33.8977 19.9795 33.7304 19.9821ZM8.74992 24.1667C5.77302 24.1667 3.33325 26.6064 3.33325 29.5833C3.33325 32.5602 5.77302 35 8.74992 35H22.9166C25.8935 35 28.3333 32.5602 28.3333 29.5833C28.3333 26.6064 25.8935 24.1667 22.9166 24.1667H8.74992ZM8.74992 26.6667H22.9166C24.543 26.6667 25.8333 27.9569 25.8333 29.5833C25.8333 31.2098 24.543 32.5 22.9166 32.5H8.74992C7.12349 32.5 5.83325 31.2098 5.83325 29.5833C5.83325 27.9569 7.12349 26.6667 8.74992 26.6667ZM9.58325 28.3333C9.25173 28.3333 8.93379 28.465 8.69937 28.6994C8.46495 28.9339 8.33325 29.2518 8.33325 29.5833C8.33325 29.9149 8.46495 30.2328 8.69937 30.4672C8.93379 30.7016 9.25173 30.8333 9.58325 30.8333C9.91477 30.8333 10.2327 30.7016 10.4671 30.4672C10.7016 30.2328 10.8333 29.9149 10.8333 29.5833C10.8333 29.2518 10.7016 28.9339 10.4671 28.6994C10.2327 28.465 9.91477 28.3333 9.58325 28.3333ZM13.7499 28.3333C13.4184 28.3333 13.1005 28.465 12.866 28.6994C12.6316 28.9339 12.4999 29.2518 12.4999 29.5833C12.4999 29.9149 12.6316 30.2328 12.866 30.4672C13.1005 30.7016 13.4184 30.8333 13.7499 30.8333C14.0814 30.8333 14.3994 30.7016 14.6338 30.4672C14.8682 30.2328 14.9999 29.9149 14.9999 29.5833C14.9999 29.2518 14.8682 28.9339 14.6338 28.6994C14.3994 28.465 14.0814 28.3333 13.7499 28.3333ZM17.9166 28.3333C17.5851 28.3333 17.2671 28.465 17.0327 28.6994C16.7983 28.9339 16.6666 29.2518 16.6666 29.5833C16.6666 29.9149 16.7983 30.2328 17.0327 30.4672C17.2671 30.7016 17.5851 30.8333 17.9166 30.8333C18.2481 30.8333 18.566 30.7016 18.8005 30.4672C19.0349 30.2328 19.1666 29.9149 19.1666 29.5833C19.1666 29.2518 19.0349 28.9339 18.8005 28.6994C18.566 28.465 18.2481 28.3333 17.9166 28.3333ZM22.0833 28.3333C21.7517 28.3333 21.4338 28.465 21.1994 28.6994C20.9649 28.9339 20.8333 29.2518 20.8333 29.5833C20.8333 29.9149 20.9649 30.2328 21.1994 30.4672C21.4338 30.7016 21.7517 30.8333 22.0833 30.8333C22.4148 30.8333 22.7327 30.7016 22.9671 30.4672C23.2016 30.2328 23.3333 29.9149 23.3333 29.5833C23.3333 29.2518 23.2016 28.9339 22.9671 28.6994C22.7327 28.465 22.4148 28.3333 22.0833 28.3333Z" fill="black"/>
</svg>
