<svg width="26" height="26" viewBox="0 0 26 26" fill="none" xmlns="http://www.w3.org/2000/svg">
<path d="M22.2866 3.26264C21.9265 3.22446 21.5352 3.28069 21.1419 3.43615C20.6544 3.6279 13.0156 6.84123 5.89486 9.83881L3.54199 10.829C2.63091 11.1985 2.1709 11.7993 2.1709 12.6085C2.1709 13.1751 2.41069 13.9436 3.55469 14.3964L7.5262 15.9876C7.86962 17.0178 8.66726 19.4099 8.86768 20.0458C8.98684 20.4228 9.28784 21.3726 10.0483 21.5947C10.2043 21.6478 10.3671 21.6751 10.5329 21.6751C11.0128 21.6751 11.3583 21.4517 11.5273 21.3217L14.0516 19.1868L17.1175 22.0221C17.2356 22.1423 17.8606 22.7499 18.7002 22.7499C19.7478 22.7499 20.5424 21.8779 20.7082 21.034C20.7981 20.5714 23.755 5.7276 23.755 5.72976C24.0205 4.53918 23.5432 3.92156 23.2367 3.65831C22.9739 3.43352 22.6467 3.30083 22.2866 3.26264ZM21.5693 5.60281C21.1609 7.65031 18.9345 18.8264 18.5965 20.4373L14.1151 16.2923L11.0745 18.8673L11.9167 15.5729C11.9167 15.5729 17.7261 9.69238 18.076 9.35004C18.3577 9.07596 18.4167 8.97988 18.4167 8.88455C18.4167 8.7578 18.3514 8.66661 18.2008 8.66661C18.0654 8.66661 17.8815 8.79638 17.784 8.85704C16.5454 9.62926 11.2711 12.634 8.67513 14.1108L4.90885 12.6064L6.73698 11.8383C11.3942 9.87749 19.6887 6.38498 21.5693 5.60281Z" fill="#04A3E9"/>
</svg>
