<svg width="22" height="22" viewBox="0 0 22 22" fill="none" xmlns="http://www.w3.org/2000/svg">
<g id="Tracking">
<path id="Vector" d="M2.75 1.83337V3.66671H6.51335C5.97641 4.19239 5.53663 4.81363 5.20996 5.50004H2.75V7.33337H4.65674C4.61362 7.63376 4.58333 7.93773 4.58333 8.25004C4.58333 8.54467 4.6107 8.85203 4.66032 9.16671H2.75V11H5.15983C5.38181 11.6049 5.65926 12.2203 5.96908 12.8334H2.75V14.6667H7.00749C8.82686 17.6553 11 20.1667 11 20.1667C11 20.1667 17.4167 12.8334 17.4167 8.25004C17.4167 4.70621 14.5438 1.83337 11 1.83337H2.75ZM11 3.66671C13.5272 3.66671 15.5833 5.72279 15.5833 8.25004C15.5833 10.5582 13.1487 14.4723 11 17.2681C8.85133 14.4723 6.41667 10.5582 6.41667 8.25004C6.41667 5.72279 8.47275 3.66671 11 3.66671ZM11 6.41671C10.5138 6.41671 10.0475 6.60986 9.70364 6.95368C9.35982 7.29749 9.16667 7.76381 9.16667 8.25004C9.16667 8.73627 9.35982 9.20259 9.70364 9.5464C10.0475 9.89022 10.5138 10.0834 11 10.0834C11.4862 10.0834 11.9525 9.89022 12.2964 9.5464C12.6402 9.20259 12.8333 8.73627 12.8333 8.25004C12.8333 7.76381 12.6402 7.29749 12.2964 6.95368C11.9525 6.60986 11.4862 6.41671 11 6.41671Z" fill="#D70222"/>
</g>
</svg>
