<svg width="26" height="26" viewBox="0 0 26 26" fill="none" xmlns="http://www.w3.org/2000/svg">
<path d="M24.7882 19.0678C23.8148 17.316 21.3074 15.2111 20.2723 14.2952C19.989 14.0444 19.9587 13.6105 20.2165 13.3332C22.192 11.2104 23.772 8.77124 24.3158 7.29737C24.5558 6.64628 24.0591 5.95837 23.3593 5.95837H21.3264C20.6563 5.95837 20.2642 6.19887 20.0773 6.58182C18.4355 9.94612 17.0272 11.4021 16.0413 12.2531C15.4894 12.7297 14.6287 12.3349 14.6287 11.6096C14.6287 10.2121 14.6287 8.40562 14.6287 7.12457C14.6287 6.50328 14.1206 6.00062 13.4939 6.00062L9.78021 5.95837C9.31275 5.95837 9.04571 6.48757 9.32629 6.85862L9.93946 7.73882C10.1702 8.04378 10.2948 8.41482 10.2948 8.79562L10.2915 12.7595C10.2915 13.4491 9.45575 13.786 8.95959 13.3028C7.28096 11.6681 5.82442 8.32978 5.30009 6.73349C5.14842 6.27145 4.71563 5.95945 4.22488 5.95837L2.22234 5.95349C1.47105 5.95349 0.921795 6.66578 1.126 7.38295C2.95575 13.8055 6.71004 19.9155 13.4007 20.578C14.0599 20.643 14.6287 20.1121 14.6287 19.4551V17.3718C14.6287 16.7744 15.0972 16.2609 15.6995 16.2457C15.7207 16.2452 15.7418 16.2452 15.7629 16.2452C17.5325 16.2452 19.5145 18.8208 20.2078 20.0254C20.4072 20.3721 20.7798 20.5834 21.1828 20.5834H23.8765C24.6625 20.5834 25.1668 19.7497 24.7882 19.0678Z" fill="#04A3E9"/>
</svg>
