<svg width="26" height="26" viewBox="0 0 26 26" fill="none" xmlns="http://www.w3.org/2000/svg">
<path d="M2.63672 23.4558L4.09597 18.1285C3.19572 16.5696 2.7223 14.8005 2.72284 12.9887C2.72555 7.32012 7.33839 2.70837 13.0075 2.70837C15.7586 2.70946 18.3402 3.78033 20.2821 5.72329C22.2234 7.66679 23.2926 10.2495 23.2915 12.9968C23.2894 18.6653 18.6755 23.2776 13.0075 23.2776H13.0031C11.2823 23.2771 9.59063 22.8454 8.08859 22.0258L2.63672 23.4558Z" fill="white"/>
<path d="M2.63681 23.7266C2.56531 23.7266 2.49597 23.6985 2.44452 23.6465C2.37681 23.5777 2.35027 23.4775 2.37572 23.3848L3.80518 18.1653C2.91902 16.5913 2.45156 14.8038 2.45264 12.9892C2.45481 7.17058 7.18952 2.4375 13.0076 2.4375C15.8296 2.43858 18.4811 3.53763 20.4739 5.53204C22.4667 7.527 23.5636 10.1779 23.5625 12.9967C23.5603 18.8148 18.8251 23.5484 13.0076 23.5484C11.2802 23.5479 9.57122 23.1216 8.05456 22.315L2.7056 23.7174C2.68285 23.7239 2.6601 23.7266 2.63681 23.7266Z" fill="white"/>
<path d="M13.0076 2.70829C15.7587 2.70938 18.3403 3.78025 20.2822 5.72321C22.2235 7.66671 23.2928 10.2494 23.2917 12.9967C23.2895 18.6652 18.6756 23.2775 13.0076 23.2775H13.0033C11.2824 23.277 9.59078 22.8453 8.08873 22.0257L2.63686 23.4557L4.09611 18.1285C3.19586 16.5695 2.72244 14.8005 2.72299 12.9886C2.72569 7.32004 7.33853 2.70829 13.0076 2.70829ZM13.0076 2.16663C7.04061 2.16663 2.18403 7.02104 2.18132 12.9886C2.18078 14.8124 2.64119 16.6096 3.51436 18.2005L2.11415 23.3133C2.06324 23.5002 2.11524 23.6995 2.25174 23.8371C2.35465 23.9411 2.49386 23.998 2.63686 23.998C2.6829 23.998 2.72894 23.992 2.77444 23.9801L8.02157 22.6042C9.5534 23.3994 11.2705 23.8192 13.0033 23.8197C18.9746 23.8197 23.8312 18.9648 23.8339 12.9973C23.835 10.1053 22.7099 7.38613 20.6662 5.34079C18.6214 3.29492 15.9017 2.16771 13.0076 2.16663Z" fill="#CFD8DC"/>
<path d="M19.0536 6.9507C17.4395 5.33545 15.2939 4.44549 13.0103 4.44495C8.29561 4.44495 4.46115 8.27778 4.45898 12.9892C4.45844 14.6039 4.91019 16.1758 5.76603 17.537L5.96969 17.8604L5.10573 21.0134L8.34111 20.1652L8.65365 20.3504C9.96557 21.1294 11.4703 21.541 13.0043 21.5416H13.0076C17.719 21.5416 21.5534 17.7082 21.5551 12.9962C21.5556 10.7131 20.6678 8.56595 19.0536 6.9507Z" fill="#40C351"/>
<path fill-rule="evenodd" clip-rule="evenodd" d="M10.4368 8.6911C10.2445 8.26319 10.0419 8.25452 9.8583 8.24694C9.70826 8.24044 9.53709 8.24098 9.36592 8.24098C9.19476 8.24098 8.91634 8.30544 8.68071 8.56273C8.44509 8.82002 7.78101 9.44131 7.78101 10.7056C7.78101 11.9698 8.70184 13.1918 8.83021 13.363C8.95859 13.5341 10.608 16.2116 13.2199 17.2419C15.3903 18.0977 15.8323 17.9276 16.3036 17.8848C16.7748 17.842 17.824 17.2635 18.038 16.6634C18.252 16.0632 18.252 15.5491 18.188 15.4419C18.1236 15.3346 17.9524 15.2707 17.6957 15.1418C17.4389 15.0129 16.1752 14.3916 15.9396 14.306C15.704 14.2204 15.5328 14.1776 15.3611 14.4349C15.1899 14.6917 14.6975 15.2707 14.5475 15.4419C14.3975 15.6136 14.2474 15.6353 13.9907 15.5064C13.7339 15.3774 12.9063 15.1066 11.9242 14.2313C11.1605 13.5504 10.6448 12.7092 10.4948 12.4519C10.3447 12.1951 10.4785 12.0559 10.6074 11.9276C10.7228 11.8122 10.8642 11.6275 10.9931 11.4774C11.1215 11.3274 11.1643 11.2201 11.2498 11.049C11.3354 10.8773 11.2926 10.7272 11.2282 10.5989C11.1648 10.4699 10.6654 9.19919 10.4368 8.6911Z" fill="white"/>
</svg>
